%TF.GenerationSoftware,KiCad,Pcbnew,8.0.1*%
%TF.CreationDate,2024-04-11T23:32:48+09:00*%
%TF.ProjectId,Calciumor_SwitchCover,43616c63-6975-46d6-9f72-5f5377697463,rev?*%
%TF.SameCoordinates,Original*%
%TF.FileFunction,Copper,L1,Top*%
%TF.FilePolarity,Positive*%
%FSLAX46Y46*%
G04 Gerber Fmt 4.6, Leading zero omitted, Abs format (unit mm)*
G04 Created by KiCad (PCBNEW 8.0.1) date 2024-04-11 23:32:48*
%MOMM*%
%LPD*%
G01*
G04 APERTURE LIST*
%TA.AperFunction,Conductor*%
%ADD10C,0.400000*%
%TD*%
%TA.AperFunction,Conductor*%
%ADD11C,0.200000*%
%TD*%
%TA.AperFunction,ViaPad*%
%ADD12C,0.800000*%
%TD*%
G04 APERTURE END LIST*
D10*
%TO.N,Earth*%
X140600000Y-54250000D02*
X145400000Y-54250000D01*
X140600000Y-56750000D02*
X145400000Y-56750000D01*
X142000000Y-54250000D02*
G75*
G02*
X142000000Y-51750000I0J1250000D01*
G01*
D11*
X144700000Y-54050000D02*
X145350000Y-53950000D01*
X145350000Y-51750000D02*
X145050000Y-51950000D01*
X141300000Y-54150000D02*
X140950000Y-54050000D01*
X140550000Y-51750000D02*
X141050000Y-52000000D01*
D10*
X144000000Y-51750000D02*
G75*
G02*
X144000000Y-54250000I0J-1250000D01*
G01*
X142000000Y-56750000D02*
G75*
G02*
X142000000Y-54250000I0J1250000D01*
G01*
D11*
X144700000Y-56550000D02*
X145350000Y-56450000D01*
X145350000Y-54250000D02*
X145050000Y-54450000D01*
X141300000Y-56650000D02*
X140950000Y-56550000D01*
X140550000Y-54250000D02*
X141050000Y-54500000D01*
D10*
X144000000Y-54250000D02*
G75*
G02*
X144000000Y-56750000I0J-1250000D01*
G01*
X144000000Y-56750000D02*
G75*
G02*
X144000000Y-59250000I0J-1250000D01*
G01*
D11*
X141300000Y-56950000D02*
X140650000Y-57050000D01*
X140650000Y-59250000D02*
X140950000Y-59050000D01*
X144700000Y-56850000D02*
X145050000Y-56950000D01*
X145450000Y-59250000D02*
X144950000Y-59000000D01*
D10*
X142000000Y-59250000D02*
G75*
G02*
X142000000Y-56750000I0J1250000D01*
G01*
D11*
X144700000Y-61550000D02*
X145350000Y-61450000D01*
X141300000Y-61650000D02*
X140950000Y-61550000D01*
X140550000Y-59250000D02*
X141050000Y-59500000D01*
X145350000Y-59250000D02*
X145050000Y-59450000D01*
D10*
X144000000Y-59250000D02*
G75*
G02*
X144000000Y-61750000I0J-1250000D01*
G01*
X140550000Y-59250000D02*
X145350000Y-59250000D01*
X142000000Y-61750000D02*
G75*
G02*
X142000000Y-59250000I0J1250000D01*
G01*
D11*
X102800000Y-38600000D02*
G75*
G02*
X102400000Y-38200000I0J400000D01*
G01*
X106600000Y-38200000D02*
G75*
G02*
X106200000Y-38600000I-400000J0D01*
G01*
X90600000Y-38400000D02*
G75*
G02*
X90200000Y-38800000I-400000J0D01*
G01*
X87800000Y-38800000D02*
G75*
G02*
X87400000Y-38400000I0J400000D01*
G01*
%TD*%
D12*
%TO.N,Earth*%
X108500000Y-103500000D03*
X127500000Y-122500000D03*
X89500000Y-84500000D03*
X89500000Y-160500000D03*
X127500000Y-84500000D03*
X108500000Y-141500000D03*
X127500000Y-160500000D03*
X89500000Y-122500000D03*
%TD*%
%TA.AperFunction,Conductor*%
%TO.N,Earth*%
G36*
X87443039Y-35520185D02*
G01*
X87488794Y-35572989D01*
X87500000Y-35624500D01*
X87500000Y-38700000D01*
X90500000Y-38700000D01*
X90500000Y-35624500D01*
X90519685Y-35557461D01*
X90572489Y-35511706D01*
X90624000Y-35500500D01*
X102376000Y-35500500D01*
X102443039Y-35520185D01*
X102488794Y-35572989D01*
X102500000Y-35624500D01*
X102500000Y-38500000D01*
X106500000Y-38500000D01*
X106500000Y-35624500D01*
X106519685Y-35557461D01*
X106572489Y-35511706D01*
X106624000Y-35500500D01*
X143934108Y-35500500D01*
X143996249Y-35500500D01*
X144003736Y-35500726D01*
X144293796Y-35518271D01*
X144308657Y-35520075D01*
X144512662Y-35557461D01*
X144590798Y-35571780D01*
X144605335Y-35575363D01*
X144879172Y-35660695D01*
X144893163Y-35666000D01*
X145154743Y-35783727D01*
X145167989Y-35790680D01*
X145413465Y-35939075D01*
X145425776Y-35947573D01*
X145651573Y-36124473D01*
X145662781Y-36134403D01*
X145865596Y-36337218D01*
X145875526Y-36348426D01*
X145995481Y-36501538D01*
X146052422Y-36574217D01*
X146060928Y-36586540D01*
X146209316Y-36832004D01*
X146216275Y-36845263D01*
X146333997Y-37106831D01*
X146339306Y-37120832D01*
X146424635Y-37394663D01*
X146428219Y-37409201D01*
X146479923Y-37691340D01*
X146481728Y-37706205D01*
X146499274Y-37996263D01*
X146499500Y-38003750D01*
X146499500Y-176996249D01*
X146499274Y-177003736D01*
X146481728Y-177293794D01*
X146479923Y-177308659D01*
X146428219Y-177590798D01*
X146424635Y-177605336D01*
X146339306Y-177879167D01*
X146333997Y-177893168D01*
X146216275Y-178154736D01*
X146209316Y-178167995D01*
X146060928Y-178413459D01*
X146052422Y-178425782D01*
X145875526Y-178651573D01*
X145865596Y-178662781D01*
X145662781Y-178865596D01*
X145651573Y-178875526D01*
X145425782Y-179052422D01*
X145413459Y-179060928D01*
X145167995Y-179209316D01*
X145154736Y-179216275D01*
X144893168Y-179333997D01*
X144879167Y-179339306D01*
X144605336Y-179424635D01*
X144590798Y-179428219D01*
X144308659Y-179479923D01*
X144293794Y-179481728D01*
X144003736Y-179499274D01*
X143996249Y-179499500D01*
X73003751Y-179499500D01*
X72996264Y-179499274D01*
X72706205Y-179481728D01*
X72691340Y-179479923D01*
X72409201Y-179428219D01*
X72394663Y-179424635D01*
X72120832Y-179339306D01*
X72106831Y-179333997D01*
X71845263Y-179216275D01*
X71832004Y-179209316D01*
X71586540Y-179060928D01*
X71574217Y-179052422D01*
X71348426Y-178875526D01*
X71337218Y-178865596D01*
X71134403Y-178662781D01*
X71124473Y-178651573D01*
X70947573Y-178425776D01*
X70939075Y-178413465D01*
X70790680Y-178167989D01*
X70783727Y-178154743D01*
X70666000Y-177893163D01*
X70660693Y-177879167D01*
X70575364Y-177605336D01*
X70571780Y-177590798D01*
X70520076Y-177308659D01*
X70518271Y-177293794D01*
X70500726Y-177003736D01*
X70500500Y-176996249D01*
X70500500Y-176778846D01*
X72499500Y-176778846D01*
X72530261Y-176933489D01*
X72530264Y-176933501D01*
X72590602Y-177079172D01*
X72590609Y-177079185D01*
X72678210Y-177210288D01*
X72678213Y-177210292D01*
X72789707Y-177321786D01*
X72789711Y-177321789D01*
X72920814Y-177409390D01*
X72920827Y-177409397D01*
X73066498Y-177469735D01*
X73066503Y-177469737D01*
X73221153Y-177500499D01*
X73221156Y-177500500D01*
X73221158Y-177500500D01*
X105778844Y-177500500D01*
X105778845Y-177500499D01*
X105933497Y-177469737D01*
X106079179Y-177409394D01*
X106210289Y-177321789D01*
X106321789Y-177210289D01*
X106409394Y-177079179D01*
X106469737Y-176933497D01*
X106500499Y-176778846D01*
X110499500Y-176778846D01*
X110530261Y-176933489D01*
X110530264Y-176933501D01*
X110590602Y-177079172D01*
X110590609Y-177079185D01*
X110678210Y-177210288D01*
X110678213Y-177210292D01*
X110789707Y-177321786D01*
X110789711Y-177321789D01*
X110920814Y-177409390D01*
X110920827Y-177409397D01*
X111066498Y-177469735D01*
X111066503Y-177469737D01*
X111221153Y-177500499D01*
X111221156Y-177500500D01*
X111221158Y-177500500D01*
X124778844Y-177500500D01*
X124778845Y-177500499D01*
X124933497Y-177469737D01*
X125079179Y-177409394D01*
X125210289Y-177321789D01*
X125321789Y-177210289D01*
X125409394Y-177079179D01*
X125469737Y-176933497D01*
X125500499Y-176778846D01*
X127499500Y-176778846D01*
X127530261Y-176933489D01*
X127530264Y-176933501D01*
X127590602Y-177079172D01*
X127590609Y-177079185D01*
X127678210Y-177210288D01*
X127678213Y-177210292D01*
X127789707Y-177321786D01*
X127789711Y-177321789D01*
X127920814Y-177409390D01*
X127920827Y-177409397D01*
X128066498Y-177469735D01*
X128066503Y-177469737D01*
X128221153Y-177500499D01*
X128221156Y-177500500D01*
X128221158Y-177500500D01*
X143778844Y-177500500D01*
X143778845Y-177500499D01*
X143933497Y-177469737D01*
X144079179Y-177409394D01*
X144210289Y-177321789D01*
X144321789Y-177210289D01*
X144409394Y-177079179D01*
X144469737Y-176933497D01*
X144500500Y-176778842D01*
X144500500Y-176700000D01*
X144500500Y-176634108D01*
X144500500Y-144234108D01*
X144500500Y-144221158D01*
X144500500Y-144221155D01*
X144500499Y-144221153D01*
X144469738Y-144066510D01*
X144469737Y-144066503D01*
X144469735Y-144066498D01*
X144409397Y-143920827D01*
X144409390Y-143920814D01*
X144321789Y-143789711D01*
X144321786Y-143789707D01*
X144210292Y-143678213D01*
X144210288Y-143678210D01*
X144079185Y-143590609D01*
X144079172Y-143590602D01*
X143933501Y-143530264D01*
X143933489Y-143530261D01*
X143778845Y-143499500D01*
X143778842Y-143499500D01*
X143765892Y-143499500D01*
X128365892Y-143499500D01*
X128300000Y-143499500D01*
X128221158Y-143499500D01*
X128221155Y-143499500D01*
X128066510Y-143530261D01*
X128066498Y-143530264D01*
X127920827Y-143590602D01*
X127920814Y-143590609D01*
X127789711Y-143678210D01*
X127789707Y-143678213D01*
X127678213Y-143789707D01*
X127678210Y-143789711D01*
X127590609Y-143920814D01*
X127590602Y-143920827D01*
X127530264Y-144066498D01*
X127530261Y-144066510D01*
X127499500Y-144221153D01*
X127499500Y-153278846D01*
X127530261Y-153433489D01*
X127530264Y-153433501D01*
X127590602Y-153579172D01*
X127590609Y-153579185D01*
X127678210Y-153710288D01*
X127678213Y-153710292D01*
X127789707Y-153821786D01*
X127789711Y-153821789D01*
X127920814Y-153909390D01*
X127920827Y-153909397D01*
X128066498Y-153969735D01*
X128066503Y-153969737D01*
X128221153Y-154000499D01*
X128221156Y-154000500D01*
X128221158Y-154000500D01*
X128234108Y-154000500D01*
X129375500Y-154000500D01*
X129442539Y-154020185D01*
X129488294Y-154072989D01*
X129499500Y-154124500D01*
X129499500Y-166875500D01*
X129479815Y-166942539D01*
X129427011Y-166988294D01*
X129375500Y-166999500D01*
X128221155Y-166999500D01*
X128066510Y-167030261D01*
X128066498Y-167030264D01*
X127920827Y-167090602D01*
X127920814Y-167090609D01*
X127789711Y-167178210D01*
X127789707Y-167178213D01*
X127678213Y-167289707D01*
X127678210Y-167289711D01*
X127590609Y-167420814D01*
X127590602Y-167420827D01*
X127530264Y-167566498D01*
X127530261Y-167566510D01*
X127499500Y-167721153D01*
X127499500Y-176778846D01*
X125500499Y-176778846D01*
X125500500Y-176778842D01*
X125500500Y-176700000D01*
X125500500Y-176634108D01*
X125500500Y-163234108D01*
X125500500Y-163221158D01*
X125500500Y-163221155D01*
X125500499Y-163221153D01*
X125469738Y-163066510D01*
X125469737Y-163066503D01*
X125414645Y-162933497D01*
X125409397Y-162920827D01*
X125409390Y-162920814D01*
X125321789Y-162789711D01*
X125321786Y-162789707D01*
X125210292Y-162678213D01*
X125210288Y-162678210D01*
X125079185Y-162590609D01*
X125079172Y-162590602D01*
X124933501Y-162530264D01*
X124933489Y-162530261D01*
X124778845Y-162499500D01*
X124778842Y-162499500D01*
X124765892Y-162499500D01*
X111365892Y-162499500D01*
X111300000Y-162499500D01*
X111221158Y-162499500D01*
X111221155Y-162499500D01*
X111066510Y-162530261D01*
X111066498Y-162530264D01*
X110920827Y-162590602D01*
X110920814Y-162590609D01*
X110789711Y-162678210D01*
X110789707Y-162678213D01*
X110678213Y-162789707D01*
X110678210Y-162789711D01*
X110590609Y-162920814D01*
X110590602Y-162920827D01*
X110530264Y-163066498D01*
X110530261Y-163066510D01*
X110499500Y-163221153D01*
X110499500Y-176778846D01*
X106500499Y-176778846D01*
X106500500Y-176778842D01*
X106500500Y-176700000D01*
X106500500Y-176634108D01*
X106500500Y-161234108D01*
X106500500Y-161221158D01*
X106500500Y-161221155D01*
X106500499Y-161221153D01*
X106469738Y-161066510D01*
X106469737Y-161066503D01*
X106469735Y-161066498D01*
X106409397Y-160920827D01*
X106409390Y-160920814D01*
X106321789Y-160789711D01*
X106321786Y-160789707D01*
X106210292Y-160678213D01*
X106210288Y-160678210D01*
X106079185Y-160590609D01*
X106079172Y-160590602D01*
X105933501Y-160530264D01*
X105933489Y-160530261D01*
X105778845Y-160499500D01*
X105778842Y-160499500D01*
X105765892Y-160499500D01*
X96865892Y-160499500D01*
X96800000Y-160499500D01*
X96721158Y-160499500D01*
X96721155Y-160499500D01*
X96566510Y-160530261D01*
X96566498Y-160530264D01*
X96420827Y-160590602D01*
X96420814Y-160590609D01*
X96289711Y-160678210D01*
X96289707Y-160678213D01*
X96178213Y-160789707D01*
X96178210Y-160789711D01*
X96090609Y-160920814D01*
X96090602Y-160920827D01*
X96030264Y-161066498D01*
X96030261Y-161066510D01*
X95999500Y-161221153D01*
X95999500Y-162375500D01*
X95979815Y-162442539D01*
X95927011Y-162488294D01*
X95875500Y-162499500D01*
X83124500Y-162499500D01*
X83057461Y-162479815D01*
X83011706Y-162427011D01*
X83000500Y-162375500D01*
X83000500Y-161221155D01*
X83000499Y-161221153D01*
X82969738Y-161066510D01*
X82969737Y-161066503D01*
X82969735Y-161066498D01*
X82909397Y-160920827D01*
X82909390Y-160920814D01*
X82821789Y-160789711D01*
X82821786Y-160789707D01*
X82710292Y-160678213D01*
X82710288Y-160678210D01*
X82579185Y-160590609D01*
X82579172Y-160590602D01*
X82433501Y-160530264D01*
X82433489Y-160530261D01*
X82278845Y-160499500D01*
X82278842Y-160499500D01*
X82265892Y-160499500D01*
X73365892Y-160499500D01*
X73300000Y-160499500D01*
X73221158Y-160499500D01*
X73221155Y-160499500D01*
X73066510Y-160530261D01*
X73066498Y-160530264D01*
X72920827Y-160590602D01*
X72920814Y-160590609D01*
X72789711Y-160678210D01*
X72789707Y-160678213D01*
X72678213Y-160789707D01*
X72678210Y-160789711D01*
X72590609Y-160920814D01*
X72590602Y-160920827D01*
X72530264Y-161066498D01*
X72530261Y-161066510D01*
X72499500Y-161221153D01*
X72499500Y-176778846D01*
X70500500Y-176778846D01*
X70500500Y-157778846D01*
X72499500Y-157778846D01*
X72530261Y-157933489D01*
X72530264Y-157933501D01*
X72590602Y-158079172D01*
X72590609Y-158079185D01*
X72678210Y-158210288D01*
X72678213Y-158210292D01*
X72789707Y-158321786D01*
X72789711Y-158321789D01*
X72920814Y-158409390D01*
X72920827Y-158409397D01*
X73066498Y-158469735D01*
X73066503Y-158469737D01*
X73221153Y-158500499D01*
X73221156Y-158500500D01*
X73221158Y-158500500D01*
X86778844Y-158500500D01*
X86778845Y-158500499D01*
X86933497Y-158469737D01*
X87079179Y-158409394D01*
X87210289Y-158321789D01*
X87321789Y-158210289D01*
X87409394Y-158079179D01*
X87469737Y-157933497D01*
X87500499Y-157778846D01*
X91499500Y-157778846D01*
X91530261Y-157933489D01*
X91530264Y-157933501D01*
X91590602Y-158079172D01*
X91590609Y-158079185D01*
X91678210Y-158210288D01*
X91678213Y-158210292D01*
X91789707Y-158321786D01*
X91789711Y-158321789D01*
X91920814Y-158409390D01*
X91920827Y-158409397D01*
X92066498Y-158469735D01*
X92066503Y-158469737D01*
X92221153Y-158500499D01*
X92221156Y-158500500D01*
X92221158Y-158500500D01*
X105778844Y-158500500D01*
X105778845Y-158500499D01*
X105933497Y-158469737D01*
X106079179Y-158409394D01*
X106210289Y-158321789D01*
X106321789Y-158210289D01*
X106409394Y-158079179D01*
X106469737Y-157933497D01*
X106500499Y-157778846D01*
X110499500Y-157778846D01*
X110530261Y-157933489D01*
X110530264Y-157933501D01*
X110590602Y-158079172D01*
X110590609Y-158079185D01*
X110678210Y-158210288D01*
X110678213Y-158210292D01*
X110789707Y-158321786D01*
X110789711Y-158321789D01*
X110920814Y-158409390D01*
X110920827Y-158409397D01*
X111066498Y-158469735D01*
X111066503Y-158469737D01*
X111221153Y-158500499D01*
X111221156Y-158500500D01*
X111221158Y-158500500D01*
X124778844Y-158500500D01*
X124778845Y-158500499D01*
X124933497Y-158469737D01*
X125079179Y-158409394D01*
X125210289Y-158321789D01*
X125321789Y-158210289D01*
X125409394Y-158079179D01*
X125469737Y-157933497D01*
X125500500Y-157778842D01*
X125500500Y-157700000D01*
X125500500Y-157634108D01*
X125500500Y-144234108D01*
X125500500Y-144221158D01*
X125500500Y-144221155D01*
X125500499Y-144221153D01*
X125469738Y-144066510D01*
X125469737Y-144066503D01*
X125469735Y-144066498D01*
X125409397Y-143920827D01*
X125409390Y-143920814D01*
X125321789Y-143789711D01*
X125321786Y-143789707D01*
X125210292Y-143678213D01*
X125210288Y-143678210D01*
X125079185Y-143590609D01*
X125079172Y-143590602D01*
X124933501Y-143530264D01*
X124933489Y-143530261D01*
X124778845Y-143499500D01*
X124778842Y-143499500D01*
X124765892Y-143499500D01*
X111365892Y-143499500D01*
X111300000Y-143499500D01*
X111221158Y-143499500D01*
X111221155Y-143499500D01*
X111066510Y-143530261D01*
X111066498Y-143530264D01*
X110920827Y-143590602D01*
X110920814Y-143590609D01*
X110789711Y-143678210D01*
X110789707Y-143678213D01*
X110678213Y-143789707D01*
X110678210Y-143789711D01*
X110590609Y-143920814D01*
X110590602Y-143920827D01*
X110530264Y-144066498D01*
X110530261Y-144066510D01*
X110499500Y-144221153D01*
X110499500Y-157778846D01*
X106500499Y-157778846D01*
X106500500Y-157778842D01*
X106500500Y-157700000D01*
X106500500Y-157634108D01*
X106500500Y-144234108D01*
X106500500Y-144221158D01*
X106500500Y-144221155D01*
X106500499Y-144221153D01*
X106469738Y-144066510D01*
X106469737Y-144066503D01*
X106469735Y-144066498D01*
X106409397Y-143920827D01*
X106409390Y-143920814D01*
X106321789Y-143789711D01*
X106321786Y-143789707D01*
X106210292Y-143678213D01*
X106210288Y-143678210D01*
X106079185Y-143590609D01*
X106079172Y-143590602D01*
X105933501Y-143530264D01*
X105933489Y-143530261D01*
X105778845Y-143499500D01*
X105778842Y-143499500D01*
X105765892Y-143499500D01*
X92365892Y-143499500D01*
X92300000Y-143499500D01*
X92221158Y-143499500D01*
X92221155Y-143499500D01*
X92066510Y-143530261D01*
X92066498Y-143530264D01*
X91920827Y-143590602D01*
X91920814Y-143590609D01*
X91789711Y-143678210D01*
X91789707Y-143678213D01*
X91678213Y-143789707D01*
X91678210Y-143789711D01*
X91590609Y-143920814D01*
X91590602Y-143920827D01*
X91530264Y-144066498D01*
X91530261Y-144066510D01*
X91499500Y-144221153D01*
X91499500Y-157778846D01*
X87500499Y-157778846D01*
X87500500Y-157778842D01*
X87500500Y-157700000D01*
X87500500Y-157634108D01*
X87500500Y-144234108D01*
X87500500Y-144221158D01*
X87500500Y-144221155D01*
X87500499Y-144221153D01*
X87469738Y-144066510D01*
X87469737Y-144066503D01*
X87469735Y-144066498D01*
X87409397Y-143920827D01*
X87409390Y-143920814D01*
X87321789Y-143789711D01*
X87321786Y-143789707D01*
X87210292Y-143678213D01*
X87210288Y-143678210D01*
X87079185Y-143590609D01*
X87079172Y-143590602D01*
X86933501Y-143530264D01*
X86933489Y-143530261D01*
X86778845Y-143499500D01*
X86778842Y-143499500D01*
X86765892Y-143499500D01*
X73365892Y-143499500D01*
X73300000Y-143499500D01*
X73221158Y-143499500D01*
X73221155Y-143499500D01*
X73066510Y-143530261D01*
X73066498Y-143530264D01*
X72920827Y-143590602D01*
X72920814Y-143590609D01*
X72789711Y-143678210D01*
X72789707Y-143678213D01*
X72678213Y-143789707D01*
X72678210Y-143789711D01*
X72590609Y-143920814D01*
X72590602Y-143920827D01*
X72530264Y-144066498D01*
X72530261Y-144066510D01*
X72499500Y-144221153D01*
X72499500Y-157778846D01*
X70500500Y-157778846D01*
X70500500Y-141606286D01*
X88149500Y-141606286D01*
X88182753Y-141816239D01*
X88248444Y-142018414D01*
X88344951Y-142207820D01*
X88469890Y-142379786D01*
X88620213Y-142530109D01*
X88792179Y-142655048D01*
X88792181Y-142655049D01*
X88792184Y-142655051D01*
X88981588Y-142751557D01*
X89183757Y-142817246D01*
X89393713Y-142850500D01*
X89393714Y-142850500D01*
X89606286Y-142850500D01*
X89606287Y-142850500D01*
X89816243Y-142817246D01*
X90018412Y-142751557D01*
X90207816Y-142655051D01*
X90229789Y-142639086D01*
X90379786Y-142530109D01*
X90379788Y-142530106D01*
X90379792Y-142530104D01*
X90530104Y-142379792D01*
X90530106Y-142379788D01*
X90530109Y-142379786D01*
X90655048Y-142207820D01*
X90655047Y-142207820D01*
X90655051Y-142207816D01*
X90751557Y-142018412D01*
X90817246Y-141816243D01*
X90850500Y-141606287D01*
X90850500Y-141606286D01*
X126149500Y-141606286D01*
X126182753Y-141816239D01*
X126248444Y-142018414D01*
X126344951Y-142207820D01*
X126469890Y-142379786D01*
X126620213Y-142530109D01*
X126792179Y-142655048D01*
X126792181Y-142655049D01*
X126792184Y-142655051D01*
X126981588Y-142751557D01*
X127183757Y-142817246D01*
X127393713Y-142850500D01*
X127393714Y-142850500D01*
X127606286Y-142850500D01*
X127606287Y-142850500D01*
X127816243Y-142817246D01*
X128018412Y-142751557D01*
X128207816Y-142655051D01*
X128229789Y-142639086D01*
X128379786Y-142530109D01*
X128379788Y-142530106D01*
X128379792Y-142530104D01*
X128530104Y-142379792D01*
X128530106Y-142379788D01*
X128530109Y-142379786D01*
X128655048Y-142207820D01*
X128655047Y-142207820D01*
X128655051Y-142207816D01*
X128751557Y-142018412D01*
X128817246Y-141816243D01*
X128850500Y-141606287D01*
X128850500Y-141393713D01*
X128817246Y-141183757D01*
X128751557Y-140981588D01*
X128655051Y-140792184D01*
X128655049Y-140792181D01*
X128655048Y-140792179D01*
X128530109Y-140620213D01*
X128379786Y-140469890D01*
X128207820Y-140344951D01*
X128018414Y-140248444D01*
X128018413Y-140248443D01*
X128018412Y-140248443D01*
X127816243Y-140182754D01*
X127816241Y-140182753D01*
X127816240Y-140182753D01*
X127654957Y-140157208D01*
X127606287Y-140149500D01*
X127393713Y-140149500D01*
X127345042Y-140157208D01*
X127183760Y-140182753D01*
X126981585Y-140248444D01*
X126792179Y-140344951D01*
X126620213Y-140469890D01*
X126469890Y-140620213D01*
X126344951Y-140792179D01*
X126248444Y-140981585D01*
X126182753Y-141183760D01*
X126149500Y-141393713D01*
X126149500Y-141606286D01*
X90850500Y-141606286D01*
X90850500Y-141393713D01*
X90817246Y-141183757D01*
X90751557Y-140981588D01*
X90655051Y-140792184D01*
X90655049Y-140792181D01*
X90655048Y-140792179D01*
X90530109Y-140620213D01*
X90379786Y-140469890D01*
X90207820Y-140344951D01*
X90018414Y-140248444D01*
X90018413Y-140248443D01*
X90018412Y-140248443D01*
X89816243Y-140182754D01*
X89816241Y-140182753D01*
X89816240Y-140182753D01*
X89654957Y-140157208D01*
X89606287Y-140149500D01*
X89393713Y-140149500D01*
X89345042Y-140157208D01*
X89183760Y-140182753D01*
X88981585Y-140248444D01*
X88792179Y-140344951D01*
X88620213Y-140469890D01*
X88469890Y-140620213D01*
X88344951Y-140792179D01*
X88248444Y-140981585D01*
X88182753Y-141183760D01*
X88149500Y-141393713D01*
X88149500Y-141606286D01*
X70500500Y-141606286D01*
X70500500Y-138778846D01*
X72499500Y-138778846D01*
X72530261Y-138933489D01*
X72530264Y-138933501D01*
X72590602Y-139079172D01*
X72590609Y-139079185D01*
X72678210Y-139210288D01*
X72678213Y-139210292D01*
X72789707Y-139321786D01*
X72789711Y-139321789D01*
X72920814Y-139409390D01*
X72920827Y-139409397D01*
X73066498Y-139469735D01*
X73066503Y-139469737D01*
X73221153Y-139500499D01*
X73221156Y-139500500D01*
X73221158Y-139500500D01*
X86778844Y-139500500D01*
X86778845Y-139500499D01*
X86933497Y-139469737D01*
X87079179Y-139409394D01*
X87210289Y-139321789D01*
X87321789Y-139210289D01*
X87409394Y-139079179D01*
X87469737Y-138933497D01*
X87500499Y-138778846D01*
X91499500Y-138778846D01*
X91530261Y-138933489D01*
X91530264Y-138933501D01*
X91590602Y-139079172D01*
X91590609Y-139079185D01*
X91678210Y-139210288D01*
X91678213Y-139210292D01*
X91789707Y-139321786D01*
X91789711Y-139321789D01*
X91920814Y-139409390D01*
X91920827Y-139409397D01*
X92066498Y-139469735D01*
X92066503Y-139469737D01*
X92221153Y-139500499D01*
X92221156Y-139500500D01*
X92221158Y-139500500D01*
X105778844Y-139500500D01*
X105778845Y-139500499D01*
X105933497Y-139469737D01*
X106079179Y-139409394D01*
X106210289Y-139321789D01*
X106321789Y-139210289D01*
X106409394Y-139079179D01*
X106469737Y-138933497D01*
X106500499Y-138778846D01*
X110499500Y-138778846D01*
X110530261Y-138933489D01*
X110530264Y-138933501D01*
X110590602Y-139079172D01*
X110590609Y-139079185D01*
X110678210Y-139210288D01*
X110678213Y-139210292D01*
X110789707Y-139321786D01*
X110789711Y-139321789D01*
X110920814Y-139409390D01*
X110920827Y-139409397D01*
X111066498Y-139469735D01*
X111066503Y-139469737D01*
X111221153Y-139500499D01*
X111221156Y-139500500D01*
X111221158Y-139500500D01*
X124778844Y-139500500D01*
X124778845Y-139500499D01*
X124933497Y-139469737D01*
X125079179Y-139409394D01*
X125210289Y-139321789D01*
X125321789Y-139210289D01*
X125409394Y-139079179D01*
X125469737Y-138933497D01*
X125500499Y-138778846D01*
X127499500Y-138778846D01*
X127530261Y-138933489D01*
X127530264Y-138933501D01*
X127590602Y-139079172D01*
X127590609Y-139079185D01*
X127678210Y-139210288D01*
X127678213Y-139210292D01*
X127789707Y-139321786D01*
X127789711Y-139321789D01*
X127920814Y-139409390D01*
X127920827Y-139409397D01*
X128066498Y-139469735D01*
X128066503Y-139469737D01*
X128221153Y-139500499D01*
X128221156Y-139500500D01*
X128221158Y-139500500D01*
X143778844Y-139500500D01*
X143778845Y-139500499D01*
X143933497Y-139469737D01*
X144079179Y-139409394D01*
X144210289Y-139321789D01*
X144321789Y-139210289D01*
X144409394Y-139079179D01*
X144469737Y-138933497D01*
X144500500Y-138778842D01*
X144500500Y-138700000D01*
X144500500Y-138634108D01*
X144500500Y-106234108D01*
X144500500Y-106221158D01*
X144500500Y-106221155D01*
X144500499Y-106221153D01*
X144469738Y-106066510D01*
X144469737Y-106066503D01*
X144469735Y-106066498D01*
X144409397Y-105920827D01*
X144409390Y-105920814D01*
X144321789Y-105789711D01*
X144321786Y-105789707D01*
X144210292Y-105678213D01*
X144210288Y-105678210D01*
X144079185Y-105590609D01*
X144079172Y-105590602D01*
X143933501Y-105530264D01*
X143933489Y-105530261D01*
X143778845Y-105499500D01*
X143778842Y-105499500D01*
X143765892Y-105499500D01*
X128365892Y-105499500D01*
X128300000Y-105499500D01*
X128221158Y-105499500D01*
X128221155Y-105499500D01*
X128066510Y-105530261D01*
X128066498Y-105530264D01*
X127920827Y-105590602D01*
X127920814Y-105590609D01*
X127789711Y-105678210D01*
X127789707Y-105678213D01*
X127678213Y-105789707D01*
X127678210Y-105789711D01*
X127590609Y-105920814D01*
X127590602Y-105920827D01*
X127530264Y-106066498D01*
X127530261Y-106066510D01*
X127499500Y-106221153D01*
X127499500Y-115278846D01*
X127530261Y-115433489D01*
X127530264Y-115433501D01*
X127590602Y-115579172D01*
X127590609Y-115579185D01*
X127678210Y-115710288D01*
X127678213Y-115710292D01*
X127789707Y-115821786D01*
X127789711Y-115821789D01*
X127920814Y-115909390D01*
X127920827Y-115909397D01*
X128066498Y-115969735D01*
X128066503Y-115969737D01*
X128221153Y-116000499D01*
X128221156Y-116000500D01*
X128221158Y-116000500D01*
X128234108Y-116000500D01*
X129375500Y-116000500D01*
X129442539Y-116020185D01*
X129488294Y-116072989D01*
X129499500Y-116124500D01*
X129499500Y-128875500D01*
X129479815Y-128942539D01*
X129427011Y-128988294D01*
X129375500Y-128999500D01*
X128221155Y-128999500D01*
X128066510Y-129030261D01*
X128066498Y-129030264D01*
X127920827Y-129090602D01*
X127920814Y-129090609D01*
X127789711Y-129178210D01*
X127789707Y-129178213D01*
X127678213Y-129289707D01*
X127678210Y-129289711D01*
X127590609Y-129420814D01*
X127590602Y-129420827D01*
X127530264Y-129566498D01*
X127530261Y-129566510D01*
X127499500Y-129721153D01*
X127499500Y-138778846D01*
X125500499Y-138778846D01*
X125500500Y-138778842D01*
X125500500Y-138700000D01*
X125500500Y-138634108D01*
X125500500Y-125234108D01*
X125500500Y-125221158D01*
X125500500Y-125221155D01*
X125500499Y-125221153D01*
X125469738Y-125066510D01*
X125469737Y-125066503D01*
X125469735Y-125066498D01*
X125409397Y-124920827D01*
X125409390Y-124920814D01*
X125321789Y-124789711D01*
X125321786Y-124789707D01*
X125210292Y-124678213D01*
X125210288Y-124678210D01*
X125079185Y-124590609D01*
X125079172Y-124590602D01*
X124933501Y-124530264D01*
X124933489Y-124530261D01*
X124778845Y-124499500D01*
X124778842Y-124499500D01*
X124765892Y-124499500D01*
X111365892Y-124499500D01*
X111300000Y-124499500D01*
X111221158Y-124499500D01*
X111221155Y-124499500D01*
X111066510Y-124530261D01*
X111066498Y-124530264D01*
X110920827Y-124590602D01*
X110920814Y-124590609D01*
X110789711Y-124678210D01*
X110789707Y-124678213D01*
X110678213Y-124789707D01*
X110678210Y-124789711D01*
X110590609Y-124920814D01*
X110590602Y-124920827D01*
X110530264Y-125066498D01*
X110530261Y-125066510D01*
X110499500Y-125221153D01*
X110499500Y-138778846D01*
X106500499Y-138778846D01*
X106500500Y-138778842D01*
X106500500Y-138700000D01*
X106500500Y-138634108D01*
X106500500Y-125234108D01*
X106500500Y-125221158D01*
X106500500Y-125221155D01*
X106500499Y-125221153D01*
X106469738Y-125066510D01*
X106469737Y-125066503D01*
X106469735Y-125066498D01*
X106409397Y-124920827D01*
X106409390Y-124920814D01*
X106321789Y-124789711D01*
X106321786Y-124789707D01*
X106210292Y-124678213D01*
X106210288Y-124678210D01*
X106079185Y-124590609D01*
X106079172Y-124590602D01*
X105933501Y-124530264D01*
X105933489Y-124530261D01*
X105778845Y-124499500D01*
X105778842Y-124499500D01*
X105765892Y-124499500D01*
X92365892Y-124499500D01*
X92300000Y-124499500D01*
X92221158Y-124499500D01*
X92221155Y-124499500D01*
X92066510Y-124530261D01*
X92066498Y-124530264D01*
X91920827Y-124590602D01*
X91920814Y-124590609D01*
X91789711Y-124678210D01*
X91789707Y-124678213D01*
X91678213Y-124789707D01*
X91678210Y-124789711D01*
X91590609Y-124920814D01*
X91590602Y-124920827D01*
X91530264Y-125066498D01*
X91530261Y-125066510D01*
X91499500Y-125221153D01*
X91499500Y-138778846D01*
X87500499Y-138778846D01*
X87500500Y-138778842D01*
X87500500Y-138700000D01*
X87500500Y-138634108D01*
X87500500Y-125234108D01*
X87500500Y-125221158D01*
X87500500Y-125221155D01*
X87500499Y-125221153D01*
X87469738Y-125066510D01*
X87469737Y-125066503D01*
X87469735Y-125066498D01*
X87409397Y-124920827D01*
X87409390Y-124920814D01*
X87321789Y-124789711D01*
X87321786Y-124789707D01*
X87210292Y-124678213D01*
X87210288Y-124678210D01*
X87079185Y-124590609D01*
X87079172Y-124590602D01*
X86933501Y-124530264D01*
X86933489Y-124530261D01*
X86778845Y-124499500D01*
X86778842Y-124499500D01*
X86765892Y-124499500D01*
X73365892Y-124499500D01*
X73300000Y-124499500D01*
X73221158Y-124499500D01*
X73221155Y-124499500D01*
X73066510Y-124530261D01*
X73066498Y-124530264D01*
X72920827Y-124590602D01*
X72920814Y-124590609D01*
X72789711Y-124678210D01*
X72789707Y-124678213D01*
X72678213Y-124789707D01*
X72678210Y-124789711D01*
X72590609Y-124920814D01*
X72590602Y-124920827D01*
X72530264Y-125066498D01*
X72530261Y-125066510D01*
X72499500Y-125221153D01*
X72499500Y-138778846D01*
X70500500Y-138778846D01*
X70500500Y-119778846D01*
X72499500Y-119778846D01*
X72530261Y-119933489D01*
X72530264Y-119933501D01*
X72590602Y-120079172D01*
X72590609Y-120079185D01*
X72678210Y-120210288D01*
X72678213Y-120210292D01*
X72789707Y-120321786D01*
X72789711Y-120321789D01*
X72920814Y-120409390D01*
X72920827Y-120409397D01*
X73066498Y-120469735D01*
X73066503Y-120469737D01*
X73221153Y-120500499D01*
X73221156Y-120500500D01*
X73221158Y-120500500D01*
X86778844Y-120500500D01*
X86778845Y-120500499D01*
X86933497Y-120469737D01*
X87079179Y-120409394D01*
X87210289Y-120321789D01*
X87321789Y-120210289D01*
X87409394Y-120079179D01*
X87469737Y-119933497D01*
X87500499Y-119778846D01*
X91499500Y-119778846D01*
X91530261Y-119933489D01*
X91530264Y-119933501D01*
X91590602Y-120079172D01*
X91590609Y-120079185D01*
X91678210Y-120210288D01*
X91678213Y-120210292D01*
X91789707Y-120321786D01*
X91789711Y-120321789D01*
X91920814Y-120409390D01*
X91920827Y-120409397D01*
X92066498Y-120469735D01*
X92066503Y-120469737D01*
X92221153Y-120500499D01*
X92221156Y-120500500D01*
X92221158Y-120500500D01*
X105778844Y-120500500D01*
X105778845Y-120500499D01*
X105933497Y-120469737D01*
X106079179Y-120409394D01*
X106210289Y-120321789D01*
X106321789Y-120210289D01*
X106409394Y-120079179D01*
X106469737Y-119933497D01*
X106500499Y-119778846D01*
X110499500Y-119778846D01*
X110530261Y-119933489D01*
X110530264Y-119933501D01*
X110590602Y-120079172D01*
X110590609Y-120079185D01*
X110678210Y-120210288D01*
X110678213Y-120210292D01*
X110789707Y-120321786D01*
X110789711Y-120321789D01*
X110920814Y-120409390D01*
X110920827Y-120409397D01*
X111066498Y-120469735D01*
X111066503Y-120469737D01*
X111221153Y-120500499D01*
X111221156Y-120500500D01*
X111221158Y-120500500D01*
X124778844Y-120500500D01*
X124778845Y-120500499D01*
X124933497Y-120469737D01*
X125079179Y-120409394D01*
X125210289Y-120321789D01*
X125321789Y-120210289D01*
X125409394Y-120079179D01*
X125469737Y-119933497D01*
X125500500Y-119778842D01*
X125500500Y-119700000D01*
X125500500Y-119634108D01*
X125500500Y-106234108D01*
X125500500Y-106221158D01*
X125500500Y-106221155D01*
X125500499Y-106221153D01*
X125469738Y-106066510D01*
X125469737Y-106066503D01*
X125469735Y-106066498D01*
X125409397Y-105920827D01*
X125409390Y-105920814D01*
X125321789Y-105789711D01*
X125321786Y-105789707D01*
X125210292Y-105678213D01*
X125210288Y-105678210D01*
X125079185Y-105590609D01*
X125079172Y-105590602D01*
X124933501Y-105530264D01*
X124933489Y-105530261D01*
X124778845Y-105499500D01*
X124778842Y-105499500D01*
X124765892Y-105499500D01*
X111365892Y-105499500D01*
X111300000Y-105499500D01*
X111221158Y-105499500D01*
X111221155Y-105499500D01*
X111066510Y-105530261D01*
X111066498Y-105530264D01*
X110920827Y-105590602D01*
X110920814Y-105590609D01*
X110789711Y-105678210D01*
X110789707Y-105678213D01*
X110678213Y-105789707D01*
X110678210Y-105789711D01*
X110590609Y-105920814D01*
X110590602Y-105920827D01*
X110530264Y-106066498D01*
X110530261Y-106066510D01*
X110499500Y-106221153D01*
X110499500Y-119778846D01*
X106500499Y-119778846D01*
X106500500Y-119778842D01*
X106500500Y-119700000D01*
X106500500Y-119634108D01*
X106500500Y-106234108D01*
X106500500Y-106221158D01*
X106500500Y-106221155D01*
X106500499Y-106221153D01*
X106469738Y-106066510D01*
X106469737Y-106066503D01*
X106469735Y-106066498D01*
X106409397Y-105920827D01*
X106409390Y-105920814D01*
X106321789Y-105789711D01*
X106321786Y-105789707D01*
X106210292Y-105678213D01*
X106210288Y-105678210D01*
X106079185Y-105590609D01*
X106079172Y-105590602D01*
X105933501Y-105530264D01*
X105933489Y-105530261D01*
X105778845Y-105499500D01*
X105778842Y-105499500D01*
X105765892Y-105499500D01*
X92365892Y-105499500D01*
X92300000Y-105499500D01*
X92221158Y-105499500D01*
X92221155Y-105499500D01*
X92066510Y-105530261D01*
X92066498Y-105530264D01*
X91920827Y-105590602D01*
X91920814Y-105590609D01*
X91789711Y-105678210D01*
X91789707Y-105678213D01*
X91678213Y-105789707D01*
X91678210Y-105789711D01*
X91590609Y-105920814D01*
X91590602Y-105920827D01*
X91530264Y-106066498D01*
X91530261Y-106066510D01*
X91499500Y-106221153D01*
X91499500Y-119778846D01*
X87500499Y-119778846D01*
X87500500Y-119778842D01*
X87500500Y-119700000D01*
X87500500Y-119634108D01*
X87500500Y-106234108D01*
X87500500Y-106221158D01*
X87500500Y-106221155D01*
X87500499Y-106221153D01*
X87469738Y-106066510D01*
X87469737Y-106066503D01*
X87469735Y-106066498D01*
X87409397Y-105920827D01*
X87409390Y-105920814D01*
X87321789Y-105789711D01*
X87321786Y-105789707D01*
X87210292Y-105678213D01*
X87210288Y-105678210D01*
X87079185Y-105590609D01*
X87079172Y-105590602D01*
X86933501Y-105530264D01*
X86933489Y-105530261D01*
X86778845Y-105499500D01*
X86778842Y-105499500D01*
X86765892Y-105499500D01*
X73365892Y-105499500D01*
X73300000Y-105499500D01*
X73221158Y-105499500D01*
X73221155Y-105499500D01*
X73066510Y-105530261D01*
X73066498Y-105530264D01*
X72920827Y-105590602D01*
X72920814Y-105590609D01*
X72789711Y-105678210D01*
X72789707Y-105678213D01*
X72678213Y-105789707D01*
X72678210Y-105789711D01*
X72590609Y-105920814D01*
X72590602Y-105920827D01*
X72530264Y-106066498D01*
X72530261Y-106066510D01*
X72499500Y-106221153D01*
X72499500Y-119778846D01*
X70500500Y-119778846D01*
X70500500Y-103606286D01*
X88149500Y-103606286D01*
X88182753Y-103816239D01*
X88248444Y-104018414D01*
X88344951Y-104207820D01*
X88469890Y-104379786D01*
X88620213Y-104530109D01*
X88792179Y-104655048D01*
X88792181Y-104655049D01*
X88792184Y-104655051D01*
X88981588Y-104751557D01*
X89183757Y-104817246D01*
X89393713Y-104850500D01*
X89393714Y-104850500D01*
X89606286Y-104850500D01*
X89606287Y-104850500D01*
X89816243Y-104817246D01*
X90018412Y-104751557D01*
X90207816Y-104655051D01*
X90229789Y-104639086D01*
X90379786Y-104530109D01*
X90379788Y-104530106D01*
X90379792Y-104530104D01*
X90530104Y-104379792D01*
X90530106Y-104379788D01*
X90530109Y-104379786D01*
X90655048Y-104207820D01*
X90655047Y-104207820D01*
X90655051Y-104207816D01*
X90751557Y-104018412D01*
X90817246Y-103816243D01*
X90850500Y-103606287D01*
X90850500Y-103606286D01*
X126149500Y-103606286D01*
X126182753Y-103816239D01*
X126248444Y-104018414D01*
X126344951Y-104207820D01*
X126469890Y-104379786D01*
X126620213Y-104530109D01*
X126792179Y-104655048D01*
X126792181Y-104655049D01*
X126792184Y-104655051D01*
X126981588Y-104751557D01*
X127183757Y-104817246D01*
X127393713Y-104850500D01*
X127393714Y-104850500D01*
X127606286Y-104850500D01*
X127606287Y-104850500D01*
X127816243Y-104817246D01*
X128018412Y-104751557D01*
X128207816Y-104655051D01*
X128229789Y-104639086D01*
X128379786Y-104530109D01*
X128379788Y-104530106D01*
X128379792Y-104530104D01*
X128530104Y-104379792D01*
X128530106Y-104379788D01*
X128530109Y-104379786D01*
X128655048Y-104207820D01*
X128655047Y-104207820D01*
X128655051Y-104207816D01*
X128751557Y-104018412D01*
X128817246Y-103816243D01*
X128850500Y-103606287D01*
X128850500Y-103393713D01*
X128817246Y-103183757D01*
X128751557Y-102981588D01*
X128655051Y-102792184D01*
X128655049Y-102792181D01*
X128655048Y-102792179D01*
X128530109Y-102620213D01*
X128379786Y-102469890D01*
X128207820Y-102344951D01*
X128018414Y-102248444D01*
X128018413Y-102248443D01*
X128018412Y-102248443D01*
X127816243Y-102182754D01*
X127816241Y-102182753D01*
X127816240Y-102182753D01*
X127654957Y-102157208D01*
X127606287Y-102149500D01*
X127393713Y-102149500D01*
X127345042Y-102157208D01*
X127183760Y-102182753D01*
X126981585Y-102248444D01*
X126792179Y-102344951D01*
X126620213Y-102469890D01*
X126469890Y-102620213D01*
X126344951Y-102792179D01*
X126248444Y-102981585D01*
X126182753Y-103183760D01*
X126149500Y-103393713D01*
X126149500Y-103606286D01*
X90850500Y-103606286D01*
X90850500Y-103393713D01*
X90817246Y-103183757D01*
X90751557Y-102981588D01*
X90655051Y-102792184D01*
X90655049Y-102792181D01*
X90655048Y-102792179D01*
X90530109Y-102620213D01*
X90379786Y-102469890D01*
X90207820Y-102344951D01*
X90018414Y-102248444D01*
X90018413Y-102248443D01*
X90018412Y-102248443D01*
X89816243Y-102182754D01*
X89816241Y-102182753D01*
X89816240Y-102182753D01*
X89654957Y-102157208D01*
X89606287Y-102149500D01*
X89393713Y-102149500D01*
X89345042Y-102157208D01*
X89183760Y-102182753D01*
X88981585Y-102248444D01*
X88792179Y-102344951D01*
X88620213Y-102469890D01*
X88469890Y-102620213D01*
X88344951Y-102792179D01*
X88248444Y-102981585D01*
X88182753Y-103183760D01*
X88149500Y-103393713D01*
X88149500Y-103606286D01*
X70500500Y-103606286D01*
X70500500Y-100778846D01*
X72499500Y-100778846D01*
X72530261Y-100933489D01*
X72530264Y-100933501D01*
X72590602Y-101079172D01*
X72590609Y-101079185D01*
X72678210Y-101210288D01*
X72678213Y-101210292D01*
X72789707Y-101321786D01*
X72789711Y-101321789D01*
X72920814Y-101409390D01*
X72920827Y-101409397D01*
X73066498Y-101469735D01*
X73066503Y-101469737D01*
X73221153Y-101500499D01*
X73221156Y-101500500D01*
X73221158Y-101500500D01*
X86778844Y-101500500D01*
X86778845Y-101500499D01*
X86933497Y-101469737D01*
X87079179Y-101409394D01*
X87210289Y-101321789D01*
X87321789Y-101210289D01*
X87409394Y-101079179D01*
X87469737Y-100933497D01*
X87500499Y-100778846D01*
X91499500Y-100778846D01*
X91530261Y-100933489D01*
X91530264Y-100933501D01*
X91590602Y-101079172D01*
X91590609Y-101079185D01*
X91678210Y-101210288D01*
X91678213Y-101210292D01*
X91789707Y-101321786D01*
X91789711Y-101321789D01*
X91920814Y-101409390D01*
X91920827Y-101409397D01*
X92066498Y-101469735D01*
X92066503Y-101469737D01*
X92221153Y-101500499D01*
X92221156Y-101500500D01*
X92221158Y-101500500D01*
X105778844Y-101500500D01*
X105778845Y-101500499D01*
X105933497Y-101469737D01*
X106079179Y-101409394D01*
X106210289Y-101321789D01*
X106321789Y-101210289D01*
X106409394Y-101079179D01*
X106469737Y-100933497D01*
X106500499Y-100778846D01*
X110499500Y-100778846D01*
X110530261Y-100933489D01*
X110530264Y-100933501D01*
X110590602Y-101079172D01*
X110590609Y-101079185D01*
X110678210Y-101210288D01*
X110678213Y-101210292D01*
X110789707Y-101321786D01*
X110789711Y-101321789D01*
X110920814Y-101409390D01*
X110920827Y-101409397D01*
X111066498Y-101469735D01*
X111066503Y-101469737D01*
X111221153Y-101500499D01*
X111221156Y-101500500D01*
X111221158Y-101500500D01*
X124778844Y-101500500D01*
X124778845Y-101500499D01*
X124933497Y-101469737D01*
X125079179Y-101409394D01*
X125210289Y-101321789D01*
X125321789Y-101210289D01*
X125409394Y-101079179D01*
X125469737Y-100933497D01*
X125500499Y-100778846D01*
X129499500Y-100778846D01*
X129530261Y-100933489D01*
X129530264Y-100933501D01*
X129590602Y-101079172D01*
X129590609Y-101079185D01*
X129678210Y-101210288D01*
X129678213Y-101210292D01*
X129789707Y-101321786D01*
X129789711Y-101321789D01*
X129920814Y-101409390D01*
X129920827Y-101409397D01*
X130066498Y-101469735D01*
X130066503Y-101469737D01*
X130221153Y-101500499D01*
X130221156Y-101500500D01*
X130221158Y-101500500D01*
X143778844Y-101500500D01*
X143778845Y-101500499D01*
X143933497Y-101469737D01*
X144079179Y-101409394D01*
X144210289Y-101321789D01*
X144321789Y-101210289D01*
X144409394Y-101079179D01*
X144469737Y-100933497D01*
X144500500Y-100778842D01*
X144500500Y-100700000D01*
X144500500Y-100634108D01*
X144500500Y-87234108D01*
X144500500Y-87221158D01*
X144500500Y-87221155D01*
X144500499Y-87221153D01*
X144469738Y-87066510D01*
X144469737Y-87066503D01*
X144469735Y-87066498D01*
X144409397Y-86920827D01*
X144409390Y-86920814D01*
X144321789Y-86789711D01*
X144321786Y-86789707D01*
X144210292Y-86678213D01*
X144210288Y-86678210D01*
X144079185Y-86590609D01*
X144079172Y-86590602D01*
X143933501Y-86530264D01*
X143933489Y-86530261D01*
X143778845Y-86499500D01*
X143778842Y-86499500D01*
X143765892Y-86499500D01*
X130365892Y-86499500D01*
X130300000Y-86499500D01*
X130221158Y-86499500D01*
X130221155Y-86499500D01*
X130066510Y-86530261D01*
X130066498Y-86530264D01*
X129920827Y-86590602D01*
X129920814Y-86590609D01*
X129789711Y-86678210D01*
X129789707Y-86678213D01*
X129678213Y-86789707D01*
X129678210Y-86789711D01*
X129590609Y-86920814D01*
X129590602Y-86920827D01*
X129530264Y-87066498D01*
X129530261Y-87066510D01*
X129499500Y-87221153D01*
X129499500Y-100778846D01*
X125500499Y-100778846D01*
X125500500Y-100778842D01*
X125500500Y-100700000D01*
X125500500Y-100634108D01*
X125500500Y-87234108D01*
X125500500Y-87221158D01*
X125500500Y-87221155D01*
X125500499Y-87221153D01*
X125469738Y-87066510D01*
X125469737Y-87066503D01*
X125469735Y-87066498D01*
X125409397Y-86920827D01*
X125409390Y-86920814D01*
X125321789Y-86789711D01*
X125321786Y-86789707D01*
X125210292Y-86678213D01*
X125210288Y-86678210D01*
X125079185Y-86590609D01*
X125079172Y-86590602D01*
X124933501Y-86530264D01*
X124933489Y-86530261D01*
X124778845Y-86499500D01*
X124778842Y-86499500D01*
X124765892Y-86499500D01*
X111365892Y-86499500D01*
X111300000Y-86499500D01*
X111221158Y-86499500D01*
X111221155Y-86499500D01*
X111066510Y-86530261D01*
X111066498Y-86530264D01*
X110920827Y-86590602D01*
X110920814Y-86590609D01*
X110789711Y-86678210D01*
X110789707Y-86678213D01*
X110678213Y-86789707D01*
X110678210Y-86789711D01*
X110590609Y-86920814D01*
X110590602Y-86920827D01*
X110530264Y-87066498D01*
X110530261Y-87066510D01*
X110499500Y-87221153D01*
X110499500Y-100778846D01*
X106500499Y-100778846D01*
X106500500Y-100778842D01*
X106500500Y-100700000D01*
X106500500Y-100634108D01*
X106500500Y-87234108D01*
X106500500Y-87221158D01*
X106500500Y-87221155D01*
X106500499Y-87221153D01*
X106469738Y-87066510D01*
X106469737Y-87066503D01*
X106469735Y-87066498D01*
X106409397Y-86920827D01*
X106409390Y-86920814D01*
X106321789Y-86789711D01*
X106321786Y-86789707D01*
X106210292Y-86678213D01*
X106210288Y-86678210D01*
X106079185Y-86590609D01*
X106079172Y-86590602D01*
X105933501Y-86530264D01*
X105933489Y-86530261D01*
X105778845Y-86499500D01*
X105778842Y-86499500D01*
X105765892Y-86499500D01*
X92365892Y-86499500D01*
X92300000Y-86499500D01*
X92221158Y-86499500D01*
X92221155Y-86499500D01*
X92066510Y-86530261D01*
X92066498Y-86530264D01*
X91920827Y-86590602D01*
X91920814Y-86590609D01*
X91789711Y-86678210D01*
X91789707Y-86678213D01*
X91678213Y-86789707D01*
X91678210Y-86789711D01*
X91590609Y-86920814D01*
X91590602Y-86920827D01*
X91530264Y-87066498D01*
X91530261Y-87066510D01*
X91499500Y-87221153D01*
X91499500Y-100778846D01*
X87500499Y-100778846D01*
X87500500Y-100778842D01*
X87500500Y-100700000D01*
X87500500Y-100634108D01*
X87500500Y-87234108D01*
X87500500Y-87221158D01*
X87500500Y-87221155D01*
X87500499Y-87221153D01*
X87469738Y-87066510D01*
X87469737Y-87066503D01*
X87469735Y-87066498D01*
X87409397Y-86920827D01*
X87409390Y-86920814D01*
X87321789Y-86789711D01*
X87321786Y-86789707D01*
X87210292Y-86678213D01*
X87210288Y-86678210D01*
X87079185Y-86590609D01*
X87079172Y-86590602D01*
X86933501Y-86530264D01*
X86933489Y-86530261D01*
X86778845Y-86499500D01*
X86778842Y-86499500D01*
X86765892Y-86499500D01*
X73365892Y-86499500D01*
X73300000Y-86499500D01*
X73221158Y-86499500D01*
X73221155Y-86499500D01*
X73066510Y-86530261D01*
X73066498Y-86530264D01*
X72920827Y-86590602D01*
X72920814Y-86590609D01*
X72789711Y-86678210D01*
X72789707Y-86678213D01*
X72678213Y-86789707D01*
X72678210Y-86789711D01*
X72590609Y-86920814D01*
X72590602Y-86920827D01*
X72530264Y-87066498D01*
X72530261Y-87066510D01*
X72499500Y-87221153D01*
X72499500Y-100778846D01*
X70500500Y-100778846D01*
X70500500Y-75927440D01*
X101799500Y-75927440D01*
X101803753Y-75955653D01*
X101837487Y-76179458D01*
X101837488Y-76179460D01*
X101837489Y-76179466D01*
X101912612Y-76423007D01*
X102023190Y-76652626D01*
X102023191Y-76652627D01*
X102023193Y-76652630D01*
X102023195Y-76652634D01*
X102166768Y-76863217D01*
X102340123Y-77050050D01*
X102539388Y-77208959D01*
X102760112Y-77336393D01*
X102997363Y-77429508D01*
X103245843Y-77486222D01*
X103318459Y-77491663D01*
X103499995Y-77505268D01*
X103500000Y-77505268D01*
X103500005Y-77505268D01*
X103658848Y-77493364D01*
X103754157Y-77486222D01*
X104002637Y-77429508D01*
X104239888Y-77336393D01*
X104460612Y-77208959D01*
X104659877Y-77050050D01*
X104833232Y-76863217D01*
X104976805Y-76652634D01*
X105087389Y-76423004D01*
X105162513Y-76179458D01*
X105200499Y-75927440D01*
X111799500Y-75927440D01*
X111803753Y-75955653D01*
X111837487Y-76179458D01*
X111837488Y-76179460D01*
X111837489Y-76179466D01*
X111912612Y-76423007D01*
X112023190Y-76652626D01*
X112023191Y-76652627D01*
X112023193Y-76652630D01*
X112023195Y-76652634D01*
X112166768Y-76863217D01*
X112340123Y-77050050D01*
X112539388Y-77208959D01*
X112760112Y-77336393D01*
X112997363Y-77429508D01*
X113245843Y-77486222D01*
X113318459Y-77491663D01*
X113499995Y-77505268D01*
X113500000Y-77505268D01*
X113500005Y-77505268D01*
X113658848Y-77493364D01*
X113754157Y-77486222D01*
X114002637Y-77429508D01*
X114239888Y-77336393D01*
X114460612Y-77208959D01*
X114659877Y-77050050D01*
X114833232Y-76863217D01*
X114976805Y-76652634D01*
X115087389Y-76423004D01*
X115162513Y-76179458D01*
X115200500Y-75927435D01*
X115200500Y-75800000D01*
X115200500Y-75734108D01*
X115200500Y-58834108D01*
X115200500Y-58772565D01*
X115162513Y-58520542D01*
X115087389Y-58276996D01*
X115058996Y-58218038D01*
X114976809Y-58047373D01*
X114976808Y-58047372D01*
X114976807Y-58047371D01*
X114976805Y-58047366D01*
X114833232Y-57836783D01*
X114659877Y-57649950D01*
X114460612Y-57491041D01*
X114239888Y-57363607D01*
X114002637Y-57270492D01*
X114002630Y-57270490D01*
X113754154Y-57213777D01*
X113500005Y-57194732D01*
X113499995Y-57194732D01*
X113245845Y-57213777D01*
X112997369Y-57270490D01*
X112997362Y-57270492D01*
X112760109Y-57363608D01*
X112539388Y-57491041D01*
X112340123Y-57649950D01*
X112340121Y-57649952D01*
X112166768Y-57836782D01*
X112023191Y-58047372D01*
X112023190Y-58047373D01*
X111912612Y-58276992D01*
X111837489Y-58520533D01*
X111837488Y-58520538D01*
X111837487Y-58520542D01*
X111826038Y-58596498D01*
X111799500Y-58772559D01*
X111799500Y-75927440D01*
X105200499Y-75927440D01*
X105200500Y-75927435D01*
X105200500Y-75800000D01*
X105200500Y-75734108D01*
X105200500Y-59106286D01*
X107149500Y-59106286D01*
X107182753Y-59316239D01*
X107248444Y-59518414D01*
X107344951Y-59707820D01*
X107469890Y-59879786D01*
X107620213Y-60030109D01*
X107792179Y-60155048D01*
X107792181Y-60155049D01*
X107792184Y-60155051D01*
X107981588Y-60251557D01*
X108183757Y-60317246D01*
X108393713Y-60350500D01*
X108393714Y-60350500D01*
X108606286Y-60350500D01*
X108606287Y-60350500D01*
X108816243Y-60317246D01*
X109018412Y-60251557D01*
X109207816Y-60155051D01*
X109229789Y-60139086D01*
X109379786Y-60030109D01*
X109379788Y-60030106D01*
X109379792Y-60030104D01*
X109530104Y-59879792D01*
X109530106Y-59879788D01*
X109530109Y-59879786D01*
X109655048Y-59707820D01*
X109655047Y-59707820D01*
X109655051Y-59707816D01*
X109751557Y-59518412D01*
X109817246Y-59316243D01*
X109850500Y-59106287D01*
X109850500Y-58893713D01*
X109817246Y-58683757D01*
X109751557Y-58481588D01*
X109655051Y-58292184D01*
X109655049Y-58292181D01*
X109655048Y-58292179D01*
X109530109Y-58120213D01*
X109379786Y-57969890D01*
X109207820Y-57844951D01*
X109018414Y-57748444D01*
X109018413Y-57748443D01*
X109018412Y-57748443D01*
X108816243Y-57682754D01*
X108816241Y-57682753D01*
X108816240Y-57682753D01*
X108654957Y-57657208D01*
X108606287Y-57649500D01*
X108393713Y-57649500D01*
X108345042Y-57657208D01*
X108183760Y-57682753D01*
X107981585Y-57748444D01*
X107792179Y-57844951D01*
X107620213Y-57969890D01*
X107469890Y-58120213D01*
X107344951Y-58292179D01*
X107248444Y-58481585D01*
X107182753Y-58683760D01*
X107149500Y-58893713D01*
X107149500Y-59106286D01*
X105200500Y-59106286D01*
X105200500Y-58834108D01*
X105200500Y-58772565D01*
X105162513Y-58520542D01*
X105087389Y-58276996D01*
X105058996Y-58218038D01*
X104976809Y-58047373D01*
X104976808Y-58047372D01*
X104976807Y-58047371D01*
X104976805Y-58047366D01*
X104833232Y-57836783D01*
X104659877Y-57649950D01*
X104460612Y-57491041D01*
X104239888Y-57363607D01*
X104002637Y-57270492D01*
X104002630Y-57270490D01*
X103754154Y-57213777D01*
X103500005Y-57194732D01*
X103499995Y-57194732D01*
X103245845Y-57213777D01*
X102997369Y-57270490D01*
X102997362Y-57270492D01*
X102760109Y-57363608D01*
X102539388Y-57491041D01*
X102340123Y-57649950D01*
X102340121Y-57649952D01*
X102166768Y-57836782D01*
X102023191Y-58047372D01*
X102023190Y-58047373D01*
X101912612Y-58276992D01*
X101837489Y-58520533D01*
X101837488Y-58520538D01*
X101837487Y-58520542D01*
X101826038Y-58596498D01*
X101799500Y-58772559D01*
X101799500Y-75927440D01*
X70500500Y-75927440D01*
X70500500Y-66778846D01*
X85599500Y-66778846D01*
X85630261Y-66933489D01*
X85630264Y-66933501D01*
X85690602Y-67079172D01*
X85690609Y-67079185D01*
X85778210Y-67210288D01*
X85778213Y-67210292D01*
X85889707Y-67321786D01*
X85889711Y-67321789D01*
X86020814Y-67409390D01*
X86020827Y-67409397D01*
X86166498Y-67469735D01*
X86166503Y-67469737D01*
X86321153Y-67500499D01*
X86321156Y-67500500D01*
X86321158Y-67500500D01*
X96678844Y-67500500D01*
X96678845Y-67500499D01*
X96833497Y-67469737D01*
X96979179Y-67409394D01*
X97110289Y-67321789D01*
X97221789Y-67210289D01*
X97309394Y-67079179D01*
X97369737Y-66933497D01*
X97400500Y-66778842D01*
X97400500Y-66700000D01*
X97400500Y-66634108D01*
X97400500Y-64234108D01*
X97400500Y-64221158D01*
X97400500Y-64221155D01*
X97400499Y-64221153D01*
X97369738Y-64066510D01*
X97369737Y-64066503D01*
X97369735Y-64066498D01*
X97309397Y-63920827D01*
X97309390Y-63920814D01*
X97221789Y-63789711D01*
X97221786Y-63789707D01*
X97110292Y-63678213D01*
X97110288Y-63678210D01*
X96979185Y-63590609D01*
X96979172Y-63590602D01*
X96833501Y-63530264D01*
X96833489Y-63530261D01*
X96678845Y-63499500D01*
X96678842Y-63499500D01*
X96665892Y-63499500D01*
X86465892Y-63499500D01*
X86400000Y-63499500D01*
X86321158Y-63499500D01*
X86321155Y-63499500D01*
X86166510Y-63530261D01*
X86166498Y-63530264D01*
X86020827Y-63590602D01*
X86020814Y-63590609D01*
X85889711Y-63678210D01*
X85889707Y-63678213D01*
X85778213Y-63789707D01*
X85778210Y-63789711D01*
X85690609Y-63920814D01*
X85690602Y-63920827D01*
X85630264Y-64066498D01*
X85630261Y-64066510D01*
X85599500Y-64221153D01*
X85599500Y-66778846D01*
X70500500Y-66778846D01*
X70500500Y-51950000D01*
X140950000Y-51950000D01*
X140950000Y-61550000D01*
X145050000Y-61550000D01*
X145050000Y-51950000D01*
X140950000Y-51950000D01*
X70500500Y-51950000D01*
X70500500Y-38003750D01*
X70500726Y-37996263D01*
X70518271Y-37706205D01*
X70520076Y-37691340D01*
X70571780Y-37409201D01*
X70575364Y-37394663D01*
X70652096Y-37148422D01*
X70660696Y-37120822D01*
X70665998Y-37106841D01*
X70783731Y-36845249D01*
X70790676Y-36832016D01*
X70939080Y-36586526D01*
X70947567Y-36574230D01*
X71124480Y-36348417D01*
X71134395Y-36337226D01*
X71337226Y-36134395D01*
X71348417Y-36124480D01*
X71574230Y-35947567D01*
X71586526Y-35939080D01*
X71832016Y-35790676D01*
X71845249Y-35783731D01*
X72106841Y-35665998D01*
X72120822Y-35660696D01*
X72394668Y-35575362D01*
X72409197Y-35571780D01*
X72691344Y-35520075D01*
X72706201Y-35518271D01*
X72996264Y-35500726D01*
X73003751Y-35500500D01*
X73065892Y-35500500D01*
X87376000Y-35500500D01*
X87443039Y-35520185D01*
G37*
%TD.AperFunction*%
%TD*%
M02*
