  0
SECTION
  2
HEADER
  9
$ANGBASE
  50
0.0
  9
$ANGDIR
  70
1
  9
$MEASUREMENT
  70
1
  0
ENDSEC
  0
SECTION
  2
TABLES
  0
TABLE
  2
LTYPE
  70
4
  0
LTYPE
  5
40F
  2
CONTINUOUS
  70
0
  3
Solid line
  72
65
  73
0
  40
0.0
  0
LTYPE
  5
410
  2
DASHDOT
 70
0
  3
Dash Dot ____ _ ____ _
 72
65
 73
4
 40
2.0
 49
1.25
 49
-0.25
 49
0.25
 49
-0.25
  0
LTYPE
  5
411
  2
DASHED
 70
0
  3
Dashed __ __ __ __ __
 72
65
 73
2
 40
0.75
 49
0.5
 49
-0.25
  0
LTYPE
  5
43B
  2
DOTTED
 70
0
  3
Dotted .  .  .  .
 72
65
 73
2
 40
0.2
 49
0.0
 49
-0.2
  0
ENDTAB
  0
TABLE
  2
STYLE
  70
4
  0
STYLE
  2
KICAD
  70
0
  40
0
  41
1
  42
1
  50
0
  71
0
  3
isocp.shx
  0
STYLE
  2
KICADB
  70
0
  40
0
  41
1
  42
1
  50
0
  71
0
  3
isocp.shx
  0
STYLE
  2
KICADI
  70
0
  40
0
  41
1
  42
1
  50
15
  71
0
  3
isocp.shx
  0
STYLE
  2
KICADBI
  70
0
  40
0
  41
1
  42
1
  50
15
  71
0
  3
isocp.shx
  0
ENDTAB
  0
TABLE
  2
LAYER
  70
1
  0
LAYER
  2
BLACK
  70
0
  62
7
  6
CONTINUOUS
  0
ENDTAB
  0
ENDSEC
  0
SECTION
  2
ENTITIES
0
LINE
8
BLACK
6
CONTINUOUS
10
108.8068569999999937
20
-135.5882499999999879
11
109.0021189999999933
21
-135.6552829999999972
0
LINE
8
BLACK
6
CONTINUOUS
10
109.0021189999999933
20
-135.6552829999999972
11
109.183684999999997
21
-135.7535419999999817
0
LINE
8
BLACK
6
CONTINUOUS
10
109.183684999999997
20
-135.7535419999999817
11
109.3466019999999901
21
-135.8803450000000055
0
LINE
8
BLACK
6
CONTINUOUS
10
109.3466019999999901
20
-135.8803450000000055
11
109.4864259999999945
21
-136.0322339999999883
0
LINE
8
BLACK
6
CONTINUOUS
10
109.4864259999999945
20
-136.0322339999999883
11
109.5993419999999929
21
-136.205065999999988
0
LINE
8
BLACK
6
CONTINUOUS
10
109.5993419999999929
20
-136.205065999999988
11
109.6822719999999975
21
-136.394126
0
LINE
8
BLACK
6
CONTINUOUS
10
109.6822719999999975
20
-136.394126
11
109.7329519999999974
21
-136.5942569999999989
0
LINE
8
BLACK
6
CONTINUOUS
10
109.7329519999999974
20
-136.5942569999999989
11
109.75
21
-136.7999999999999829
0
LINE
8
BLACK
6
CONTINUOUS
10
109.75
20
-136.7999999999999829
11
109.7462000000000018
21
-136.8116919999999936
0
LINE
8
BLACK
6
CONTINUOUS
10
109.7462000000000018
20
-136.8116919999999936
11
109.75
21
-153.6999999999999886
0
LINE
8
BLACK
6
CONTINUOUS
10
109.75
20
-153.6999999999999886
11
109.7329519999999974
21
-153.9057430000000011
0
LINE
8
BLACK
6
CONTINUOUS
10
109.7329519999999974
20
-153.9057430000000011
11
109.6822719999999975
21
-154.105874
0
LINE
8
BLACK
6
CONTINUOUS
10
109.6822719999999975
20
-154.105874
11
109.5993419999999929
21
-154.2949339999999836
0
LINE
8
BLACK
6
CONTINUOUS
10
109.5993419999999929
20
-154.2949339999999836
11
109.4864259999999945
21
-154.4677659999999833
0
LINE
8
BLACK
6
CONTINUOUS
10
109.4864259999999945
20
-154.4677659999999833
11
109.3466019999999901
21
-154.6196549999999945
0
LINE
8
BLACK
6
CONTINUOUS
10
109.3466019999999901
20
-154.6196549999999945
11
109.183684999999997
21
-154.7464579999999899
0
LINE
8
BLACK
6
CONTINUOUS
10
109.183684999999997
20
-154.7464579999999899
11
109.0021189999999933
21
-154.8447170000000028
0
LINE
8
BLACK
6
CONTINUOUS
10
109.0021189999999933
20
-154.8447170000000028
11
108.8068569999999937
21
-154.9117499999999836
0
LINE
8
BLACK
6
CONTINUOUS
10
108.8068569999999937
20
-154.9117499999999836
11
108.6032239999999973
21
-154.945730999999995
0
LINE
8
BLACK
6
CONTINUOUS
10
108.6032239999999973
20
-154.945730999999995
11
108.3967759999999885
21
-154.945730999999995
0
LINE
8
BLACK
6
CONTINUOUS
10
108.3967759999999885
20
-154.945730999999995
11
108.1931429999999921
21
-154.9117499999999836
0
LINE
8
BLACK
6
CONTINUOUS
10
108.1931429999999921
20
-154.9117499999999836
11
107.9978809999999925
21
-154.8447170000000028
0
LINE
8
BLACK
6
CONTINUOUS
10
107.9978809999999925
20
-154.8447170000000028
11
107.8163149999999888
21
-154.7464579999999899
0
LINE
8
BLACK
6
CONTINUOUS
10
107.8163149999999888
20
-154.7464579999999899
11
107.6533979999999957
21
-154.6196549999999945
0
LINE
8
BLACK
6
CONTINUOUS
10
107.6533979999999957
20
-154.6196549999999945
11
107.5135739999999913
21
-154.4677659999999833
0
LINE
8
BLACK
6
CONTINUOUS
10
107.5135739999999913
20
-154.4677659999999833
11
107.4006579999999929
21
-154.2949339999999836
0
LINE
8
BLACK
6
CONTINUOUS
10
107.4006579999999929
20
-154.2949339999999836
11
107.3177279999999882
21
-154.105874
0
LINE
8
BLACK
6
CONTINUOUS
10
107.3177279999999882
20
-154.105874
11
107.2670479999999884
21
-153.9057430000000011
0
LINE
8
BLACK
6
CONTINUOUS
10
107.2670479999999884
20
-153.9057430000000011
11
107.25
21
-153.6999999999999886
0
LINE
8
BLACK
6
CONTINUOUS
10
107.25
20
-153.6999999999999886
11
107.2537990000000008
21
-153.6883069999999805
0
LINE
8
BLACK
6
CONTINUOUS
10
107.2537990000000008
20
-153.6883069999999805
11
107.25
21
-136.7999999999999829
0
LINE
8
BLACK
6
CONTINUOUS
10
107.25
20
-136.7999999999999829
11
107.2670479999999884
21
-136.5942569999999989
0
LINE
8
BLACK
6
CONTINUOUS
10
107.2670479999999884
20
-136.5942569999999989
11
107.3177279999999882
21
-136.394126
0
LINE
8
BLACK
6
CONTINUOUS
10
107.3177279999999882
20
-136.394126
11
107.4006579999999929
21
-136.205065999999988
0
LINE
8
BLACK
6
CONTINUOUS
10
107.4006579999999929
20
-136.205065999999988
11
107.5135739999999913
21
-136.0322339999999883
0
LINE
8
BLACK
6
CONTINUOUS
10
107.5135739999999913
20
-136.0322339999999883
11
107.6533979999999957
21
-135.8803450000000055
0
LINE
8
BLACK
6
CONTINUOUS
10
107.6533979999999957
20
-135.8803450000000055
11
107.8163149999999888
21
-135.7535419999999817
0
LINE
8
BLACK
6
CONTINUOUS
10
107.8163149999999888
20
-135.7535419999999817
11
107.9978809999999925
21
-135.6552829999999972
0
LINE
8
BLACK
6
CONTINUOUS
10
107.9978809999999925
20
-135.6552829999999972
11
108.1931429999999921
21
-135.5882499999999879
0
LINE
8
BLACK
6
CONTINUOUS
10
108.1931429999999921
20
-135.5882499999999879
11
108.3967759999999885
21
-135.554269000000005
0
LINE
8
BLACK
6
CONTINUOUS
10
108.3967759999999885
20
-135.554269000000005
11
108.6032239999999973
21
-135.554269000000005
0
LINE
8
BLACK
6
CONTINUOUS
10
108.6032239999999973
20
-135.554269000000005
11
108.8068569999999937
21
-135.5882499999999879
0
LINE
8
BLACK
6
CONTINUOUS
10
108.2012209999999897
20
-135.6849420000000066
11
108.012131999999994
21
-135.7537649999999871
0
LINE
8
BLACK
6
CONTINUOUS
10
108.012131999999994
20
-135.7537649999999871
11
107.8378669999999886
21
-135.8543769999999995
0
LINE
8
BLACK
6
CONTINUOUS
10
107.8378669999999886
20
-135.8543769999999995
11
107.6837209999999914
21
-135.9837210000000027
0
LINE
8
BLACK
6
CONTINUOUS
10
107.6837209999999914
20
-135.9837210000000027
11
107.5543769999999881
21
-136.137867
0
LINE
8
BLACK
6
CONTINUOUS
10
107.5543769999999881
20
-136.137867
11
107.45376499999999
21
-136.3121319999999912
0
LINE
8
BLACK
6
CONTINUOUS
10
107.45376499999999
20
-136.3121319999999912
11
107.3849419999999952
21
-136.5012209999999868
0
LINE
8
BLACK
6
CONTINUOUS
10
107.3849419999999952
20
-136.5012209999999868
11
107.3499999999999943
21
-136.699387999999999
0
LINE
8
BLACK
6
CONTINUOUS
10
107.3499999999999943
20
-136.699387999999999
11
107.3499999999999943
21
-136.7999999999999829
0
LINE
8
BLACK
6
CONTINUOUS
10
107.3499999999999943
20
-136.7999999999999829
11
107.3461999999999961
21
-136.8116919999999936
0
LINE
8
BLACK
6
CONTINUOUS
10
107.3461999999999961
20
-136.8116919999999936
11
107.3499999999999943
21
-153.6999999999999886
0
LINE
8
BLACK
6
CONTINUOUS
10
107.3499999999999943
20
-153.6999999999999886
11
107.3499999999999943
21
-153.800612000000001
0
LINE
8
BLACK
6
CONTINUOUS
10
107.3499999999999943
20
-153.800612000000001
11
107.3849419999999952
21
-153.9987789999999848
0
LINE
8
BLACK
6
CONTINUOUS
10
107.3849419999999952
20
-153.9987789999999848
11
107.45376499999999
21
-154.1878679999999804
0
LINE
8
BLACK
6
CONTINUOUS
10
107.45376499999999
20
-154.1878679999999804
11
107.5543769999999881
21
-154.362133
0
LINE
8
BLACK
6
CONTINUOUS
10
107.5543769999999881
20
-154.362133
11
107.6837209999999914
21
-154.5162789999999973
0
LINE
8
BLACK
6
CONTINUOUS
10
107.6837209999999914
20
-154.5162789999999973
11
107.8378669999999886
21
-154.6456230000000005
0
LINE
8
BLACK
6
CONTINUOUS
10
107.8378669999999886
20
-154.6456230000000005
11
108.012131999999994
21
-154.7462349999999844
0
LINE
8
BLACK
6
CONTINUOUS
10
108.012131999999994
20
-154.7462349999999844
11
108.2012209999999897
21
-154.8150579999999934
0
LINE
8
BLACK
6
CONTINUOUS
10
108.2012209999999897
20
-154.8150579999999934
11
108.3993880000000019
21
-154.8499999999999943
0
LINE
8
BLACK
6
CONTINUOUS
10
108.3993880000000019
20
-154.8499999999999943
11
108.6006119999999981
21
-154.8499999999999943
0
LINE
8
BLACK
6
CONTINUOUS
10
108.6006119999999981
20
-154.8499999999999943
11
108.7987789999999961
21
-154.8150579999999934
0
LINE
8
BLACK
6
CONTINUOUS
10
108.7987789999999961
20
-154.8150579999999934
11
108.9878679999999918
21
-154.7462349999999844
0
LINE
8
BLACK
6
CONTINUOUS
10
108.9878679999999918
20
-154.7462349999999844
11
109.1621329999999972
21
-154.6456230000000005
0
LINE
8
BLACK
6
CONTINUOUS
10
109.1621329999999972
20
-154.6456230000000005
11
109.3162789999999944
21
-154.5162789999999973
0
LINE
8
BLACK
6
CONTINUOUS
10
109.3162789999999944
20
-154.5162789999999973
11
109.4456229999999977
21
-154.362133
0
LINE
8
BLACK
6
CONTINUOUS
10
109.4456229999999977
20
-154.362133
11
109.5462349999999958
21
-154.1878679999999804
0
LINE
8
BLACK
6
CONTINUOUS
10
109.5462349999999958
20
-154.1878679999999804
11
109.6150579999999906
21
-153.9987789999999848
0
LINE
8
BLACK
6
CONTINUOUS
10
109.6150579999999906
20
-153.9987789999999848
11
109.6499999999999915
21
-153.800612000000001
0
LINE
8
BLACK
6
CONTINUOUS
10
109.6499999999999915
20
-153.800612000000001
11
109.6499999999999915
21
-153.6999999999999886
0
LINE
8
BLACK
6
CONTINUOUS
10
109.6499999999999915
20
-153.6999999999999886
11
109.6537989999999922
21
-153.6883069999999805
0
LINE
8
BLACK
6
CONTINUOUS
10
109.6537989999999922
20
-153.6883069999999805
11
109.6499999999999915
21
-136.7999999999999829
0
LINE
8
BLACK
6
CONTINUOUS
10
109.6499999999999915
20
-136.7999999999999829
11
109.6499999999999915
21
-136.699387999999999
0
LINE
8
BLACK
6
CONTINUOUS
10
109.6499999999999915
20
-136.699387999999999
11
109.6150579999999906
21
-136.5012209999999868
0
LINE
8
BLACK
6
CONTINUOUS
10
109.6150579999999906
20
-136.5012209999999868
11
109.5462349999999958
21
-136.3121319999999912
0
LINE
8
BLACK
6
CONTINUOUS
10
109.5462349999999958
20
-136.3121319999999912
11
109.4456229999999977
21
-136.137867
0
LINE
8
BLACK
6
CONTINUOUS
10
109.4456229999999977
20
-136.137867
11
109.3162789999999944
21
-135.9837210000000027
0
LINE
8
BLACK
6
CONTINUOUS
10
109.3162789999999944
20
-135.9837210000000027
11
109.1621329999999972
21
-135.8543769999999995
0
LINE
8
BLACK
6
CONTINUOUS
10
109.1621329999999972
20
-135.8543769999999995
11
108.9878679999999918
21
-135.7537649999999871
0
LINE
8
BLACK
6
CONTINUOUS
10
108.9878679999999918
20
-135.7537649999999871
11
108.7987789999999961
21
-135.6849420000000066
0
LINE
8
BLACK
6
CONTINUOUS
10
108.7987789999999961
20
-135.6849420000000066
11
108.6006119999999981
21
-135.6500000000000057
0
LINE
8
BLACK
6
CONTINUOUS
10
108.6006119999999981
20
-135.6500000000000057
11
108.3993880000000019
21
-135.6500000000000057
0
LINE
8
BLACK
6
CONTINUOUS
10
108.3993880000000019
20
-135.6500000000000057
11
108.2012209999999897
21
-135.6849420000000066
0
LINE
8
BLACK
6
CONTINUOUS
10
118.8068569999999937
20
-135.5882499999999879
11
119.0021189999999933
21
-135.6552829999999972
0
LINE
8
BLACK
6
CONTINUOUS
10
119.0021189999999933
20
-135.6552829999999972
11
119.183684999999997
21
-135.7535419999999817
0
LINE
8
BLACK
6
CONTINUOUS
10
119.183684999999997
20
-135.7535419999999817
11
119.3466019999999901
21
-135.8803450000000055
0
LINE
8
BLACK
6
CONTINUOUS
10
119.3466019999999901
20
-135.8803450000000055
11
119.4864259999999945
21
-136.0322339999999883
0
LINE
8
BLACK
6
CONTINUOUS
10
119.4864259999999945
20
-136.0322339999999883
11
119.5993419999999929
21
-136.205065999999988
0
LINE
8
BLACK
6
CONTINUOUS
10
119.5993419999999929
20
-136.205065999999988
11
119.6822719999999975
21
-136.394126
0
LINE
8
BLACK
6
CONTINUOUS
10
119.6822719999999975
20
-136.394126
11
119.7329519999999974
21
-136.5942569999999989
0
LINE
8
BLACK
6
CONTINUOUS
10
119.7329519999999974
20
-136.5942569999999989
11
119.75
21
-136.7999999999999829
0
LINE
8
BLACK
6
CONTINUOUS
10
119.75
20
-136.7999999999999829
11
119.7461999999999875
21
-136.8116919999999936
0
LINE
8
BLACK
6
CONTINUOUS
10
119.7461999999999875
20
-136.8116919999999936
11
119.75
21
-153.6999999999999886
0
LINE
8
BLACK
6
CONTINUOUS
10
119.75
20
-153.6999999999999886
11
119.7329519999999974
21
-153.9057430000000011
0
LINE
8
BLACK
6
CONTINUOUS
10
119.7329519999999974
20
-153.9057430000000011
11
119.6822719999999975
21
-154.105874
0
LINE
8
BLACK
6
CONTINUOUS
10
119.6822719999999975
20
-154.105874
11
119.5993419999999929
21
-154.2949339999999836
0
LINE
8
BLACK
6
CONTINUOUS
10
119.5993419999999929
20
-154.2949339999999836
11
119.4864259999999945
21
-154.4677659999999833
0
LINE
8
BLACK
6
CONTINUOUS
10
119.4864259999999945
20
-154.4677659999999833
11
119.3466019999999901
21
-154.6196549999999945
0
LINE
8
BLACK
6
CONTINUOUS
10
119.3466019999999901
20
-154.6196549999999945
11
119.183684999999997
21
-154.7464579999999899
0
LINE
8
BLACK
6
CONTINUOUS
10
119.183684999999997
20
-154.7464579999999899
11
119.0021189999999933
21
-154.8447170000000028
0
LINE
8
BLACK
6
CONTINUOUS
10
119.0021189999999933
20
-154.8447170000000028
11
118.8068569999999937
21
-154.9117499999999836
0
LINE
8
BLACK
6
CONTINUOUS
10
118.8068569999999937
20
-154.9117499999999836
11
118.6032239999999973
21
-154.945730999999995
0
LINE
8
BLACK
6
CONTINUOUS
10
118.6032239999999973
20
-154.945730999999995
11
118.3967759999999885
21
-154.945730999999995
0
LINE
8
BLACK
6
CONTINUOUS
10
118.3967759999999885
20
-154.945730999999995
11
118.1931429999999921
21
-154.9117499999999836
0
LINE
8
BLACK
6
CONTINUOUS
10
118.1931429999999921
20
-154.9117499999999836
11
117.9978809999999925
21
-154.8447170000000028
0
LINE
8
BLACK
6
CONTINUOUS
10
117.9978809999999925
20
-154.8447170000000028
11
117.8163149999999888
21
-154.7464579999999899
0
LINE
8
BLACK
6
CONTINUOUS
10
117.8163149999999888
20
-154.7464579999999899
11
117.6533979999999957
21
-154.6196549999999945
0
LINE
8
BLACK
6
CONTINUOUS
10
117.6533979999999957
20
-154.6196549999999945
11
117.5135739999999913
21
-154.4677659999999833
0
LINE
8
BLACK
6
CONTINUOUS
10
117.5135739999999913
20
-154.4677659999999833
11
117.4006579999999929
21
-154.2949339999999836
0
LINE
8
BLACK
6
CONTINUOUS
10
117.4006579999999929
20
-154.2949339999999836
11
117.3177279999999882
21
-154.105874
0
LINE
8
BLACK
6
CONTINUOUS
10
117.3177279999999882
20
-154.105874
11
117.2670479999999884
21
-153.9057430000000011
0
LINE
8
BLACK
6
CONTINUOUS
10
117.2670479999999884
20
-153.9057430000000011
11
117.25
21
-153.6999999999999886
0
LINE
8
BLACK
6
CONTINUOUS
10
117.25
20
-153.6999999999999886
11
117.2537990000000008
21
-153.6883069999999805
0
LINE
8
BLACK
6
CONTINUOUS
10
117.2537990000000008
20
-153.6883069999999805
11
117.25
21
-136.7999999999999829
0
LINE
8
BLACK
6
CONTINUOUS
10
117.25
20
-136.7999999999999829
11
117.2670479999999884
21
-136.5942569999999989
0
LINE
8
BLACK
6
CONTINUOUS
10
117.2670479999999884
20
-136.5942569999999989
11
117.3177279999999882
21
-136.394126
0
LINE
8
BLACK
6
CONTINUOUS
10
117.3177279999999882
20
-136.394126
11
117.4006579999999929
21
-136.205065999999988
0
LINE
8
BLACK
6
CONTINUOUS
10
117.4006579999999929
20
-136.205065999999988
11
117.5135739999999913
21
-136.0322339999999883
0
LINE
8
BLACK
6
CONTINUOUS
10
117.5135739999999913
20
-136.0322339999999883
11
117.6533979999999957
21
-135.8803450000000055
0
LINE
8
BLACK
6
CONTINUOUS
10
117.6533979999999957
20
-135.8803450000000055
11
117.8163149999999888
21
-135.7535419999999817
0
LINE
8
BLACK
6
CONTINUOUS
10
117.8163149999999888
20
-135.7535419999999817
11
117.9978809999999925
21
-135.6552829999999972
0
LINE
8
BLACK
6
CONTINUOUS
10
117.9978809999999925
20
-135.6552829999999972
11
118.1931429999999921
21
-135.5882499999999879
0
LINE
8
BLACK
6
CONTINUOUS
10
118.1931429999999921
20
-135.5882499999999879
11
118.3967759999999885
21
-135.554269000000005
0
LINE
8
BLACK
6
CONTINUOUS
10
118.3967759999999885
20
-135.554269000000005
11
118.6032239999999973
21
-135.554269000000005
0
LINE
8
BLACK
6
CONTINUOUS
10
118.6032239999999973
20
-135.554269000000005
11
118.8068569999999937
21
-135.5882499999999879
0
LINE
8
BLACK
6
CONTINUOUS
10
118.2012209999999897
20
-135.6849420000000066
11
118.012131999999994
21
-135.7537649999999871
0
LINE
8
BLACK
6
CONTINUOUS
10
118.012131999999994
20
-135.7537649999999871
11
117.8378669999999886
21
-135.8543769999999995
0
LINE
8
BLACK
6
CONTINUOUS
10
117.8378669999999886
20
-135.8543769999999995
11
117.6837209999999914
21
-135.9837210000000027
0
LINE
8
BLACK
6
CONTINUOUS
10
117.6837209999999914
20
-135.9837210000000027
11
117.5543769999999881
21
-136.137867
0
LINE
8
BLACK
6
CONTINUOUS
10
117.5543769999999881
20
-136.137867
11
117.45376499999999
21
-136.3121319999999912
0
LINE
8
BLACK
6
CONTINUOUS
10
117.45376499999999
20
-136.3121319999999912
11
117.3849419999999952
21
-136.5012209999999868
0
LINE
8
BLACK
6
CONTINUOUS
10
117.3849419999999952
20
-136.5012209999999868
11
117.3499999999999943
21
-136.699387999999999
0
LINE
8
BLACK
6
CONTINUOUS
10
117.3499999999999943
20
-136.699387999999999
11
117.3499999999999943
21
-136.7999999999999829
0
LINE
8
BLACK
6
CONTINUOUS
10
117.3499999999999943
20
-136.7999999999999829
11
117.3461999999999961
21
-136.8116919999999936
0
LINE
8
BLACK
6
CONTINUOUS
10
117.3461999999999961
20
-136.8116919999999936
11
117.3499999999999943
21
-153.6999999999999886
0
LINE
8
BLACK
6
CONTINUOUS
10
117.3499999999999943
20
-153.6999999999999886
11
117.3499999999999943
21
-153.800612000000001
0
LINE
8
BLACK
6
CONTINUOUS
10
117.3499999999999943
20
-153.800612000000001
11
117.3849419999999952
21
-153.9987789999999848
0
LINE
8
BLACK
6
CONTINUOUS
10
117.3849419999999952
20
-153.9987789999999848
11
117.45376499999999
21
-154.1878679999999804
0
LINE
8
BLACK
6
CONTINUOUS
10
117.45376499999999
20
-154.1878679999999804
11
117.5543769999999881
21
-154.362133
0
LINE
8
BLACK
6
CONTINUOUS
10
117.5543769999999881
20
-154.362133
11
117.6837209999999914
21
-154.5162789999999973
0
LINE
8
BLACK
6
CONTINUOUS
10
117.6837209999999914
20
-154.5162789999999973
11
117.8378669999999886
21
-154.6456230000000005
0
LINE
8
BLACK
6
CONTINUOUS
10
117.8378669999999886
20
-154.6456230000000005
11
118.012131999999994
21
-154.7462349999999844
0
LINE
8
BLACK
6
CONTINUOUS
10
118.012131999999994
20
-154.7462349999999844
11
118.2012209999999897
21
-154.8150579999999934
0
LINE
8
BLACK
6
CONTINUOUS
10
118.2012209999999897
20
-154.8150579999999934
11
118.3993879999999876
21
-154.8499999999999943
0
LINE
8
BLACK
6
CONTINUOUS
10
118.3993879999999876
20
-154.8499999999999943
11
118.6006119999999981
21
-154.8499999999999943
0
LINE
8
BLACK
6
CONTINUOUS
10
118.6006119999999981
20
-154.8499999999999943
11
118.7987789999999961
21
-154.8150579999999934
0
LINE
8
BLACK
6
CONTINUOUS
10
118.7987789999999961
20
-154.8150579999999934
11
118.9878679999999918
21
-154.7462349999999844
0
LINE
8
BLACK
6
CONTINUOUS
10
118.9878679999999918
20
-154.7462349999999844
11
119.1621329999999972
21
-154.6456230000000005
0
LINE
8
BLACK
6
CONTINUOUS
10
119.1621329999999972
20
-154.6456230000000005
11
119.3162789999999944
21
-154.5162789999999973
0
LINE
8
BLACK
6
CONTINUOUS
10
119.3162789999999944
20
-154.5162789999999973
11
119.4456229999999977
21
-154.362133
0
LINE
8
BLACK
6
CONTINUOUS
10
119.4456229999999977
20
-154.362133
11
119.5462349999999958
21
-154.1878679999999804
0
LINE
8
BLACK
6
CONTINUOUS
10
119.5462349999999958
20
-154.1878679999999804
11
119.6150579999999906
21
-153.9987789999999848
0
LINE
8
BLACK
6
CONTINUOUS
10
119.6150579999999906
20
-153.9987789999999848
11
119.6499999999999915
21
-153.800612000000001
0
LINE
8
BLACK
6
CONTINUOUS
10
119.6499999999999915
20
-153.800612000000001
11
119.6499999999999915
21
-153.6999999999999886
0
LINE
8
BLACK
6
CONTINUOUS
10
119.6499999999999915
20
-153.6999999999999886
11
119.6537989999999922
21
-153.6883069999999805
0
LINE
8
BLACK
6
CONTINUOUS
10
119.6537989999999922
20
-153.6883069999999805
11
119.6499999999999915
21
-136.7999999999999829
0
LINE
8
BLACK
6
CONTINUOUS
10
119.6499999999999915
20
-136.7999999999999829
11
119.6499999999999915
21
-136.699387999999999
0
LINE
8
BLACK
6
CONTINUOUS
10
119.6499999999999915
20
-136.699387999999999
11
119.6150579999999906
21
-136.5012209999999868
0
LINE
8
BLACK
6
CONTINUOUS
10
119.6150579999999906
20
-136.5012209999999868
11
119.5462349999999958
21
-136.3121319999999912
0
LINE
8
BLACK
6
CONTINUOUS
10
119.5462349999999958
20
-136.3121319999999912
11
119.4456229999999977
21
-136.137867
0
LINE
8
BLACK
6
CONTINUOUS
10
119.4456229999999977
20
-136.137867
11
119.3162789999999944
21
-135.9837210000000027
0
LINE
8
BLACK
6
CONTINUOUS
10
119.3162789999999944
20
-135.9837210000000027
11
119.1621329999999972
21
-135.8543769999999995
0
LINE
8
BLACK
6
CONTINUOUS
10
119.1621329999999972
20
-135.8543769999999995
11
118.9878679999999918
21
-135.7537649999999871
0
LINE
8
BLACK
6
CONTINUOUS
10
118.9878679999999918
20
-135.7537649999999871
11
118.7987789999999961
21
-135.6849420000000066
0
LINE
8
BLACK
6
CONTINUOUS
10
118.7987789999999961
20
-135.6849420000000066
11
118.6006119999999981
21
-135.6500000000000057
0
LINE
8
BLACK
6
CONTINUOUS
10
118.6006119999999981
20
-135.6500000000000057
11
118.3993879999999876
21
-135.6500000000000057
0
LINE
8
BLACK
6
CONTINUOUS
10
118.3993879999999876
20
-135.6500000000000057
11
118.2012209999999897
21
-135.6849420000000066
0
LINE
8
BLACK
6
CONTINUOUS
10
135.6905869999999936
20
-145.5619259999999997
11
135.7750000000000057
21
-145.5968909999999994
0
LINE
8
BLACK
6
CONTINUOUS
10
135.7750000000000057
20
-145.5968909999999994
11
135.847487000000001
21
-145.652512999999999
0
LINE
8
BLACK
6
CONTINUOUS
10
135.847487000000001
20
-145.652512999999999
11
135.9031090000000006
21
-145.7249999999999943
0
LINE
8
BLACK
6
CONTINUOUS
10
135.9031090000000006
20
-145.7249999999999943
11
135.9380740000000003
21
-145.8094130000000064
0
LINE
8
BLACK
6
CONTINUOUS
10
135.9380740000000003
20
-145.8094130000000064
11
135.9499999999999886
21
-145.9000000000000057
0
LINE
8
BLACK
6
CONTINUOUS
10
135.9499999999999886
20
-145.9000000000000057
11
135.9462419999999838
21
-145.911564999999996
0
LINE
8
BLACK
6
CONTINUOUS
10
135.9462419999999838
20
-145.911564999999996
11
135.9499999999999886
21
-148.2999999999999829
0
LINE
8
BLACK
6
CONTINUOUS
10
135.9499999999999886
20
-148.2999999999999829
11
135.9380740000000003
21
-148.3905869999999823
0
LINE
8
BLACK
6
CONTINUOUS
10
135.9380740000000003
20
-148.3905869999999823
11
135.9031090000000006
21
-148.4749999999999943
0
LINE
8
BLACK
6
CONTINUOUS
10
135.9031090000000006
20
-148.4749999999999943
11
135.847487000000001
21
-148.5474869999999896
0
LINE
8
BLACK
6
CONTINUOUS
10
135.847487000000001
20
-148.5474869999999896
11
135.7750000000000057
21
-148.6031089999999892
0
LINE
8
BLACK
6
CONTINUOUS
10
135.7750000000000057
20
-148.6031089999999892
11
135.6905869999999936
21
-148.6380739999999889
0
LINE
8
BLACK
6
CONTINUOUS
10
135.6905869999999936
20
-148.6380739999999889
11
135.5999999999999943
21
-148.6500000000000057
0
LINE
8
BLACK
6
CONTINUOUS
10
135.5999999999999943
20
-148.6500000000000057
11
135.5883210000000076
21
-148.6462049999999806
0
LINE
8
BLACK
6
CONTINUOUS
10
135.5883210000000076
20
-148.6462049999999806
11
125.3999999999999915
21
-148.6500000000000057
0
LINE
8
BLACK
6
CONTINUOUS
10
125.3999999999999915
20
-148.6500000000000057
11
125.3094129999999922
21
-148.6380739999999889
0
LINE
8
BLACK
6
CONTINUOUS
10
125.3094129999999922
20
-148.6380739999999889
11
125.2249999999999943
21
-148.6031089999999892
0
LINE
8
BLACK
6
CONTINUOUS
10
125.2249999999999943
20
-148.6031089999999892
11
125.152512999999999
21
-148.5474869999999896
0
LINE
8
BLACK
6
CONTINUOUS
10
125.152512999999999
20
-148.5474869999999896
11
125.0968909999999994
21
-148.4749999999999943
0
LINE
8
BLACK
6
CONTINUOUS
10
125.0968909999999994
20
-148.4749999999999943
11
125.0619259999999997
21
-148.3905869999999823
0
LINE
8
BLACK
6
CONTINUOUS
10
125.0619259999999997
20
-148.3905869999999823
11
125.0499999999999972
21
-148.2999999999999829
0
LINE
8
BLACK
6
CONTINUOUS
10
125.0499999999999972
20
-148.2999999999999829
11
125.0537569999999903
21
-148.2884339999999952
0
LINE
8
BLACK
6
CONTINUOUS
10
125.0537569999999903
20
-148.2884339999999952
11
125.0499999999999972
21
-145.9000000000000057
0
LINE
8
BLACK
6
CONTINUOUS
10
125.0499999999999972
20
-145.9000000000000057
11
125.0619259999999997
21
-145.8094130000000064
0
LINE
8
BLACK
6
CONTINUOUS
10
125.0619259999999997
20
-145.8094130000000064
11
125.0968909999999994
21
-145.7249999999999943
0
LINE
8
BLACK
6
CONTINUOUS
10
125.0968909999999994
20
-145.7249999999999943
11
125.152512999999999
21
-145.652512999999999
0
LINE
8
BLACK
6
CONTINUOUS
10
125.152512999999999
20
-145.652512999999999
11
125.2249999999999943
21
-145.5968909999999994
0
LINE
8
BLACK
6
CONTINUOUS
10
125.2249999999999943
20
-145.5968909999999994
11
125.3094129999999922
21
-145.5619259999999997
0
LINE
8
BLACK
6
CONTINUOUS
10
125.3094129999999922
20
-145.5619259999999997
11
125.3999999999999915
21
-145.5499999999999829
0
LINE
8
BLACK
6
CONTINUOUS
10
125.3999999999999915
20
-145.5499999999999829
11
125.4116779999999949
21
-145.5537939999999821
0
LINE
8
BLACK
6
CONTINUOUS
10
125.4116779999999949
20
-145.5537939999999821
11
135.5999999999999943
21
-145.5499999999999829
0
LINE
8
BLACK
6
CONTINUOUS
10
135.5999999999999943
20
-145.5499999999999829
11
135.6905869999999936
21
-145.5619259999999997
0
LINE
8
BLACK
6
CONTINUOUS
10
125.3999999999999915
20
-145.6500000000000057
11
125.3604039999999884
21
-145.6500000000000057
0
LINE
8
BLACK
6
CONTINUOUS
10
125.3604039999999884
20
-145.6500000000000057
11
125.2850879999999876
21
-145.6744719999999802
0
LINE
8
BLACK
6
CONTINUOUS
10
125.2850879999999876
20
-145.6744719999999802
11
125.2210199999999958
21
-145.7210199999999816
0
LINE
8
BLACK
6
CONTINUOUS
10
125.2210199999999958
20
-145.7210199999999816
11
125.1744719999999944
21
-145.7850880000000018
0
LINE
8
BLACK
6
CONTINUOUS
10
125.1744719999999944
20
-145.7850880000000018
11
125.1499999999999915
21
-145.8604039999999884
0
LINE
8
BLACK
6
CONTINUOUS
10
125.1499999999999915
20
-145.8604039999999884
11
125.1499999999999915
21
-145.9000000000000057
0
LINE
8
BLACK
6
CONTINUOUS
10
125.1499999999999915
20
-145.9000000000000057
11
125.1462420000000009
21
-145.911564999999996
0
LINE
8
BLACK
6
CONTINUOUS
10
125.1462420000000009
20
-145.911564999999996
11
125.1499999999999915
21
-148.2999999999999829
0
LINE
8
BLACK
6
CONTINUOUS
10
125.1499999999999915
20
-148.2999999999999829
11
125.1499999999999915
21
-148.3395960000000002
0
LINE
8
BLACK
6
CONTINUOUS
10
125.1499999999999915
20
-148.3395960000000002
11
125.1744719999999944
21
-148.4149119999999868
0
LINE
8
BLACK
6
CONTINUOUS
10
125.1744719999999944
20
-148.4149119999999868
11
125.2210199999999958
21
-148.4789800000000071
0
LINE
8
BLACK
6
CONTINUOUS
10
125.2210199999999958
20
-148.4789800000000071
11
125.2850879999999876
21
-148.52552799999998
0
LINE
8
BLACK
6
CONTINUOUS
10
125.2850879999999876
20
-148.52552799999998
11
125.3604039999999884
21
-148.5499999999999829
0
LINE
8
BLACK
6
CONTINUOUS
10
125.3604039999999884
20
-148.5499999999999829
11
125.3999999999999915
21
-148.5499999999999829
0
LINE
8
BLACK
6
CONTINUOUS
10
125.3999999999999915
20
-148.5499999999999829
11
125.4116779999999949
21
-148.5537939999999821
0
LINE
8
BLACK
6
CONTINUOUS
10
125.4116779999999949
20
-148.5537939999999821
11
135.5999999999999943
21
-148.5499999999999829
0
LINE
8
BLACK
6
CONTINUOUS
10
135.5999999999999943
20
-148.5499999999999829
11
135.6395959999999832
21
-148.5499999999999829
0
LINE
8
BLACK
6
CONTINUOUS
10
135.6395959999999832
20
-148.5499999999999829
11
135.7149119999999982
21
-148.52552799999998
0
LINE
8
BLACK
6
CONTINUOUS
10
135.7149119999999982
20
-148.52552799999998
11
135.77897999999999
21
-148.4789800000000071
0
LINE
8
BLACK
6
CONTINUOUS
10
135.77897999999999
20
-148.4789800000000071
11
135.8255279999999914
21
-148.4149119999999868
0
LINE
8
BLACK
6
CONTINUOUS
10
135.8255279999999914
20
-148.4149119999999868
11
135.8499999999999943
21
-148.3395960000000002
0
LINE
8
BLACK
6
CONTINUOUS
10
135.8499999999999943
20
-148.3395960000000002
11
135.8499999999999943
21
-148.2999999999999829
0
LINE
8
BLACK
6
CONTINUOUS
10
135.8499999999999943
20
-148.2999999999999829
11
135.8537570000000017
21
-148.2884339999999952
0
LINE
8
BLACK
6
CONTINUOUS
10
135.8537570000000017
20
-148.2884339999999952
11
135.8499999999999943
21
-145.9000000000000057
0
LINE
8
BLACK
6
CONTINUOUS
10
135.8499999999999943
20
-145.9000000000000057
11
135.8499999999999943
21
-145.8604039999999884
0
LINE
8
BLACK
6
CONTINUOUS
10
135.8499999999999943
20
-145.8604039999999884
11
135.8255279999999914
21
-145.7850880000000018
0
LINE
8
BLACK
6
CONTINUOUS
10
135.8255279999999914
20
-145.7850880000000018
11
135.77897999999999
21
-145.7210199999999816
0
LINE
8
BLACK
6
CONTINUOUS
10
135.77897999999999
20
-145.7210199999999816
11
135.7149119999999982
21
-145.6744719999999802
0
LINE
8
BLACK
6
CONTINUOUS
10
135.7149119999999982
20
-145.6744719999999802
11
135.6395959999999832
21
-145.6500000000000057
0
LINE
8
BLACK
6
CONTINUOUS
10
135.6395959999999832
20
-145.6500000000000057
11
135.5999999999999943
21
-145.6500000000000057
0
LINE
8
BLACK
6
CONTINUOUS
10
135.5999999999999943
20
-145.6500000000000057
11
135.5883210000000076
21
-145.6462049999999806
0
LINE
8
BLACK
6
CONTINUOUS
10
135.5883210000000076
20
-145.6462049999999806
11
125.3999999999999915
21
-145.6500000000000057
0
LINE
8
BLACK
6
CONTINUOUS
10
91.800430999999989
20
-111.5909070000000014
11
91.8910300000000007
21
-111.6370689999999968
0
LINE
8
BLACK
6
CONTINUOUS
10
91.8910300000000007
20
-111.6370689999999968
11
91.9629309999999975
21
-111.7089699999999937
0
LINE
8
BLACK
6
CONTINUOUS
10
91.9629309999999975
20
-111.7089699999999937
11
92.0090929999999929
21
-111.7995689999999911
0
LINE
8
BLACK
6
CONTINUOUS
10
92.0090929999999929
20
-111.7995689999999911
11
92.0249999999999915
21
-111.8999999999999915
0
LINE
8
BLACK
6
CONTINUOUS
10
92.0249999999999915
20
-111.8999999999999915
11
92.023099000000002
21
-111.9058489999999892
0
LINE
8
BLACK
6
CONTINUOUS
10
92.023099000000002
20
-111.9058489999999892
11
92.0249999999999915
21
-125.2999999999999972
0
LINE
8
BLACK
6
CONTINUOUS
10
92.0249999999999915
20
-125.2999999999999972
11
92.0090929999999929
21
-125.4004309999999975
0
LINE
8
BLACK
6
CONTINUOUS
10
92.0090929999999929
20
-125.4004309999999975
11
91.9629309999999975
21
-125.491029999999995
0
LINE
8
BLACK
6
CONTINUOUS
10
91.9629309999999975
20
-125.491029999999995
11
91.8910300000000007
21
-125.5629309999999919
0
LINE
8
BLACK
6
CONTINUOUS
10
91.8910300000000007
20
-125.5629309999999919
11
91.800430999999989
21
-125.6090929999999872
0
LINE
8
BLACK
6
CONTINUOUS
10
91.800430999999989
20
-125.6090929999999872
11
91.7000000000000028
21
-125.625
0
LINE
8
BLACK
6
CONTINUOUS
10
91.7000000000000028
20
-125.625
11
91.6941499999999934
21
-125.6230989999999963
0
LINE
8
BLACK
6
CONTINUOUS
10
91.6941499999999934
20
-125.6230989999999963
11
78.2999999999999972
21
-125.625
0
LINE
8
BLACK
6
CONTINUOUS
10
78.2999999999999972
20
-125.625
11
78.1995689999999968
21
-125.6090929999999872
0
LINE
8
BLACK
6
CONTINUOUS
10
78.1995689999999968
20
-125.6090929999999872
11
78.1089699999999993
21
-125.5629309999999919
0
LINE
8
BLACK
6
CONTINUOUS
10
78.1089699999999993
20
-125.5629309999999919
11
78.0370690000000025
21
-125.491029999999995
0
LINE
8
BLACK
6
CONTINUOUS
10
78.0370690000000025
20
-125.491029999999995
11
77.9909069999999929
21
-125.4004309999999975
0
LINE
8
BLACK
6
CONTINUOUS
10
77.9909069999999929
20
-125.4004309999999975
11
77.9749999999999943
21
-125.2999999999999972
0
LINE
8
BLACK
6
CONTINUOUS
10
77.9749999999999943
20
-125.2999999999999972
11
77.9769000000000005
21
-125.2941499999999877
0
LINE
8
BLACK
6
CONTINUOUS
10
77.9769000000000005
20
-125.2941499999999877
11
77.9749999999999943
21
-111.8999999999999915
0
LINE
8
BLACK
6
CONTINUOUS
10
77.9749999999999943
20
-111.8999999999999915
11
77.9909069999999929
21
-111.7995689999999911
0
LINE
8
BLACK
6
CONTINUOUS
10
77.9909069999999929
20
-111.7995689999999911
11
78.0370690000000025
21
-111.7089699999999937
0
LINE
8
BLACK
6
CONTINUOUS
10
78.0370690000000025
20
-111.7089699999999937
11
78.1089699999999993
21
-111.6370689999999968
0
LINE
8
BLACK
6
CONTINUOUS
10
78.1089699999999993
20
-111.6370689999999968
11
78.1995689999999968
21
-111.5909070000000014
0
LINE
8
BLACK
6
CONTINUOUS
10
78.1995689999999968
20
-111.5909070000000014
11
78.2999999999999972
21
-111.5749999999999886
0
LINE
8
BLACK
6
CONTINUOUS
10
78.2999999999999972
20
-111.5749999999999886
11
78.3058489999999949
21
-111.5768999999999949
0
LINE
8
BLACK
6
CONTINUOUS
10
78.3058489999999949
20
-111.5768999999999949
11
91.7000000000000028
21
-111.5749999999999886
0
LINE
8
BLACK
6
CONTINUOUS
10
91.7000000000000028
20
-111.5749999999999886
11
91.800430999999989
21
-111.5909070000000014
0
LINE
8
BLACK
6
CONTINUOUS
10
78.2999999999999972
20
-111.625
11
78.2564440000000019
21
-111.625
0
LINE
8
BLACK
6
CONTINUOUS
10
78.2564440000000019
20
-111.625
11
78.1735960000000034
21
-111.6519189999999924
0
LINE
8
BLACK
6
CONTINUOUS
10
78.1735960000000034
20
-111.6519189999999924
11
78.103121999999999
21
-111.7031219999999934
0
LINE
8
BLACK
6
CONTINUOUS
10
78.103121999999999
20
-111.7031219999999934
11
78.0519189999999981
21
-111.7735959999999977
0
LINE
8
BLACK
6
CONTINUOUS
10
78.0519189999999981
20
-111.7735959999999977
11
78.0249999999999915
21
-111.8564439999999962
0
LINE
8
BLACK
6
CONTINUOUS
10
78.0249999999999915
20
-111.8564439999999962
11
78.0249999999999915
21
-111.8999999999999915
0
LINE
8
BLACK
6
CONTINUOUS
10
78.0249999999999915
20
-111.8999999999999915
11
78.023099000000002
21
-111.9058489999999892
0
LINE
8
BLACK
6
CONTINUOUS
10
78.023099000000002
20
-111.9058489999999892
11
78.0249999999999915
21
-125.2999999999999972
0
LINE
8
BLACK
6
CONTINUOUS
10
78.0249999999999915
20
-125.2999999999999972
11
78.0249999999999915
21
-125.3435559999999924
0
LINE
8
BLACK
6
CONTINUOUS
10
78.0249999999999915
20
-125.3435559999999924
11
78.0519189999999981
21
-125.4264039999999909
0
LINE
8
BLACK
6
CONTINUOUS
10
78.0519189999999981
20
-125.4264039999999909
11
78.103121999999999
21
-125.4968779999999953
0
LINE
8
BLACK
6
CONTINUOUS
10
78.103121999999999
20
-125.4968779999999953
11
78.1735960000000034
21
-125.5480809999999963
0
LINE
8
BLACK
6
CONTINUOUS
10
78.1735960000000034
20
-125.5480809999999963
11
78.2564440000000019
21
-125.5749999999999886
0
LINE
8
BLACK
6
CONTINUOUS
10
78.2564440000000019
20
-125.5749999999999886
11
78.2999999999999972
21
-125.5749999999999886
0
LINE
8
BLACK
6
CONTINUOUS
10
78.2999999999999972
20
-125.5749999999999886
11
78.3058489999999949
21
-125.5768999999999949
0
LINE
8
BLACK
6
CONTINUOUS
10
78.3058489999999949
20
-125.5768999999999949
11
91.7000000000000028
21
-125.5749999999999886
0
LINE
8
BLACK
6
CONTINUOUS
10
91.7000000000000028
20
-125.5749999999999886
11
91.7435559999999981
21
-125.5749999999999886
0
LINE
8
BLACK
6
CONTINUOUS
10
91.7435559999999981
20
-125.5749999999999886
11
91.8264039999999966
21
-125.5480809999999963
0
LINE
8
BLACK
6
CONTINUOUS
10
91.8264039999999966
20
-125.5480809999999963
11
91.896878000000001
21
-125.4968779999999953
0
LINE
8
BLACK
6
CONTINUOUS
10
91.896878000000001
20
-125.4968779999999953
11
91.9480810000000019
21
-125.4264039999999909
0
LINE
8
BLACK
6
CONTINUOUS
10
91.9480810000000019
20
-125.4264039999999909
11
91.9749999999999943
21
-125.3435559999999924
0
LINE
8
BLACK
6
CONTINUOUS
10
91.9749999999999943
20
-125.3435559999999924
11
91.9749999999999943
21
-125.2999999999999972
0
LINE
8
BLACK
6
CONTINUOUS
10
91.9749999999999943
20
-125.2999999999999972
11
91.9769000000000005
21
-125.2941499999999877
0
LINE
8
BLACK
6
CONTINUOUS
10
91.9769000000000005
20
-125.2941499999999877
11
91.9749999999999943
21
-111.8999999999999915
0
LINE
8
BLACK
6
CONTINUOUS
10
91.9749999999999943
20
-111.8999999999999915
11
91.9749999999999943
21
-111.8564439999999962
0
LINE
8
BLACK
6
CONTINUOUS
10
91.9749999999999943
20
-111.8564439999999962
11
91.9480810000000019
21
-111.7735959999999977
0
LINE
8
BLACK
6
CONTINUOUS
10
91.9480810000000019
20
-111.7735959999999977
11
91.896878000000001
21
-111.7031219999999934
0
LINE
8
BLACK
6
CONTINUOUS
10
91.896878000000001
20
-111.7031219999999934
11
91.8264039999999966
21
-111.6519189999999924
0
LINE
8
BLACK
6
CONTINUOUS
10
91.8264039999999966
20
-111.6519189999999924
11
91.7435559999999981
21
-111.625
0
LINE
8
BLACK
6
CONTINUOUS
10
91.7435559999999981
20
-111.625
11
91.7000000000000028
21
-111.625
0
LINE
8
BLACK
6
CONTINUOUS
10
91.7000000000000028
20
-111.625
11
91.6941499999999934
21
-111.6230989999999963
0
LINE
8
BLACK
6
CONTINUOUS
10
91.6941499999999934
20
-111.6230989999999963
11
78.2999999999999972
21
-111.625
0
LINE
8
BLACK
6
CONTINUOUS
10
110.800430999999989
20
-111.5909070000000014
11
110.8910300000000007
21
-111.6370689999999968
0
LINE
8
BLACK
6
CONTINUOUS
10
110.8910300000000007
20
-111.6370689999999968
11
110.9629309999999975
21
-111.7089699999999937
0
LINE
8
BLACK
6
CONTINUOUS
10
110.9629309999999975
20
-111.7089699999999937
11
111.0090929999999929
21
-111.7995689999999911
0
LINE
8
BLACK
6
CONTINUOUS
10
111.0090929999999929
20
-111.7995689999999911
11
111.0249999999999915
21
-111.8999999999999915
0
LINE
8
BLACK
6
CONTINUOUS
10
111.0249999999999915
20
-111.8999999999999915
11
111.023099000000002
21
-111.9058489999999892
0
LINE
8
BLACK
6
CONTINUOUS
10
111.023099000000002
20
-111.9058489999999892
11
111.0249999999999915
21
-125.2999999999999972
0
LINE
8
BLACK
6
CONTINUOUS
10
111.0249999999999915
20
-125.2999999999999972
11
111.0090929999999929
21
-125.4004309999999975
0
LINE
8
BLACK
6
CONTINUOUS
10
111.0090929999999929
20
-125.4004309999999975
11
110.9629309999999975
21
-125.491029999999995
0
LINE
8
BLACK
6
CONTINUOUS
10
110.9629309999999975
20
-125.491029999999995
11
110.8910300000000007
21
-125.5629309999999919
0
LINE
8
BLACK
6
CONTINUOUS
10
110.8910300000000007
20
-125.5629309999999919
11
110.800430999999989
21
-125.6090929999999872
0
LINE
8
BLACK
6
CONTINUOUS
10
110.800430999999989
20
-125.6090929999999872
11
110.6999999999999886
21
-125.625
0
LINE
8
BLACK
6
CONTINUOUS
10
110.6999999999999886
20
-125.625
11
110.6941499999999934
21
-125.6230989999999963
0
LINE
8
BLACK
6
CONTINUOUS
10
110.6941499999999934
20
-125.6230989999999963
11
97.2999999999999972
21
-125.625
0
LINE
8
BLACK
6
CONTINUOUS
10
97.2999999999999972
20
-125.625
11
97.1995689999999968
21
-125.6090929999999872
0
LINE
8
BLACK
6
CONTINUOUS
10
97.1995689999999968
20
-125.6090929999999872
11
97.1089699999999993
21
-125.5629309999999919
0
LINE
8
BLACK
6
CONTINUOUS
10
97.1089699999999993
20
-125.5629309999999919
11
97.0370690000000025
21
-125.491029999999995
0
LINE
8
BLACK
6
CONTINUOUS
10
97.0370690000000025
20
-125.491029999999995
11
96.9909069999999929
21
-125.4004309999999975
0
LINE
8
BLACK
6
CONTINUOUS
10
96.9909069999999929
20
-125.4004309999999975
11
96.9749999999999943
21
-125.2999999999999972
0
LINE
8
BLACK
6
CONTINUOUS
10
96.9749999999999943
20
-125.2999999999999972
11
96.9769000000000005
21
-125.2941499999999877
0
LINE
8
BLACK
6
CONTINUOUS
10
96.9769000000000005
20
-125.2941499999999877
11
96.9749999999999943
21
-111.8999999999999915
0
LINE
8
BLACK
6
CONTINUOUS
10
96.9749999999999943
20
-111.8999999999999915
11
96.9909069999999929
21
-111.7995689999999911
0
LINE
8
BLACK
6
CONTINUOUS
10
96.9909069999999929
20
-111.7995689999999911
11
97.0370690000000025
21
-111.7089699999999937
0
LINE
8
BLACK
6
CONTINUOUS
10
97.0370690000000025
20
-111.7089699999999937
11
97.1089699999999993
21
-111.6370689999999968
0
LINE
8
BLACK
6
CONTINUOUS
10
97.1089699999999993
20
-111.6370689999999968
11
97.1995689999999968
21
-111.5909070000000014
0
LINE
8
BLACK
6
CONTINUOUS
10
97.1995689999999968
20
-111.5909070000000014
11
97.2999999999999972
21
-111.5749999999999886
0
LINE
8
BLACK
6
CONTINUOUS
10
97.2999999999999972
20
-111.5749999999999886
11
97.3058489999999949
21
-111.5768999999999949
0
LINE
8
BLACK
6
CONTINUOUS
10
97.3058489999999949
20
-111.5768999999999949
11
110.6999999999999886
21
-111.5749999999999886
0
LINE
8
BLACK
6
CONTINUOUS
10
110.6999999999999886
20
-111.5749999999999886
11
110.800430999999989
21
-111.5909070000000014
0
LINE
8
BLACK
6
CONTINUOUS
10
97.2999999999999972
20
-111.625
11
97.2564440000000019
21
-111.625
0
LINE
8
BLACK
6
CONTINUOUS
10
97.2564440000000019
20
-111.625
11
97.1735959999999892
21
-111.6519189999999924
0
LINE
8
BLACK
6
CONTINUOUS
10
97.1735959999999892
20
-111.6519189999999924
11
97.103121999999999
21
-111.7031219999999934
0
LINE
8
BLACK
6
CONTINUOUS
10
97.103121999999999
20
-111.7031219999999934
11
97.0519189999999981
21
-111.7735959999999977
0
LINE
8
BLACK
6
CONTINUOUS
10
97.0519189999999981
20
-111.7735959999999977
11
97.0249999999999915
21
-111.8564439999999962
0
LINE
8
BLACK
6
CONTINUOUS
10
97.0249999999999915
20
-111.8564439999999962
11
97.0249999999999915
21
-111.8999999999999915
0
LINE
8
BLACK
6
CONTINUOUS
10
97.0249999999999915
20
-111.8999999999999915
11
97.023099000000002
21
-111.9058489999999892
0
LINE
8
BLACK
6
CONTINUOUS
10
97.023099000000002
20
-111.9058489999999892
11
97.0249999999999915
21
-125.2999999999999972
0
LINE
8
BLACK
6
CONTINUOUS
10
97.0249999999999915
20
-125.2999999999999972
11
97.0249999999999915
21
-125.3435559999999924
0
LINE
8
BLACK
6
CONTINUOUS
10
97.0249999999999915
20
-125.3435559999999924
11
97.0519189999999981
21
-125.4264039999999909
0
LINE
8
BLACK
6
CONTINUOUS
10
97.0519189999999981
20
-125.4264039999999909
11
97.103121999999999
21
-125.4968779999999953
0
LINE
8
BLACK
6
CONTINUOUS
10
97.103121999999999
20
-125.4968779999999953
11
97.1735959999999892
21
-125.5480809999999963
0
LINE
8
BLACK
6
CONTINUOUS
10
97.1735959999999892
20
-125.5480809999999963
11
97.2564440000000019
21
-125.5749999999999886
0
LINE
8
BLACK
6
CONTINUOUS
10
97.2564440000000019
20
-125.5749999999999886
11
97.2999999999999972
21
-125.5749999999999886
0
LINE
8
BLACK
6
CONTINUOUS
10
97.2999999999999972
20
-125.5749999999999886
11
97.3058489999999949
21
-125.5768999999999949
0
LINE
8
BLACK
6
CONTINUOUS
10
97.3058489999999949
20
-125.5768999999999949
11
110.6999999999999886
21
-125.5749999999999886
0
LINE
8
BLACK
6
CONTINUOUS
10
110.6999999999999886
20
-125.5749999999999886
11
110.7435559999999981
21
-125.5749999999999886
0
LINE
8
BLACK
6
CONTINUOUS
10
110.7435559999999981
20
-125.5749999999999886
11
110.8264039999999966
21
-125.5480809999999963
0
LINE
8
BLACK
6
CONTINUOUS
10
110.8264039999999966
20
-125.5480809999999963
11
110.896878000000001
21
-125.4968779999999953
0
LINE
8
BLACK
6
CONTINUOUS
10
110.896878000000001
20
-125.4968779999999953
11
110.9480810000000019
21
-125.4264039999999909
0
LINE
8
BLACK
6
CONTINUOUS
10
110.9480810000000019
20
-125.4264039999999909
11
110.9749999999999943
21
-125.3435559999999924
0
LINE
8
BLACK
6
CONTINUOUS
10
110.9749999999999943
20
-125.3435559999999924
11
110.9749999999999943
21
-125.2999999999999972
0
LINE
8
BLACK
6
CONTINUOUS
10
110.9749999999999943
20
-125.2999999999999972
11
110.9769000000000005
21
-125.2941499999999877
0
LINE
8
BLACK
6
CONTINUOUS
10
110.9769000000000005
20
-125.2941499999999877
11
110.9749999999999943
21
-111.8999999999999915
0
LINE
8
BLACK
6
CONTINUOUS
10
110.9749999999999943
20
-111.8999999999999915
11
110.9749999999999943
21
-111.8564439999999962
0
LINE
8
BLACK
6
CONTINUOUS
10
110.9749999999999943
20
-111.8564439999999962
11
110.9480810000000019
21
-111.7735959999999977
0
LINE
8
BLACK
6
CONTINUOUS
10
110.9480810000000019
20
-111.7735959999999977
11
110.896878000000001
21
-111.7031219999999934
0
LINE
8
BLACK
6
CONTINUOUS
10
110.896878000000001
20
-111.7031219999999934
11
110.8264039999999966
21
-111.6519189999999924
0
LINE
8
BLACK
6
CONTINUOUS
10
110.8264039999999966
20
-111.6519189999999924
11
110.7435559999999981
21
-111.625
0
LINE
8
BLACK
6
CONTINUOUS
10
110.7435559999999981
20
-111.625
11
110.6999999999999886
21
-111.625
0
LINE
8
BLACK
6
CONTINUOUS
10
110.6999999999999886
20
-111.625
11
110.6941499999999934
21
-111.6230989999999963
0
LINE
8
BLACK
6
CONTINUOUS
10
110.6941499999999934
20
-111.6230989999999963
11
97.2999999999999972
21
-111.625
0
LINE
8
BLACK
6
CONTINUOUS
10
129.8004310000000032
20
-111.5909070000000014
11
129.8910300000000007
21
-111.6370689999999968
0
LINE
8
BLACK
6
CONTINUOUS
10
129.8910300000000007
20
-111.6370689999999968
11
129.9629309999999975
21
-111.7089699999999937
0
LINE
8
BLACK
6
CONTINUOUS
10
129.9629309999999975
20
-111.7089699999999937
11
130.0090930000000071
21
-111.7995689999999911
0
LINE
8
BLACK
6
CONTINUOUS
10
130.0090930000000071
20
-111.7995689999999911
11
130.0250000000000057
21
-111.8999999999999915
0
LINE
8
BLACK
6
CONTINUOUS
10
130.0250000000000057
20
-111.8999999999999915
11
130.023099000000002
21
-111.9058489999999892
0
LINE
8
BLACK
6
CONTINUOUS
10
130.023099000000002
20
-111.9058489999999892
11
130.0250000000000057
21
-125.2999999999999972
0
LINE
8
BLACK
6
CONTINUOUS
10
130.0250000000000057
20
-125.2999999999999972
11
130.0090930000000071
21
-125.4004309999999975
0
LINE
8
BLACK
6
CONTINUOUS
10
130.0090930000000071
20
-125.4004309999999975
11
129.9629309999999975
21
-125.491029999999995
0
LINE
8
BLACK
6
CONTINUOUS
10
129.9629309999999975
20
-125.491029999999995
11
129.8910300000000007
21
-125.5629309999999919
0
LINE
8
BLACK
6
CONTINUOUS
10
129.8910300000000007
20
-125.5629309999999919
11
129.8004310000000032
21
-125.6090929999999872
0
LINE
8
BLACK
6
CONTINUOUS
10
129.8004310000000032
20
-125.6090929999999872
11
129.6999999999999886
21
-125.625
0
LINE
8
BLACK
6
CONTINUOUS
10
129.6999999999999886
20
-125.625
11
129.6941500000000076
21
-125.6230989999999963
0
LINE
8
BLACK
6
CONTINUOUS
10
129.6941500000000076
20
-125.6230989999999963
11
116.2999999999999972
21
-125.625
0
LINE
8
BLACK
6
CONTINUOUS
10
116.2999999999999972
20
-125.625
11
116.1995689999999968
21
-125.6090929999999872
0
LINE
8
BLACK
6
CONTINUOUS
10
116.1995689999999968
20
-125.6090929999999872
11
116.1089699999999993
21
-125.5629309999999919
0
LINE
8
BLACK
6
CONTINUOUS
10
116.1089699999999993
20
-125.5629309999999919
11
116.0370689999999883
21
-125.491029999999995
0
LINE
8
BLACK
6
CONTINUOUS
10
116.0370689999999883
20
-125.491029999999995
11
115.9909069999999929
21
-125.4004309999999975
0
LINE
8
BLACK
6
CONTINUOUS
10
115.9909069999999929
20
-125.4004309999999975
11
115.9749999999999943
21
-125.2999999999999972
0
LINE
8
BLACK
6
CONTINUOUS
10
115.9749999999999943
20
-125.2999999999999972
11
115.9769000000000005
21
-125.2941499999999877
0
LINE
8
BLACK
6
CONTINUOUS
10
115.9769000000000005
20
-125.2941499999999877
11
115.9749999999999943
21
-111.8999999999999915
0
LINE
8
BLACK
6
CONTINUOUS
10
115.9749999999999943
20
-111.8999999999999915
11
115.9909069999999929
21
-111.7995689999999911
0
LINE
8
BLACK
6
CONTINUOUS
10
115.9909069999999929
20
-111.7995689999999911
11
116.0370689999999883
21
-111.7089699999999937
0
LINE
8
BLACK
6
CONTINUOUS
10
116.0370689999999883
20
-111.7089699999999937
11
116.1089699999999993
21
-111.6370689999999968
0
LINE
8
BLACK
6
CONTINUOUS
10
116.1089699999999993
20
-111.6370689999999968
11
116.1995689999999968
21
-111.5909070000000014
0
LINE
8
BLACK
6
CONTINUOUS
10
116.1995689999999968
20
-111.5909070000000014
11
116.2999999999999972
21
-111.5749999999999886
0
LINE
8
BLACK
6
CONTINUOUS
10
116.2999999999999972
20
-111.5749999999999886
11
116.3058489999999949
21
-111.5768999999999949
0
LINE
8
BLACK
6
CONTINUOUS
10
116.3058489999999949
20
-111.5768999999999949
11
129.6999999999999886
21
-111.5749999999999886
0
LINE
8
BLACK
6
CONTINUOUS
10
129.6999999999999886
20
-111.5749999999999886
11
129.8004310000000032
21
-111.5909070000000014
0
LINE
8
BLACK
6
CONTINUOUS
10
116.2999999999999972
20
-111.625
11
116.2564439999999877
21
-111.625
0
LINE
8
BLACK
6
CONTINUOUS
10
116.2564439999999877
20
-111.625
11
116.1735959999999892
21
-111.6519189999999924
0
LINE
8
BLACK
6
CONTINUOUS
10
116.1735959999999892
20
-111.6519189999999924
11
116.103121999999999
21
-111.7031219999999934
0
LINE
8
BLACK
6
CONTINUOUS
10
116.103121999999999
20
-111.7031219999999934
11
116.0519189999999981
21
-111.7735959999999977
0
LINE
8
BLACK
6
CONTINUOUS
10
116.0519189999999981
20
-111.7735959999999977
11
116.0249999999999915
21
-111.8564439999999962
0
LINE
8
BLACK
6
CONTINUOUS
10
116.0249999999999915
20
-111.8564439999999962
11
116.0249999999999915
21
-111.8999999999999915
0
LINE
8
BLACK
6
CONTINUOUS
10
116.0249999999999915
20
-111.8999999999999915
11
116.0230989999999878
21
-111.9058489999999892
0
LINE
8
BLACK
6
CONTINUOUS
10
116.0230989999999878
20
-111.9058489999999892
11
116.0249999999999915
21
-125.2999999999999972
0
LINE
8
BLACK
6
CONTINUOUS
10
116.0249999999999915
20
-125.2999999999999972
11
116.0249999999999915
21
-125.3435559999999924
0
LINE
8
BLACK
6
CONTINUOUS
10
116.0249999999999915
20
-125.3435559999999924
11
116.0519189999999981
21
-125.4264039999999909
0
LINE
8
BLACK
6
CONTINUOUS
10
116.0519189999999981
20
-125.4264039999999909
11
116.103121999999999
21
-125.4968779999999953
0
LINE
8
BLACK
6
CONTINUOUS
10
116.103121999999999
20
-125.4968779999999953
11
116.1735959999999892
21
-125.5480809999999963
0
LINE
8
BLACK
6
CONTINUOUS
10
116.1735959999999892
20
-125.5480809999999963
11
116.2564439999999877
21
-125.5749999999999886
0
LINE
8
BLACK
6
CONTINUOUS
10
116.2564439999999877
20
-125.5749999999999886
11
116.2999999999999972
21
-125.5749999999999886
0
LINE
8
BLACK
6
CONTINUOUS
10
116.2999999999999972
20
-125.5749999999999886
11
116.3058489999999949
21
-125.5768999999999949
0
LINE
8
BLACK
6
CONTINUOUS
10
116.3058489999999949
20
-125.5768999999999949
11
129.6999999999999886
21
-125.5749999999999886
0
LINE
8
BLACK
6
CONTINUOUS
10
129.6999999999999886
20
-125.5749999999999886
11
129.7435559999999839
21
-125.5749999999999886
0
LINE
8
BLACK
6
CONTINUOUS
10
129.7435559999999839
20
-125.5749999999999886
11
129.8264039999999966
21
-125.5480809999999963
0
LINE
8
BLACK
6
CONTINUOUS
10
129.8264039999999966
20
-125.5480809999999963
11
129.8968779999999867
21
-125.4968779999999953
0
LINE
8
BLACK
6
CONTINUOUS
10
129.8968779999999867
20
-125.4968779999999953
11
129.9480810000000019
21
-125.4264039999999909
0
LINE
8
BLACK
6
CONTINUOUS
10
129.9480810000000019
20
-125.4264039999999909
11
129.9749999999999943
21
-125.3435559999999924
0
LINE
8
BLACK
6
CONTINUOUS
10
129.9749999999999943
20
-125.3435559999999924
11
129.9749999999999943
21
-125.2999999999999972
0
LINE
8
BLACK
6
CONTINUOUS
10
129.9749999999999943
20
-125.2999999999999972
11
129.9769000000000005
21
-125.2941499999999877
0
LINE
8
BLACK
6
CONTINUOUS
10
129.9769000000000005
20
-125.2941499999999877
11
129.9749999999999943
21
-111.8999999999999915
0
LINE
8
BLACK
6
CONTINUOUS
10
129.9749999999999943
20
-111.8999999999999915
11
129.9749999999999943
21
-111.8564439999999962
0
LINE
8
BLACK
6
CONTINUOUS
10
129.9749999999999943
20
-111.8564439999999962
11
129.9480810000000019
21
-111.7735959999999977
0
LINE
8
BLACK
6
CONTINUOUS
10
129.9480810000000019
20
-111.7735959999999977
11
129.8968779999999867
21
-111.7031219999999934
0
LINE
8
BLACK
6
CONTINUOUS
10
129.8968779999999867
20
-111.7031219999999934
11
129.8264039999999966
21
-111.6519189999999924
0
LINE
8
BLACK
6
CONTINUOUS
10
129.8264039999999966
20
-111.6519189999999924
11
129.7435559999999839
21
-111.625
0
LINE
8
BLACK
6
CONTINUOUS
10
129.7435559999999839
20
-111.625
11
129.6999999999999886
21
-111.625
0
LINE
8
BLACK
6
CONTINUOUS
10
129.6999999999999886
20
-111.625
11
129.6941500000000076
21
-111.6230989999999963
0
LINE
8
BLACK
6
CONTINUOUS
10
129.6941500000000076
20
-111.6230989999999963
11
116.2999999999999972
21
-111.625
0
LINE
8
BLACK
6
CONTINUOUS
10
148.8004310000000032
20
-111.5909070000000014
11
148.8910300000000007
21
-111.6370689999999968
0
LINE
8
BLACK
6
CONTINUOUS
10
148.8910300000000007
20
-111.6370689999999968
11
148.9629309999999975
21
-111.7089699999999937
0
LINE
8
BLACK
6
CONTINUOUS
10
148.9629309999999975
20
-111.7089699999999937
11
149.0090930000000071
21
-111.7995689999999911
0
LINE
8
BLACK
6
CONTINUOUS
10
149.0090930000000071
20
-111.7995689999999911
11
149.0250000000000057
21
-111.8999999999999915
0
LINE
8
BLACK
6
CONTINUOUS
10
149.0250000000000057
20
-111.8999999999999915
11
149.023099000000002
21
-111.9058489999999892
0
LINE
8
BLACK
6
CONTINUOUS
10
149.023099000000002
20
-111.9058489999999892
11
149.0250000000000057
21
-125.2999999999999972
0
LINE
8
BLACK
6
CONTINUOUS
10
149.0250000000000057
20
-125.2999999999999972
11
149.0090930000000071
21
-125.4004309999999975
0
LINE
8
BLACK
6
CONTINUOUS
10
149.0090930000000071
20
-125.4004309999999975
11
148.9629309999999975
21
-125.491029999999995
0
LINE
8
BLACK
6
CONTINUOUS
10
148.9629309999999975
20
-125.491029999999995
11
148.8910300000000007
21
-125.5629309999999919
0
LINE
8
BLACK
6
CONTINUOUS
10
148.8910300000000007
20
-125.5629309999999919
11
148.8004310000000032
21
-125.6090929999999872
0
LINE
8
BLACK
6
CONTINUOUS
10
148.8004310000000032
20
-125.6090929999999872
11
148.6999999999999886
21
-125.625
0
LINE
8
BLACK
6
CONTINUOUS
10
148.6999999999999886
20
-125.625
11
148.6941499999999792
21
-125.6230989999999963
0
LINE
8
BLACK
6
CONTINUOUS
10
148.6941499999999792
20
-125.6230989999999963
11
135.2999999999999829
21
-125.625
0
LINE
8
BLACK
6
CONTINUOUS
10
135.2999999999999829
20
-125.625
11
135.1995689999999968
21
-125.6090929999999872
0
LINE
8
BLACK
6
CONTINUOUS
10
135.1995689999999968
20
-125.6090929999999872
11
135.1089699999999993
21
-125.5629309999999919
0
LINE
8
BLACK
6
CONTINUOUS
10
135.1089699999999993
20
-125.5629309999999919
11
135.0370690000000025
21
-125.491029999999995
0
LINE
8
BLACK
6
CONTINUOUS
10
135.0370690000000025
20
-125.491029999999995
11
134.9909069999999929
21
-125.4004309999999975
0
LINE
8
BLACK
6
CONTINUOUS
10
134.9909069999999929
20
-125.4004309999999975
11
134.9749999999999943
21
-125.2999999999999972
0
LINE
8
BLACK
6
CONTINUOUS
10
134.9749999999999943
20
-125.2999999999999972
11
134.9769000000000005
21
-125.2941499999999877
0
LINE
8
BLACK
6
CONTINUOUS
10
134.9769000000000005
20
-125.2941499999999877
11
134.9749999999999943
21
-111.8999999999999915
0
LINE
8
BLACK
6
CONTINUOUS
10
134.9749999999999943
20
-111.8999999999999915
11
134.9909069999999929
21
-111.7995689999999911
0
LINE
8
BLACK
6
CONTINUOUS
10
134.9909069999999929
20
-111.7995689999999911
11
135.0370690000000025
21
-111.7089699999999937
0
LINE
8
BLACK
6
CONTINUOUS
10
135.0370690000000025
20
-111.7089699999999937
11
135.1089699999999993
21
-111.6370689999999968
0
LINE
8
BLACK
6
CONTINUOUS
10
135.1089699999999993
20
-111.6370689999999968
11
135.1995689999999968
21
-111.5909070000000014
0
LINE
8
BLACK
6
CONTINUOUS
10
135.1995689999999968
20
-111.5909070000000014
11
135.2999999999999829
21
-111.5749999999999886
0
LINE
8
BLACK
6
CONTINUOUS
10
135.2999999999999829
20
-111.5749999999999886
11
135.3058489999999949
21
-111.5768999999999949
0
LINE
8
BLACK
6
CONTINUOUS
10
135.3058489999999949
20
-111.5768999999999949
11
148.6999999999999886
21
-111.5749999999999886
0
LINE
8
BLACK
6
CONTINUOUS
10
148.6999999999999886
20
-111.5749999999999886
11
148.8004310000000032
21
-111.5909070000000014
0
LINE
8
BLACK
6
CONTINUOUS
10
135.2999999999999829
20
-111.625
11
135.2564439999999877
21
-111.625
0
LINE
8
BLACK
6
CONTINUOUS
10
135.2564439999999877
20
-111.625
11
135.1735960000000034
21
-111.6519189999999924
0
LINE
8
BLACK
6
CONTINUOUS
10
135.1735960000000034
20
-111.6519189999999924
11
135.1031219999999848
21
-111.7031219999999934
0
LINE
8
BLACK
6
CONTINUOUS
10
135.1031219999999848
20
-111.7031219999999934
11
135.0519189999999981
21
-111.7735959999999977
0
LINE
8
BLACK
6
CONTINUOUS
10
135.0519189999999981
20
-111.7735959999999977
11
135.0250000000000057
21
-111.8564439999999962
0
LINE
8
BLACK
6
CONTINUOUS
10
135.0250000000000057
20
-111.8564439999999962
11
135.0250000000000057
21
-111.8999999999999915
0
LINE
8
BLACK
6
CONTINUOUS
10
135.0250000000000057
20
-111.8999999999999915
11
135.023099000000002
21
-111.9058489999999892
0
LINE
8
BLACK
6
CONTINUOUS
10
135.023099000000002
20
-111.9058489999999892
11
135.0250000000000057
21
-125.2999999999999972
0
LINE
8
BLACK
6
CONTINUOUS
10
135.0250000000000057
20
-125.2999999999999972
11
135.0250000000000057
21
-125.3435559999999924
0
LINE
8
BLACK
6
CONTINUOUS
10
135.0250000000000057
20
-125.3435559999999924
11
135.0519189999999981
21
-125.4264039999999909
0
LINE
8
BLACK
6
CONTINUOUS
10
135.0519189999999981
20
-125.4264039999999909
11
135.1031219999999848
21
-125.4968779999999953
0
LINE
8
BLACK
6
CONTINUOUS
10
135.1031219999999848
20
-125.4968779999999953
11
135.1735960000000034
21
-125.5480809999999963
0
LINE
8
BLACK
6
CONTINUOUS
10
135.1735960000000034
20
-125.5480809999999963
11
135.2564439999999877
21
-125.5749999999999886
0
LINE
8
BLACK
6
CONTINUOUS
10
135.2564439999999877
20
-125.5749999999999886
11
135.2999999999999829
21
-125.5749999999999886
0
LINE
8
BLACK
6
CONTINUOUS
10
135.2999999999999829
20
-125.5749999999999886
11
135.3058489999999949
21
-125.5768999999999949
0
LINE
8
BLACK
6
CONTINUOUS
10
135.3058489999999949
20
-125.5768999999999949
11
148.6999999999999886
21
-125.5749999999999886
0
LINE
8
BLACK
6
CONTINUOUS
10
148.6999999999999886
20
-125.5749999999999886
11
148.7435559999999839
21
-125.5749999999999886
0
LINE
8
BLACK
6
CONTINUOUS
10
148.7435559999999839
20
-125.5749999999999886
11
148.8264039999999966
21
-125.5480809999999963
0
LINE
8
BLACK
6
CONTINUOUS
10
148.8264039999999966
20
-125.5480809999999963
11
148.8968779999999867
21
-125.4968779999999953
0
LINE
8
BLACK
6
CONTINUOUS
10
148.8968779999999867
20
-125.4968779999999953
11
148.9480810000000019
21
-125.4264039999999909
0
LINE
8
BLACK
6
CONTINUOUS
10
148.9480810000000019
20
-125.4264039999999909
11
148.9749999999999943
21
-125.3435559999999924
0
LINE
8
BLACK
6
CONTINUOUS
10
148.9749999999999943
20
-125.3435559999999924
11
148.9749999999999943
21
-125.2999999999999972
0
LINE
8
BLACK
6
CONTINUOUS
10
148.9749999999999943
20
-125.2999999999999972
11
148.9769000000000005
21
-125.2941499999999877
0
LINE
8
BLACK
6
CONTINUOUS
10
148.9769000000000005
20
-125.2941499999999877
11
148.9749999999999943
21
-111.8999999999999915
0
LINE
8
BLACK
6
CONTINUOUS
10
148.9749999999999943
20
-111.8999999999999915
11
148.9749999999999943
21
-111.8564439999999962
0
LINE
8
BLACK
6
CONTINUOUS
10
148.9749999999999943
20
-111.8564439999999962
11
148.9480810000000019
21
-111.7735959999999977
0
LINE
8
BLACK
6
CONTINUOUS
10
148.9480810000000019
20
-111.7735959999999977
11
148.8968779999999867
21
-111.7031219999999934
0
LINE
8
BLACK
6
CONTINUOUS
10
148.8968779999999867
20
-111.7031219999999934
11
148.8264039999999966
21
-111.6519189999999924
0
LINE
8
BLACK
6
CONTINUOUS
10
148.8264039999999966
20
-111.6519189999999924
11
148.7435559999999839
21
-111.625
0
LINE
8
BLACK
6
CONTINUOUS
10
148.7435559999999839
20
-111.625
11
148.6999999999999886
21
-111.625
0
LINE
8
BLACK
6
CONTINUOUS
10
148.6999999999999886
20
-111.625
11
148.6941499999999792
21
-111.6230989999999963
0
LINE
8
BLACK
6
CONTINUOUS
10
148.6941499999999792
20
-111.6230989999999963
11
135.2999999999999829
21
-111.625
0
LINE
8
BLACK
6
CONTINUOUS
10
93.800430999999989
20
-73.5909070000000014
11
93.8910300000000007
21
-73.6370689999999968
0
LINE
8
BLACK
6
CONTINUOUS
10
93.8910300000000007
20
-73.6370689999999968
11
93.9629309999999975
21
-73.7089699999999937
0
LINE
8
BLACK
6
CONTINUOUS
10
93.9629309999999975
20
-73.7089699999999937
11
94.0090929999999929
21
-73.7995689999999911
0
LINE
8
BLACK
6
CONTINUOUS
10
94.0090929999999929
20
-73.7995689999999911
11
94.0249999999999915
21
-73.8999999999999915
0
LINE
8
BLACK
6
CONTINUOUS
10
94.0249999999999915
20
-73.8999999999999915
11
94.0230999999999995
21
-73.9058459999999968
0
LINE
8
BLACK
6
CONTINUOUS
10
94.0230999999999995
20
-73.9058459999999968
11
94.0249999999999915
21
-82.7999999999999972
0
LINE
8
BLACK
6
CONTINUOUS
10
94.0249999999999915
20
-82.7999999999999972
11
94.0090929999999929
21
-82.9004309999999975
0
LINE
8
BLACK
6
CONTINUOUS
10
94.0090929999999929
20
-82.9004309999999975
11
93.9629309999999975
21
-82.991029999999995
0
LINE
8
BLACK
6
CONTINUOUS
10
93.9629309999999975
20
-82.991029999999995
11
93.8910300000000007
21
-83.0629309999999919
0
LINE
8
BLACK
6
CONTINUOUS
10
93.8910300000000007
20
-83.0629309999999919
11
93.800430999999989
21
-83.1090930000000014
0
LINE
8
BLACK
6
CONTINUOUS
10
93.800430999999989
20
-83.1090930000000014
11
93.7000000000000028
21
-83.125
0
LINE
8
BLACK
6
CONTINUOUS
10
93.7000000000000028
20
-83.125
11
93.6942069999999916
21
-83.1231169999999935
0
LINE
8
BLACK
6
CONTINUOUS
10
93.6942069999999916
20
-83.1231169999999935
11
92.2999999999999972
21
-83.125
0
LINE
8
BLACK
6
CONTINUOUS
10
92.2999999999999972
20
-83.125
11
92.2564440000000019
21
-83.125
0
LINE
8
BLACK
6
CONTINUOUS
10
92.2564440000000019
20
-83.125
11
92.1735959999999892
21
-83.1519189999999924
0
LINE
8
BLACK
6
CONTINUOUS
10
92.1735959999999892
20
-83.1519189999999924
11
92.103121999999999
21
-83.2031219999999934
0
LINE
8
BLACK
6
CONTINUOUS
10
92.103121999999999
20
-83.2031219999999934
11
92.0519189999999981
21
-83.2735959999999977
0
LINE
8
BLACK
6
CONTINUOUS
10
92.0519189999999981
20
-83.2735959999999977
11
92.0249999999999915
21
-83.3564439999999962
0
LINE
8
BLACK
6
CONTINUOUS
10
92.0249999999999915
20
-83.3564439999999962
11
92.0249999999999915
21
-83.3999999999999915
0
LINE
8
BLACK
6
CONTINUOUS
10
92.0249999999999915
20
-83.3999999999999915
11
92.023099000000002
21
-83.4058489999999892
0
LINE
8
BLACK
6
CONTINUOUS
10
92.023099000000002
20
-83.4058489999999892
11
92.0249999999999915
21
-96.7999999999999972
0
LINE
8
BLACK
6
CONTINUOUS
10
92.0249999999999915
20
-96.7999999999999972
11
92.0249999999999915
21
-96.8435559999999924
0
LINE
8
BLACK
6
CONTINUOUS
10
92.0249999999999915
20
-96.8435559999999924
11
92.0519189999999981
21
-96.9264039999999909
0
LINE
8
BLACK
6
CONTINUOUS
10
92.0519189999999981
20
-96.9264039999999909
11
92.103121999999999
21
-96.9968779999999953
0
LINE
8
BLACK
6
CONTINUOUS
10
92.103121999999999
20
-96.9968779999999953
11
92.1735959999999892
21
-97.0480809999999963
0
LINE
8
BLACK
6
CONTINUOUS
10
92.1735959999999892
20
-97.0480809999999963
11
92.2564440000000019
21
-97.0749999999999886
0
LINE
8
BLACK
6
CONTINUOUS
10
92.2564440000000019
20
-97.0749999999999886
11
92.2999999999999972
21
-97.0749999999999886
0
LINE
8
BLACK
6
CONTINUOUS
10
92.2999999999999972
20
-97.0749999999999886
11
92.3057919999999967
21
-97.0768819999999977
0
LINE
8
BLACK
6
CONTINUOUS
10
92.3057919999999967
20
-97.0768819999999977
11
93.7000000000000028
21
-97.0749999999999886
0
LINE
8
BLACK
6
CONTINUOUS
10
93.7000000000000028
20
-97.0749999999999886
11
93.800430999999989
21
-97.0909070000000014
0
LINE
8
BLACK
6
CONTINUOUS
10
93.800430999999989
20
-97.0909070000000014
11
93.8910300000000007
21
-97.1370689999999968
0
LINE
8
BLACK
6
CONTINUOUS
10
93.8910300000000007
20
-97.1370689999999968
11
93.9629309999999975
21
-97.2089699999999937
0
LINE
8
BLACK
6
CONTINUOUS
10
93.9629309999999975
20
-97.2089699999999937
11
94.0090929999999929
21
-97.2995689999999911
0
LINE
8
BLACK
6
CONTINUOUS
10
94.0090929999999929
20
-97.2995689999999911
11
94.0249999999999915
21
-97.3999999999999915
0
LINE
8
BLACK
6
CONTINUOUS
10
94.0249999999999915
20
-97.3999999999999915
11
94.0230999999999995
21
-97.4058459999999968
0
LINE
8
BLACK
6
CONTINUOUS
10
94.0230999999999995
20
-97.4058459999999968
11
94.0249999999999915
21
-106.2999999999999972
0
LINE
8
BLACK
6
CONTINUOUS
10
94.0249999999999915
20
-106.2999999999999972
11
94.0090929999999929
21
-106.4004309999999975
0
LINE
8
BLACK
6
CONTINUOUS
10
94.0090929999999929
20
-106.4004309999999975
11
93.9629309999999975
21
-106.491029999999995
0
LINE
8
BLACK
6
CONTINUOUS
10
93.9629309999999975
20
-106.491029999999995
11
93.8910300000000007
21
-106.5629309999999919
0
LINE
8
BLACK
6
CONTINUOUS
10
93.8910300000000007
20
-106.5629309999999919
11
93.800430999999989
21
-106.6090930000000014
0
LINE
8
BLACK
6
CONTINUOUS
10
93.800430999999989
20
-106.6090930000000014
11
93.7000000000000028
21
-106.625
0
LINE
8
BLACK
6
CONTINUOUS
10
93.7000000000000028
20
-106.625
11
93.6941489999999959
21
-106.6230979999999988
0
LINE
8
BLACK
6
CONTINUOUS
10
93.6941489999999959
20
-106.6230979999999988
11
78.2999999999999972
21
-106.625
0
LINE
8
BLACK
6
CONTINUOUS
10
78.2999999999999972
20
-106.625
11
78.1995689999999968
21
-106.6090930000000014
0
LINE
8
BLACK
6
CONTINUOUS
10
78.1995689999999968
20
-106.6090930000000014
11
78.1089699999999993
21
-106.5629309999999919
0
LINE
8
BLACK
6
CONTINUOUS
10
78.1089699999999993
20
-106.5629309999999919
11
78.0370690000000025
21
-106.491029999999995
0
LINE
8
BLACK
6
CONTINUOUS
10
78.0370690000000025
20
-106.491029999999995
11
77.9909069999999929
21
-106.4004309999999975
0
LINE
8
BLACK
6
CONTINUOUS
10
77.9909069999999929
20
-106.4004309999999975
11
77.9749999999999943
21
-106.2999999999999972
0
LINE
8
BLACK
6
CONTINUOUS
10
77.9749999999999943
20
-106.2999999999999972
11
77.9769019999999955
21
-106.2941459999999978
0
LINE
8
BLACK
6
CONTINUOUS
10
77.9769019999999955
20
-106.2941459999999978
11
77.9749999999999943
21
-73.8999999999999915
0
LINE
8
BLACK
6
CONTINUOUS
10
77.9749999999999943
20
-73.8999999999999915
11
77.9909069999999929
21
-73.7995689999999911
0
LINE
8
BLACK
6
CONTINUOUS
10
77.9909069999999929
20
-73.7995689999999911
11
78.0370690000000025
21
-73.7089699999999937
0
LINE
8
BLACK
6
CONTINUOUS
10
78.0370690000000025
20
-73.7089699999999937
11
78.1089699999999993
21
-73.6370689999999968
0
LINE
8
BLACK
6
CONTINUOUS
10
78.1089699999999993
20
-73.6370689999999968
11
78.1995689999999968
21
-73.5909070000000014
0
LINE
8
BLACK
6
CONTINUOUS
10
78.1995689999999968
20
-73.5909070000000014
11
78.2999999999999972
21
-73.5750000000000028
0
LINE
8
BLACK
6
CONTINUOUS
10
78.2999999999999972
20
-73.5750000000000028
11
78.3058499999999924
21
-73.5769009999999923
0
LINE
8
BLACK
6
CONTINUOUS
10
78.3058499999999924
20
-73.5769009999999923
11
93.7000000000000028
21
-73.5750000000000028
0
LINE
8
BLACK
6
CONTINUOUS
10
93.7000000000000028
20
-73.5750000000000028
11
93.800430999999989
21
-73.5909070000000014
0
LINE
8
BLACK
6
CONTINUOUS
10
78.2999999999999972
20
-73.625
11
78.2564440000000019
21
-73.625
0
LINE
8
BLACK
6
CONTINUOUS
10
78.2564440000000019
20
-73.625
11
78.1735960000000034
21
-73.6519189999999924
0
LINE
8
BLACK
6
CONTINUOUS
10
78.1735960000000034
20
-73.6519189999999924
11
78.103121999999999
21
-73.7031219999999934
0
LINE
8
BLACK
6
CONTINUOUS
10
78.103121999999999
20
-73.7031219999999934
11
78.0519189999999981
21
-73.7735959999999977
0
LINE
8
BLACK
6
CONTINUOUS
10
78.0519189999999981
20
-73.7735959999999977
11
78.0249999999999915
21
-73.8564439999999962
0
LINE
8
BLACK
6
CONTINUOUS
10
78.0249999999999915
20
-73.8564439999999962
11
78.0249999999999915
21
-73.8999999999999915
0
LINE
8
BLACK
6
CONTINUOUS
10
78.0249999999999915
20
-73.8999999999999915
11
78.0230969999999928
21
-73.9058529999999934
0
LINE
8
BLACK
6
CONTINUOUS
10
78.0230969999999928
20
-73.9058529999999934
11
78.0249999999999915
21
-106.2999999999999972
0
LINE
8
BLACK
6
CONTINUOUS
10
78.0249999999999915
20
-106.2999999999999972
11
78.0249999999999915
21
-106.3435559999999924
0
LINE
8
BLACK
6
CONTINUOUS
10
78.0249999999999915
20
-106.3435559999999924
11
78.0519189999999981
21
-106.4264039999999909
0
LINE
8
BLACK
6
CONTINUOUS
10
78.0519189999999981
20
-106.4264039999999909
11
78.103121999999999
21
-106.4968779999999953
0
LINE
8
BLACK
6
CONTINUOUS
10
78.103121999999999
20
-106.4968779999999953
11
78.1735960000000034
21
-106.5480809999999963
0
LINE
8
BLACK
6
CONTINUOUS
10
78.1735960000000034
20
-106.5480809999999963
11
78.2564440000000019
21
-106.5749999999999886
0
LINE
8
BLACK
6
CONTINUOUS
10
78.2564440000000019
20
-106.5749999999999886
11
78.2999999999999972
21
-106.5749999999999886
0
LINE
8
BLACK
6
CONTINUOUS
10
78.2999999999999972
20
-106.5749999999999886
11
78.3058499999999924
21
-106.5769009999999923
0
LINE
8
BLACK
6
CONTINUOUS
10
78.3058499999999924
20
-106.5769009999999923
11
93.7000000000000028
21
-106.5749999999999886
0
LINE
8
BLACK
6
CONTINUOUS
10
93.7000000000000028
20
-106.5749999999999886
11
93.7435559999999981
21
-106.5749999999999886
0
LINE
8
BLACK
6
CONTINUOUS
10
93.7435559999999981
20
-106.5749999999999886
11
93.8264039999999966
21
-106.5480809999999963
0
LINE
8
BLACK
6
CONTINUOUS
10
93.8264039999999966
20
-106.5480809999999963
11
93.896878000000001
21
-106.4968779999999953
0
LINE
8
BLACK
6
CONTINUOUS
10
93.896878000000001
20
-106.4968779999999953
11
93.9480810000000019
21
-106.4264039999999909
0
LINE
8
BLACK
6
CONTINUOUS
10
93.9480810000000019
20
-106.4264039999999909
11
93.9749999999999943
21
-106.3435559999999924
0
LINE
8
BLACK
6
CONTINUOUS
10
93.9749999999999943
20
-106.3435559999999924
11
93.9749999999999943
21
-106.2999999999999972
0
LINE
8
BLACK
6
CONTINUOUS
10
93.9749999999999943
20
-106.2999999999999972
11
93.9768989999999889
21
-106.2941529999999943
0
LINE
8
BLACK
6
CONTINUOUS
10
93.9768989999999889
20
-106.2941529999999943
11
93.9749999999999943
21
-97.3999999999999915
0
LINE
8
BLACK
6
CONTINUOUS
10
93.9749999999999943
20
-97.3999999999999915
11
93.9749999999999943
21
-97.3564439999999962
0
LINE
8
BLACK
6
CONTINUOUS
10
93.9749999999999943
20
-97.3564439999999962
11
93.9480810000000019
21
-97.2735959999999977
0
LINE
8
BLACK
6
CONTINUOUS
10
93.9480810000000019
20
-97.2735959999999977
11
93.896878000000001
21
-97.2031219999999934
0
LINE
8
BLACK
6
CONTINUOUS
10
93.896878000000001
20
-97.2031219999999934
11
93.8264039999999966
21
-97.1519189999999924
0
LINE
8
BLACK
6
CONTINUOUS
10
93.8264039999999966
20
-97.1519189999999924
11
93.7435559999999981
21
-97.125
0
LINE
8
BLACK
6
CONTINUOUS
10
93.7435559999999981
20
-97.125
11
93.7000000000000028
21
-97.125
0
LINE
8
BLACK
6
CONTINUOUS
10
93.7000000000000028
20
-97.125
11
93.6942069999999916
21
-97.1231169999999935
0
LINE
8
BLACK
6
CONTINUOUS
10
93.6942069999999916
20
-97.1231169999999935
11
92.2999999999999972
21
-97.125
0
LINE
8
BLACK
6
CONTINUOUS
10
92.2999999999999972
20
-97.125
11
92.1995689999999968
21
-97.1090930000000014
0
LINE
8
BLACK
6
CONTINUOUS
10
92.1995689999999968
20
-97.1090930000000014
11
92.1089699999999993
21
-97.0629309999999919
0
LINE
8
BLACK
6
CONTINUOUS
10
92.1089699999999993
20
-97.0629309999999919
11
92.0370690000000025
21
-96.991029999999995
0
LINE
8
BLACK
6
CONTINUOUS
10
92.0370690000000025
20
-96.991029999999995
11
91.9909069999999929
21
-96.9004309999999975
0
LINE
8
BLACK
6
CONTINUOUS
10
91.9909069999999929
20
-96.9004309999999975
11
91.9749999999999943
21
-96.7999999999999972
0
LINE
8
BLACK
6
CONTINUOUS
10
91.9749999999999943
20
-96.7999999999999972
11
91.9769000000000005
21
-96.7941500000000019
0
LINE
8
BLACK
6
CONTINUOUS
10
91.9769000000000005
20
-96.7941500000000019
11
91.9749999999999943
21
-83.3999999999999915
0
LINE
8
BLACK
6
CONTINUOUS
10
91.9749999999999943
20
-83.3999999999999915
11
91.9909069999999929
21
-83.2995689999999911
0
LINE
8
BLACK
6
CONTINUOUS
10
91.9909069999999929
20
-83.2995689999999911
11
92.0370690000000025
21
-83.2089699999999937
0
LINE
8
BLACK
6
CONTINUOUS
10
92.0370690000000025
20
-83.2089699999999937
11
92.1089699999999993
21
-83.1370689999999968
0
LINE
8
BLACK
6
CONTINUOUS
10
92.1089699999999993
20
-83.1370689999999968
11
92.1995689999999968
21
-83.0909070000000014
0
LINE
8
BLACK
6
CONTINUOUS
10
92.1995689999999968
20
-83.0909070000000014
11
92.2999999999999972
21
-83.0750000000000028
0
LINE
8
BLACK
6
CONTINUOUS
10
92.2999999999999972
20
-83.0750000000000028
11
92.3057919999999967
21
-83.0768819999999977
0
LINE
8
BLACK
6
CONTINUOUS
10
92.3057919999999967
20
-83.0768819999999977
11
93.7000000000000028
21
-83.0750000000000028
0
LINE
8
BLACK
6
CONTINUOUS
10
93.7000000000000028
20
-83.0750000000000028
11
93.7435559999999981
21
-83.0750000000000028
0
LINE
8
BLACK
6
CONTINUOUS
10
93.7435559999999981
20
-83.0750000000000028
11
93.8264039999999966
21
-83.0480809999999963
0
LINE
8
BLACK
6
CONTINUOUS
10
93.8264039999999966
20
-83.0480809999999963
11
93.896878000000001
21
-82.9968779999999953
0
LINE
8
BLACK
6
CONTINUOUS
10
93.896878000000001
20
-82.9968779999999953
11
93.9480810000000019
21
-82.9264039999999909
0
LINE
8
BLACK
6
CONTINUOUS
10
93.9480810000000019
20
-82.9264039999999909
11
93.9749999999999943
21
-82.8435559999999924
0
LINE
8
BLACK
6
CONTINUOUS
10
93.9749999999999943
20
-82.8435559999999924
11
93.9749999999999943
21
-82.7999999999999972
0
LINE
8
BLACK
6
CONTINUOUS
10
93.9749999999999943
20
-82.7999999999999972
11
93.9768989999999889
21
-82.7941529999999943
0
LINE
8
BLACK
6
CONTINUOUS
10
93.9768989999999889
20
-82.7941529999999943
11
93.9749999999999943
21
-73.8999999999999915
0
LINE
8
BLACK
6
CONTINUOUS
10
93.9749999999999943
20
-73.8999999999999915
11
93.9749999999999943
21
-73.8564439999999962
0
LINE
8
BLACK
6
CONTINUOUS
10
93.9749999999999943
20
-73.8564439999999962
11
93.9480810000000019
21
-73.7735959999999977
0
LINE
8
BLACK
6
CONTINUOUS
10
93.9480810000000019
20
-73.7735959999999977
11
93.896878000000001
21
-73.7031219999999934
0
LINE
8
BLACK
6
CONTINUOUS
10
93.896878000000001
20
-73.7031219999999934
11
93.8264039999999966
21
-73.6519189999999924
0
LINE
8
BLACK
6
CONTINUOUS
10
93.8264039999999966
20
-73.6519189999999924
11
93.7435559999999981
21
-73.625
0
LINE
8
BLACK
6
CONTINUOUS
10
93.7435559999999981
20
-73.625
11
93.7000000000000028
21
-73.625
0
LINE
8
BLACK
6
CONTINUOUS
10
93.7000000000000028
20
-73.625
11
93.6941489999999959
21
-73.6230979999999988
0
LINE
8
BLACK
6
CONTINUOUS
10
93.6941489999999959
20
-73.6230979999999988
11
78.2999999999999972
21
-73.625
0
LINE
8
BLACK
6
CONTINUOUS
10
110.800430999999989
20
-92.5909070000000014
11
110.8910300000000007
21
-92.6370689999999968
0
LINE
8
BLACK
6
CONTINUOUS
10
110.8910300000000007
20
-92.6370689999999968
11
110.9629309999999975
21
-92.7089699999999937
0
LINE
8
BLACK
6
CONTINUOUS
10
110.9629309999999975
20
-92.7089699999999937
11
111.0090929999999929
21
-92.7995689999999911
0
LINE
8
BLACK
6
CONTINUOUS
10
111.0090929999999929
20
-92.7995689999999911
11
111.0249999999999915
21
-92.8999999999999915
0
LINE
8
BLACK
6
CONTINUOUS
10
111.0249999999999915
20
-92.8999999999999915
11
111.023099000000002
21
-92.9058489999999892
0
LINE
8
BLACK
6
CONTINUOUS
10
111.023099000000002
20
-92.9058489999999892
11
111.0249999999999915
21
-106.2999999999999972
0
LINE
8
BLACK
6
CONTINUOUS
10
111.0249999999999915
20
-106.2999999999999972
11
111.0090929999999929
21
-106.4004309999999975
0
LINE
8
BLACK
6
CONTINUOUS
10
111.0090929999999929
20
-106.4004309999999975
11
110.9629309999999975
21
-106.491029999999995
0
LINE
8
BLACK
6
CONTINUOUS
10
110.9629309999999975
20
-106.491029999999995
11
110.8910300000000007
21
-106.5629309999999919
0
LINE
8
BLACK
6
CONTINUOUS
10
110.8910300000000007
20
-106.5629309999999919
11
110.800430999999989
21
-106.6090930000000014
0
LINE
8
BLACK
6
CONTINUOUS
10
110.800430999999989
20
-106.6090930000000014
11
110.6999999999999886
21
-106.625
0
LINE
8
BLACK
6
CONTINUOUS
10
110.6999999999999886
20
-106.625
11
110.6941499999999934
21
-106.6230989999999963
0
LINE
8
BLACK
6
CONTINUOUS
10
110.6941499999999934
20
-106.6230989999999963
11
97.2999999999999972
21
-106.625
0
LINE
8
BLACK
6
CONTINUOUS
10
97.2999999999999972
20
-106.625
11
97.1995689999999968
21
-106.6090930000000014
0
LINE
8
BLACK
6
CONTINUOUS
10
97.1995689999999968
20
-106.6090930000000014
11
97.1089699999999993
21
-106.5629309999999919
0
LINE
8
BLACK
6
CONTINUOUS
10
97.1089699999999993
20
-106.5629309999999919
11
97.0370690000000025
21
-106.491029999999995
0
LINE
8
BLACK
6
CONTINUOUS
10
97.0370690000000025
20
-106.491029999999995
11
96.9909069999999929
21
-106.4004309999999975
0
LINE
8
BLACK
6
CONTINUOUS
10
96.9909069999999929
20
-106.4004309999999975
11
96.9749999999999943
21
-106.2999999999999972
0
LINE
8
BLACK
6
CONTINUOUS
10
96.9749999999999943
20
-106.2999999999999972
11
96.9769000000000005
21
-106.2941500000000019
0
LINE
8
BLACK
6
CONTINUOUS
10
96.9769000000000005
20
-106.2941500000000019
11
96.9749999999999943
21
-92.8999999999999915
0
LINE
8
BLACK
6
CONTINUOUS
10
96.9749999999999943
20
-92.8999999999999915
11
96.9909069999999929
21
-92.7995689999999911
0
LINE
8
BLACK
6
CONTINUOUS
10
96.9909069999999929
20
-92.7995689999999911
11
97.0370690000000025
21
-92.7089699999999937
0
LINE
8
BLACK
6
CONTINUOUS
10
97.0370690000000025
20
-92.7089699999999937
11
97.1089699999999993
21
-92.6370689999999968
0
LINE
8
BLACK
6
CONTINUOUS
10
97.1089699999999993
20
-92.6370689999999968
11
97.1995689999999968
21
-92.5909070000000014
0
LINE
8
BLACK
6
CONTINUOUS
10
97.1995689999999968
20
-92.5909070000000014
11
97.2999999999999972
21
-92.5750000000000028
0
LINE
8
BLACK
6
CONTINUOUS
10
97.2999999999999972
20
-92.5750000000000028
11
97.3058489999999949
21
-92.5768999999999949
0
LINE
8
BLACK
6
CONTINUOUS
10
97.3058489999999949
20
-92.5768999999999949
11
110.6999999999999886
21
-92.5750000000000028
0
LINE
8
BLACK
6
CONTINUOUS
10
110.6999999999999886
20
-92.5750000000000028
11
110.800430999999989
21
-92.5909070000000014
0
LINE
8
BLACK
6
CONTINUOUS
10
97.2999999999999972
20
-92.625
11
97.2564440000000019
21
-92.625
0
LINE
8
BLACK
6
CONTINUOUS
10
97.2564440000000019
20
-92.625
11
97.1735959999999892
21
-92.6519189999999924
0
LINE
8
BLACK
6
CONTINUOUS
10
97.1735959999999892
20
-92.6519189999999924
11
97.103121999999999
21
-92.7031219999999934
0
LINE
8
BLACK
6
CONTINUOUS
10
97.103121999999999
20
-92.7031219999999934
11
97.0519189999999981
21
-92.7735959999999977
0
LINE
8
BLACK
6
CONTINUOUS
10
97.0519189999999981
20
-92.7735959999999977
11
97.0249999999999915
21
-92.8564439999999962
0
LINE
8
BLACK
6
CONTINUOUS
10
97.0249999999999915
20
-92.8564439999999962
11
97.0249999999999915
21
-92.8999999999999915
0
LINE
8
BLACK
6
CONTINUOUS
10
97.0249999999999915
20
-92.8999999999999915
11
97.023099000000002
21
-92.9058489999999892
0
LINE
8
BLACK
6
CONTINUOUS
10
97.023099000000002
20
-92.9058489999999892
11
97.0249999999999915
21
-106.2999999999999972
0
LINE
8
BLACK
6
CONTINUOUS
10
97.0249999999999915
20
-106.2999999999999972
11
97.0249999999999915
21
-106.3435559999999924
0
LINE
8
BLACK
6
CONTINUOUS
10
97.0249999999999915
20
-106.3435559999999924
11
97.0519189999999981
21
-106.4264039999999909
0
LINE
8
BLACK
6
CONTINUOUS
10
97.0519189999999981
20
-106.4264039999999909
11
97.103121999999999
21
-106.4968779999999953
0
LINE
8
BLACK
6
CONTINUOUS
10
97.103121999999999
20
-106.4968779999999953
11
97.1735959999999892
21
-106.5480809999999963
0
LINE
8
BLACK
6
CONTINUOUS
10
97.1735959999999892
20
-106.5480809999999963
11
97.2564440000000019
21
-106.5749999999999886
0
LINE
8
BLACK
6
CONTINUOUS
10
97.2564440000000019
20
-106.5749999999999886
11
97.2999999999999972
21
-106.5749999999999886
0
LINE
8
BLACK
6
CONTINUOUS
10
97.2999999999999972
20
-106.5749999999999886
11
97.3058489999999949
21
-106.5768999999999949
0
LINE
8
BLACK
6
CONTINUOUS
10
97.3058489999999949
20
-106.5768999999999949
11
110.6999999999999886
21
-106.5749999999999886
0
LINE
8
BLACK
6
CONTINUOUS
10
110.6999999999999886
20
-106.5749999999999886
11
110.7435559999999981
21
-106.5749999999999886
0
LINE
8
BLACK
6
CONTINUOUS
10
110.7435559999999981
20
-106.5749999999999886
11
110.8264039999999966
21
-106.5480809999999963
0
LINE
8
BLACK
6
CONTINUOUS
10
110.8264039999999966
20
-106.5480809999999963
11
110.896878000000001
21
-106.4968779999999953
0
LINE
8
BLACK
6
CONTINUOUS
10
110.896878000000001
20
-106.4968779999999953
11
110.9480810000000019
21
-106.4264039999999909
0
LINE
8
BLACK
6
CONTINUOUS
10
110.9480810000000019
20
-106.4264039999999909
11
110.9749999999999943
21
-106.3435559999999924
0
LINE
8
BLACK
6
CONTINUOUS
10
110.9749999999999943
20
-106.3435559999999924
11
110.9749999999999943
21
-106.2999999999999972
0
LINE
8
BLACK
6
CONTINUOUS
10
110.9749999999999943
20
-106.2999999999999972
11
110.9769000000000005
21
-106.2941500000000019
0
LINE
8
BLACK
6
CONTINUOUS
10
110.9769000000000005
20
-106.2941500000000019
11
110.9749999999999943
21
-92.8999999999999915
0
LINE
8
BLACK
6
CONTINUOUS
10
110.9749999999999943
20
-92.8999999999999915
11
110.9749999999999943
21
-92.8564439999999962
0
LINE
8
BLACK
6
CONTINUOUS
10
110.9749999999999943
20
-92.8564439999999962
11
110.9480810000000019
21
-92.7735959999999977
0
LINE
8
BLACK
6
CONTINUOUS
10
110.9480810000000019
20
-92.7735959999999977
11
110.896878000000001
21
-92.7031219999999934
0
LINE
8
BLACK
6
CONTINUOUS
10
110.896878000000001
20
-92.7031219999999934
11
110.8264039999999966
21
-92.6519189999999924
0
LINE
8
BLACK
6
CONTINUOUS
10
110.8264039999999966
20
-92.6519189999999924
11
110.7435559999999981
21
-92.625
0
LINE
8
BLACK
6
CONTINUOUS
10
110.7435559999999981
20
-92.625
11
110.6999999999999886
21
-92.625
0
LINE
8
BLACK
6
CONTINUOUS
10
110.6999999999999886
20
-92.625
11
110.6941499999999934
21
-92.6230989999999963
0
LINE
8
BLACK
6
CONTINUOUS
10
110.6941499999999934
20
-92.6230989999999963
11
97.2999999999999972
21
-92.625
0
LINE
8
BLACK
6
CONTINUOUS
10
129.8004310000000032
20
-92.5909070000000014
11
129.8910300000000007
21
-92.6370689999999968
0
LINE
8
BLACK
6
CONTINUOUS
10
129.8910300000000007
20
-92.6370689999999968
11
129.9629309999999975
21
-92.7089699999999937
0
LINE
8
BLACK
6
CONTINUOUS
10
129.9629309999999975
20
-92.7089699999999937
11
130.0090930000000071
21
-92.7995689999999911
0
LINE
8
BLACK
6
CONTINUOUS
10
130.0090930000000071
20
-92.7995689999999911
11
130.0250000000000057
21
-92.8999999999999915
0
LINE
8
BLACK
6
CONTINUOUS
10
130.0250000000000057
20
-92.8999999999999915
11
130.023099000000002
21
-92.9058489999999892
0
LINE
8
BLACK
6
CONTINUOUS
10
130.023099000000002
20
-92.9058489999999892
11
130.0250000000000057
21
-106.2999999999999972
0
LINE
8
BLACK
6
CONTINUOUS
10
130.0250000000000057
20
-106.2999999999999972
11
130.0090930000000071
21
-106.4004309999999975
0
LINE
8
BLACK
6
CONTINUOUS
10
130.0090930000000071
20
-106.4004309999999975
11
129.9629309999999975
21
-106.491029999999995
0
LINE
8
BLACK
6
CONTINUOUS
10
129.9629309999999975
20
-106.491029999999995
11
129.8910300000000007
21
-106.5629309999999919
0
LINE
8
BLACK
6
CONTINUOUS
10
129.8910300000000007
20
-106.5629309999999919
11
129.8004310000000032
21
-106.6090930000000014
0
LINE
8
BLACK
6
CONTINUOUS
10
129.8004310000000032
20
-106.6090930000000014
11
129.6999999999999886
21
-106.625
0
LINE
8
BLACK
6
CONTINUOUS
10
129.6999999999999886
20
-106.625
11
129.6941500000000076
21
-106.6230989999999963
0
LINE
8
BLACK
6
CONTINUOUS
10
129.6941500000000076
20
-106.6230989999999963
11
116.2999999999999972
21
-106.625
0
LINE
8
BLACK
6
CONTINUOUS
10
116.2999999999999972
20
-106.625
11
116.1995689999999968
21
-106.6090930000000014
0
LINE
8
BLACK
6
CONTINUOUS
10
116.1995689999999968
20
-106.6090930000000014
11
116.1089699999999993
21
-106.5629309999999919
0
LINE
8
BLACK
6
CONTINUOUS
10
116.1089699999999993
20
-106.5629309999999919
11
116.0370689999999883
21
-106.491029999999995
0
LINE
8
BLACK
6
CONTINUOUS
10
116.0370689999999883
20
-106.491029999999995
11
115.9909069999999929
21
-106.4004309999999975
0
LINE
8
BLACK
6
CONTINUOUS
10
115.9909069999999929
20
-106.4004309999999975
11
115.9749999999999943
21
-106.2999999999999972
0
LINE
8
BLACK
6
CONTINUOUS
10
115.9749999999999943
20
-106.2999999999999972
11
115.9769000000000005
21
-106.2941500000000019
0
LINE
8
BLACK
6
CONTINUOUS
10
115.9769000000000005
20
-106.2941500000000019
11
115.9749999999999943
21
-92.8999999999999915
0
LINE
8
BLACK
6
CONTINUOUS
10
115.9749999999999943
20
-92.8999999999999915
11
115.9909069999999929
21
-92.7995689999999911
0
LINE
8
BLACK
6
CONTINUOUS
10
115.9909069999999929
20
-92.7995689999999911
11
116.0370689999999883
21
-92.7089699999999937
0
LINE
8
BLACK
6
CONTINUOUS
10
116.0370689999999883
20
-92.7089699999999937
11
116.1089699999999993
21
-92.6370689999999968
0
LINE
8
BLACK
6
CONTINUOUS
10
116.1089699999999993
20
-92.6370689999999968
11
116.1995689999999968
21
-92.5909070000000014
0
LINE
8
BLACK
6
CONTINUOUS
10
116.1995689999999968
20
-92.5909070000000014
11
116.2999999999999972
21
-92.5750000000000028
0
LINE
8
BLACK
6
CONTINUOUS
10
116.2999999999999972
20
-92.5750000000000028
11
116.3058489999999949
21
-92.5768999999999949
0
LINE
8
BLACK
6
CONTINUOUS
10
116.3058489999999949
20
-92.5768999999999949
11
129.6999999999999886
21
-92.5750000000000028
0
LINE
8
BLACK
6
CONTINUOUS
10
129.6999999999999886
20
-92.5750000000000028
11
129.8004310000000032
21
-92.5909070000000014
0
LINE
8
BLACK
6
CONTINUOUS
10
116.2999999999999972
20
-92.625
11
116.2564439999999877
21
-92.625
0
LINE
8
BLACK
6
CONTINUOUS
10
116.2564439999999877
20
-92.625
11
116.1735959999999892
21
-92.6519189999999924
0
LINE
8
BLACK
6
CONTINUOUS
10
116.1735959999999892
20
-92.6519189999999924
11
116.103121999999999
21
-92.7031219999999934
0
LINE
8
BLACK
6
CONTINUOUS
10
116.103121999999999
20
-92.7031219999999934
11
116.0519189999999981
21
-92.7735959999999977
0
LINE
8
BLACK
6
CONTINUOUS
10
116.0519189999999981
20
-92.7735959999999977
11
116.0249999999999915
21
-92.8564439999999962
0
LINE
8
BLACK
6
CONTINUOUS
10
116.0249999999999915
20
-92.8564439999999962
11
116.0249999999999915
21
-92.8999999999999915
0
LINE
8
BLACK
6
CONTINUOUS
10
116.0249999999999915
20
-92.8999999999999915
11
116.0230989999999878
21
-92.9058489999999892
0
LINE
8
BLACK
6
CONTINUOUS
10
116.0230989999999878
20
-92.9058489999999892
11
116.0249999999999915
21
-106.2999999999999972
0
LINE
8
BLACK
6
CONTINUOUS
10
116.0249999999999915
20
-106.2999999999999972
11
116.0249999999999915
21
-106.3435559999999924
0
LINE
8
BLACK
6
CONTINUOUS
10
116.0249999999999915
20
-106.3435559999999924
11
116.0519189999999981
21
-106.4264039999999909
0
LINE
8
BLACK
6
CONTINUOUS
10
116.0519189999999981
20
-106.4264039999999909
11
116.103121999999999
21
-106.4968779999999953
0
LINE
8
BLACK
6
CONTINUOUS
10
116.103121999999999
20
-106.4968779999999953
11
116.1735959999999892
21
-106.5480809999999963
0
LINE
8
BLACK
6
CONTINUOUS
10
116.1735959999999892
20
-106.5480809999999963
11
116.2564439999999877
21
-106.5749999999999886
0
LINE
8
BLACK
6
CONTINUOUS
10
116.2564439999999877
20
-106.5749999999999886
11
116.2999999999999972
21
-106.5749999999999886
0
LINE
8
BLACK
6
CONTINUOUS
10
116.2999999999999972
20
-106.5749999999999886
11
116.3058489999999949
21
-106.5768999999999949
0
LINE
8
BLACK
6
CONTINUOUS
10
116.3058489999999949
20
-106.5768999999999949
11
129.6999999999999886
21
-106.5749999999999886
0
LINE
8
BLACK
6
CONTINUOUS
10
129.6999999999999886
20
-106.5749999999999886
11
129.7435559999999839
21
-106.5749999999999886
0
LINE
8
BLACK
6
CONTINUOUS
10
129.7435559999999839
20
-106.5749999999999886
11
129.8264039999999966
21
-106.5480809999999963
0
LINE
8
BLACK
6
CONTINUOUS
10
129.8264039999999966
20
-106.5480809999999963
11
129.8968779999999867
21
-106.4968779999999953
0
LINE
8
BLACK
6
CONTINUOUS
10
129.8968779999999867
20
-106.4968779999999953
11
129.9480810000000019
21
-106.4264039999999909
0
LINE
8
BLACK
6
CONTINUOUS
10
129.9480810000000019
20
-106.4264039999999909
11
129.9749999999999943
21
-106.3435559999999924
0
LINE
8
BLACK
6
CONTINUOUS
10
129.9749999999999943
20
-106.3435559999999924
11
129.9749999999999943
21
-106.2999999999999972
0
LINE
8
BLACK
6
CONTINUOUS
10
129.9749999999999943
20
-106.2999999999999972
11
129.9769000000000005
21
-106.2941500000000019
0
LINE
8
BLACK
6
CONTINUOUS
10
129.9769000000000005
20
-106.2941500000000019
11
129.9749999999999943
21
-92.8999999999999915
0
LINE
8
BLACK
6
CONTINUOUS
10
129.9749999999999943
20
-92.8999999999999915
11
129.9749999999999943
21
-92.8564439999999962
0
LINE
8
BLACK
6
CONTINUOUS
10
129.9749999999999943
20
-92.8564439999999962
11
129.9480810000000019
21
-92.7735959999999977
0
LINE
8
BLACK
6
CONTINUOUS
10
129.9480810000000019
20
-92.7735959999999977
11
129.8968779999999867
21
-92.7031219999999934
0
LINE
8
BLACK
6
CONTINUOUS
10
129.8968779999999867
20
-92.7031219999999934
11
129.8264039999999966
21
-92.6519189999999924
0
LINE
8
BLACK
6
CONTINUOUS
10
129.8264039999999966
20
-92.6519189999999924
11
129.7435559999999839
21
-92.625
0
LINE
8
BLACK
6
CONTINUOUS
10
129.7435559999999839
20
-92.625
11
129.6999999999999886
21
-92.625
0
LINE
8
BLACK
6
CONTINUOUS
10
129.6999999999999886
20
-92.625
11
129.6941500000000076
21
-92.6230989999999963
0
LINE
8
BLACK
6
CONTINUOUS
10
129.6941500000000076
20
-92.6230989999999963
11
116.2999999999999972
21
-92.625
0
LINE
8
BLACK
6
CONTINUOUS
10
148.8004310000000032
20
-92.5909070000000014
11
148.8910300000000007
21
-92.6370689999999968
0
LINE
8
BLACK
6
CONTINUOUS
10
148.8910300000000007
20
-92.6370689999999968
11
148.9629309999999975
21
-92.7089699999999937
0
LINE
8
BLACK
6
CONTINUOUS
10
148.9629309999999975
20
-92.7089699999999937
11
149.0090930000000071
21
-92.7995689999999911
0
LINE
8
BLACK
6
CONTINUOUS
10
149.0090930000000071
20
-92.7995689999999911
11
149.0250000000000057
21
-92.8999999999999915
0
LINE
8
BLACK
6
CONTINUOUS
10
149.0250000000000057
20
-92.8999999999999915
11
149.023099000000002
21
-92.9058489999999892
0
LINE
8
BLACK
6
CONTINUOUS
10
149.023099000000002
20
-92.9058489999999892
11
149.0250000000000057
21
-106.2999999999999972
0
LINE
8
BLACK
6
CONTINUOUS
10
149.0250000000000057
20
-106.2999999999999972
11
149.0090930000000071
21
-106.4004309999999975
0
LINE
8
BLACK
6
CONTINUOUS
10
149.0090930000000071
20
-106.4004309999999975
11
148.9629309999999975
21
-106.491029999999995
0
LINE
8
BLACK
6
CONTINUOUS
10
148.9629309999999975
20
-106.491029999999995
11
148.8910300000000007
21
-106.5629309999999919
0
LINE
8
BLACK
6
CONTINUOUS
10
148.8910300000000007
20
-106.5629309999999919
11
148.8004310000000032
21
-106.6090930000000014
0
LINE
8
BLACK
6
CONTINUOUS
10
148.8004310000000032
20
-106.6090930000000014
11
148.6999999999999886
21
-106.625
0
LINE
8
BLACK
6
CONTINUOUS
10
148.6999999999999886
20
-106.625
11
148.6941499999999792
21
-106.6230989999999963
0
LINE
8
BLACK
6
CONTINUOUS
10
148.6941499999999792
20
-106.6230989999999963
11
135.2999999999999829
21
-106.625
0
LINE
8
BLACK
6
CONTINUOUS
10
135.2999999999999829
20
-106.625
11
135.1995689999999968
21
-106.6090930000000014
0
LINE
8
BLACK
6
CONTINUOUS
10
135.1995689999999968
20
-106.6090930000000014
11
135.1089699999999993
21
-106.5629309999999919
0
LINE
8
BLACK
6
CONTINUOUS
10
135.1089699999999993
20
-106.5629309999999919
11
135.0370690000000025
21
-106.491029999999995
0
LINE
8
BLACK
6
CONTINUOUS
10
135.0370690000000025
20
-106.491029999999995
11
134.9909069999999929
21
-106.4004309999999975
0
LINE
8
BLACK
6
CONTINUOUS
10
134.9909069999999929
20
-106.4004309999999975
11
134.9749999999999943
21
-106.2999999999999972
0
LINE
8
BLACK
6
CONTINUOUS
10
134.9749999999999943
20
-106.2999999999999972
11
134.9769000000000005
21
-106.2941500000000019
0
LINE
8
BLACK
6
CONTINUOUS
10
134.9769000000000005
20
-106.2941500000000019
11
134.9749999999999943
21
-92.8999999999999915
0
LINE
8
BLACK
6
CONTINUOUS
10
134.9749999999999943
20
-92.8999999999999915
11
134.9909069999999929
21
-92.7995689999999911
0
LINE
8
BLACK
6
CONTINUOUS
10
134.9909069999999929
20
-92.7995689999999911
11
135.0370690000000025
21
-92.7089699999999937
0
LINE
8
BLACK
6
CONTINUOUS
10
135.0370690000000025
20
-92.7089699999999937
11
135.1089699999999993
21
-92.6370689999999968
0
LINE
8
BLACK
6
CONTINUOUS
10
135.1089699999999993
20
-92.6370689999999968
11
135.1995689999999968
21
-92.5909070000000014
0
LINE
8
BLACK
6
CONTINUOUS
10
135.1995689999999968
20
-92.5909070000000014
11
135.2999999999999829
21
-92.5750000000000028
0
LINE
8
BLACK
6
CONTINUOUS
10
135.2999999999999829
20
-92.5750000000000028
11
135.3058489999999949
21
-92.5768999999999949
0
LINE
8
BLACK
6
CONTINUOUS
10
135.3058489999999949
20
-92.5768999999999949
11
148.6999999999999886
21
-92.5750000000000028
0
LINE
8
BLACK
6
CONTINUOUS
10
148.6999999999999886
20
-92.5750000000000028
11
148.8004310000000032
21
-92.5909070000000014
0
LINE
8
BLACK
6
CONTINUOUS
10
135.2999999999999829
20
-92.625
11
135.2564439999999877
21
-92.625
0
LINE
8
BLACK
6
CONTINUOUS
10
135.2564439999999877
20
-92.625
11
135.1735960000000034
21
-92.6519189999999924
0
LINE
8
BLACK
6
CONTINUOUS
10
135.1735960000000034
20
-92.6519189999999924
11
135.1031219999999848
21
-92.7031219999999934
0
LINE
8
BLACK
6
CONTINUOUS
10
135.1031219999999848
20
-92.7031219999999934
11
135.0519189999999981
21
-92.7735959999999977
0
LINE
8
BLACK
6
CONTINUOUS
10
135.0519189999999981
20
-92.7735959999999977
11
135.0250000000000057
21
-92.8564439999999962
0
LINE
8
BLACK
6
CONTINUOUS
10
135.0250000000000057
20
-92.8564439999999962
11
135.0250000000000057
21
-92.8999999999999915
0
LINE
8
BLACK
6
CONTINUOUS
10
135.0250000000000057
20
-92.8999999999999915
11
135.023099000000002
21
-92.9058489999999892
0
LINE
8
BLACK
6
CONTINUOUS
10
135.023099000000002
20
-92.9058489999999892
11
135.0250000000000057
21
-106.2999999999999972
0
LINE
8
BLACK
6
CONTINUOUS
10
135.0250000000000057
20
-106.2999999999999972
11
135.0250000000000057
21
-106.3435559999999924
0
LINE
8
BLACK
6
CONTINUOUS
10
135.0250000000000057
20
-106.3435559999999924
11
135.0519189999999981
21
-106.4264039999999909
0
LINE
8
BLACK
6
CONTINUOUS
10
135.0519189999999981
20
-106.4264039999999909
11
135.1031219999999848
21
-106.4968779999999953
0
LINE
8
BLACK
6
CONTINUOUS
10
135.1031219999999848
20
-106.4968779999999953
11
135.1735960000000034
21
-106.5480809999999963
0
LINE
8
BLACK
6
CONTINUOUS
10
135.1735960000000034
20
-106.5480809999999963
11
135.2564439999999877
21
-106.5749999999999886
0
LINE
8
BLACK
6
CONTINUOUS
10
135.2564439999999877
20
-106.5749999999999886
11
135.2999999999999829
21
-106.5749999999999886
0
LINE
8
BLACK
6
CONTINUOUS
10
135.2999999999999829
20
-106.5749999999999886
11
135.3058489999999949
21
-106.5768999999999949
0
LINE
8
BLACK
6
CONTINUOUS
10
135.3058489999999949
20
-106.5768999999999949
11
148.6999999999999886
21
-106.5749999999999886
0
LINE
8
BLACK
6
CONTINUOUS
10
148.6999999999999886
20
-106.5749999999999886
11
148.7435559999999839
21
-106.5749999999999886
0
LINE
8
BLACK
6
CONTINUOUS
10
148.7435559999999839
20
-106.5749999999999886
11
148.8264039999999966
21
-106.5480809999999963
0
LINE
8
BLACK
6
CONTINUOUS
10
148.8264039999999966
20
-106.5480809999999963
11
148.8968779999999867
21
-106.4968779999999953
0
LINE
8
BLACK
6
CONTINUOUS
10
148.8968779999999867
20
-106.4968779999999953
11
148.9480810000000019
21
-106.4264039999999909
0
LINE
8
BLACK
6
CONTINUOUS
10
148.9480810000000019
20
-106.4264039999999909
11
148.9749999999999943
21
-106.3435559999999924
0
LINE
8
BLACK
6
CONTINUOUS
10
148.9749999999999943
20
-106.3435559999999924
11
148.9749999999999943
21
-106.2999999999999972
0
LINE
8
BLACK
6
CONTINUOUS
10
148.9749999999999943
20
-106.2999999999999972
11
148.9769000000000005
21
-106.2941500000000019
0
LINE
8
BLACK
6
CONTINUOUS
10
148.9769000000000005
20
-106.2941500000000019
11
148.9749999999999943
21
-92.8999999999999915
0
LINE
8
BLACK
6
CONTINUOUS
10
148.9749999999999943
20
-92.8999999999999915
11
148.9749999999999943
21
-92.8564439999999962
0
LINE
8
BLACK
6
CONTINUOUS
10
148.9749999999999943
20
-92.8564439999999962
11
148.9480810000000019
21
-92.7735959999999977
0
LINE
8
BLACK
6
CONTINUOUS
10
148.9480810000000019
20
-92.7735959999999977
11
148.8968779999999867
21
-92.7031219999999934
0
LINE
8
BLACK
6
CONTINUOUS
10
148.8968779999999867
20
-92.7031219999999934
11
148.8264039999999966
21
-92.6519189999999924
0
LINE
8
BLACK
6
CONTINUOUS
10
148.8264039999999966
20
-92.6519189999999924
11
148.7435559999999839
21
-92.625
0
LINE
8
BLACK
6
CONTINUOUS
10
148.7435559999999839
20
-92.625
11
148.6999999999999886
21
-92.625
0
LINE
8
BLACK
6
CONTINUOUS
10
148.6999999999999886
20
-92.625
11
148.6941499999999792
21
-92.6230989999999963
0
LINE
8
BLACK
6
CONTINUOUS
10
148.6941499999999792
20
-92.6230989999999963
11
135.2999999999999829
21
-92.625
0
LINE
8
BLACK
6
CONTINUOUS
10
110.800430999999989
20
-73.5909070000000014
11
110.8910300000000007
21
-73.6370689999999968
0
LINE
8
BLACK
6
CONTINUOUS
10
110.8910300000000007
20
-73.6370689999999968
11
110.9629309999999975
21
-73.7089699999999937
0
LINE
8
BLACK
6
CONTINUOUS
10
110.9629309999999975
20
-73.7089699999999937
11
111.0090929999999929
21
-73.7995689999999911
0
LINE
8
BLACK
6
CONTINUOUS
10
111.0090929999999929
20
-73.7995689999999911
11
111.0249999999999915
21
-73.8999999999999915
0
LINE
8
BLACK
6
CONTINUOUS
10
111.0249999999999915
20
-73.8999999999999915
11
111.023099000000002
21
-73.9058490000000035
0
LINE
8
BLACK
6
CONTINUOUS
10
111.023099000000002
20
-73.9058490000000035
11
111.0249999999999915
21
-87.2999999999999972
0
LINE
8
BLACK
6
CONTINUOUS
10
111.0249999999999915
20
-87.2999999999999972
11
111.0090929999999929
21
-87.4004309999999975
0
LINE
8
BLACK
6
CONTINUOUS
10
111.0090929999999929
20
-87.4004309999999975
11
110.9629309999999975
21
-87.491029999999995
0
LINE
8
BLACK
6
CONTINUOUS
10
110.9629309999999975
20
-87.491029999999995
11
110.8910300000000007
21
-87.5629309999999919
0
LINE
8
BLACK
6
CONTINUOUS
10
110.8910300000000007
20
-87.5629309999999919
11
110.800430999999989
21
-87.6090930000000014
0
LINE
8
BLACK
6
CONTINUOUS
10
110.800430999999989
20
-87.6090930000000014
11
110.6999999999999886
21
-87.625
0
LINE
8
BLACK
6
CONTINUOUS
10
110.6999999999999886
20
-87.625
11
110.6941499999999934
21
-87.6230989999999963
0
LINE
8
BLACK
6
CONTINUOUS
10
110.6941499999999934
20
-87.6230989999999963
11
97.2999999999999972
21
-87.625
0
LINE
8
BLACK
6
CONTINUOUS
10
97.2999999999999972
20
-87.625
11
97.1995689999999968
21
-87.6090930000000014
0
LINE
8
BLACK
6
CONTINUOUS
10
97.1995689999999968
20
-87.6090930000000014
11
97.1089699999999993
21
-87.5629309999999919
0
LINE
8
BLACK
6
CONTINUOUS
10
97.1089699999999993
20
-87.5629309999999919
11
97.0370690000000025
21
-87.491029999999995
0
LINE
8
BLACK
6
CONTINUOUS
10
97.0370690000000025
20
-87.491029999999995
11
96.9909069999999929
21
-87.4004309999999975
0
LINE
8
BLACK
6
CONTINUOUS
10
96.9909069999999929
20
-87.4004309999999975
11
96.9749999999999943
21
-87.2999999999999972
0
LINE
8
BLACK
6
CONTINUOUS
10
96.9749999999999943
20
-87.2999999999999972
11
96.9769000000000005
21
-87.2941500000000019
0
LINE
8
BLACK
6
CONTINUOUS
10
96.9769000000000005
20
-87.2941500000000019
11
96.9749999999999943
21
-73.8999999999999915
0
LINE
8
BLACK
6
CONTINUOUS
10
96.9749999999999943
20
-73.8999999999999915
11
96.9909069999999929
21
-73.7995689999999911
0
LINE
8
BLACK
6
CONTINUOUS
10
96.9909069999999929
20
-73.7995689999999911
11
97.0370690000000025
21
-73.7089699999999937
0
LINE
8
BLACK
6
CONTINUOUS
10
97.0370690000000025
20
-73.7089699999999937
11
97.1089699999999993
21
-73.6370689999999968
0
LINE
8
BLACK
6
CONTINUOUS
10
97.1089699999999993
20
-73.6370689999999968
11
97.1995689999999968
21
-73.5909070000000014
0
LINE
8
BLACK
6
CONTINUOUS
10
97.1995689999999968
20
-73.5909070000000014
11
97.2999999999999972
21
-73.5750000000000028
0
LINE
8
BLACK
6
CONTINUOUS
10
97.2999999999999972
20
-73.5750000000000028
11
97.3058489999999949
21
-73.5768999999999949
0
LINE
8
BLACK
6
CONTINUOUS
10
97.3058489999999949
20
-73.5768999999999949
11
110.6999999999999886
21
-73.5750000000000028
0
LINE
8
BLACK
6
CONTINUOUS
10
110.6999999999999886
20
-73.5750000000000028
11
110.800430999999989
21
-73.5909070000000014
0
LINE
8
BLACK
6
CONTINUOUS
10
97.2999999999999972
20
-73.625
11
97.2564440000000019
21
-73.625
0
LINE
8
BLACK
6
CONTINUOUS
10
97.2564440000000019
20
-73.625
11
97.1735959999999892
21
-73.6519189999999924
0
LINE
8
BLACK
6
CONTINUOUS
10
97.1735959999999892
20
-73.6519189999999924
11
97.103121999999999
21
-73.7031219999999934
0
LINE
8
BLACK
6
CONTINUOUS
10
97.103121999999999
20
-73.7031219999999934
11
97.0519189999999981
21
-73.7735959999999977
0
LINE
8
BLACK
6
CONTINUOUS
10
97.0519189999999981
20
-73.7735959999999977
11
97.0249999999999915
21
-73.8564439999999962
0
LINE
8
BLACK
6
CONTINUOUS
10
97.0249999999999915
20
-73.8564439999999962
11
97.0249999999999915
21
-73.8999999999999915
0
LINE
8
BLACK
6
CONTINUOUS
10
97.0249999999999915
20
-73.8999999999999915
11
97.023099000000002
21
-73.9058490000000035
0
LINE
8
BLACK
6
CONTINUOUS
10
97.023099000000002
20
-73.9058490000000035
11
97.0249999999999915
21
-87.2999999999999972
0
LINE
8
BLACK
6
CONTINUOUS
10
97.0249999999999915
20
-87.2999999999999972
11
97.0249999999999915
21
-87.3435559999999924
0
LINE
8
BLACK
6
CONTINUOUS
10
97.0249999999999915
20
-87.3435559999999924
11
97.0519189999999981
21
-87.4264039999999909
0
LINE
8
BLACK
6
CONTINUOUS
10
97.0519189999999981
20
-87.4264039999999909
11
97.103121999999999
21
-87.4968779999999953
0
LINE
8
BLACK
6
CONTINUOUS
10
97.103121999999999
20
-87.4968779999999953
11
97.1735959999999892
21
-87.5480809999999963
0
LINE
8
BLACK
6
CONTINUOUS
10
97.1735959999999892
20
-87.5480809999999963
11
97.2564440000000019
21
-87.5750000000000028
0
LINE
8
BLACK
6
CONTINUOUS
10
97.2564440000000019
20
-87.5750000000000028
11
97.2999999999999972
21
-87.5750000000000028
0
LINE
8
BLACK
6
CONTINUOUS
10
97.2999999999999972
20
-87.5750000000000028
11
97.3058489999999949
21
-87.5768999999999949
0
LINE
8
BLACK
6
CONTINUOUS
10
97.3058489999999949
20
-87.5768999999999949
11
110.6999999999999886
21
-87.5750000000000028
0
LINE
8
BLACK
6
CONTINUOUS
10
110.6999999999999886
20
-87.5750000000000028
11
110.7435559999999981
21
-87.5750000000000028
0
LINE
8
BLACK
6
CONTINUOUS
10
110.7435559999999981
20
-87.5750000000000028
11
110.8264039999999966
21
-87.5480809999999963
0
LINE
8
BLACK
6
CONTINUOUS
10
110.8264039999999966
20
-87.5480809999999963
11
110.896878000000001
21
-87.4968779999999953
0
LINE
8
BLACK
6
CONTINUOUS
10
110.896878000000001
20
-87.4968779999999953
11
110.9480810000000019
21
-87.4264039999999909
0
LINE
8
BLACK
6
CONTINUOUS
10
110.9480810000000019
20
-87.4264039999999909
11
110.9749999999999943
21
-87.3435559999999924
0
LINE
8
BLACK
6
CONTINUOUS
10
110.9749999999999943
20
-87.3435559999999924
11
110.9749999999999943
21
-87.2999999999999972
0
LINE
8
BLACK
6
CONTINUOUS
10
110.9749999999999943
20
-87.2999999999999972
11
110.9769000000000005
21
-87.2941500000000019
0
LINE
8
BLACK
6
CONTINUOUS
10
110.9769000000000005
20
-87.2941500000000019
11
110.9749999999999943
21
-73.8999999999999915
0
LINE
8
BLACK
6
CONTINUOUS
10
110.9749999999999943
20
-73.8999999999999915
11
110.9749999999999943
21
-73.8564439999999962
0
LINE
8
BLACK
6
CONTINUOUS
10
110.9749999999999943
20
-73.8564439999999962
11
110.9480810000000019
21
-73.7735959999999977
0
LINE
8
BLACK
6
CONTINUOUS
10
110.9480810000000019
20
-73.7735959999999977
11
110.896878000000001
21
-73.7031219999999934
0
LINE
8
BLACK
6
CONTINUOUS
10
110.896878000000001
20
-73.7031219999999934
11
110.8264039999999966
21
-73.6519189999999924
0
LINE
8
BLACK
6
CONTINUOUS
10
110.8264039999999966
20
-73.6519189999999924
11
110.7435559999999981
21
-73.625
0
LINE
8
BLACK
6
CONTINUOUS
10
110.7435559999999981
20
-73.625
11
110.6999999999999886
21
-73.625
0
LINE
8
BLACK
6
CONTINUOUS
10
110.6999999999999886
20
-73.625
11
110.6941499999999934
21
-73.6230989999999963
0
LINE
8
BLACK
6
CONTINUOUS
10
110.6941499999999934
20
-73.6230989999999963
11
97.2999999999999972
21
-73.625
0
LINE
8
BLACK
6
CONTINUOUS
10
129.8004310000000032
20
-73.5909070000000014
11
129.8910300000000007
21
-73.6370689999999968
0
LINE
8
BLACK
6
CONTINUOUS
10
129.8910300000000007
20
-73.6370689999999968
11
129.9629309999999975
21
-73.7089699999999937
0
LINE
8
BLACK
6
CONTINUOUS
10
129.9629309999999975
20
-73.7089699999999937
11
130.0090930000000071
21
-73.7995689999999911
0
LINE
8
BLACK
6
CONTINUOUS
10
130.0090930000000071
20
-73.7995689999999911
11
130.0250000000000057
21
-73.8999999999999915
0
LINE
8
BLACK
6
CONTINUOUS
10
130.0250000000000057
20
-73.8999999999999915
11
130.023099000000002
21
-73.9058490000000035
0
LINE
8
BLACK
6
CONTINUOUS
10
130.023099000000002
20
-73.9058490000000035
11
130.0250000000000057
21
-87.2999999999999972
0
LINE
8
BLACK
6
CONTINUOUS
10
130.0250000000000057
20
-87.2999999999999972
11
130.0090930000000071
21
-87.4004309999999975
0
LINE
8
BLACK
6
CONTINUOUS
10
130.0090930000000071
20
-87.4004309999999975
11
129.9629309999999975
21
-87.491029999999995
0
LINE
8
BLACK
6
CONTINUOUS
10
129.9629309999999975
20
-87.491029999999995
11
129.8910300000000007
21
-87.5629309999999919
0
LINE
8
BLACK
6
CONTINUOUS
10
129.8910300000000007
20
-87.5629309999999919
11
129.8004310000000032
21
-87.6090930000000014
0
LINE
8
BLACK
6
CONTINUOUS
10
129.8004310000000032
20
-87.6090930000000014
11
129.6999999999999886
21
-87.625
0
LINE
8
BLACK
6
CONTINUOUS
10
129.6999999999999886
20
-87.625
11
129.6941500000000076
21
-87.6230989999999963
0
LINE
8
BLACK
6
CONTINUOUS
10
129.6941500000000076
20
-87.6230989999999963
11
116.2999999999999972
21
-87.625
0
LINE
8
BLACK
6
CONTINUOUS
10
116.2999999999999972
20
-87.625
11
116.1995689999999968
21
-87.6090930000000014
0
LINE
8
BLACK
6
CONTINUOUS
10
116.1995689999999968
20
-87.6090930000000014
11
116.1089699999999993
21
-87.5629309999999919
0
LINE
8
BLACK
6
CONTINUOUS
10
116.1089699999999993
20
-87.5629309999999919
11
116.0370689999999883
21
-87.491029999999995
0
LINE
8
BLACK
6
CONTINUOUS
10
116.0370689999999883
20
-87.491029999999995
11
115.9909069999999929
21
-87.4004309999999975
0
LINE
8
BLACK
6
CONTINUOUS
10
115.9909069999999929
20
-87.4004309999999975
11
115.9749999999999943
21
-87.2999999999999972
0
LINE
8
BLACK
6
CONTINUOUS
10
115.9749999999999943
20
-87.2999999999999972
11
115.9769000000000005
21
-87.2941500000000019
0
LINE
8
BLACK
6
CONTINUOUS
10
115.9769000000000005
20
-87.2941500000000019
11
115.9749999999999943
21
-73.8999999999999915
0
LINE
8
BLACK
6
CONTINUOUS
10
115.9749999999999943
20
-73.8999999999999915
11
115.9909069999999929
21
-73.7995689999999911
0
LINE
8
BLACK
6
CONTINUOUS
10
115.9909069999999929
20
-73.7995689999999911
11
116.0370689999999883
21
-73.7089699999999937
0
LINE
8
BLACK
6
CONTINUOUS
10
116.0370689999999883
20
-73.7089699999999937
11
116.1089699999999993
21
-73.6370689999999968
0
LINE
8
BLACK
6
CONTINUOUS
10
116.1089699999999993
20
-73.6370689999999968
11
116.1995689999999968
21
-73.5909070000000014
0
LINE
8
BLACK
6
CONTINUOUS
10
116.1995689999999968
20
-73.5909070000000014
11
116.2999999999999972
21
-73.5750000000000028
0
LINE
8
BLACK
6
CONTINUOUS
10
116.2999999999999972
20
-73.5750000000000028
11
116.3058489999999949
21
-73.5768999999999949
0
LINE
8
BLACK
6
CONTINUOUS
10
116.3058489999999949
20
-73.5768999999999949
11
129.6999999999999886
21
-73.5750000000000028
0
LINE
8
BLACK
6
CONTINUOUS
10
129.6999999999999886
20
-73.5750000000000028
11
129.8004310000000032
21
-73.5909070000000014
0
LINE
8
BLACK
6
CONTINUOUS
10
116.2999999999999972
20
-73.625
11
116.2564439999999877
21
-73.625
0
LINE
8
BLACK
6
CONTINUOUS
10
116.2564439999999877
20
-73.625
11
116.1735959999999892
21
-73.6519189999999924
0
LINE
8
BLACK
6
CONTINUOUS
10
116.1735959999999892
20
-73.6519189999999924
11
116.103121999999999
21
-73.7031219999999934
0
LINE
8
BLACK
6
CONTINUOUS
10
116.103121999999999
20
-73.7031219999999934
11
116.0519189999999981
21
-73.7735959999999977
0
LINE
8
BLACK
6
CONTINUOUS
10
116.0519189999999981
20
-73.7735959999999977
11
116.0249999999999915
21
-73.8564439999999962
0
LINE
8
BLACK
6
CONTINUOUS
10
116.0249999999999915
20
-73.8564439999999962
11
116.0249999999999915
21
-73.8999999999999915
0
LINE
8
BLACK
6
CONTINUOUS
10
116.0249999999999915
20
-73.8999999999999915
11
116.0230989999999878
21
-73.9058490000000035
0
LINE
8
BLACK
6
CONTINUOUS
10
116.0230989999999878
20
-73.9058490000000035
11
116.0249999999999915
21
-87.2999999999999972
0
LINE
8
BLACK
6
CONTINUOUS
10
116.0249999999999915
20
-87.2999999999999972
11
116.0249999999999915
21
-87.3435559999999924
0
LINE
8
BLACK
6
CONTINUOUS
10
116.0249999999999915
20
-87.3435559999999924
11
116.0519189999999981
21
-87.4264039999999909
0
LINE
8
BLACK
6
CONTINUOUS
10
116.0519189999999981
20
-87.4264039999999909
11
116.103121999999999
21
-87.4968779999999953
0
LINE
8
BLACK
6
CONTINUOUS
10
116.103121999999999
20
-87.4968779999999953
11
116.1735959999999892
21
-87.5480809999999963
0
LINE
8
BLACK
6
CONTINUOUS
10
116.1735959999999892
20
-87.5480809999999963
11
116.2564439999999877
21
-87.5750000000000028
0
LINE
8
BLACK
6
CONTINUOUS
10
116.2564439999999877
20
-87.5750000000000028
11
116.2999999999999972
21
-87.5750000000000028
0
LINE
8
BLACK
6
CONTINUOUS
10
116.2999999999999972
20
-87.5750000000000028
11
116.3058489999999949
21
-87.5768999999999949
0
LINE
8
BLACK
6
CONTINUOUS
10
116.3058489999999949
20
-87.5768999999999949
11
129.6999999999999886
21
-87.5750000000000028
0
LINE
8
BLACK
6
CONTINUOUS
10
129.6999999999999886
20
-87.5750000000000028
11
129.7435559999999839
21
-87.5750000000000028
0
LINE
8
BLACK
6
CONTINUOUS
10
129.7435559999999839
20
-87.5750000000000028
11
129.8264039999999966
21
-87.5480809999999963
0
LINE
8
BLACK
6
CONTINUOUS
10
129.8264039999999966
20
-87.5480809999999963
11
129.8968779999999867
21
-87.4968779999999953
0
LINE
8
BLACK
6
CONTINUOUS
10
129.8968779999999867
20
-87.4968779999999953
11
129.9480810000000019
21
-87.4264039999999909
0
LINE
8
BLACK
6
CONTINUOUS
10
129.9480810000000019
20
-87.4264039999999909
11
129.9749999999999943
21
-87.3435559999999924
0
LINE
8
BLACK
6
CONTINUOUS
10
129.9749999999999943
20
-87.3435559999999924
11
129.9749999999999943
21
-87.2999999999999972
0
LINE
8
BLACK
6
CONTINUOUS
10
129.9749999999999943
20
-87.2999999999999972
11
129.9769000000000005
21
-87.2941500000000019
0
LINE
8
BLACK
6
CONTINUOUS
10
129.9769000000000005
20
-87.2941500000000019
11
129.9749999999999943
21
-73.8999999999999915
0
LINE
8
BLACK
6
CONTINUOUS
10
129.9749999999999943
20
-73.8999999999999915
11
129.9749999999999943
21
-73.8564439999999962
0
LINE
8
BLACK
6
CONTINUOUS
10
129.9749999999999943
20
-73.8564439999999962
11
129.9480810000000019
21
-73.7735959999999977
0
LINE
8
BLACK
6
CONTINUOUS
10
129.9480810000000019
20
-73.7735959999999977
11
129.8968779999999867
21
-73.7031219999999934
0
LINE
8
BLACK
6
CONTINUOUS
10
129.8968779999999867
20
-73.7031219999999934
11
129.8264039999999966
21
-73.6519189999999924
0
LINE
8
BLACK
6
CONTINUOUS
10
129.8264039999999966
20
-73.6519189999999924
11
129.7435559999999839
21
-73.625
0
LINE
8
BLACK
6
CONTINUOUS
10
129.7435559999999839
20
-73.625
11
129.6999999999999886
21
-73.625
0
LINE
8
BLACK
6
CONTINUOUS
10
129.6999999999999886
20
-73.625
11
129.6941500000000076
21
-73.6230989999999963
0
LINE
8
BLACK
6
CONTINUOUS
10
129.6941500000000076
20
-73.6230989999999963
11
116.2999999999999972
21
-73.625
0
LINE
8
BLACK
6
CONTINUOUS
10
148.8004310000000032
20
-73.5909070000000014
11
148.8910300000000007
21
-73.6370689999999968
0
LINE
8
BLACK
6
CONTINUOUS
10
148.8910300000000007
20
-73.6370689999999968
11
148.9629309999999975
21
-73.7089699999999937
0
LINE
8
BLACK
6
CONTINUOUS
10
148.9629309999999975
20
-73.7089699999999937
11
149.0090930000000071
21
-73.7995689999999911
0
LINE
8
BLACK
6
CONTINUOUS
10
149.0090930000000071
20
-73.7995689999999911
11
149.0250000000000057
21
-73.8999999999999915
0
LINE
8
BLACK
6
CONTINUOUS
10
149.0250000000000057
20
-73.8999999999999915
11
149.023099000000002
21
-73.9058490000000035
0
LINE
8
BLACK
6
CONTINUOUS
10
149.023099000000002
20
-73.9058490000000035
11
149.0250000000000057
21
-87.2999999999999972
0
LINE
8
BLACK
6
CONTINUOUS
10
149.0250000000000057
20
-87.2999999999999972
11
149.0090930000000071
21
-87.4004309999999975
0
LINE
8
BLACK
6
CONTINUOUS
10
149.0090930000000071
20
-87.4004309999999975
11
148.9629309999999975
21
-87.491029999999995
0
LINE
8
BLACK
6
CONTINUOUS
10
148.9629309999999975
20
-87.491029999999995
11
148.8910300000000007
21
-87.5629309999999919
0
LINE
8
BLACK
6
CONTINUOUS
10
148.8910300000000007
20
-87.5629309999999919
11
148.8004310000000032
21
-87.6090930000000014
0
LINE
8
BLACK
6
CONTINUOUS
10
148.8004310000000032
20
-87.6090930000000014
11
148.6999999999999886
21
-87.625
0
LINE
8
BLACK
6
CONTINUOUS
10
148.6999999999999886
20
-87.625
11
148.6941499999999792
21
-87.6230989999999963
0
LINE
8
BLACK
6
CONTINUOUS
10
148.6941499999999792
20
-87.6230989999999963
11
135.2999999999999829
21
-87.625
0
LINE
8
BLACK
6
CONTINUOUS
10
135.2999999999999829
20
-87.625
11
135.1995689999999968
21
-87.6090930000000014
0
LINE
8
BLACK
6
CONTINUOUS
10
135.1995689999999968
20
-87.6090930000000014
11
135.1089699999999993
21
-87.5629309999999919
0
LINE
8
BLACK
6
CONTINUOUS
10
135.1089699999999993
20
-87.5629309999999919
11
135.0370690000000025
21
-87.491029999999995
0
LINE
8
BLACK
6
CONTINUOUS
10
135.0370690000000025
20
-87.491029999999995
11
134.9909069999999929
21
-87.4004309999999975
0
LINE
8
BLACK
6
CONTINUOUS
10
134.9909069999999929
20
-87.4004309999999975
11
134.9749999999999943
21
-87.2999999999999972
0
LINE
8
BLACK
6
CONTINUOUS
10
134.9749999999999943
20
-87.2999999999999972
11
134.9769000000000005
21
-87.2941500000000019
0
LINE
8
BLACK
6
CONTINUOUS
10
134.9769000000000005
20
-87.2941500000000019
11
134.9749999999999943
21
-73.8999999999999915
0
LINE
8
BLACK
6
CONTINUOUS
10
134.9749999999999943
20
-73.8999999999999915
11
134.9909069999999929
21
-73.7995689999999911
0
LINE
8
BLACK
6
CONTINUOUS
10
134.9909069999999929
20
-73.7995689999999911
11
135.0370690000000025
21
-73.7089699999999937
0
LINE
8
BLACK
6
CONTINUOUS
10
135.0370690000000025
20
-73.7089699999999937
11
135.1089699999999993
21
-73.6370689999999968
0
LINE
8
BLACK
6
CONTINUOUS
10
135.1089699999999993
20
-73.6370689999999968
11
135.1995689999999968
21
-73.5909070000000014
0
LINE
8
BLACK
6
CONTINUOUS
10
135.1995689999999968
20
-73.5909070000000014
11
135.2999999999999829
21
-73.5750000000000028
0
LINE
8
BLACK
6
CONTINUOUS
10
135.2999999999999829
20
-73.5750000000000028
11
135.3058489999999949
21
-73.5768999999999949
0
LINE
8
BLACK
6
CONTINUOUS
10
135.3058489999999949
20
-73.5768999999999949
11
148.6999999999999886
21
-73.5750000000000028
0
LINE
8
BLACK
6
CONTINUOUS
10
148.6999999999999886
20
-73.5750000000000028
11
148.8004310000000032
21
-73.5909070000000014
0
LINE
8
BLACK
6
CONTINUOUS
10
135.2999999999999829
20
-73.625
11
135.2564439999999877
21
-73.625
0
LINE
8
BLACK
6
CONTINUOUS
10
135.2564439999999877
20
-73.625
11
135.1735960000000034
21
-73.6519189999999924
0
LINE
8
BLACK
6
CONTINUOUS
10
135.1735960000000034
20
-73.6519189999999924
11
135.1031219999999848
21
-73.7031219999999934
0
LINE
8
BLACK
6
CONTINUOUS
10
135.1031219999999848
20
-73.7031219999999934
11
135.0519189999999981
21
-73.7735959999999977
0
LINE
8
BLACK
6
CONTINUOUS
10
135.0519189999999981
20
-73.7735959999999977
11
135.0250000000000057
21
-73.8564439999999962
0
LINE
8
BLACK
6
CONTINUOUS
10
135.0250000000000057
20
-73.8564439999999962
11
135.0250000000000057
21
-73.8999999999999915
0
LINE
8
BLACK
6
CONTINUOUS
10
135.0250000000000057
20
-73.8999999999999915
11
135.023099000000002
21
-73.9058490000000035
0
LINE
8
BLACK
6
CONTINUOUS
10
135.023099000000002
20
-73.9058490000000035
11
135.0250000000000057
21
-87.2999999999999972
0
LINE
8
BLACK
6
CONTINUOUS
10
135.0250000000000057
20
-87.2999999999999972
11
135.0250000000000057
21
-87.3435559999999924
0
LINE
8
BLACK
6
CONTINUOUS
10
135.0250000000000057
20
-87.3435559999999924
11
135.0519189999999981
21
-87.4264039999999909
0
LINE
8
BLACK
6
CONTINUOUS
10
135.0519189999999981
20
-87.4264039999999909
11
135.1031219999999848
21
-87.4968779999999953
0
LINE
8
BLACK
6
CONTINUOUS
10
135.1031219999999848
20
-87.4968779999999953
11
135.1735960000000034
21
-87.5480809999999963
0
LINE
8
BLACK
6
CONTINUOUS
10
135.1735960000000034
20
-87.5480809999999963
11
135.2564439999999877
21
-87.5750000000000028
0
LINE
8
BLACK
6
CONTINUOUS
10
135.2564439999999877
20
-87.5750000000000028
11
135.2999999999999829
21
-87.5750000000000028
0
LINE
8
BLACK
6
CONTINUOUS
10
135.2999999999999829
20
-87.5750000000000028
11
135.3058489999999949
21
-87.5768999999999949
0
LINE
8
BLACK
6
CONTINUOUS
10
135.3058489999999949
20
-87.5768999999999949
11
148.6999999999999886
21
-87.5750000000000028
0
LINE
8
BLACK
6
CONTINUOUS
10
148.6999999999999886
20
-87.5750000000000028
11
148.7435559999999839
21
-87.5750000000000028
0
LINE
8
BLACK
6
CONTINUOUS
10
148.7435559999999839
20
-87.5750000000000028
11
148.8264039999999966
21
-87.5480809999999963
0
LINE
8
BLACK
6
CONTINUOUS
10
148.8264039999999966
20
-87.5480809999999963
11
148.8968779999999867
21
-87.4968779999999953
0
LINE
8
BLACK
6
CONTINUOUS
10
148.8968779999999867
20
-87.4968779999999953
11
148.9480810000000019
21
-87.4264039999999909
0
LINE
8
BLACK
6
CONTINUOUS
10
148.9480810000000019
20
-87.4264039999999909
11
148.9749999999999943
21
-87.3435559999999924
0
LINE
8
BLACK
6
CONTINUOUS
10
148.9749999999999943
20
-87.3435559999999924
11
148.9749999999999943
21
-87.2999999999999972
0
LINE
8
BLACK
6
CONTINUOUS
10
148.9749999999999943
20
-87.2999999999999972
11
148.9769000000000005
21
-87.2941500000000019
0
LINE
8
BLACK
6
CONTINUOUS
10
148.9769000000000005
20
-87.2941500000000019
11
148.9749999999999943
21
-73.8999999999999915
0
LINE
8
BLACK
6
CONTINUOUS
10
148.9749999999999943
20
-73.8999999999999915
11
148.9749999999999943
21
-73.8564439999999962
0
LINE
8
BLACK
6
CONTINUOUS
10
148.9749999999999943
20
-73.8564439999999962
11
148.9480810000000019
21
-73.7735959999999977
0
LINE
8
BLACK
6
CONTINUOUS
10
148.9480810000000019
20
-73.7735959999999977
11
148.8968779999999867
21
-73.7031219999999934
0
LINE
8
BLACK
6
CONTINUOUS
10
148.8968779999999867
20
-73.7031219999999934
11
148.8264039999999966
21
-73.6519189999999924
0
LINE
8
BLACK
6
CONTINUOUS
10
148.8264039999999966
20
-73.6519189999999924
11
148.7435559999999839
21
-73.625
0
LINE
8
BLACK
6
CONTINUOUS
10
148.7435559999999839
20
-73.625
11
148.6999999999999886
21
-73.625
0
LINE
8
BLACK
6
CONTINUOUS
10
148.6999999999999886
20
-73.625
11
148.6941499999999792
21
-73.6230989999999963
0
LINE
8
BLACK
6
CONTINUOUS
10
148.6941499999999792
20
-73.6230989999999963
11
135.2999999999999829
21
-73.625
0
LINE
8
BLACK
6
CONTINUOUS
10
93.800430999999989
20
-35.5909070000000014
11
93.8910300000000007
21
-35.6370689999999968
0
LINE
8
BLACK
6
CONTINUOUS
10
93.8910300000000007
20
-35.6370689999999968
11
93.9629309999999975
21
-35.7089700000000008
0
LINE
8
BLACK
6
CONTINUOUS
10
93.9629309999999975
20
-35.7089700000000008
11
94.0090929999999929
21
-35.7995689999999982
0
LINE
8
BLACK
6
CONTINUOUS
10
94.0090929999999929
20
-35.7995689999999982
11
94.0249999999999915
21
-35.8999999999999986
0
LINE
8
BLACK
6
CONTINUOUS
10
94.0249999999999915
20
-35.8999999999999986
11
94.0230999999999995
21
-35.9058459999999968
0
LINE
8
BLACK
6
CONTINUOUS
10
94.0230999999999995
20
-35.9058459999999968
11
94.0249999999999915
21
-44.7999999999999972
0
LINE
8
BLACK
6
CONTINUOUS
10
94.0249999999999915
20
-44.7999999999999972
11
94.0090929999999929
21
-44.9004309999999975
0
LINE
8
BLACK
6
CONTINUOUS
10
94.0090929999999929
20
-44.9004309999999975
11
93.9629309999999975
21
-44.991029999999995
0
LINE
8
BLACK
6
CONTINUOUS
10
93.9629309999999975
20
-44.991029999999995
11
93.8910300000000007
21
-45.062930999999999
0
LINE
8
BLACK
6
CONTINUOUS
10
93.8910300000000007
20
-45.062930999999999
11
93.800430999999989
21
-45.1090930000000014
0
LINE
8
BLACK
6
CONTINUOUS
10
93.800430999999989
20
-45.1090930000000014
11
93.7000000000000028
21
-45.125
0
LINE
8
BLACK
6
CONTINUOUS
10
93.7000000000000028
20
-45.125
11
93.6942069999999916
21
-45.1231170000000006
0
LINE
8
BLACK
6
CONTINUOUS
10
93.6942069999999916
20
-45.1231170000000006
11
92.2999999999999972
21
-45.125
0
LINE
8
BLACK
6
CONTINUOUS
10
92.2999999999999972
20
-45.125
11
92.2564440000000019
21
-45.125
0
LINE
8
BLACK
6
CONTINUOUS
10
92.2564440000000019
20
-45.125
11
92.1735959999999892
21
-45.1519189999999995
0
LINE
8
BLACK
6
CONTINUOUS
10
92.1735959999999892
20
-45.1519189999999995
11
92.103121999999999
21
-45.2031220000000005
0
LINE
8
BLACK
6
CONTINUOUS
10
92.103121999999999
20
-45.2031220000000005
11
92.0519189999999981
21
-45.2735959999999977
0
LINE
8
BLACK
6
CONTINUOUS
10
92.0519189999999981
20
-45.2735959999999977
11
92.0249999999999915
21
-45.3564439999999962
0
LINE
8
BLACK
6
CONTINUOUS
10
92.0249999999999915
20
-45.3564439999999962
11
92.0249999999999915
21
-45.3999999999999986
0
LINE
8
BLACK
6
CONTINUOUS
10
92.0249999999999915
20
-45.3999999999999986
11
92.023099000000002
21
-45.4058489999999964
0
LINE
8
BLACK
6
CONTINUOUS
10
92.023099000000002
20
-45.4058489999999964
11
92.0249999999999915
21
-58.7999999999999972
0
LINE
8
BLACK
6
CONTINUOUS
10
92.0249999999999915
20
-58.7999999999999972
11
92.0249999999999915
21
-58.8435559999999995
0
LINE
8
BLACK
6
CONTINUOUS
10
92.0249999999999915
20
-58.8435559999999995
11
92.0519189999999981
21
-58.926403999999998
0
LINE
8
BLACK
6
CONTINUOUS
10
92.0519189999999981
20
-58.926403999999998
11
92.103121999999999
21
-58.9968779999999953
0
LINE
8
BLACK
6
CONTINUOUS
10
92.103121999999999
20
-58.9968779999999953
11
92.1735959999999892
21
-59.0480809999999963
0
LINE
8
BLACK
6
CONTINUOUS
10
92.1735959999999892
20
-59.0480809999999963
11
92.2564440000000019
21
-59.0749999999999957
0
LINE
8
BLACK
6
CONTINUOUS
10
92.2564440000000019
20
-59.0749999999999957
11
92.2999999999999972
21
-59.0749999999999957
0
LINE
8
BLACK
6
CONTINUOUS
10
92.2999999999999972
20
-59.0749999999999957
11
92.3057919999999967
21
-59.0768819999999977
0
LINE
8
BLACK
6
CONTINUOUS
10
92.3057919999999967
20
-59.0768819999999977
11
93.7000000000000028
21
-59.0749999999999957
0
LINE
8
BLACK
6
CONTINUOUS
10
93.7000000000000028
20
-59.0749999999999957
11
93.800430999999989
21
-59.0909069999999943
0
LINE
8
BLACK
6
CONTINUOUS
10
93.800430999999989
20
-59.0909069999999943
11
93.8910300000000007
21
-59.1370689999999968
0
LINE
8
BLACK
6
CONTINUOUS
10
93.8910300000000007
20
-59.1370689999999968
11
93.9629309999999975
21
-59.2089700000000008
0
LINE
8
BLACK
6
CONTINUOUS
10
93.9629309999999975
20
-59.2089700000000008
11
94.0090929999999929
21
-59.2995689999999982
0
LINE
8
BLACK
6
CONTINUOUS
10
94.0090929999999929
20
-59.2995689999999982
11
94.0249999999999915
21
-59.3999999999999986
0
LINE
8
BLACK
6
CONTINUOUS
10
94.0249999999999915
20
-59.3999999999999986
11
94.0230999999999995
21
-59.4058459999999968
0
LINE
8
BLACK
6
CONTINUOUS
10
94.0230999999999995
20
-59.4058459999999968
11
94.0249999999999915
21
-68.2999999999999972
0
LINE
8
BLACK
6
CONTINUOUS
10
94.0249999999999915
20
-68.2999999999999972
11
94.0090929999999929
21
-68.4004309999999975
0
LINE
8
BLACK
6
CONTINUOUS
10
94.0090929999999929
20
-68.4004309999999975
11
93.9629309999999975
21
-68.491029999999995
0
LINE
8
BLACK
6
CONTINUOUS
10
93.9629309999999975
20
-68.491029999999995
11
93.8910300000000007
21
-68.5629309999999919
0
LINE
8
BLACK
6
CONTINUOUS
10
93.8910300000000007
20
-68.5629309999999919
11
93.800430999999989
21
-68.6090930000000014
0
LINE
8
BLACK
6
CONTINUOUS
10
93.800430999999989
20
-68.6090930000000014
11
93.7000000000000028
21
-68.625
0
LINE
8
BLACK
6
CONTINUOUS
10
93.7000000000000028
20
-68.625
11
93.6941489999999959
21
-68.6230979999999988
0
LINE
8
BLACK
6
CONTINUOUS
10
93.6941489999999959
20
-68.6230979999999988
11
78.2999999999999972
21
-68.625
0
LINE
8
BLACK
6
CONTINUOUS
10
78.2999999999999972
20
-68.625
11
78.1995689999999968
21
-68.6090930000000014
0
LINE
8
BLACK
6
CONTINUOUS
10
78.1995689999999968
20
-68.6090930000000014
11
78.1089699999999993
21
-68.5629309999999919
0
LINE
8
BLACK
6
CONTINUOUS
10
78.1089699999999993
20
-68.5629309999999919
11
78.0370690000000025
21
-68.491029999999995
0
LINE
8
BLACK
6
CONTINUOUS
10
78.0370690000000025
20
-68.491029999999995
11
77.9909069999999929
21
-68.4004309999999975
0
LINE
8
BLACK
6
CONTINUOUS
10
77.9909069999999929
20
-68.4004309999999975
11
77.9749999999999943
21
-68.2999999999999972
0
LINE
8
BLACK
6
CONTINUOUS
10
77.9749999999999943
20
-68.2999999999999972
11
77.9769019999999955
21
-68.2941459999999978
0
LINE
8
BLACK
6
CONTINUOUS
10
77.9769019999999955
20
-68.2941459999999978
11
77.9749999999999943
21
-35.8999999999999986
0
LINE
8
BLACK
6
CONTINUOUS
10
77.9749999999999943
20
-35.8999999999999986
11
77.9909069999999929
21
-35.7995689999999982
0
LINE
8
BLACK
6
CONTINUOUS
10
77.9909069999999929
20
-35.7995689999999982
11
78.0370690000000025
21
-35.7089700000000008
0
LINE
8
BLACK
6
CONTINUOUS
10
78.0370690000000025
20
-35.7089700000000008
11
78.1089699999999993
21
-35.6370689999999968
0
LINE
8
BLACK
6
CONTINUOUS
10
78.1089699999999993
20
-35.6370689999999968
11
78.1995689999999968
21
-35.5909070000000014
0
LINE
8
BLACK
6
CONTINUOUS
10
78.1995689999999968
20
-35.5909070000000014
11
78.2999999999999972
21
-35.5749999999999957
0
LINE
8
BLACK
6
CONTINUOUS
10
78.2999999999999972
20
-35.5749999999999957
11
78.3058499999999924
21
-35.5769009999999994
0
LINE
8
BLACK
6
CONTINUOUS
10
78.3058499999999924
20
-35.5769009999999994
11
93.7000000000000028
21
-35.5749999999999957
0
LINE
8
BLACK
6
CONTINUOUS
10
93.7000000000000028
20
-35.5749999999999957
11
93.800430999999989
21
-35.5909070000000014
0
LINE
8
BLACK
6
CONTINUOUS
10
78.2999999999999972
20
-35.625
11
78.2564440000000019
21
-35.625
0
LINE
8
BLACK
6
CONTINUOUS
10
78.2564440000000019
20
-35.625
11
78.1735960000000034
21
-35.6519189999999995
0
LINE
8
BLACK
6
CONTINUOUS
10
78.1735960000000034
20
-35.6519189999999995
11
78.103121999999999
21
-35.7031220000000005
0
LINE
8
BLACK
6
CONTINUOUS
10
78.103121999999999
20
-35.7031220000000005
11
78.0519189999999981
21
-35.7735959999999977
0
LINE
8
BLACK
6
CONTINUOUS
10
78.0519189999999981
20
-35.7735959999999977
11
78.0249999999999915
21
-35.8564439999999962
0
LINE
8
BLACK
6
CONTINUOUS
10
78.0249999999999915
20
-35.8564439999999962
11
78.0249999999999915
21
-35.8999999999999986
0
LINE
8
BLACK
6
CONTINUOUS
10
78.0249999999999915
20
-35.8999999999999986
11
78.0230969999999928
21
-35.9058530000000005
0
LINE
8
BLACK
6
CONTINUOUS
10
78.0230969999999928
20
-35.9058530000000005
11
78.0249999999999915
21
-68.2999999999999972
0
LINE
8
BLACK
6
CONTINUOUS
10
78.0249999999999915
20
-68.2999999999999972
11
78.0249999999999915
21
-68.3435559999999924
0
LINE
8
BLACK
6
CONTINUOUS
10
78.0249999999999915
20
-68.3435559999999924
11
78.0519189999999981
21
-68.4264039999999909
0
LINE
8
BLACK
6
CONTINUOUS
10
78.0519189999999981
20
-68.4264039999999909
11
78.103121999999999
21
-68.4968779999999953
0
LINE
8
BLACK
6
CONTINUOUS
10
78.103121999999999
20
-68.4968779999999953
11
78.1735960000000034
21
-68.5480809999999963
0
LINE
8
BLACK
6
CONTINUOUS
10
78.1735960000000034
20
-68.5480809999999963
11
78.2564440000000019
21
-68.5750000000000028
0
LINE
8
BLACK
6
CONTINUOUS
10
78.2564440000000019
20
-68.5750000000000028
11
78.2999999999999972
21
-68.5750000000000028
0
LINE
8
BLACK
6
CONTINUOUS
10
78.2999999999999972
20
-68.5750000000000028
11
78.3058499999999924
21
-68.5769009999999923
0
LINE
8
BLACK
6
CONTINUOUS
10
78.3058499999999924
20
-68.5769009999999923
11
93.7000000000000028
21
-68.5750000000000028
0
LINE
8
BLACK
6
CONTINUOUS
10
93.7000000000000028
20
-68.5750000000000028
11
93.7435559999999981
21
-68.5750000000000028
0
LINE
8
BLACK
6
CONTINUOUS
10
93.7435559999999981
20
-68.5750000000000028
11
93.8264039999999966
21
-68.5480809999999963
0
LINE
8
BLACK
6
CONTINUOUS
10
93.8264039999999966
20
-68.5480809999999963
11
93.896878000000001
21
-68.4968779999999953
0
LINE
8
BLACK
6
CONTINUOUS
10
93.896878000000001
20
-68.4968779999999953
11
93.9480810000000019
21
-68.4264039999999909
0
LINE
8
BLACK
6
CONTINUOUS
10
93.9480810000000019
20
-68.4264039999999909
11
93.9749999999999943
21
-68.3435559999999924
0
LINE
8
BLACK
6
CONTINUOUS
10
93.9749999999999943
20
-68.3435559999999924
11
93.9749999999999943
21
-68.2999999999999972
0
LINE
8
BLACK
6
CONTINUOUS
10
93.9749999999999943
20
-68.2999999999999972
11
93.9768989999999889
21
-68.2941529999999943
0
LINE
8
BLACK
6
CONTINUOUS
10
93.9768989999999889
20
-68.2941529999999943
11
93.9749999999999943
21
-59.3999999999999986
0
LINE
8
BLACK
6
CONTINUOUS
10
93.9749999999999943
20
-59.3999999999999986
11
93.9749999999999943
21
-59.3564439999999962
0
LINE
8
BLACK
6
CONTINUOUS
10
93.9749999999999943
20
-59.3564439999999962
11
93.9480810000000019
21
-59.2735959999999977
0
LINE
8
BLACK
6
CONTINUOUS
10
93.9480810000000019
20
-59.2735959999999977
11
93.896878000000001
21
-59.2031220000000005
0
LINE
8
BLACK
6
CONTINUOUS
10
93.896878000000001
20
-59.2031220000000005
11
93.8264039999999966
21
-59.1519189999999995
0
LINE
8
BLACK
6
CONTINUOUS
10
93.8264039999999966
20
-59.1519189999999995
11
93.7435559999999981
21
-59.125
0
LINE
8
BLACK
6
CONTINUOUS
10
93.7435559999999981
20
-59.125
11
93.7000000000000028
21
-59.125
0
LINE
8
BLACK
6
CONTINUOUS
10
93.7000000000000028
20
-59.125
11
93.6942069999999916
21
-59.1231170000000006
0
LINE
8
BLACK
6
CONTINUOUS
10
93.6942069999999916
20
-59.1231170000000006
11
92.2999999999999972
21
-59.125
0
LINE
8
BLACK
6
CONTINUOUS
10
92.2999999999999972
20
-59.125
11
92.1995689999999968
21
-59.1090929999999943
0
LINE
8
BLACK
6
CONTINUOUS
10
92.1995689999999968
20
-59.1090929999999943
11
92.1089699999999993
21
-59.062930999999999
0
LINE
8
BLACK
6
CONTINUOUS
10
92.1089699999999993
20
-59.062930999999999
11
92.0370690000000025
21
-58.991029999999995
0
LINE
8
BLACK
6
CONTINUOUS
10
92.0370690000000025
20
-58.991029999999995
11
91.9909069999999929
21
-58.9004309999999975
0
LINE
8
BLACK
6
CONTINUOUS
10
91.9909069999999929
20
-58.9004309999999975
11
91.9749999999999943
21
-58.7999999999999972
0
LINE
8
BLACK
6
CONTINUOUS
10
91.9749999999999943
20
-58.7999999999999972
11
91.9769000000000005
21
-58.7941499999999948
0
LINE
8
BLACK
6
CONTINUOUS
10
91.9769000000000005
20
-58.7941499999999948
11
91.9749999999999943
21
-45.3999999999999986
0
LINE
8
BLACK
6
CONTINUOUS
10
91.9749999999999943
20
-45.3999999999999986
11
91.9909069999999929
21
-45.2995689999999982
0
LINE
8
BLACK
6
CONTINUOUS
10
91.9909069999999929
20
-45.2995689999999982
11
92.0370690000000025
21
-45.2089700000000008
0
LINE
8
BLACK
6
CONTINUOUS
10
92.0370690000000025
20
-45.2089700000000008
11
92.1089699999999993
21
-45.1370689999999968
0
LINE
8
BLACK
6
CONTINUOUS
10
92.1089699999999993
20
-45.1370689999999968
11
92.1995689999999968
21
-45.0909070000000014
0
LINE
8
BLACK
6
CONTINUOUS
10
92.1995689999999968
20
-45.0909070000000014
11
92.2999999999999972
21
-45.0749999999999957
0
LINE
8
BLACK
6
CONTINUOUS
10
92.2999999999999972
20
-45.0749999999999957
11
92.3057919999999967
21
-45.0768819999999977
0
LINE
8
BLACK
6
CONTINUOUS
10
92.3057919999999967
20
-45.0768819999999977
11
93.7000000000000028
21
-45.0749999999999957
0
LINE
8
BLACK
6
CONTINUOUS
10
93.7000000000000028
20
-45.0749999999999957
11
93.7435559999999981
21
-45.0749999999999957
0
LINE
8
BLACK
6
CONTINUOUS
10
93.7435559999999981
20
-45.0749999999999957
11
93.8264039999999966
21
-45.0480809999999963
0
LINE
8
BLACK
6
CONTINUOUS
10
93.8264039999999966
20
-45.0480809999999963
11
93.896878000000001
21
-44.9968779999999953
0
LINE
8
BLACK
6
CONTINUOUS
10
93.896878000000001
20
-44.9968779999999953
11
93.9480810000000019
21
-44.926403999999998
0
LINE
8
BLACK
6
CONTINUOUS
10
93.9480810000000019
20
-44.926403999999998
11
93.9749999999999943
21
-44.8435559999999995
0
LINE
8
BLACK
6
CONTINUOUS
10
93.9749999999999943
20
-44.8435559999999995
11
93.9749999999999943
21
-44.7999999999999972
0
LINE
8
BLACK
6
CONTINUOUS
10
93.9749999999999943
20
-44.7999999999999972
11
93.9768989999999889
21
-44.7941530000000014
0
LINE
8
BLACK
6
CONTINUOUS
10
93.9768989999999889
20
-44.7941530000000014
11
93.9749999999999943
21
-35.8999999999999986
0
LINE
8
BLACK
6
CONTINUOUS
10
93.9749999999999943
20
-35.8999999999999986
11
93.9749999999999943
21
-35.8564439999999962
0
LINE
8
BLACK
6
CONTINUOUS
10
93.9749999999999943
20
-35.8564439999999962
11
93.9480810000000019
21
-35.7735959999999977
0
LINE
8
BLACK
6
CONTINUOUS
10
93.9480810000000019
20
-35.7735959999999977
11
93.896878000000001
21
-35.7031220000000005
0
LINE
8
BLACK
6
CONTINUOUS
10
93.896878000000001
20
-35.7031220000000005
11
93.8264039999999966
21
-35.6519189999999995
0
LINE
8
BLACK
6
CONTINUOUS
10
93.8264039999999966
20
-35.6519189999999995
11
93.7435559999999981
21
-35.625
0
LINE
8
BLACK
6
CONTINUOUS
10
93.7435559999999981
20
-35.625
11
93.7000000000000028
21
-35.625
0
LINE
8
BLACK
6
CONTINUOUS
10
93.7000000000000028
20
-35.625
11
93.6941489999999959
21
-35.6230979999999988
0
LINE
8
BLACK
6
CONTINUOUS
10
93.6941489999999959
20
-35.6230979999999988
11
78.2999999999999972
21
-35.625
0
LINE
8
BLACK
6
CONTINUOUS
10
110.800430999999989
20
-54.5909069999999943
11
110.8910300000000007
21
-54.6370689999999968
0
LINE
8
BLACK
6
CONTINUOUS
10
110.8910300000000007
20
-54.6370689999999968
11
110.9629309999999975
21
-54.7089700000000008
0
LINE
8
BLACK
6
CONTINUOUS
10
110.9629309999999975
20
-54.7089700000000008
11
111.0090929999999929
21
-54.7995689999999982
0
LINE
8
BLACK
6
CONTINUOUS
10
111.0090929999999929
20
-54.7995689999999982
11
111.0249999999999915
21
-54.8999999999999986
0
LINE
8
BLACK
6
CONTINUOUS
10
111.0249999999999915
20
-54.8999999999999986
11
111.023099000000002
21
-54.9058489999999964
0
LINE
8
BLACK
6
CONTINUOUS
10
111.023099000000002
20
-54.9058489999999964
11
111.0249999999999915
21
-68.2999999999999972
0
LINE
8
BLACK
6
CONTINUOUS
10
111.0249999999999915
20
-68.2999999999999972
11
111.0090929999999929
21
-68.4004309999999975
0
LINE
8
BLACK
6
CONTINUOUS
10
111.0090929999999929
20
-68.4004309999999975
11
110.9629309999999975
21
-68.491029999999995
0
LINE
8
BLACK
6
CONTINUOUS
10
110.9629309999999975
20
-68.491029999999995
11
110.8910300000000007
21
-68.5629309999999919
0
LINE
8
BLACK
6
CONTINUOUS
10
110.8910300000000007
20
-68.5629309999999919
11
110.800430999999989
21
-68.6090930000000014
0
LINE
8
BLACK
6
CONTINUOUS
10
110.800430999999989
20
-68.6090930000000014
11
110.6999999999999886
21
-68.625
0
LINE
8
BLACK
6
CONTINUOUS
10
110.6999999999999886
20
-68.625
11
110.6941499999999934
21
-68.6230989999999963
0
LINE
8
BLACK
6
CONTINUOUS
10
110.6941499999999934
20
-68.6230989999999963
11
97.2999999999999972
21
-68.625
0
LINE
8
BLACK
6
CONTINUOUS
10
97.2999999999999972
20
-68.625
11
97.1995689999999968
21
-68.6090930000000014
0
LINE
8
BLACK
6
CONTINUOUS
10
97.1995689999999968
20
-68.6090930000000014
11
97.1089699999999993
21
-68.5629309999999919
0
LINE
8
BLACK
6
CONTINUOUS
10
97.1089699999999993
20
-68.5629309999999919
11
97.0370690000000025
21
-68.491029999999995
0
LINE
8
BLACK
6
CONTINUOUS
10
97.0370690000000025
20
-68.491029999999995
11
96.9909069999999929
21
-68.4004309999999975
0
LINE
8
BLACK
6
CONTINUOUS
10
96.9909069999999929
20
-68.4004309999999975
11
96.9749999999999943
21
-68.2999999999999972
0
LINE
8
BLACK
6
CONTINUOUS
10
96.9749999999999943
20
-68.2999999999999972
11
96.9769000000000005
21
-68.2941500000000019
0
LINE
8
BLACK
6
CONTINUOUS
10
96.9769000000000005
20
-68.2941500000000019
11
96.9749999999999943
21
-54.8999999999999986
0
LINE
8
BLACK
6
CONTINUOUS
10
96.9749999999999943
20
-54.8999999999999986
11
96.9909069999999929
21
-54.7995689999999982
0
LINE
8
BLACK
6
CONTINUOUS
10
96.9909069999999929
20
-54.7995689999999982
11
97.0370690000000025
21
-54.7089700000000008
0
LINE
8
BLACK
6
CONTINUOUS
10
97.0370690000000025
20
-54.7089700000000008
11
97.1089699999999993
21
-54.6370689999999968
0
LINE
8
BLACK
6
CONTINUOUS
10
97.1089699999999993
20
-54.6370689999999968
11
97.1995689999999968
21
-54.5909069999999943
0
LINE
8
BLACK
6
CONTINUOUS
10
97.1995689999999968
20
-54.5909069999999943
11
97.2999999999999972
21
-54.5749999999999957
0
LINE
8
BLACK
6
CONTINUOUS
10
97.2999999999999972
20
-54.5749999999999957
11
97.3058489999999949
21
-54.5768999999999949
0
LINE
8
BLACK
6
CONTINUOUS
10
97.3058489999999949
20
-54.5768999999999949
11
110.6999999999999886
21
-54.5749999999999957
0
LINE
8
BLACK
6
CONTINUOUS
10
110.6999999999999886
20
-54.5749999999999957
11
110.800430999999989
21
-54.5909069999999943
0
LINE
8
BLACK
6
CONTINUOUS
10
97.2999999999999972
20
-54.625
11
97.2564440000000019
21
-54.625
0
LINE
8
BLACK
6
CONTINUOUS
10
97.2564440000000019
20
-54.625
11
97.1735959999999892
21
-54.6519189999999995
0
LINE
8
BLACK
6
CONTINUOUS
10
97.1735959999999892
20
-54.6519189999999995
11
97.103121999999999
21
-54.7031220000000005
0
LINE
8
BLACK
6
CONTINUOUS
10
97.103121999999999
20
-54.7031220000000005
11
97.0519189999999981
21
-54.7735959999999977
0
LINE
8
BLACK
6
CONTINUOUS
10
97.0519189999999981
20
-54.7735959999999977
11
97.0249999999999915
21
-54.8564439999999962
0
LINE
8
BLACK
6
CONTINUOUS
10
97.0249999999999915
20
-54.8564439999999962
11
97.0249999999999915
21
-54.8999999999999986
0
LINE
8
BLACK
6
CONTINUOUS
10
97.0249999999999915
20
-54.8999999999999986
11
97.023099000000002
21
-54.9058489999999964
0
LINE
8
BLACK
6
CONTINUOUS
10
97.023099000000002
20
-54.9058489999999964
11
97.0249999999999915
21
-68.2999999999999972
0
LINE
8
BLACK
6
CONTINUOUS
10
97.0249999999999915
20
-68.2999999999999972
11
97.0249999999999915
21
-68.3435559999999924
0
LINE
8
BLACK
6
CONTINUOUS
10
97.0249999999999915
20
-68.3435559999999924
11
97.0519189999999981
21
-68.4264039999999909
0
LINE
8
BLACK
6
CONTINUOUS
10
97.0519189999999981
20
-68.4264039999999909
11
97.103121999999999
21
-68.4968779999999953
0
LINE
8
BLACK
6
CONTINUOUS
10
97.103121999999999
20
-68.4968779999999953
11
97.1735959999999892
21
-68.5480809999999963
0
LINE
8
BLACK
6
CONTINUOUS
10
97.1735959999999892
20
-68.5480809999999963
11
97.2564440000000019
21
-68.5750000000000028
0
LINE
8
BLACK
6
CONTINUOUS
10
97.2564440000000019
20
-68.5750000000000028
11
97.2999999999999972
21
-68.5750000000000028
0
LINE
8
BLACK
6
CONTINUOUS
10
97.2999999999999972
20
-68.5750000000000028
11
97.3058489999999949
21
-68.5768999999999949
0
LINE
8
BLACK
6
CONTINUOUS
10
97.3058489999999949
20
-68.5768999999999949
11
110.6999999999999886
21
-68.5750000000000028
0
LINE
8
BLACK
6
CONTINUOUS
10
110.6999999999999886
20
-68.5750000000000028
11
110.7435559999999981
21
-68.5750000000000028
0
LINE
8
BLACK
6
CONTINUOUS
10
110.7435559999999981
20
-68.5750000000000028
11
110.8264039999999966
21
-68.5480809999999963
0
LINE
8
BLACK
6
CONTINUOUS
10
110.8264039999999966
20
-68.5480809999999963
11
110.896878000000001
21
-68.4968779999999953
0
LINE
8
BLACK
6
CONTINUOUS
10
110.896878000000001
20
-68.4968779999999953
11
110.9480810000000019
21
-68.4264039999999909
0
LINE
8
BLACK
6
CONTINUOUS
10
110.9480810000000019
20
-68.4264039999999909
11
110.9749999999999943
21
-68.3435559999999924
0
LINE
8
BLACK
6
CONTINUOUS
10
110.9749999999999943
20
-68.3435559999999924
11
110.9749999999999943
21
-68.2999999999999972
0
LINE
8
BLACK
6
CONTINUOUS
10
110.9749999999999943
20
-68.2999999999999972
11
110.9769000000000005
21
-68.2941500000000019
0
LINE
8
BLACK
6
CONTINUOUS
10
110.9769000000000005
20
-68.2941500000000019
11
110.9749999999999943
21
-54.8999999999999986
0
LINE
8
BLACK
6
CONTINUOUS
10
110.9749999999999943
20
-54.8999999999999986
11
110.9749999999999943
21
-54.8564439999999962
0
LINE
8
BLACK
6
CONTINUOUS
10
110.9749999999999943
20
-54.8564439999999962
11
110.9480810000000019
21
-54.7735959999999977
0
LINE
8
BLACK
6
CONTINUOUS
10
110.9480810000000019
20
-54.7735959999999977
11
110.896878000000001
21
-54.7031220000000005
0
LINE
8
BLACK
6
CONTINUOUS
10
110.896878000000001
20
-54.7031220000000005
11
110.8264039999999966
21
-54.6519189999999995
0
LINE
8
BLACK
6
CONTINUOUS
10
110.8264039999999966
20
-54.6519189999999995
11
110.7435559999999981
21
-54.625
0
LINE
8
BLACK
6
CONTINUOUS
10
110.7435559999999981
20
-54.625
11
110.6999999999999886
21
-54.625
0
LINE
8
BLACK
6
CONTINUOUS
10
110.6999999999999886
20
-54.625
11
110.6941499999999934
21
-54.6230989999999963
0
LINE
8
BLACK
6
CONTINUOUS
10
110.6941499999999934
20
-54.6230989999999963
11
97.2999999999999972
21
-54.625
0
LINE
8
BLACK
6
CONTINUOUS
10
129.8004310000000032
20
-54.5909069999999943
11
129.8910300000000007
21
-54.6370689999999968
0
LINE
8
BLACK
6
CONTINUOUS
10
129.8910300000000007
20
-54.6370689999999968
11
129.9629309999999975
21
-54.7089700000000008
0
LINE
8
BLACK
6
CONTINUOUS
10
129.9629309999999975
20
-54.7089700000000008
11
130.0090930000000071
21
-54.7995689999999982
0
LINE
8
BLACK
6
CONTINUOUS
10
130.0090930000000071
20
-54.7995689999999982
11
130.0250000000000057
21
-54.8999999999999986
0
LINE
8
BLACK
6
CONTINUOUS
10
130.0250000000000057
20
-54.8999999999999986
11
130.023099000000002
21
-54.9058489999999964
0
LINE
8
BLACK
6
CONTINUOUS
10
130.023099000000002
20
-54.9058489999999964
11
130.0250000000000057
21
-68.2999999999999972
0
LINE
8
BLACK
6
CONTINUOUS
10
130.0250000000000057
20
-68.2999999999999972
11
130.0090930000000071
21
-68.4004309999999975
0
LINE
8
BLACK
6
CONTINUOUS
10
130.0090930000000071
20
-68.4004309999999975
11
129.9629309999999975
21
-68.491029999999995
0
LINE
8
BLACK
6
CONTINUOUS
10
129.9629309999999975
20
-68.491029999999995
11
129.8910300000000007
21
-68.5629309999999919
0
LINE
8
BLACK
6
CONTINUOUS
10
129.8910300000000007
20
-68.5629309999999919
11
129.8004310000000032
21
-68.6090930000000014
0
LINE
8
BLACK
6
CONTINUOUS
10
129.8004310000000032
20
-68.6090930000000014
11
129.6999999999999886
21
-68.625
0
LINE
8
BLACK
6
CONTINUOUS
10
129.6999999999999886
20
-68.625
11
129.6941500000000076
21
-68.6230989999999963
0
LINE
8
BLACK
6
CONTINUOUS
10
129.6941500000000076
20
-68.6230989999999963
11
116.2999999999999972
21
-68.625
0
LINE
8
BLACK
6
CONTINUOUS
10
116.2999999999999972
20
-68.625
11
116.1995689999999968
21
-68.6090930000000014
0
LINE
8
BLACK
6
CONTINUOUS
10
116.1995689999999968
20
-68.6090930000000014
11
116.1089699999999993
21
-68.5629309999999919
0
LINE
8
BLACK
6
CONTINUOUS
10
116.1089699999999993
20
-68.5629309999999919
11
116.0370689999999883
21
-68.491029999999995
0
LINE
8
BLACK
6
CONTINUOUS
10
116.0370689999999883
20
-68.491029999999995
11
115.9909069999999929
21
-68.4004309999999975
0
LINE
8
BLACK
6
CONTINUOUS
10
115.9909069999999929
20
-68.4004309999999975
11
115.9749999999999943
21
-68.2999999999999972
0
LINE
8
BLACK
6
CONTINUOUS
10
115.9749999999999943
20
-68.2999999999999972
11
115.9769000000000005
21
-68.2941500000000019
0
LINE
8
BLACK
6
CONTINUOUS
10
115.9769000000000005
20
-68.2941500000000019
11
115.9749999999999943
21
-54.8999999999999986
0
LINE
8
BLACK
6
CONTINUOUS
10
115.9749999999999943
20
-54.8999999999999986
11
115.9909069999999929
21
-54.7995689999999982
0
LINE
8
BLACK
6
CONTINUOUS
10
115.9909069999999929
20
-54.7995689999999982
11
116.0370689999999883
21
-54.7089700000000008
0
LINE
8
BLACK
6
CONTINUOUS
10
116.0370689999999883
20
-54.7089700000000008
11
116.1089699999999993
21
-54.6370689999999968
0
LINE
8
BLACK
6
CONTINUOUS
10
116.1089699999999993
20
-54.6370689999999968
11
116.1995689999999968
21
-54.5909069999999943
0
LINE
8
BLACK
6
CONTINUOUS
10
116.1995689999999968
20
-54.5909069999999943
11
116.2999999999999972
21
-54.5749999999999957
0
LINE
8
BLACK
6
CONTINUOUS
10
116.2999999999999972
20
-54.5749999999999957
11
116.3058489999999949
21
-54.5768999999999949
0
LINE
8
BLACK
6
CONTINUOUS
10
116.3058489999999949
20
-54.5768999999999949
11
129.6999999999999886
21
-54.5749999999999957
0
LINE
8
BLACK
6
CONTINUOUS
10
129.6999999999999886
20
-54.5749999999999957
11
129.8004310000000032
21
-54.5909069999999943
0
LINE
8
BLACK
6
CONTINUOUS
10
116.2999999999999972
20
-54.625
11
116.2564439999999877
21
-54.625
0
LINE
8
BLACK
6
CONTINUOUS
10
116.2564439999999877
20
-54.625
11
116.1735959999999892
21
-54.6519189999999995
0
LINE
8
BLACK
6
CONTINUOUS
10
116.1735959999999892
20
-54.6519189999999995
11
116.103121999999999
21
-54.7031220000000005
0
LINE
8
BLACK
6
CONTINUOUS
10
116.103121999999999
20
-54.7031220000000005
11
116.0519189999999981
21
-54.7735959999999977
0
LINE
8
BLACK
6
CONTINUOUS
10
116.0519189999999981
20
-54.7735959999999977
11
116.0249999999999915
21
-54.8564439999999962
0
LINE
8
BLACK
6
CONTINUOUS
10
116.0249999999999915
20
-54.8564439999999962
11
116.0249999999999915
21
-54.8999999999999986
0
LINE
8
BLACK
6
CONTINUOUS
10
116.0249999999999915
20
-54.8999999999999986
11
116.0230989999999878
21
-54.9058489999999964
0
LINE
8
BLACK
6
CONTINUOUS
10
116.0230989999999878
20
-54.9058489999999964
11
116.0249999999999915
21
-68.2999999999999972
0
LINE
8
BLACK
6
CONTINUOUS
10
116.0249999999999915
20
-68.2999999999999972
11
116.0249999999999915
21
-68.3435559999999924
0
LINE
8
BLACK
6
CONTINUOUS
10
116.0249999999999915
20
-68.3435559999999924
11
116.0519189999999981
21
-68.4264039999999909
0
LINE
8
BLACK
6
CONTINUOUS
10
116.0519189999999981
20
-68.4264039999999909
11
116.103121999999999
21
-68.4968779999999953
0
LINE
8
BLACK
6
CONTINUOUS
10
116.103121999999999
20
-68.4968779999999953
11
116.1735959999999892
21
-68.5480809999999963
0
LINE
8
BLACK
6
CONTINUOUS
10
116.1735959999999892
20
-68.5480809999999963
11
116.2564439999999877
21
-68.5750000000000028
0
LINE
8
BLACK
6
CONTINUOUS
10
116.2564439999999877
20
-68.5750000000000028
11
116.2999999999999972
21
-68.5750000000000028
0
LINE
8
BLACK
6
CONTINUOUS
10
116.2999999999999972
20
-68.5750000000000028
11
116.3058489999999949
21
-68.5768999999999949
0
LINE
8
BLACK
6
CONTINUOUS
10
116.3058489999999949
20
-68.5768999999999949
11
129.6999999999999886
21
-68.5750000000000028
0
LINE
8
BLACK
6
CONTINUOUS
10
129.6999999999999886
20
-68.5750000000000028
11
129.7435559999999839
21
-68.5750000000000028
0
LINE
8
BLACK
6
CONTINUOUS
10
129.7435559999999839
20
-68.5750000000000028
11
129.8264039999999966
21
-68.5480809999999963
0
LINE
8
BLACK
6
CONTINUOUS
10
129.8264039999999966
20
-68.5480809999999963
11
129.8968779999999867
21
-68.4968779999999953
0
LINE
8
BLACK
6
CONTINUOUS
10
129.8968779999999867
20
-68.4968779999999953
11
129.9480810000000019
21
-68.4264039999999909
0
LINE
8
BLACK
6
CONTINUOUS
10
129.9480810000000019
20
-68.4264039999999909
11
129.9749999999999943
21
-68.3435559999999924
0
LINE
8
BLACK
6
CONTINUOUS
10
129.9749999999999943
20
-68.3435559999999924
11
129.9749999999999943
21
-68.2999999999999972
0
LINE
8
BLACK
6
CONTINUOUS
10
129.9749999999999943
20
-68.2999999999999972
11
129.9769000000000005
21
-68.2941500000000019
0
LINE
8
BLACK
6
CONTINUOUS
10
129.9769000000000005
20
-68.2941500000000019
11
129.9749999999999943
21
-54.8999999999999986
0
LINE
8
BLACK
6
CONTINUOUS
10
129.9749999999999943
20
-54.8999999999999986
11
129.9749999999999943
21
-54.8564439999999962
0
LINE
8
BLACK
6
CONTINUOUS
10
129.9749999999999943
20
-54.8564439999999962
11
129.9480810000000019
21
-54.7735959999999977
0
LINE
8
BLACK
6
CONTINUOUS
10
129.9480810000000019
20
-54.7735959999999977
11
129.8968779999999867
21
-54.7031220000000005
0
LINE
8
BLACK
6
CONTINUOUS
10
129.8968779999999867
20
-54.7031220000000005
11
129.8264039999999966
21
-54.6519189999999995
0
LINE
8
BLACK
6
CONTINUOUS
10
129.8264039999999966
20
-54.6519189999999995
11
129.7435559999999839
21
-54.625
0
LINE
8
BLACK
6
CONTINUOUS
10
129.7435559999999839
20
-54.625
11
129.6999999999999886
21
-54.625
0
LINE
8
BLACK
6
CONTINUOUS
10
129.6999999999999886
20
-54.625
11
129.6941500000000076
21
-54.6230989999999963
0
LINE
8
BLACK
6
CONTINUOUS
10
129.6941500000000076
20
-54.6230989999999963
11
116.2999999999999972
21
-54.625
0
LINE
8
BLACK
6
CONTINUOUS
10
148.8004310000000032
20
-54.5909069999999943
11
148.8910300000000007
21
-54.6370689999999968
0
LINE
8
BLACK
6
CONTINUOUS
10
148.8910300000000007
20
-54.6370689999999968
11
148.9629309999999975
21
-54.7089700000000008
0
LINE
8
BLACK
6
CONTINUOUS
10
148.9629309999999975
20
-54.7089700000000008
11
149.0090930000000071
21
-54.7995689999999982
0
LINE
8
BLACK
6
CONTINUOUS
10
149.0090930000000071
20
-54.7995689999999982
11
149.0250000000000057
21
-54.8999999999999986
0
LINE
8
BLACK
6
CONTINUOUS
10
149.0250000000000057
20
-54.8999999999999986
11
149.023099000000002
21
-54.9058489999999964
0
LINE
8
BLACK
6
CONTINUOUS
10
149.023099000000002
20
-54.9058489999999964
11
149.0250000000000057
21
-68.2999999999999972
0
LINE
8
BLACK
6
CONTINUOUS
10
149.0250000000000057
20
-68.2999999999999972
11
149.0090930000000071
21
-68.4004309999999975
0
LINE
8
BLACK
6
CONTINUOUS
10
149.0090930000000071
20
-68.4004309999999975
11
148.9629309999999975
21
-68.491029999999995
0
LINE
8
BLACK
6
CONTINUOUS
10
148.9629309999999975
20
-68.491029999999995
11
148.8910300000000007
21
-68.5629309999999919
0
LINE
8
BLACK
6
CONTINUOUS
10
148.8910300000000007
20
-68.5629309999999919
11
148.8004310000000032
21
-68.6090930000000014
0
LINE
8
BLACK
6
CONTINUOUS
10
148.8004310000000032
20
-68.6090930000000014
11
148.6999999999999886
21
-68.625
0
LINE
8
BLACK
6
CONTINUOUS
10
148.6999999999999886
20
-68.625
11
148.6941499999999792
21
-68.6230989999999963
0
LINE
8
BLACK
6
CONTINUOUS
10
148.6941499999999792
20
-68.6230989999999963
11
135.2999999999999829
21
-68.625
0
LINE
8
BLACK
6
CONTINUOUS
10
135.2999999999999829
20
-68.625
11
135.1995689999999968
21
-68.6090930000000014
0
LINE
8
BLACK
6
CONTINUOUS
10
135.1995689999999968
20
-68.6090930000000014
11
135.1089699999999993
21
-68.5629309999999919
0
LINE
8
BLACK
6
CONTINUOUS
10
135.1089699999999993
20
-68.5629309999999919
11
135.0370690000000025
21
-68.491029999999995
0
LINE
8
BLACK
6
CONTINUOUS
10
135.0370690000000025
20
-68.491029999999995
11
134.9909069999999929
21
-68.4004309999999975
0
LINE
8
BLACK
6
CONTINUOUS
10
134.9909069999999929
20
-68.4004309999999975
11
134.9749999999999943
21
-68.2999999999999972
0
LINE
8
BLACK
6
CONTINUOUS
10
134.9749999999999943
20
-68.2999999999999972
11
134.9769000000000005
21
-68.2941500000000019
0
LINE
8
BLACK
6
CONTINUOUS
10
134.9769000000000005
20
-68.2941500000000019
11
134.9749999999999943
21
-54.8999999999999986
0
LINE
8
BLACK
6
CONTINUOUS
10
134.9749999999999943
20
-54.8999999999999986
11
134.9909069999999929
21
-54.7995689999999982
0
LINE
8
BLACK
6
CONTINUOUS
10
134.9909069999999929
20
-54.7995689999999982
11
135.0370690000000025
21
-54.7089700000000008
0
LINE
8
BLACK
6
CONTINUOUS
10
135.0370690000000025
20
-54.7089700000000008
11
135.1089699999999993
21
-54.6370689999999968
0
LINE
8
BLACK
6
CONTINUOUS
10
135.1089699999999993
20
-54.6370689999999968
11
135.1995689999999968
21
-54.5909069999999943
0
LINE
8
BLACK
6
CONTINUOUS
10
135.1995689999999968
20
-54.5909069999999943
11
135.2999999999999829
21
-54.5749999999999957
0
LINE
8
BLACK
6
CONTINUOUS
10
135.2999999999999829
20
-54.5749999999999957
11
135.3058489999999949
21
-54.5768999999999949
0
LINE
8
BLACK
6
CONTINUOUS
10
135.3058489999999949
20
-54.5768999999999949
11
148.6999999999999886
21
-54.5749999999999957
0
LINE
8
BLACK
6
CONTINUOUS
10
148.6999999999999886
20
-54.5749999999999957
11
148.8004310000000032
21
-54.5909069999999943
0
LINE
8
BLACK
6
CONTINUOUS
10
135.2999999999999829
20
-54.625
11
135.2564439999999877
21
-54.625
0
LINE
8
BLACK
6
CONTINUOUS
10
135.2564439999999877
20
-54.625
11
135.1735960000000034
21
-54.6519189999999995
0
LINE
8
BLACK
6
CONTINUOUS
10
135.1735960000000034
20
-54.6519189999999995
11
135.1031219999999848
21
-54.7031220000000005
0
LINE
8
BLACK
6
CONTINUOUS
10
135.1031219999999848
20
-54.7031220000000005
11
135.0519189999999981
21
-54.7735959999999977
0
LINE
8
BLACK
6
CONTINUOUS
10
135.0519189999999981
20
-54.7735959999999977
11
135.0250000000000057
21
-54.8564439999999962
0
LINE
8
BLACK
6
CONTINUOUS
10
135.0250000000000057
20
-54.8564439999999962
11
135.0250000000000057
21
-54.8999999999999986
0
LINE
8
BLACK
6
CONTINUOUS
10
135.0250000000000057
20
-54.8999999999999986
11
135.023099000000002
21
-54.9058489999999964
0
LINE
8
BLACK
6
CONTINUOUS
10
135.023099000000002
20
-54.9058489999999964
11
135.0250000000000057
21
-68.2999999999999972
0
LINE
8
BLACK
6
CONTINUOUS
10
135.0250000000000057
20
-68.2999999999999972
11
135.0250000000000057
21
-68.3435559999999924
0
LINE
8
BLACK
6
CONTINUOUS
10
135.0250000000000057
20
-68.3435559999999924
11
135.0519189999999981
21
-68.4264039999999909
0
LINE
8
BLACK
6
CONTINUOUS
10
135.0519189999999981
20
-68.4264039999999909
11
135.1031219999999848
21
-68.4968779999999953
0
LINE
8
BLACK
6
CONTINUOUS
10
135.1031219999999848
20
-68.4968779999999953
11
135.1735960000000034
21
-68.5480809999999963
0
LINE
8
BLACK
6
CONTINUOUS
10
135.1735960000000034
20
-68.5480809999999963
11
135.2564439999999877
21
-68.5750000000000028
0
LINE
8
BLACK
6
CONTINUOUS
10
135.2564439999999877
20
-68.5750000000000028
11
135.2999999999999829
21
-68.5750000000000028
0
LINE
8
BLACK
6
CONTINUOUS
10
135.2999999999999829
20
-68.5750000000000028
11
135.3058489999999949
21
-68.5768999999999949
0
LINE
8
BLACK
6
CONTINUOUS
10
135.3058489999999949
20
-68.5768999999999949
11
148.6999999999999886
21
-68.5750000000000028
0
LINE
8
BLACK
6
CONTINUOUS
10
148.6999999999999886
20
-68.5750000000000028
11
148.7435559999999839
21
-68.5750000000000028
0
LINE
8
BLACK
6
CONTINUOUS
10
148.7435559999999839
20
-68.5750000000000028
11
148.8264039999999966
21
-68.5480809999999963
0
LINE
8
BLACK
6
CONTINUOUS
10
148.8264039999999966
20
-68.5480809999999963
11
148.8968779999999867
21
-68.4968779999999953
0
LINE
8
BLACK
6
CONTINUOUS
10
148.8968779999999867
20
-68.4968779999999953
11
148.9480810000000019
21
-68.4264039999999909
0
LINE
8
BLACK
6
CONTINUOUS
10
148.9480810000000019
20
-68.4264039999999909
11
148.9749999999999943
21
-68.3435559999999924
0
LINE
8
BLACK
6
CONTINUOUS
10
148.9749999999999943
20
-68.3435559999999924
11
148.9749999999999943
21
-68.2999999999999972
0
LINE
8
BLACK
6
CONTINUOUS
10
148.9749999999999943
20
-68.2999999999999972
11
148.9769000000000005
21
-68.2941500000000019
0
LINE
8
BLACK
6
CONTINUOUS
10
148.9769000000000005
20
-68.2941500000000019
11
148.9749999999999943
21
-54.8999999999999986
0
LINE
8
BLACK
6
CONTINUOUS
10
148.9749999999999943
20
-54.8999999999999986
11
148.9749999999999943
21
-54.8564439999999962
0
LINE
8
BLACK
6
CONTINUOUS
10
148.9749999999999943
20
-54.8564439999999962
11
148.9480810000000019
21
-54.7735959999999977
0
LINE
8
BLACK
6
CONTINUOUS
10
148.9480810000000019
20
-54.7735959999999977
11
148.8968779999999867
21
-54.7031220000000005
0
LINE
8
BLACK
6
CONTINUOUS
10
148.8968779999999867
20
-54.7031220000000005
11
148.8264039999999966
21
-54.6519189999999995
0
LINE
8
BLACK
6
CONTINUOUS
10
148.8264039999999966
20
-54.6519189999999995
11
148.7435559999999839
21
-54.625
0
LINE
8
BLACK
6
CONTINUOUS
10
148.7435559999999839
20
-54.625
11
148.6999999999999886
21
-54.625
0
LINE
8
BLACK
6
CONTINUOUS
10
148.6999999999999886
20
-54.625
11
148.6941499999999792
21
-54.6230989999999963
0
LINE
8
BLACK
6
CONTINUOUS
10
148.6941499999999792
20
-54.6230989999999963
11
135.2999999999999829
21
-54.625
0
LINE
8
BLACK
6
CONTINUOUS
10
148.8004310000000032
20
-35.5909070000000014
11
148.8910300000000007
21
-35.6370689999999968
0
LINE
8
BLACK
6
CONTINUOUS
10
148.8910300000000007
20
-35.6370689999999968
11
148.9629309999999975
21
-35.7089700000000008
0
LINE
8
BLACK
6
CONTINUOUS
10
148.9629309999999975
20
-35.7089700000000008
11
149.0090930000000071
21
-35.7995689999999982
0
LINE
8
BLACK
6
CONTINUOUS
10
149.0090930000000071
20
-35.7995689999999982
11
149.0250000000000057
21
-35.8999999999999986
0
LINE
8
BLACK
6
CONTINUOUS
10
149.0250000000000057
20
-35.8999999999999986
11
149.0230980000000045
21
-35.9058500000000009
0
LINE
8
BLACK
6
CONTINUOUS
10
149.0230980000000045
20
-35.9058500000000009
11
149.0250000000000057
21
-51.2999999999999972
0
LINE
8
BLACK
6
CONTINUOUS
10
149.0250000000000057
20
-51.2999999999999972
11
149.0090930000000071
21
-51.4004309999999975
0
LINE
8
BLACK
6
CONTINUOUS
10
149.0090930000000071
20
-51.4004309999999975
11
148.9629309999999975
21
-51.491029999999995
0
LINE
8
BLACK
6
CONTINUOUS
10
148.9629309999999975
20
-51.491029999999995
11
148.8910300000000007
21
-51.562930999999999
0
LINE
8
BLACK
6
CONTINUOUS
10
148.8910300000000007
20
-51.562930999999999
11
148.8004310000000032
21
-51.6090929999999943
0
LINE
8
BLACK
6
CONTINUOUS
10
148.8004310000000032
20
-51.6090929999999943
11
148.6999999999999886
21
-51.625
0
LINE
8
BLACK
6
CONTINUOUS
10
148.6999999999999886
20
-51.625
11
148.694153
21
-51.6231000000000009
0
LINE
8
BLACK
6
CONTINUOUS
10
148.694153
20
-51.6231000000000009
11
139.7999999999999829
21
-51.625
0
LINE
8
BLACK
6
CONTINUOUS
10
139.7999999999999829
20
-51.625
11
139.6995689999999968
21
-51.6090929999999943
0
LINE
8
BLACK
6
CONTINUOUS
10
139.6995689999999968
20
-51.6090929999999943
11
139.6089699999999993
21
-51.562930999999999
0
LINE
8
BLACK
6
CONTINUOUS
10
139.6089699999999993
20
-51.562930999999999
11
139.5370690000000025
21
-51.491029999999995
0
LINE
8
BLACK
6
CONTINUOUS
10
139.5370690000000025
20
-51.491029999999995
11
139.4909069999999929
21
-51.4004309999999975
0
LINE
8
BLACK
6
CONTINUOUS
10
139.4909069999999929
20
-51.4004309999999975
11
139.4749999999999943
21
-51.2999999999999972
0
LINE
8
BLACK
6
CONTINUOUS
10
139.4749999999999943
20
-51.2999999999999972
11
139.4768819999999891
21
-51.2942070000000001
0
LINE
8
BLACK
6
CONTINUOUS
10
139.4768819999999891
20
-51.2942070000000001
11
139.4749999999999943
21
-49.8999999999999986
0
LINE
8
BLACK
6
CONTINUOUS
10
139.4749999999999943
20
-49.8999999999999986
11
139.4749999999999943
21
-49.8564439999999962
0
LINE
8
BLACK
6
CONTINUOUS
10
139.4749999999999943
20
-49.8564439999999962
11
139.4480810000000019
21
-49.7735959999999977
0
LINE
8
BLACK
6
CONTINUOUS
10
139.4480810000000019
20
-49.7735959999999977
11
139.3968779999999867
21
-49.7031220000000005
0
LINE
8
BLACK
6
CONTINUOUS
10
139.3968779999999867
20
-49.7031220000000005
11
139.3264039999999966
21
-49.6519189999999995
0
LINE
8
BLACK
6
CONTINUOUS
10
139.3264039999999966
20
-49.6519189999999995
11
139.2435559999999839
21
-49.625
0
LINE
8
BLACK
6
CONTINUOUS
10
139.2435559999999839
20
-49.625
11
139.1999999999999886
21
-49.625
0
LINE
8
BLACK
6
CONTINUOUS
10
139.1999999999999886
20
-49.625
11
139.1941500000000076
21
-49.6230989999999963
0
LINE
8
BLACK
6
CONTINUOUS
10
139.1941500000000076
20
-49.6230989999999963
11
125.7999999999999972
21
-49.625
0
LINE
8
BLACK
6
CONTINUOUS
10
125.7999999999999972
20
-49.625
11
125.7564439999999877
21
-49.625
0
LINE
8
BLACK
6
CONTINUOUS
10
125.7564439999999877
20
-49.625
11
125.6735959999999892
21
-49.6519189999999995
0
LINE
8
BLACK
6
CONTINUOUS
10
125.6735959999999892
20
-49.6519189999999995
11
125.603121999999999
21
-49.7031220000000005
0
LINE
8
BLACK
6
CONTINUOUS
10
125.603121999999999
20
-49.7031220000000005
11
125.5519189999999981
21
-49.7735959999999977
0
LINE
8
BLACK
6
CONTINUOUS
10
125.5519189999999981
20
-49.7735959999999977
11
125.5249999999999915
21
-49.8564439999999962
0
LINE
8
BLACK
6
CONTINUOUS
10
125.5249999999999915
20
-49.8564439999999962
11
125.5249999999999915
21
-49.8999999999999986
0
LINE
8
BLACK
6
CONTINUOUS
10
125.5249999999999915
20
-49.8999999999999986
11
125.5231169999999992
21
-49.9057919999999982
0
LINE
8
BLACK
6
CONTINUOUS
10
125.5231169999999992
20
-49.9057919999999982
11
125.5249999999999915
21
-51.2999999999999972
0
LINE
8
BLACK
6
CONTINUOUS
10
125.5249999999999915
20
-51.2999999999999972
11
125.5090929999999929
21
-51.4004309999999975
0
LINE
8
BLACK
6
CONTINUOUS
10
125.5090929999999929
20
-51.4004309999999975
11
125.4629309999999975
21
-51.491029999999995
0
LINE
8
BLACK
6
CONTINUOUS
10
125.4629309999999975
20
-51.491029999999995
11
125.3910300000000007
21
-51.562930999999999
0
LINE
8
BLACK
6
CONTINUOUS
10
125.3910300000000007
20
-51.562930999999999
11
125.300430999999989
21
-51.6090929999999943
0
LINE
8
BLACK
6
CONTINUOUS
10
125.300430999999989
20
-51.6090929999999943
11
125.1999999999999886
21
-51.625
0
LINE
8
BLACK
6
CONTINUOUS
10
125.1999999999999886
20
-51.625
11
125.194153
21
-51.6231000000000009
0
LINE
8
BLACK
6
CONTINUOUS
10
125.194153
20
-51.6231000000000009
11
116.2999999999999972
21
-51.625
0
LINE
8
BLACK
6
CONTINUOUS
10
116.2999999999999972
20
-51.625
11
116.1995689999999968
21
-51.6090929999999943
0
LINE
8
BLACK
6
CONTINUOUS
10
116.1995689999999968
20
-51.6090929999999943
11
116.1089699999999993
21
-51.562930999999999
0
LINE
8
BLACK
6
CONTINUOUS
10
116.1089699999999993
20
-51.562930999999999
11
116.0370689999999883
21
-51.491029999999995
0
LINE
8
BLACK
6
CONTINUOUS
10
116.0370689999999883
20
-51.491029999999995
11
115.9909069999999929
21
-51.4004309999999975
0
LINE
8
BLACK
6
CONTINUOUS
10
115.9909069999999929
20
-51.4004309999999975
11
115.9749999999999943
21
-51.2999999999999972
0
LINE
8
BLACK
6
CONTINUOUS
10
115.9749999999999943
20
-51.2999999999999972
11
115.976900999999998
21
-51.2941489999999973
0
LINE
8
BLACK
6
CONTINUOUS
10
115.976900999999998
20
-51.2941489999999973
11
115.9749999999999943
21
-35.8999999999999986
0
LINE
8
BLACK
6
CONTINUOUS
10
115.9749999999999943
20
-35.8999999999999986
11
115.9909069999999929
21
-35.7995689999999982
0
LINE
8
BLACK
6
CONTINUOUS
10
115.9909069999999929
20
-35.7995689999999982
11
116.0370689999999883
21
-35.7089700000000008
0
LINE
8
BLACK
6
CONTINUOUS
10
116.0370689999999883
20
-35.7089700000000008
11
116.1089699999999993
21
-35.6370689999999968
0
LINE
8
BLACK
6
CONTINUOUS
10
116.1089699999999993
20
-35.6370689999999968
11
116.1995689999999968
21
-35.5909070000000014
0
LINE
8
BLACK
6
CONTINUOUS
10
116.1995689999999968
20
-35.5909070000000014
11
116.2999999999999972
21
-35.5749999999999957
0
LINE
8
BLACK
6
CONTINUOUS
10
116.2999999999999972
20
-35.5749999999999957
11
116.305852999999999
21
-35.5769019999999969
0
LINE
8
BLACK
6
CONTINUOUS
10
116.305852999999999
20
-35.5769019999999969
11
148.6999999999999886
21
-35.5749999999999957
0
LINE
8
BLACK
6
CONTINUOUS
10
148.6999999999999886
20
-35.5749999999999957
11
148.8004310000000032
21
-35.5909070000000014
0
LINE
8
BLACK
6
CONTINUOUS
10
116.2999999999999972
20
-35.625
11
116.2564439999999877
21
-35.625
0
LINE
8
BLACK
6
CONTINUOUS
10
116.2564439999999877
20
-35.625
11
116.1735959999999892
21
-35.6519189999999995
0
LINE
8
BLACK
6
CONTINUOUS
10
116.1735959999999892
20
-35.6519189999999995
11
116.103121999999999
21
-35.7031220000000005
0
LINE
8
BLACK
6
CONTINUOUS
10
116.103121999999999
20
-35.7031220000000005
11
116.0519189999999981
21
-35.7735959999999977
0
LINE
8
BLACK
6
CONTINUOUS
10
116.0519189999999981
20
-35.7735959999999977
11
116.0249999999999915
21
-35.8564439999999962
0
LINE
8
BLACK
6
CONTINUOUS
10
116.0249999999999915
20
-35.8564439999999962
11
116.0249999999999915
21
-35.8999999999999986
0
LINE
8
BLACK
6
CONTINUOUS
10
116.0249999999999915
20
-35.8999999999999986
11
116.0230979999999903
21
-35.9058500000000009
0
LINE
8
BLACK
6
CONTINUOUS
10
116.0230979999999903
20
-35.9058500000000009
11
116.0249999999999915
21
-51.2999999999999972
0
LINE
8
BLACK
6
CONTINUOUS
10
116.0249999999999915
20
-51.2999999999999972
11
116.0249999999999915
21
-51.3435559999999995
0
LINE
8
BLACK
6
CONTINUOUS
10
116.0249999999999915
20
-51.3435559999999995
11
116.0519189999999981
21
-51.426403999999998
0
LINE
8
BLACK
6
CONTINUOUS
10
116.0519189999999981
20
-51.426403999999998
11
116.103121999999999
21
-51.4968779999999953
0
LINE
8
BLACK
6
CONTINUOUS
10
116.103121999999999
20
-51.4968779999999953
11
116.1735959999999892
21
-51.5480809999999963
0
LINE
8
BLACK
6
CONTINUOUS
10
116.1735959999999892
20
-51.5480809999999963
11
116.2564439999999877
21
-51.5749999999999957
0
LINE
8
BLACK
6
CONTINUOUS
10
116.2564439999999877
20
-51.5749999999999957
11
116.2999999999999972
21
-51.5749999999999957
0
LINE
8
BLACK
6
CONTINUOUS
10
116.2999999999999972
20
-51.5749999999999957
11
116.3058459999999883
21
-51.5768989999999974
0
LINE
8
BLACK
6
CONTINUOUS
10
116.3058459999999883
20
-51.5768989999999974
11
125.1999999999999886
21
-51.5749999999999957
0
LINE
8
BLACK
6
CONTINUOUS
10
125.1999999999999886
20
-51.5749999999999957
11
125.2435559999999981
21
-51.5749999999999957
0
LINE
8
BLACK
6
CONTINUOUS
10
125.2435559999999981
20
-51.5749999999999957
11
125.3264039999999966
21
-51.5480809999999963
0
LINE
8
BLACK
6
CONTINUOUS
10
125.3264039999999966
20
-51.5480809999999963
11
125.396878000000001
21
-51.4968779999999953
0
LINE
8
BLACK
6
CONTINUOUS
10
125.396878000000001
20
-51.4968779999999953
11
125.4480809999999877
21
-51.426403999999998
0
LINE
8
BLACK
6
CONTINUOUS
10
125.4480809999999877
20
-51.426403999999998
11
125.4749999999999943
21
-51.3435559999999995
0
LINE
8
BLACK
6
CONTINUOUS
10
125.4749999999999943
20
-51.3435559999999995
11
125.4749999999999943
21
-51.2999999999999972
0
LINE
8
BLACK
6
CONTINUOUS
10
125.4749999999999943
20
-51.2999999999999972
11
125.4768819999999891
21
-51.2942070000000001
0
LINE
8
BLACK
6
CONTINUOUS
10
125.4768819999999891
20
-51.2942070000000001
11
125.4749999999999943
21
-49.8999999999999986
0
LINE
8
BLACK
6
CONTINUOUS
10
125.4749999999999943
20
-49.8999999999999986
11
125.4909069999999929
21
-49.7995689999999982
0
LINE
8
BLACK
6
CONTINUOUS
10
125.4909069999999929
20
-49.7995689999999982
11
125.5370689999999883
21
-49.7089700000000008
0
LINE
8
BLACK
6
CONTINUOUS
10
125.5370689999999883
20
-49.7089700000000008
11
125.6089699999999993
21
-49.6370689999999968
0
LINE
8
BLACK
6
CONTINUOUS
10
125.6089699999999993
20
-49.6370689999999968
11
125.6995689999999968
21
-49.5909069999999943
0
LINE
8
BLACK
6
CONTINUOUS
10
125.6995689999999968
20
-49.5909069999999943
11
125.7999999999999972
21
-49.5749999999999957
0
LINE
8
BLACK
6
CONTINUOUS
10
125.7999999999999972
20
-49.5749999999999957
11
125.8058489999999949
21
-49.5768999999999949
0
LINE
8
BLACK
6
CONTINUOUS
10
125.8058489999999949
20
-49.5768999999999949
11
139.1999999999999886
21
-49.5749999999999957
0
LINE
8
BLACK
6
CONTINUOUS
10
139.1999999999999886
20
-49.5749999999999957
11
139.3004310000000032
21
-49.5909069999999943
0
LINE
8
BLACK
6
CONTINUOUS
10
139.3004310000000032
20
-49.5909069999999943
11
139.3910300000000007
21
-49.6370689999999968
0
LINE
8
BLACK
6
CONTINUOUS
10
139.3910300000000007
20
-49.6370689999999968
11
139.4629309999999975
21
-49.7089700000000008
0
LINE
8
BLACK
6
CONTINUOUS
10
139.4629309999999975
20
-49.7089700000000008
11
139.5090930000000071
21
-49.7995689999999982
0
LINE
8
BLACK
6
CONTINUOUS
10
139.5090930000000071
20
-49.7995689999999982
11
139.5250000000000057
21
-49.8999999999999986
0
LINE
8
BLACK
6
CONTINUOUS
10
139.5250000000000057
20
-49.8999999999999986
11
139.523116999999985
21
-49.9057919999999982
0
LINE
8
BLACK
6
CONTINUOUS
10
139.523116999999985
20
-49.9057919999999982
11
139.5250000000000057
21
-51.2999999999999972
0
LINE
8
BLACK
6
CONTINUOUS
10
139.5250000000000057
20
-51.2999999999999972
11
139.5250000000000057
21
-51.3435559999999995
0
LINE
8
BLACK
6
CONTINUOUS
10
139.5250000000000057
20
-51.3435559999999995
11
139.5519189999999981
21
-51.426403999999998
0
LINE
8
BLACK
6
CONTINUOUS
10
139.5519189999999981
20
-51.426403999999998
11
139.6031219999999848
21
-51.4968779999999953
0
LINE
8
BLACK
6
CONTINUOUS
10
139.6031219999999848
20
-51.4968779999999953
11
139.6735960000000034
21
-51.5480809999999963
0
LINE
8
BLACK
6
CONTINUOUS
10
139.6735960000000034
20
-51.5480809999999963
11
139.7564439999999877
21
-51.5749999999999957
0
LINE
8
BLACK
6
CONTINUOUS
10
139.7564439999999877
20
-51.5749999999999957
11
139.7999999999999829
21
-51.5749999999999957
0
LINE
8
BLACK
6
CONTINUOUS
10
139.7999999999999829
20
-51.5749999999999957
11
139.8058460000000025
21
-51.5768989999999974
0
LINE
8
BLACK
6
CONTINUOUS
10
139.8058460000000025
20
-51.5768989999999974
11
148.6999999999999886
21
-51.5749999999999957
0
LINE
8
BLACK
6
CONTINUOUS
10
148.6999999999999886
20
-51.5749999999999957
11
148.7435559999999839
21
-51.5749999999999957
0
LINE
8
BLACK
6
CONTINUOUS
10
148.7435559999999839
20
-51.5749999999999957
11
148.8264039999999966
21
-51.5480809999999963
0
LINE
8
BLACK
6
CONTINUOUS
10
148.8264039999999966
20
-51.5480809999999963
11
148.8968779999999867
21
-51.4968779999999953
0
LINE
8
BLACK
6
CONTINUOUS
10
148.8968779999999867
20
-51.4968779999999953
11
148.9480810000000019
21
-51.426403999999998
0
LINE
8
BLACK
6
CONTINUOUS
10
148.9480810000000019
20
-51.426403999999998
11
148.9749999999999943
21
-51.3435559999999995
0
LINE
8
BLACK
6
CONTINUOUS
10
148.9749999999999943
20
-51.3435559999999995
11
148.9749999999999943
21
-51.2999999999999972
0
LINE
8
BLACK
6
CONTINUOUS
10
148.9749999999999943
20
-51.2999999999999972
11
148.976900999999998
21
-51.2941489999999973
0
LINE
8
BLACK
6
CONTINUOUS
10
148.976900999999998
20
-51.2941489999999973
11
148.9749999999999943
21
-35.8999999999999986
0
LINE
8
BLACK
6
CONTINUOUS
10
148.9749999999999943
20
-35.8999999999999986
11
148.9749999999999943
21
-35.8564439999999962
0
LINE
8
BLACK
6
CONTINUOUS
10
148.9749999999999943
20
-35.8564439999999962
11
148.9480810000000019
21
-35.7735959999999977
0
LINE
8
BLACK
6
CONTINUOUS
10
148.9480810000000019
20
-35.7735959999999977
11
148.8968779999999867
21
-35.7031220000000005
0
LINE
8
BLACK
6
CONTINUOUS
10
148.8968779999999867
20
-35.7031220000000005
11
148.8264039999999966
21
-35.6519189999999995
0
LINE
8
BLACK
6
CONTINUOUS
10
148.8264039999999966
20
-35.6519189999999995
11
148.7435559999999839
21
-35.625
0
LINE
8
BLACK
6
CONTINUOUS
10
148.7435559999999839
20
-35.625
11
148.6999999999999886
21
-35.625
0
LINE
8
BLACK
6
CONTINUOUS
10
148.6999999999999886
20
-35.625
11
148.6941459999999893
21
-35.6230970000000013
0
LINE
8
BLACK
6
CONTINUOUS
10
148.6941459999999893
20
-35.6230970000000013
11
116.2999999999999972
21
-35.625
0
LINE
8
BLACK
6
CONTINUOUS
10
110.800430999999989
20
-35.5909070000000014
11
110.8910300000000007
21
-35.6370689999999968
0
LINE
8
BLACK
6
CONTINUOUS
10
110.8910300000000007
20
-35.6370689999999968
11
110.9629309999999975
21
-35.7089700000000008
0
LINE
8
BLACK
6
CONTINUOUS
10
110.9629309999999975
20
-35.7089700000000008
11
111.0090929999999929
21
-35.7995689999999982
0
LINE
8
BLACK
6
CONTINUOUS
10
111.0090929999999929
20
-35.7995689999999982
11
111.0249999999999915
21
-35.8999999999999986
0
LINE
8
BLACK
6
CONTINUOUS
10
111.0249999999999915
20
-35.8999999999999986
11
111.023099000000002
21
-35.9058489999999964
0
LINE
8
BLACK
6
CONTINUOUS
10
111.023099000000002
20
-35.9058489999999964
11
111.0249999999999915
21
-49.2999999999999972
0
LINE
8
BLACK
6
CONTINUOUS
10
111.0249999999999915
20
-49.2999999999999972
11
111.0090929999999929
21
-49.4004309999999975
0
LINE
8
BLACK
6
CONTINUOUS
10
111.0090929999999929
20
-49.4004309999999975
11
110.9629309999999975
21
-49.491029999999995
0
LINE
8
BLACK
6
CONTINUOUS
10
110.9629309999999975
20
-49.491029999999995
11
110.8910300000000007
21
-49.562930999999999
0
LINE
8
BLACK
6
CONTINUOUS
10
110.8910300000000007
20
-49.562930999999999
11
110.800430999999989
21
-49.6090929999999943
0
LINE
8
BLACK
6
CONTINUOUS
10
110.800430999999989
20
-49.6090929999999943
11
110.6999999999999886
21
-49.625
0
LINE
8
BLACK
6
CONTINUOUS
10
110.6999999999999886
20
-49.625
11
110.6941499999999934
21
-49.6230989999999963
0
LINE
8
BLACK
6
CONTINUOUS
10
110.6941499999999934
20
-49.6230989999999963
11
97.2999999999999972
21
-49.625
0
LINE
8
BLACK
6
CONTINUOUS
10
97.2999999999999972
20
-49.625
11
97.1995689999999968
21
-49.6090929999999943
0
LINE
8
BLACK
6
CONTINUOUS
10
97.1995689999999968
20
-49.6090929999999943
11
97.1089699999999993
21
-49.562930999999999
0
LINE
8
BLACK
6
CONTINUOUS
10
97.1089699999999993
20
-49.562930999999999
11
97.0370690000000025
21
-49.491029999999995
0
LINE
8
BLACK
6
CONTINUOUS
10
97.0370690000000025
20
-49.491029999999995
11
96.9909069999999929
21
-49.4004309999999975
0
LINE
8
BLACK
6
CONTINUOUS
10
96.9909069999999929
20
-49.4004309999999975
11
96.9749999999999943
21
-49.2999999999999972
0
LINE
8
BLACK
6
CONTINUOUS
10
96.9749999999999943
20
-49.2999999999999972
11
96.9769000000000005
21
-49.2941499999999948
0
LINE
8
BLACK
6
CONTINUOUS
10
96.9769000000000005
20
-49.2941499999999948
11
96.9749999999999943
21
-35.8999999999999986
0
LINE
8
BLACK
6
CONTINUOUS
10
96.9749999999999943
20
-35.8999999999999986
11
96.9909069999999929
21
-35.7995689999999982
0
LINE
8
BLACK
6
CONTINUOUS
10
96.9909069999999929
20
-35.7995689999999982
11
97.0370690000000025
21
-35.7089700000000008
0
LINE
8
BLACK
6
CONTINUOUS
10
97.0370690000000025
20
-35.7089700000000008
11
97.1089699999999993
21
-35.6370689999999968
0
LINE
8
BLACK
6
CONTINUOUS
10
97.1089699999999993
20
-35.6370689999999968
11
97.1995689999999968
21
-35.5909070000000014
0
LINE
8
BLACK
6
CONTINUOUS
10
97.1995689999999968
20
-35.5909070000000014
11
97.2999999999999972
21
-35.5749999999999957
0
LINE
8
BLACK
6
CONTINUOUS
10
97.2999999999999972
20
-35.5749999999999957
11
97.3058489999999949
21
-35.5768999999999949
0
LINE
8
BLACK
6
CONTINUOUS
10
97.3058489999999949
20
-35.5768999999999949
11
110.6999999999999886
21
-35.5749999999999957
0
LINE
8
BLACK
6
CONTINUOUS
10
110.6999999999999886
20
-35.5749999999999957
11
110.800430999999989
21
-35.5909070000000014
0
LINE
8
BLACK
6
CONTINUOUS
10
97.2999999999999972
20
-35.625
11
97.2564440000000019
21
-35.625
0
LINE
8
BLACK
6
CONTINUOUS
10
97.2564440000000019
20
-35.625
11
97.1735959999999892
21
-35.6519189999999995
0
LINE
8
BLACK
6
CONTINUOUS
10
97.1735959999999892
20
-35.6519189999999995
11
97.103121999999999
21
-35.7031220000000005
0
LINE
8
BLACK
6
CONTINUOUS
10
97.103121999999999
20
-35.7031220000000005
11
97.0519189999999981
21
-35.7735959999999977
0
LINE
8
BLACK
6
CONTINUOUS
10
97.0519189999999981
20
-35.7735959999999977
11
97.0249999999999915
21
-35.8564439999999962
0
LINE
8
BLACK
6
CONTINUOUS
10
97.0249999999999915
20
-35.8564439999999962
11
97.0249999999999915
21
-35.8999999999999986
0
LINE
8
BLACK
6
CONTINUOUS
10
97.0249999999999915
20
-35.8999999999999986
11
97.023099000000002
21
-35.9058489999999964
0
LINE
8
BLACK
6
CONTINUOUS
10
97.023099000000002
20
-35.9058489999999964
11
97.0249999999999915
21
-49.2999999999999972
0
LINE
8
BLACK
6
CONTINUOUS
10
97.0249999999999915
20
-49.2999999999999972
11
97.0249999999999915
21
-49.3435559999999995
0
LINE
8
BLACK
6
CONTINUOUS
10
97.0249999999999915
20
-49.3435559999999995
11
97.0519189999999981
21
-49.426403999999998
0
LINE
8
BLACK
6
CONTINUOUS
10
97.0519189999999981
20
-49.426403999999998
11
97.103121999999999
21
-49.4968779999999953
0
LINE
8
BLACK
6
CONTINUOUS
10
97.103121999999999
20
-49.4968779999999953
11
97.1735959999999892
21
-49.5480809999999963
0
LINE
8
BLACK
6
CONTINUOUS
10
97.1735959999999892
20
-49.5480809999999963
11
97.2564440000000019
21
-49.5749999999999957
0
LINE
8
BLACK
6
CONTINUOUS
10
97.2564440000000019
20
-49.5749999999999957
11
97.2999999999999972
21
-49.5749999999999957
0
LINE
8
BLACK
6
CONTINUOUS
10
97.2999999999999972
20
-49.5749999999999957
11
97.3058489999999949
21
-49.5768999999999949
0
LINE
8
BLACK
6
CONTINUOUS
10
97.3058489999999949
20
-49.5768999999999949
11
110.6999999999999886
21
-49.5749999999999957
0
LINE
8
BLACK
6
CONTINUOUS
10
110.6999999999999886
20
-49.5749999999999957
11
110.7435559999999981
21
-49.5749999999999957
0
LINE
8
BLACK
6
CONTINUOUS
10
110.7435559999999981
20
-49.5749999999999957
11
110.8264039999999966
21
-49.5480809999999963
0
LINE
8
BLACK
6
CONTINUOUS
10
110.8264039999999966
20
-49.5480809999999963
11
110.896878000000001
21
-49.4968779999999953
0
LINE
8
BLACK
6
CONTINUOUS
10
110.896878000000001
20
-49.4968779999999953
11
110.9480810000000019
21
-49.426403999999998
0
LINE
8
BLACK
6
CONTINUOUS
10
110.9480810000000019
20
-49.426403999999998
11
110.9749999999999943
21
-49.3435559999999995
0
LINE
8
BLACK
6
CONTINUOUS
10
110.9749999999999943
20
-49.3435559999999995
11
110.9749999999999943
21
-49.2999999999999972
0
LINE
8
BLACK
6
CONTINUOUS
10
110.9749999999999943
20
-49.2999999999999972
11
110.9769000000000005
21
-49.2941499999999948
0
LINE
8
BLACK
6
CONTINUOUS
10
110.9769000000000005
20
-49.2941499999999948
11
110.9749999999999943
21
-35.8999999999999986
0
LINE
8
BLACK
6
CONTINUOUS
10
110.9749999999999943
20
-35.8999999999999986
11
110.9749999999999943
21
-35.8564439999999962
0
LINE
8
BLACK
6
CONTINUOUS
10
110.9749999999999943
20
-35.8564439999999962
11
110.9480810000000019
21
-35.7735959999999977
0
LINE
8
BLACK
6
CONTINUOUS
10
110.9480810000000019
20
-35.7735959999999977
11
110.896878000000001
21
-35.7031220000000005
0
LINE
8
BLACK
6
CONTINUOUS
10
110.896878000000001
20
-35.7031220000000005
11
110.8264039999999966
21
-35.6519189999999995
0
LINE
8
BLACK
6
CONTINUOUS
10
110.8264039999999966
20
-35.6519189999999995
11
110.7435559999999981
21
-35.625
0
LINE
8
BLACK
6
CONTINUOUS
10
110.7435559999999981
20
-35.625
11
110.6999999999999886
21
-35.625
0
LINE
8
BLACK
6
CONTINUOUS
10
110.6999999999999886
20
-35.625
11
110.6941499999999934
21
-35.6230989999999963
0
LINE
8
BLACK
6
CONTINUOUS
10
110.6941499999999934
20
-35.6230989999999963
11
97.2999999999999972
21
-35.625
0
LINE
8
BLACK
6
CONTINUOUS
10
149.3188119999999799
20
-32.5667079999999984
11
149.6341309999999964
21
-32.6166499999999999
0
LINE
8
BLACK
6
CONTINUOUS
10
149.6341309999999964
20
-32.6166499999999999
11
149.9425019999999904
21
-32.6992779999999996
0
LINE
8
BLACK
6
CONTINUOUS
10
149.9425019999999904
20
-32.6992779999999996
11
150.2405469999999923
21
-32.813685999999997
0
LINE
8
BLACK
6
CONTINUOUS
10
150.2405469999999923
20
-32.813685999999997
11
150.5250000000000057
21
-32.9586229999999958
0
LINE
8
BLACK
6
CONTINUOUS
10
150.5250000000000057
20
-32.9586229999999958
11
150.7927449999999965
21
-33.1324979999999982
0
LINE
8
BLACK
6
CONTINUOUS
10
150.7927449999999965
20
-33.1324979999999982
11
151.0408479999999827
21
-33.3334079999999986
0
LINE
8
BLACK
6
CONTINUOUS
10
151.0408479999999827
20
-33.3334079999999986
11
151.2665920000000028
21
-33.5591519999999974
0
LINE
8
BLACK
6
CONTINUOUS
10
151.2665920000000028
20
-33.5591519999999974
11
151.4675019999999961
21
-33.8072549999999978
0
LINE
8
BLACK
6
CONTINUOUS
10
151.4675019999999961
20
-33.8072549999999978
11
151.6413770000000056
21
-34.0749999999999957
0
LINE
8
BLACK
6
CONTINUOUS
10
151.6413770000000056
20
-34.0749999999999957
11
151.7863140000000044
21
-34.3594529999999949
0
LINE
8
BLACK
6
CONTINUOUS
10
151.7863140000000044
20
-34.3594529999999949
11
151.9007220000000018
21
-34.6574979999999968
0
LINE
8
BLACK
6
CONTINUOUS
10
151.9007220000000018
20
-34.6574979999999968
11
151.9833500000000015
21
-34.9658689999999979
0
LINE
8
BLACK
6
CONTINUOUS
10
151.9833500000000015
20
-34.9658689999999979
11
152.0332919999999888
21
-35.2811880000000002
0
LINE
8
BLACK
6
CONTINUOUS
10
152.0332919999999888
20
-35.2811880000000002
11
152.0499999999999829
21
-35.6000000000000014
0
LINE
8
BLACK
6
CONTINUOUS
10
152.0499999999999829
20
-35.6000000000000014
11
152.0461939999999856
21
-35.6117109999999997
0
LINE
8
BLACK
6
CONTINUOUS
10
152.0461939999999856
20
-35.6117109999999997
11
152.0499999999999829
21
-174.5999999999999943
0
LINE
8
BLACK
6
CONTINUOUS
10
152.0499999999999829
20
-174.5999999999999943
11
152.0332919999999888
21
-174.9188120000000026
0
LINE
8
BLACK
6
CONTINUOUS
10
152.0332919999999888
20
-174.9188120000000026
11
151.9833500000000015
21
-175.2341309999999908
0
LINE
8
BLACK
6
CONTINUOUS
10
151.9833500000000015
20
-175.2341309999999908
11
151.9007220000000018
21
-175.5425019999999847
0
LINE
8
BLACK
6
CONTINUOUS
10
151.9007220000000018
20
-175.5425019999999847
11
151.7863140000000044
21
-175.8405469999999866
0
LINE
8
BLACK
6
CONTINUOUS
10
151.7863140000000044
20
-175.8405469999999866
11
151.6413770000000056
21
-176.125
0
LINE
8
BLACK
6
CONTINUOUS
10
151.6413770000000056
20
-176.125
11
151.4675019999999961
21
-176.3927449999999908
0
LINE
8
BLACK
6
CONTINUOUS
10
151.4675019999999961
20
-176.3927449999999908
11
151.2665920000000028
21
-176.6408480000000054
0
LINE
8
BLACK
6
CONTINUOUS
10
151.2665920000000028
20
-176.6408480000000054
11
151.0408479999999827
21
-176.8665919999999971
0
LINE
8
BLACK
6
CONTINUOUS
10
151.0408479999999827
20
-176.8665919999999971
11
150.7927449999999965
21
-177.0675019999999904
0
LINE
8
BLACK
6
CONTINUOUS
10
150.7927449999999965
20
-177.0675019999999904
11
150.5250000000000057
21
-177.241377
0
LINE
8
BLACK
6
CONTINUOUS
10
150.5250000000000057
20
-177.241377
11
150.2405469999999923
21
-177.3863139999999987
0
LINE
8
BLACK
6
CONTINUOUS
10
150.2405469999999923
20
-177.3863139999999987
11
149.9425019999999904
21
-177.5007219999999961
0
LINE
8
BLACK
6
CONTINUOUS
10
149.9425019999999904
20
-177.5007219999999961
11
149.6341309999999964
21
-177.5833499999999958
0
LINE
8
BLACK
6
CONTINUOUS
10
149.6341309999999964
20
-177.5833499999999958
11
149.3188119999999799
21
-177.6332919999999831
0
LINE
8
BLACK
6
CONTINUOUS
10
149.3188119999999799
20
-177.6332919999999831
11
149.
21
-177.6500000000000057
0
LINE
8
BLACK
6
CONTINUOUS
10
149.
20
-177.6500000000000057
11
148.9882910000000038
21
-177.6461950000000058
0
LINE
8
BLACK
6
CONTINUOUS
10
148.9882910000000038
20
-177.6461950000000058
11
78.
21
-177.6500000000000057
0
LINE
8
BLACK
6
CONTINUOUS
10
78.
20
-177.6500000000000057
11
77.6811879999999917
21
-177.6332919999999831
0
LINE
8
BLACK
6
CONTINUOUS
10
77.6811879999999917
20
-177.6332919999999831
11
77.3658690000000036
21
-177.5833499999999958
0
LINE
8
BLACK
6
CONTINUOUS
10
77.3658690000000036
20
-177.5833499999999958
11
77.0574979999999954
21
-177.5007219999999961
0
LINE
8
BLACK
6
CONTINUOUS
10
77.0574979999999954
20
-177.5007219999999961
11
76.7594529999999935
21
-177.3863139999999987
0
LINE
8
BLACK
6
CONTINUOUS
10
76.7594529999999935
20
-177.3863139999999987
11
76.4749999999999943
21
-177.241377
0
LINE
8
BLACK
6
CONTINUOUS
10
76.4749999999999943
20
-177.241377
11
76.2072550000000035
21
-177.0675019999999904
0
LINE
8
BLACK
6
CONTINUOUS
10
76.2072550000000035
20
-177.0675019999999904
11
75.9591520000000031
21
-176.8665919999999971
0
LINE
8
BLACK
6
CONTINUOUS
10
75.9591520000000031
20
-176.8665919999999971
11
75.7334079999999972
21
-176.6408480000000054
0
LINE
8
BLACK
6
CONTINUOUS
10
75.7334079999999972
20
-176.6408480000000054
11
75.5324979999999897
21
-176.3927449999999908
0
LINE
8
BLACK
6
CONTINUOUS
10
75.5324979999999897
20
-176.3927449999999908
11
75.3586229999999944
21
-176.125
0
LINE
8
BLACK
6
CONTINUOUS
10
75.3586229999999944
20
-176.125
11
75.2136859999999956
21
-175.8405469999999866
0
LINE
8
BLACK
6
CONTINUOUS
10
75.2136859999999956
20
-175.8405469999999866
11
75.0992779999999982
21
-175.5425019999999847
0
LINE
8
BLACK
6
CONTINUOUS
10
75.0992779999999982
20
-175.5425019999999847
11
75.0166499999999985
21
-175.2341309999999908
0
LINE
8
BLACK
6
CONTINUOUS
10
75.0166499999999985
20
-175.2341309999999908
11
74.966707999999997
21
-174.9188120000000026
0
LINE
8
BLACK
6
CONTINUOUS
10
74.966707999999997
20
-174.9188120000000026
11
74.9500000000000028
21
-174.5999999999999943
0
LINE
8
BLACK
6
CONTINUOUS
10
74.9500000000000028
20
-174.5999999999999943
11
74.9538050000000027
21
-174.5882880000000057
0
LINE
8
BLACK
6
CONTINUOUS
10
74.9538050000000027
20
-174.5882880000000057
11
74.9500000000000028
21
-35.6000000000000014
0
LINE
8
BLACK
6
CONTINUOUS
10
74.9500000000000028
20
-35.6000000000000014
11
74.966707999999997
21
-35.2811880000000002
0
LINE
8
BLACK
6
CONTINUOUS
10
74.966707999999997
20
-35.2811880000000002
11
75.0166499999999985
21
-34.9658689999999979
0
LINE
8
BLACK
6
CONTINUOUS
10
75.0166499999999985
20
-34.9658689999999979
11
75.0992779999999982
21
-34.6574979999999968
0
LINE
8
BLACK
6
CONTINUOUS
10
75.0992779999999982
20
-34.6574979999999968
11
75.2136859999999956
21
-34.3594529999999949
0
LINE
8
BLACK
6
CONTINUOUS
10
75.2136859999999956
20
-34.3594529999999949
11
75.3586229999999944
21
-34.0749999999999957
0
LINE
8
BLACK
6
CONTINUOUS
10
75.3586229999999944
20
-34.0749999999999957
11
75.5324979999999897
21
-33.8072549999999978
0
LINE
8
BLACK
6
CONTINUOUS
10
75.5324979999999897
20
-33.8072549999999978
11
75.7334079999999972
21
-33.5591519999999974
0
LINE
8
BLACK
6
CONTINUOUS
10
75.7334079999999972
20
-33.5591519999999974
11
75.9591520000000031
21
-33.3334079999999986
0
LINE
8
BLACK
6
CONTINUOUS
10
75.9591520000000031
20
-33.3334079999999986
11
76.2072550000000035
21
-33.1324979999999982
0
LINE
8
BLACK
6
CONTINUOUS
10
76.2072550000000035
20
-33.1324979999999982
11
76.4749999999999943
21
-32.9586229999999958
0
LINE
8
BLACK
6
CONTINUOUS
10
76.4749999999999943
20
-32.9586229999999958
11
76.7594529999999935
21
-32.813685999999997
0
LINE
8
BLACK
6
CONTINUOUS
10
76.7594529999999935
20
-32.813685999999997
11
77.0574979999999954
21
-32.6992779999999996
0
LINE
8
BLACK
6
CONTINUOUS
10
77.0574979999999954
20
-32.6992779999999996
11
77.3658690000000036
21
-32.6166499999999999
0
LINE
8
BLACK
6
CONTINUOUS
10
77.3658690000000036
20
-32.6166499999999999
11
77.6811879999999917
21
-32.5667079999999984
0
LINE
8
BLACK
6
CONTINUOUS
10
77.6811879999999917
20
-32.5667079999999984
11
78.
21
-32.5499999999999972
0
LINE
8
BLACK
6
CONTINUOUS
10
78.
20
-32.5499999999999972
11
78.0117079999999987
21
-32.5538039999999995
0
LINE
8
BLACK
6
CONTINUOUS
10
78.0117079999999987
20
-32.5538039999999995
11
149.
21
-32.5499999999999972
0
LINE
8
BLACK
6
CONTINUOUS
10
149.
20
-32.5499999999999972
11
149.3188119999999799
21
-32.5667079999999984
0
LINE
8
BLACK
6
CONTINUOUS
10
78.
20
-32.6499999999999986
11
77.8343320000000034
21
-32.6499999999999986
0
LINE
8
BLACK
6
CONTINUOUS
10
77.8343320000000034
20
-32.6499999999999986
11
77.5050779999999975
21
-32.6870979999999989
0
LINE
8
BLACK
6
CONTINUOUS
10
77.5050779999999975
20
-32.6870979999999989
11
77.1820489999999921
21
-32.7608279999999965
0
LINE
8
BLACK
6
CONTINUOUS
10
77.1820489999999921
20
-32.7608279999999965
11
76.8693049999999971
21
-32.8702609999999993
0
LINE
8
BLACK
6
CONTINUOUS
10
76.8693049999999971
20
-32.8702609999999993
11
76.5707809999999967
21
-33.0140230000000017
0
LINE
8
BLACK
6
CONTINUOUS
10
76.5707809999999967
20
-33.0140230000000017
11
76.290229999999994
21
-33.1903049999999951
0
LINE
8
BLACK
6
CONTINUOUS
10
76.290229999999994
20
-33.1903049999999951
11
76.031179999999992
21
-33.3968899999999991
0
LINE
8
BLACK
6
CONTINUOUS
10
76.031179999999992
20
-33.3968899999999991
11
75.7968899999999906
21
-33.6311800000000005
0
LINE
8
BLACK
6
CONTINUOUS
10
75.7968899999999906
20
-33.6311800000000005
11
75.5903050000000007
21
-33.8902299999999954
0
LINE
8
BLACK
6
CONTINUOUS
10
75.5903050000000007
20
-33.8902299999999954
11
75.4140230000000003
21
-34.1707809999999981
0
LINE
8
BLACK
6
CONTINUOUS
10
75.4140230000000003
20
-34.1707809999999981
11
75.2702609999999908
21
-34.4693049999999985
0
LINE
8
BLACK
6
CONTINUOUS
10
75.2702609999999908
20
-34.4693049999999985
11
75.1608279999999951
21
-34.7820490000000007
0
LINE
8
BLACK
6
CONTINUOUS
10
75.1608279999999951
20
-34.7820490000000007
11
75.0870979999999975
21
-35.1050779999999989
0
LINE
8
BLACK
6
CONTINUOUS
10
75.0870979999999975
20
-35.1050779999999989
11
75.0499999999999972
21
-35.4343319999999977
0
LINE
8
BLACK
6
CONTINUOUS
10
75.0499999999999972
20
-35.4343319999999977
11
75.0499999999999972
21
-35.6000000000000014
0
LINE
8
BLACK
6
CONTINUOUS
10
75.0499999999999972
20
-35.6000000000000014
11
75.0461939999999998
21
-35.6117109999999997
0
LINE
8
BLACK
6
CONTINUOUS
10
75.0461939999999998
20
-35.6117109999999997
11
75.0499999999999972
21
-174.5999999999999943
0
LINE
8
BLACK
6
CONTINUOUS
10
75.0499999999999972
20
-174.5999999999999943
11
75.0499999999999972
21
-174.7656680000000051
0
LINE
8
BLACK
6
CONTINUOUS
10
75.0499999999999972
20
-174.7656680000000051
11
75.0870979999999975
21
-175.0949219999999968
0
LINE
8
BLACK
6
CONTINUOUS
10
75.0870979999999975
20
-175.0949219999999968
11
75.1608279999999951
21
-175.417950999999988
0
LINE
8
BLACK
6
CONTINUOUS
10
75.1608279999999951
20
-175.417950999999988
11
75.2702609999999908
21
-175.7306949999999972
0
LINE
8
BLACK
6
CONTINUOUS
10
75.2702609999999908
20
-175.7306949999999972
11
75.4140230000000003
21
-176.0292189999999835
0
LINE
8
BLACK
6
CONTINUOUS
10
75.4140230000000003
20
-176.0292189999999835
11
75.5903050000000007
21
-176.3097699999999861
0
LINE
8
BLACK
6
CONTINUOUS
10
75.5903050000000007
20
-176.3097699999999861
11
75.7968899999999906
21
-176.5688199999999881
0
LINE
8
BLACK
6
CONTINUOUS
10
75.7968899999999906
20
-176.5688199999999881
11
76.031179999999992
21
-176.8031100000000038
0
LINE
8
BLACK
6
CONTINUOUS
10
76.031179999999992
20
-176.8031100000000038
11
76.290229999999994
21
-177.0096949999999936
0
LINE
8
BLACK
6
CONTINUOUS
10
76.290229999999994
20
-177.0096949999999936
11
76.5707809999999967
21
-177.1859769999999799
0
LINE
8
BLACK
6
CONTINUOUS
10
76.5707809999999967
20
-177.1859769999999799
11
76.8693049999999971
21
-177.3297389999999893
0
LINE
8
BLACK
6
CONTINUOUS
10
76.8693049999999971
20
-177.3297389999999893
11
77.1820489999999921
21
-177.439171999999985
0
LINE
8
BLACK
6
CONTINUOUS
10
77.1820489999999921
20
-177.439171999999985
11
77.5050779999999975
21
-177.5129019999999969
0
LINE
8
BLACK
6
CONTINUOUS
10
77.5050779999999975
20
-177.5129019999999969
11
77.8343320000000034
21
-177.5499999999999829
0
LINE
8
BLACK
6
CONTINUOUS
10
77.8343320000000034
20
-177.5499999999999829
11
78.
21
-177.5499999999999829
0
LINE
8
BLACK
6
CONTINUOUS
10
78.
20
-177.5499999999999829
11
78.0117079999999987
21
-177.5538039999999853
0
LINE
8
BLACK
6
CONTINUOUS
10
78.0117079999999987
20
-177.5538039999999853
11
149.
21
-177.5499999999999829
0
LINE
8
BLACK
6
CONTINUOUS
10
149.
20
-177.5499999999999829
11
149.1656679999999824
21
-177.5499999999999829
0
LINE
8
BLACK
6
CONTINUOUS
10
149.1656679999999824
20
-177.5499999999999829
11
149.4949220000000025
21
-177.5129019999999969
0
LINE
8
BLACK
6
CONTINUOUS
10
149.4949220000000025
20
-177.5129019999999969
11
149.8179509999999937
21
-177.439171999999985
0
LINE
8
BLACK
6
CONTINUOUS
10
149.8179509999999937
20
-177.439171999999985
11
150.1306950000000029
21
-177.3297389999999893
0
LINE
8
BLACK
6
CONTINUOUS
10
150.1306950000000029
20
-177.3297389999999893
11
150.4292189999999891
21
-177.1859769999999799
0
LINE
8
BLACK
6
CONTINUOUS
10
150.4292189999999891
20
-177.1859769999999799
11
150.7097699999999918
21
-177.0096949999999936
0
LINE
8
BLACK
6
CONTINUOUS
10
150.7097699999999918
20
-177.0096949999999936
11
150.9688199999999938
21
-176.8031100000000038
0
LINE
8
BLACK
6
CONTINUOUS
10
150.9688199999999938
20
-176.8031100000000038
11
151.203109999999981
21
-176.5688199999999881
0
LINE
8
BLACK
6
CONTINUOUS
10
151.203109999999981
20
-176.5688199999999881
11
151.4096949999999993
21
-176.3097699999999861
0
LINE
8
BLACK
6
CONTINUOUS
10
151.4096949999999993
20
-176.3097699999999861
11
151.5859769999999855
21
-176.0292189999999835
0
LINE
8
BLACK
6
CONTINUOUS
10
151.5859769999999855
20
-176.0292189999999835
11
151.729738999999995
21
-175.7306949999999972
0
LINE
8
BLACK
6
CONTINUOUS
10
151.729738999999995
20
-175.7306949999999972
11
151.8391719999999907
21
-175.417950999999988
0
LINE
8
BLACK
6
CONTINUOUS
10
151.8391719999999907
20
-175.417950999999988
11
151.9129020000000025
21
-175.0949219999999968
0
LINE
8
BLACK
6
CONTINUOUS
10
151.9129020000000025
20
-175.0949219999999968
11
151.9499999999999886
21
-174.7656680000000051
0
LINE
8
BLACK
6
CONTINUOUS
10
151.9499999999999886
20
-174.7656680000000051
11
151.9499999999999886
21
-174.5999999999999943
0
LINE
8
BLACK
6
CONTINUOUS
10
151.9499999999999886
20
-174.5999999999999943
11
151.9538049999999885
21
-174.5882880000000057
0
LINE
8
BLACK
6
CONTINUOUS
10
151.9538049999999885
20
-174.5882880000000057
11
151.9499999999999886
21
-35.6000000000000014
0
LINE
8
BLACK
6
CONTINUOUS
10
151.9499999999999886
20
-35.6000000000000014
11
151.9499999999999886
21
-35.4343319999999977
0
LINE
8
BLACK
6
CONTINUOUS
10
151.9499999999999886
20
-35.4343319999999977
11
151.9129020000000025
21
-35.1050779999999989
0
LINE
8
BLACK
6
CONTINUOUS
10
151.9129020000000025
20
-35.1050779999999989
11
151.8391719999999907
21
-34.7820490000000007
0
LINE
8
BLACK
6
CONTINUOUS
10
151.8391719999999907
20
-34.7820490000000007
11
151.729738999999995
21
-34.4693049999999985
0
LINE
8
BLACK
6
CONTINUOUS
10
151.729738999999995
20
-34.4693049999999985
11
151.5859769999999855
21
-34.1707809999999981
0
LINE
8
BLACK
6
CONTINUOUS
10
151.5859769999999855
20
-34.1707809999999981
11
151.4096949999999993
21
-33.8902299999999954
0
LINE
8
BLACK
6
CONTINUOUS
10
151.4096949999999993
20
-33.8902299999999954
11
151.203109999999981
21
-33.6311800000000005
0
LINE
8
BLACK
6
CONTINUOUS
10
151.203109999999981
20
-33.6311800000000005
11
150.9688199999999938
21
-33.3968899999999991
0
LINE
8
BLACK
6
CONTINUOUS
10
150.9688199999999938
20
-33.3968899999999991
11
150.7097699999999918
21
-33.1903049999999951
0
LINE
8
BLACK
6
CONTINUOUS
10
150.7097699999999918
20
-33.1903049999999951
11
150.4292189999999891
21
-33.0140230000000017
0
LINE
8
BLACK
6
CONTINUOUS
10
150.4292189999999891
20
-33.0140230000000017
11
150.1306950000000029
21
-32.8702609999999993
0
LINE
8
BLACK
6
CONTINUOUS
10
150.1306950000000029
20
-32.8702609999999993
11
149.8179509999999937
21
-32.7608279999999965
0
LINE
8
BLACK
6
CONTINUOUS
10
149.8179509999999937
20
-32.7608279999999965
11
149.4949220000000025
21
-32.6870979999999989
0
LINE
8
BLACK
6
CONTINUOUS
10
149.4949220000000025
20
-32.6870979999999989
11
149.1656679999999824
21
-32.6499999999999986
0
LINE
8
BLACK
6
CONTINUOUS
10
149.1656679999999824
20
-32.6499999999999986
11
149.
21
-32.6499999999999986
0
LINE
8
BLACK
6
CONTINUOUS
10
149.
20
-32.6499999999999986
11
148.9882910000000038
21
-32.6461949999999987
0
LINE
8
BLACK
6
CONTINUOUS
10
148.9882910000000038
20
-32.6461949999999987
11
78.
21
-32.6499999999999986
  0
ENDSEC
  0
EOF
