%TF.GenerationSoftware,KiCad,Pcbnew,8.0.1*%
%TF.CreationDate,2024-05-06T20:23:12+09:00*%
%TF.ProjectId,Calciumor_SwitchCover,43616c63-6975-46d6-9f72-5f5377697463,rev?*%
%TF.SameCoordinates,Original*%
%TF.FileFunction,Copper,L2,Bot*%
%TF.FilePolarity,Positive*%
%FSLAX46Y46*%
G04 Gerber Fmt 4.6, Leading zero omitted, Abs format (unit mm)*
G04 Created by KiCad (PCBNEW 8.0.1) date 2024-05-06 20:23:12*
%MOMM*%
%LPD*%
G01*
G04 APERTURE LIST*
%TA.AperFunction,Conductor*%
%ADD10C,0.200000*%
%TD*%
%TA.AperFunction,NonConductor*%
%ADD11C,0.550000*%
%TD*%
%TA.AperFunction,NonConductor*%
%ADD12C,0.200000*%
%TD*%
%TA.AperFunction,Conductor*%
%ADD13C,0.400000*%
%TD*%
%TA.AperFunction,ViaPad*%
%ADD14C,0.800000*%
%TD*%
G04 APERTURE END LIST*
D10*
%TO.N,Earth*%
X140950000Y-59450000D02*
X140650000Y-59250000D01*
X106600000Y-38200000D02*
G75*
G02*
X106200000Y-38600000I-400000J0D01*
G01*
D11*
X142275000Y-58000000D02*
G75*
G02*
X141725000Y-58000000I-275000J0D01*
G01*
X141725000Y-58000000D02*
G75*
G02*
X142275000Y-58000000I275000J0D01*
G01*
X144275000Y-53000000D02*
G75*
G02*
X143725000Y-53000000I-275000J0D01*
G01*
X143725000Y-53000000D02*
G75*
G02*
X144275000Y-53000000I275000J0D01*
G01*
D10*
X140650000Y-56450000D02*
X141300000Y-56550000D01*
D11*
X144275000Y-60500000D02*
G75*
G02*
X143725000Y-60500000I-275000J0D01*
G01*
X143725000Y-60500000D02*
G75*
G02*
X144275000Y-60500000I275000J0D01*
G01*
D10*
X145050000Y-54050000D02*
X144700000Y-54150000D01*
X140950000Y-54450000D02*
X140650000Y-54250000D01*
X141050000Y-59000000D02*
X140550000Y-59250000D01*
D12*
X142000000Y-60050000D02*
X144000000Y-60050000D01*
X144000000Y-60950000D01*
X142000000Y-60950000D01*
X142000000Y-60050000D01*
%TA.AperFunction,NonConductor*%
G36*
X142000000Y-60050000D02*
G01*
X144000000Y-60050000D01*
X144000000Y-60950000D01*
X142000000Y-60950000D01*
X142000000Y-60050000D01*
G37*
%TD.AperFunction*%
D11*
X142275000Y-55500000D02*
G75*
G02*
X141725000Y-55500000I-275000J0D01*
G01*
X141725000Y-55500000D02*
G75*
G02*
X142275000Y-55500000I275000J0D01*
G01*
D10*
X144950000Y-52000000D02*
X145450000Y-51750000D01*
X145050000Y-59050000D02*
X145350000Y-59250000D01*
D13*
X140650000Y-59250000D02*
X145450000Y-59250000D01*
D10*
X102800000Y-38600000D02*
G75*
G02*
X102400000Y-38200000I0J400000D01*
G01*
X140950000Y-56950000D02*
X141300000Y-56850000D01*
D11*
X144275000Y-55500000D02*
G75*
G02*
X143725000Y-55500000I-275000J0D01*
G01*
X143725000Y-55500000D02*
G75*
G02*
X144275000Y-55500000I275000J0D01*
G01*
D12*
X142000000Y-57550000D02*
X144000000Y-57550000D01*
X144000000Y-58450000D01*
X142000000Y-58450000D01*
X142000000Y-57550000D01*
%TA.AperFunction,NonConductor*%
G36*
X142000000Y-57550000D02*
G01*
X144000000Y-57550000D01*
X144000000Y-58450000D01*
X142000000Y-58450000D01*
X142000000Y-57550000D01*
G37*
%TD.AperFunction*%
D10*
X88500000Y-35600000D02*
X88500000Y-35900001D01*
X89500000Y-35900003D02*
G75*
G02*
X88500000Y-35900003I-500000J-1299997D01*
G01*
X89900000Y-35600001D02*
G75*
G02*
X88100000Y-35600001I-900000J-1599999D01*
G01*
D13*
X142000000Y-61750000D02*
G75*
G02*
X142000000Y-59250000I0J1250000D01*
G01*
X144000000Y-56750000D02*
G75*
G02*
X144000000Y-59250000I0J-1250000D01*
G01*
X142000000Y-59250000D02*
G75*
G02*
X142000000Y-56750000I0J1250000D01*
G01*
X142000000Y-56750000D02*
G75*
G02*
X142000000Y-54250000I0J1250000D01*
G01*
X144000000Y-59250000D02*
G75*
G02*
X144000000Y-61750000I0J-1250000D01*
G01*
D10*
X90400000Y-35600000D02*
G75*
G02*
X87600000Y-35600000I-1400000J-1600000D01*
G01*
X140950000Y-51950000D02*
X140650000Y-51750000D01*
D13*
X142000000Y-54250000D02*
G75*
G02*
X142000000Y-51750000I0J1250000D01*
G01*
D10*
X90200000Y-35600000D02*
G75*
G02*
X87800000Y-35600000I-1200000J-1600000D01*
G01*
D13*
X140600000Y-54250000D02*
X145400000Y-54250000D01*
D12*
X142000000Y-55050000D02*
X144000000Y-55050000D01*
X144000000Y-55950000D01*
X142000000Y-55950000D01*
X142000000Y-55050000D01*
%TA.AperFunction,NonConductor*%
G36*
X142000000Y-55050000D02*
G01*
X144000000Y-55050000D01*
X144000000Y-55950000D01*
X142000000Y-55950000D01*
X142000000Y-55050000D01*
G37*
%TD.AperFunction*%
D10*
X145350000Y-57050000D02*
X144700000Y-56950000D01*
D13*
X144000000Y-54250000D02*
G75*
G02*
X144000000Y-56750000I0J-1250000D01*
G01*
D10*
X140650000Y-61450000D02*
X141300000Y-61550000D01*
D13*
X140600000Y-56750000D02*
X145400000Y-56750000D01*
X144000000Y-51750000D02*
G75*
G02*
X144000000Y-54250000I0J-1250000D01*
G01*
D11*
X144275000Y-58000000D02*
G75*
G02*
X143725000Y-58000000I-275000J0D01*
G01*
X143725000Y-58000000D02*
G75*
G02*
X144275000Y-58000000I275000J0D01*
G01*
D10*
X90533785Y-37200000D02*
G75*
G02*
X87466215Y-37200000I-1533785J0D01*
G01*
X87466215Y-37200000D02*
G75*
G02*
X90533785Y-37200000I1533785J0D01*
G01*
D11*
X142275000Y-53000000D02*
G75*
G02*
X141725000Y-53000000I-275000J0D01*
G01*
X141725000Y-53000000D02*
G75*
G02*
X142275000Y-53000000I275000J0D01*
G01*
X142275000Y-60500000D02*
G75*
G02*
X141725000Y-60500000I-275000J0D01*
G01*
X141725000Y-60500000D02*
G75*
G02*
X142275000Y-60500000I275000J0D01*
G01*
D10*
X91000000Y-35600000D02*
X87300000Y-35600000D01*
D12*
X142000000Y-52550000D02*
X144000000Y-52550000D01*
X144000000Y-53450000D01*
X142000000Y-53450000D01*
X142000000Y-52550000D01*
%TA.AperFunction,NonConductor*%
G36*
X142000000Y-52550000D02*
G01*
X144000000Y-52550000D01*
X144000000Y-53450000D01*
X142000000Y-53450000D01*
X142000000Y-52550000D01*
G37*
%TD.AperFunction*%
D10*
X140650000Y-53950000D02*
X141300000Y-54050000D01*
X144950000Y-54500000D02*
X145450000Y-54250000D01*
X89500000Y-35900001D02*
X89500000Y-35600000D01*
X145050000Y-61550000D02*
X144700000Y-61650000D01*
X144950000Y-59500000D02*
X145450000Y-59250000D01*
X89500000Y-35600000D02*
G75*
G02*
X88500000Y-35600000I-500000J-1600000D01*
G01*
X145050000Y-56550000D02*
X144700000Y-56650000D01*
%TD*%
D14*
%TO.N,Earth*%
X108500000Y-103500000D03*
X127500000Y-122500000D03*
X89500000Y-84500000D03*
X89500000Y-160500000D03*
X127500000Y-84500000D03*
X108500000Y-141500000D03*
X127500000Y-160500000D03*
X89500000Y-122500000D03*
%TD*%
%TA.AperFunction,Conductor*%
%TO.N,Earth*%
G36*
X87443039Y-35520185D02*
G01*
X87488794Y-35572989D01*
X87500000Y-35624500D01*
X87500000Y-38700000D01*
X90500000Y-38700000D01*
X90500000Y-35624500D01*
X90519685Y-35557461D01*
X90572489Y-35511706D01*
X90624000Y-35500500D01*
X102376000Y-35500500D01*
X102443039Y-35520185D01*
X102488794Y-35572989D01*
X102500000Y-35624500D01*
X102500000Y-38500000D01*
X106500000Y-38500000D01*
X106500000Y-35624500D01*
X106519685Y-35557461D01*
X106572489Y-35511706D01*
X106624000Y-35500500D01*
X143934108Y-35500500D01*
X143996249Y-35500500D01*
X144003736Y-35500726D01*
X144293796Y-35518271D01*
X144308657Y-35520075D01*
X144512662Y-35557461D01*
X144590798Y-35571780D01*
X144605335Y-35575363D01*
X144879172Y-35660695D01*
X144893163Y-35666000D01*
X145154743Y-35783727D01*
X145167989Y-35790680D01*
X145413465Y-35939075D01*
X145425776Y-35947573D01*
X145651573Y-36124473D01*
X145662781Y-36134403D01*
X145865596Y-36337218D01*
X145875526Y-36348426D01*
X145995481Y-36501538D01*
X146052422Y-36574217D01*
X146060928Y-36586540D01*
X146209316Y-36832004D01*
X146216275Y-36845263D01*
X146333997Y-37106831D01*
X146339306Y-37120832D01*
X146424635Y-37394663D01*
X146428219Y-37409201D01*
X146479923Y-37691340D01*
X146481728Y-37706205D01*
X146499274Y-37996263D01*
X146499500Y-38003750D01*
X146499500Y-176996249D01*
X146499274Y-177003736D01*
X146481728Y-177293794D01*
X146479923Y-177308659D01*
X146428219Y-177590798D01*
X146424635Y-177605336D01*
X146339306Y-177879167D01*
X146333997Y-177893168D01*
X146216275Y-178154736D01*
X146209316Y-178167995D01*
X146060928Y-178413459D01*
X146052422Y-178425782D01*
X145875526Y-178651573D01*
X145865596Y-178662781D01*
X145662781Y-178865596D01*
X145651573Y-178875526D01*
X145425782Y-179052422D01*
X145413459Y-179060928D01*
X145167995Y-179209316D01*
X145154736Y-179216275D01*
X144893168Y-179333997D01*
X144879167Y-179339306D01*
X144605336Y-179424635D01*
X144590798Y-179428219D01*
X144308659Y-179479923D01*
X144293794Y-179481728D01*
X144003736Y-179499274D01*
X143996249Y-179499500D01*
X73003751Y-179499500D01*
X72996264Y-179499274D01*
X72706205Y-179481728D01*
X72691340Y-179479923D01*
X72409201Y-179428219D01*
X72394663Y-179424635D01*
X72120832Y-179339306D01*
X72106831Y-179333997D01*
X71845263Y-179216275D01*
X71832004Y-179209316D01*
X71586540Y-179060928D01*
X71574217Y-179052422D01*
X71348426Y-178875526D01*
X71337218Y-178865596D01*
X71134403Y-178662781D01*
X71124473Y-178651573D01*
X70947573Y-178425776D01*
X70939075Y-178413465D01*
X70790680Y-178167989D01*
X70783727Y-178154743D01*
X70666000Y-177893163D01*
X70660693Y-177879167D01*
X70575364Y-177605336D01*
X70571780Y-177590798D01*
X70520076Y-177308659D01*
X70518271Y-177293794D01*
X70500726Y-177003736D01*
X70500500Y-176996249D01*
X70500500Y-176778846D01*
X72499500Y-176778846D01*
X72530261Y-176933489D01*
X72530264Y-176933501D01*
X72590602Y-177079172D01*
X72590609Y-177079185D01*
X72678210Y-177210288D01*
X72678213Y-177210292D01*
X72789707Y-177321786D01*
X72789711Y-177321789D01*
X72920814Y-177409390D01*
X72920827Y-177409397D01*
X73066498Y-177469735D01*
X73066503Y-177469737D01*
X73221153Y-177500499D01*
X73221156Y-177500500D01*
X73221158Y-177500500D01*
X105778844Y-177500500D01*
X105778845Y-177500499D01*
X105933497Y-177469737D01*
X106079179Y-177409394D01*
X106210289Y-177321789D01*
X106321789Y-177210289D01*
X106409394Y-177079179D01*
X106469737Y-176933497D01*
X106500499Y-176778846D01*
X110499500Y-176778846D01*
X110530261Y-176933489D01*
X110530264Y-176933501D01*
X110590602Y-177079172D01*
X110590609Y-177079185D01*
X110678210Y-177210288D01*
X110678213Y-177210292D01*
X110789707Y-177321786D01*
X110789711Y-177321789D01*
X110920814Y-177409390D01*
X110920827Y-177409397D01*
X111066498Y-177469735D01*
X111066503Y-177469737D01*
X111221153Y-177500499D01*
X111221156Y-177500500D01*
X111221158Y-177500500D01*
X124778844Y-177500500D01*
X124778845Y-177500499D01*
X124933497Y-177469737D01*
X125079179Y-177409394D01*
X125210289Y-177321789D01*
X125321789Y-177210289D01*
X125409394Y-177079179D01*
X125469737Y-176933497D01*
X125500499Y-176778846D01*
X127499500Y-176778846D01*
X127530261Y-176933489D01*
X127530264Y-176933501D01*
X127590602Y-177079172D01*
X127590609Y-177079185D01*
X127678210Y-177210288D01*
X127678213Y-177210292D01*
X127789707Y-177321786D01*
X127789711Y-177321789D01*
X127920814Y-177409390D01*
X127920827Y-177409397D01*
X128066498Y-177469735D01*
X128066503Y-177469737D01*
X128221153Y-177500499D01*
X128221156Y-177500500D01*
X128221158Y-177500500D01*
X143778844Y-177500500D01*
X143778845Y-177500499D01*
X143933497Y-177469737D01*
X144079179Y-177409394D01*
X144210289Y-177321789D01*
X144321789Y-177210289D01*
X144409394Y-177079179D01*
X144469737Y-176933497D01*
X144500500Y-176778842D01*
X144500500Y-176700000D01*
X144500500Y-176634108D01*
X144500500Y-144234108D01*
X144500500Y-144221158D01*
X144500500Y-144221155D01*
X144500499Y-144221153D01*
X144469738Y-144066510D01*
X144469737Y-144066503D01*
X144469735Y-144066498D01*
X144409397Y-143920827D01*
X144409390Y-143920814D01*
X144321789Y-143789711D01*
X144321786Y-143789707D01*
X144210292Y-143678213D01*
X144210288Y-143678210D01*
X144079185Y-143590609D01*
X144079172Y-143590602D01*
X143933501Y-143530264D01*
X143933489Y-143530261D01*
X143778845Y-143499500D01*
X143778842Y-143499500D01*
X143765892Y-143499500D01*
X128365892Y-143499500D01*
X128300000Y-143499500D01*
X128221158Y-143499500D01*
X128221155Y-143499500D01*
X128066510Y-143530261D01*
X128066498Y-143530264D01*
X127920827Y-143590602D01*
X127920814Y-143590609D01*
X127789711Y-143678210D01*
X127789707Y-143678213D01*
X127678213Y-143789707D01*
X127678210Y-143789711D01*
X127590609Y-143920814D01*
X127590602Y-143920827D01*
X127530264Y-144066498D01*
X127530261Y-144066510D01*
X127499500Y-144221153D01*
X127499500Y-153278846D01*
X127530261Y-153433489D01*
X127530264Y-153433501D01*
X127590602Y-153579172D01*
X127590609Y-153579185D01*
X127678210Y-153710288D01*
X127678213Y-153710292D01*
X127789707Y-153821786D01*
X127789711Y-153821789D01*
X127920814Y-153909390D01*
X127920827Y-153909397D01*
X128066498Y-153969735D01*
X128066503Y-153969737D01*
X128221153Y-154000499D01*
X128221156Y-154000500D01*
X128221158Y-154000500D01*
X128234108Y-154000500D01*
X129375500Y-154000500D01*
X129442539Y-154020185D01*
X129488294Y-154072989D01*
X129499500Y-154124500D01*
X129499500Y-166875500D01*
X129479815Y-166942539D01*
X129427011Y-166988294D01*
X129375500Y-166999500D01*
X128221155Y-166999500D01*
X128066510Y-167030261D01*
X128066498Y-167030264D01*
X127920827Y-167090602D01*
X127920814Y-167090609D01*
X127789711Y-167178210D01*
X127789707Y-167178213D01*
X127678213Y-167289707D01*
X127678210Y-167289711D01*
X127590609Y-167420814D01*
X127590602Y-167420827D01*
X127530264Y-167566498D01*
X127530261Y-167566510D01*
X127499500Y-167721153D01*
X127499500Y-176778846D01*
X125500499Y-176778846D01*
X125500500Y-176778842D01*
X125500500Y-176700000D01*
X125500500Y-176634108D01*
X125500500Y-163234108D01*
X125500500Y-163221158D01*
X125500500Y-163221155D01*
X125500499Y-163221153D01*
X125469738Y-163066510D01*
X125469737Y-163066503D01*
X125414645Y-162933497D01*
X125409397Y-162920827D01*
X125409390Y-162920814D01*
X125321789Y-162789711D01*
X125321786Y-162789707D01*
X125210292Y-162678213D01*
X125210288Y-162678210D01*
X125079185Y-162590609D01*
X125079172Y-162590602D01*
X124933501Y-162530264D01*
X124933489Y-162530261D01*
X124778845Y-162499500D01*
X124778842Y-162499500D01*
X124765892Y-162499500D01*
X111365892Y-162499500D01*
X111300000Y-162499500D01*
X111221158Y-162499500D01*
X111221155Y-162499500D01*
X111066510Y-162530261D01*
X111066498Y-162530264D01*
X110920827Y-162590602D01*
X110920814Y-162590609D01*
X110789711Y-162678210D01*
X110789707Y-162678213D01*
X110678213Y-162789707D01*
X110678210Y-162789711D01*
X110590609Y-162920814D01*
X110590602Y-162920827D01*
X110530264Y-163066498D01*
X110530261Y-163066510D01*
X110499500Y-163221153D01*
X110499500Y-176778846D01*
X106500499Y-176778846D01*
X106500500Y-176778842D01*
X106500500Y-176700000D01*
X106500500Y-176634108D01*
X106500500Y-161234108D01*
X106500500Y-161221158D01*
X106500500Y-161221155D01*
X106500499Y-161221153D01*
X106469738Y-161066510D01*
X106469737Y-161066503D01*
X106469735Y-161066498D01*
X106409397Y-160920827D01*
X106409390Y-160920814D01*
X106321789Y-160789711D01*
X106321786Y-160789707D01*
X106210292Y-160678213D01*
X106210288Y-160678210D01*
X106079185Y-160590609D01*
X106079172Y-160590602D01*
X105933501Y-160530264D01*
X105933489Y-160530261D01*
X105778845Y-160499500D01*
X105778842Y-160499500D01*
X105765892Y-160499500D01*
X96865892Y-160499500D01*
X96800000Y-160499500D01*
X96721158Y-160499500D01*
X96721155Y-160499500D01*
X96566510Y-160530261D01*
X96566498Y-160530264D01*
X96420827Y-160590602D01*
X96420814Y-160590609D01*
X96289711Y-160678210D01*
X96289707Y-160678213D01*
X96178213Y-160789707D01*
X96178210Y-160789711D01*
X96090609Y-160920814D01*
X96090602Y-160920827D01*
X96030264Y-161066498D01*
X96030261Y-161066510D01*
X95999500Y-161221153D01*
X95999500Y-162375500D01*
X95979815Y-162442539D01*
X95927011Y-162488294D01*
X95875500Y-162499500D01*
X83124500Y-162499500D01*
X83057461Y-162479815D01*
X83011706Y-162427011D01*
X83000500Y-162375500D01*
X83000500Y-161221155D01*
X83000499Y-161221153D01*
X82969738Y-161066510D01*
X82969737Y-161066503D01*
X82969735Y-161066498D01*
X82909397Y-160920827D01*
X82909390Y-160920814D01*
X82821789Y-160789711D01*
X82821786Y-160789707D01*
X82710292Y-160678213D01*
X82710288Y-160678210D01*
X82579185Y-160590609D01*
X82579172Y-160590602D01*
X82433501Y-160530264D01*
X82433489Y-160530261D01*
X82278845Y-160499500D01*
X82278842Y-160499500D01*
X82265892Y-160499500D01*
X73365892Y-160499500D01*
X73300000Y-160499500D01*
X73221158Y-160499500D01*
X73221155Y-160499500D01*
X73066510Y-160530261D01*
X73066498Y-160530264D01*
X72920827Y-160590602D01*
X72920814Y-160590609D01*
X72789711Y-160678210D01*
X72789707Y-160678213D01*
X72678213Y-160789707D01*
X72678210Y-160789711D01*
X72590609Y-160920814D01*
X72590602Y-160920827D01*
X72530264Y-161066498D01*
X72530261Y-161066510D01*
X72499500Y-161221153D01*
X72499500Y-176778846D01*
X70500500Y-176778846D01*
X70500500Y-157778846D01*
X72499500Y-157778846D01*
X72530261Y-157933489D01*
X72530264Y-157933501D01*
X72590602Y-158079172D01*
X72590609Y-158079185D01*
X72678210Y-158210288D01*
X72678213Y-158210292D01*
X72789707Y-158321786D01*
X72789711Y-158321789D01*
X72920814Y-158409390D01*
X72920827Y-158409397D01*
X73066498Y-158469735D01*
X73066503Y-158469737D01*
X73221153Y-158500499D01*
X73221156Y-158500500D01*
X73221158Y-158500500D01*
X86778844Y-158500500D01*
X86778845Y-158500499D01*
X86933497Y-158469737D01*
X87079179Y-158409394D01*
X87210289Y-158321789D01*
X87321789Y-158210289D01*
X87409394Y-158079179D01*
X87469737Y-157933497D01*
X87500499Y-157778846D01*
X91499500Y-157778846D01*
X91530261Y-157933489D01*
X91530264Y-157933501D01*
X91590602Y-158079172D01*
X91590609Y-158079185D01*
X91678210Y-158210288D01*
X91678213Y-158210292D01*
X91789707Y-158321786D01*
X91789711Y-158321789D01*
X91920814Y-158409390D01*
X91920827Y-158409397D01*
X92066498Y-158469735D01*
X92066503Y-158469737D01*
X92221153Y-158500499D01*
X92221156Y-158500500D01*
X92221158Y-158500500D01*
X105778844Y-158500500D01*
X105778845Y-158500499D01*
X105933497Y-158469737D01*
X106079179Y-158409394D01*
X106210289Y-158321789D01*
X106321789Y-158210289D01*
X106409394Y-158079179D01*
X106469737Y-157933497D01*
X106500499Y-157778846D01*
X110499500Y-157778846D01*
X110530261Y-157933489D01*
X110530264Y-157933501D01*
X110590602Y-158079172D01*
X110590609Y-158079185D01*
X110678210Y-158210288D01*
X110678213Y-158210292D01*
X110789707Y-158321786D01*
X110789711Y-158321789D01*
X110920814Y-158409390D01*
X110920827Y-158409397D01*
X111066498Y-158469735D01*
X111066503Y-158469737D01*
X111221153Y-158500499D01*
X111221156Y-158500500D01*
X111221158Y-158500500D01*
X124778844Y-158500500D01*
X124778845Y-158500499D01*
X124933497Y-158469737D01*
X125079179Y-158409394D01*
X125210289Y-158321789D01*
X125321789Y-158210289D01*
X125409394Y-158079179D01*
X125469737Y-157933497D01*
X125500500Y-157778842D01*
X125500500Y-157700000D01*
X125500500Y-157634108D01*
X125500500Y-144234108D01*
X125500500Y-144221158D01*
X125500500Y-144221155D01*
X125500499Y-144221153D01*
X125469738Y-144066510D01*
X125469737Y-144066503D01*
X125469735Y-144066498D01*
X125409397Y-143920827D01*
X125409390Y-143920814D01*
X125321789Y-143789711D01*
X125321786Y-143789707D01*
X125210292Y-143678213D01*
X125210288Y-143678210D01*
X125079185Y-143590609D01*
X125079172Y-143590602D01*
X124933501Y-143530264D01*
X124933489Y-143530261D01*
X124778845Y-143499500D01*
X124778842Y-143499500D01*
X124765892Y-143499500D01*
X111365892Y-143499500D01*
X111300000Y-143499500D01*
X111221158Y-143499500D01*
X111221155Y-143499500D01*
X111066510Y-143530261D01*
X111066498Y-143530264D01*
X110920827Y-143590602D01*
X110920814Y-143590609D01*
X110789711Y-143678210D01*
X110789707Y-143678213D01*
X110678213Y-143789707D01*
X110678210Y-143789711D01*
X110590609Y-143920814D01*
X110590602Y-143920827D01*
X110530264Y-144066498D01*
X110530261Y-144066510D01*
X110499500Y-144221153D01*
X110499500Y-157778846D01*
X106500499Y-157778846D01*
X106500500Y-157778842D01*
X106500500Y-157700000D01*
X106500500Y-157634108D01*
X106500500Y-144234108D01*
X106500500Y-144221158D01*
X106500500Y-144221155D01*
X106500499Y-144221153D01*
X106469738Y-144066510D01*
X106469737Y-144066503D01*
X106469735Y-144066498D01*
X106409397Y-143920827D01*
X106409390Y-143920814D01*
X106321789Y-143789711D01*
X106321786Y-143789707D01*
X106210292Y-143678213D01*
X106210288Y-143678210D01*
X106079185Y-143590609D01*
X106079172Y-143590602D01*
X105933501Y-143530264D01*
X105933489Y-143530261D01*
X105778845Y-143499500D01*
X105778842Y-143499500D01*
X105765892Y-143499500D01*
X92365892Y-143499500D01*
X92300000Y-143499500D01*
X92221158Y-143499500D01*
X92221155Y-143499500D01*
X92066510Y-143530261D01*
X92066498Y-143530264D01*
X91920827Y-143590602D01*
X91920814Y-143590609D01*
X91789711Y-143678210D01*
X91789707Y-143678213D01*
X91678213Y-143789707D01*
X91678210Y-143789711D01*
X91590609Y-143920814D01*
X91590602Y-143920827D01*
X91530264Y-144066498D01*
X91530261Y-144066510D01*
X91499500Y-144221153D01*
X91499500Y-157778846D01*
X87500499Y-157778846D01*
X87500500Y-157778842D01*
X87500500Y-157700000D01*
X87500500Y-157634108D01*
X87500500Y-144234108D01*
X87500500Y-144221158D01*
X87500500Y-144221155D01*
X87500499Y-144221153D01*
X87469738Y-144066510D01*
X87469737Y-144066503D01*
X87469735Y-144066498D01*
X87409397Y-143920827D01*
X87409390Y-143920814D01*
X87321789Y-143789711D01*
X87321786Y-143789707D01*
X87210292Y-143678213D01*
X87210288Y-143678210D01*
X87079185Y-143590609D01*
X87079172Y-143590602D01*
X86933501Y-143530264D01*
X86933489Y-143530261D01*
X86778845Y-143499500D01*
X86778842Y-143499500D01*
X86765892Y-143499500D01*
X73365892Y-143499500D01*
X73300000Y-143499500D01*
X73221158Y-143499500D01*
X73221155Y-143499500D01*
X73066510Y-143530261D01*
X73066498Y-143530264D01*
X72920827Y-143590602D01*
X72920814Y-143590609D01*
X72789711Y-143678210D01*
X72789707Y-143678213D01*
X72678213Y-143789707D01*
X72678210Y-143789711D01*
X72590609Y-143920814D01*
X72590602Y-143920827D01*
X72530264Y-144066498D01*
X72530261Y-144066510D01*
X72499500Y-144221153D01*
X72499500Y-157778846D01*
X70500500Y-157778846D01*
X70500500Y-141625961D01*
X87899500Y-141625961D01*
X87938910Y-141874785D01*
X88016760Y-142114383D01*
X88131132Y-142338848D01*
X88279201Y-142542649D01*
X88279205Y-142542654D01*
X88457345Y-142720794D01*
X88457350Y-142720798D01*
X88635117Y-142849952D01*
X88661155Y-142868870D01*
X88804184Y-142941747D01*
X88885616Y-142983239D01*
X88885618Y-142983239D01*
X88885621Y-142983241D01*
X89125215Y-143061090D01*
X89374038Y-143100500D01*
X89374039Y-143100500D01*
X89625961Y-143100500D01*
X89625962Y-143100500D01*
X89874785Y-143061090D01*
X90114379Y-142983241D01*
X90338845Y-142868870D01*
X90542656Y-142720793D01*
X90720793Y-142542656D01*
X90868870Y-142338845D01*
X90983241Y-142114379D01*
X91061090Y-141874785D01*
X91100500Y-141625962D01*
X91100500Y-141625961D01*
X125899500Y-141625961D01*
X125938910Y-141874785D01*
X126016760Y-142114383D01*
X126131132Y-142338848D01*
X126279201Y-142542649D01*
X126279205Y-142542654D01*
X126457345Y-142720794D01*
X126457350Y-142720798D01*
X126635117Y-142849952D01*
X126661155Y-142868870D01*
X126804184Y-142941747D01*
X126885616Y-142983239D01*
X126885618Y-142983239D01*
X126885621Y-142983241D01*
X127125215Y-143061090D01*
X127374038Y-143100500D01*
X127374039Y-143100500D01*
X127625961Y-143100500D01*
X127625962Y-143100500D01*
X127874785Y-143061090D01*
X128114379Y-142983241D01*
X128338845Y-142868870D01*
X128542656Y-142720793D01*
X128720793Y-142542656D01*
X128868870Y-142338845D01*
X128983241Y-142114379D01*
X129061090Y-141874785D01*
X129100500Y-141625962D01*
X129100500Y-141374038D01*
X129061090Y-141125215D01*
X128983241Y-140885621D01*
X128983239Y-140885618D01*
X128983239Y-140885616D01*
X128941747Y-140804184D01*
X128868870Y-140661155D01*
X128849952Y-140635117D01*
X128720798Y-140457350D01*
X128720794Y-140457345D01*
X128542654Y-140279205D01*
X128542649Y-140279201D01*
X128338848Y-140131132D01*
X128338847Y-140131131D01*
X128338845Y-140131130D01*
X128268747Y-140095413D01*
X128114383Y-140016760D01*
X127874785Y-139938910D01*
X127625962Y-139899500D01*
X127374038Y-139899500D01*
X127249626Y-139919205D01*
X127125214Y-139938910D01*
X126885616Y-140016760D01*
X126661151Y-140131132D01*
X126457350Y-140279201D01*
X126457345Y-140279205D01*
X126279205Y-140457345D01*
X126279201Y-140457350D01*
X126131132Y-140661151D01*
X126016760Y-140885616D01*
X125938910Y-141125214D01*
X125899500Y-141374038D01*
X125899500Y-141625961D01*
X91100500Y-141625961D01*
X91100500Y-141374038D01*
X91061090Y-141125215D01*
X90983241Y-140885621D01*
X90983239Y-140885618D01*
X90983239Y-140885616D01*
X90941747Y-140804184D01*
X90868870Y-140661155D01*
X90849952Y-140635117D01*
X90720798Y-140457350D01*
X90720794Y-140457345D01*
X90542654Y-140279205D01*
X90542649Y-140279201D01*
X90338848Y-140131132D01*
X90338847Y-140131131D01*
X90338845Y-140131130D01*
X90268747Y-140095413D01*
X90114383Y-140016760D01*
X89874785Y-139938910D01*
X89625962Y-139899500D01*
X89374038Y-139899500D01*
X89249626Y-139919205D01*
X89125214Y-139938910D01*
X88885616Y-140016760D01*
X88661151Y-140131132D01*
X88457350Y-140279201D01*
X88457345Y-140279205D01*
X88279205Y-140457345D01*
X88279201Y-140457350D01*
X88131132Y-140661151D01*
X88016760Y-140885616D01*
X87938910Y-141125214D01*
X87899500Y-141374038D01*
X87899500Y-141625961D01*
X70500500Y-141625961D01*
X70500500Y-138778846D01*
X72499500Y-138778846D01*
X72530261Y-138933489D01*
X72530264Y-138933501D01*
X72590602Y-139079172D01*
X72590609Y-139079185D01*
X72678210Y-139210288D01*
X72678213Y-139210292D01*
X72789707Y-139321786D01*
X72789711Y-139321789D01*
X72920814Y-139409390D01*
X72920827Y-139409397D01*
X73066498Y-139469735D01*
X73066503Y-139469737D01*
X73221153Y-139500499D01*
X73221156Y-139500500D01*
X73221158Y-139500500D01*
X86778844Y-139500500D01*
X86778845Y-139500499D01*
X86933497Y-139469737D01*
X87079179Y-139409394D01*
X87210289Y-139321789D01*
X87321789Y-139210289D01*
X87409394Y-139079179D01*
X87469737Y-138933497D01*
X87500499Y-138778846D01*
X91499500Y-138778846D01*
X91530261Y-138933489D01*
X91530264Y-138933501D01*
X91590602Y-139079172D01*
X91590609Y-139079185D01*
X91678210Y-139210288D01*
X91678213Y-139210292D01*
X91789707Y-139321786D01*
X91789711Y-139321789D01*
X91920814Y-139409390D01*
X91920827Y-139409397D01*
X92066498Y-139469735D01*
X92066503Y-139469737D01*
X92221153Y-139500499D01*
X92221156Y-139500500D01*
X92221158Y-139500500D01*
X105778844Y-139500500D01*
X105778845Y-139500499D01*
X105933497Y-139469737D01*
X106079179Y-139409394D01*
X106210289Y-139321789D01*
X106321789Y-139210289D01*
X106409394Y-139079179D01*
X106469737Y-138933497D01*
X106500499Y-138778846D01*
X110499500Y-138778846D01*
X110530261Y-138933489D01*
X110530264Y-138933501D01*
X110590602Y-139079172D01*
X110590609Y-139079185D01*
X110678210Y-139210288D01*
X110678213Y-139210292D01*
X110789707Y-139321786D01*
X110789711Y-139321789D01*
X110920814Y-139409390D01*
X110920827Y-139409397D01*
X111066498Y-139469735D01*
X111066503Y-139469737D01*
X111221153Y-139500499D01*
X111221156Y-139500500D01*
X111221158Y-139500500D01*
X124778844Y-139500500D01*
X124778845Y-139500499D01*
X124933497Y-139469737D01*
X125079179Y-139409394D01*
X125210289Y-139321789D01*
X125321789Y-139210289D01*
X125409394Y-139079179D01*
X125469737Y-138933497D01*
X125500499Y-138778846D01*
X127499500Y-138778846D01*
X127530261Y-138933489D01*
X127530264Y-138933501D01*
X127590602Y-139079172D01*
X127590609Y-139079185D01*
X127678210Y-139210288D01*
X127678213Y-139210292D01*
X127789707Y-139321786D01*
X127789711Y-139321789D01*
X127920814Y-139409390D01*
X127920827Y-139409397D01*
X128066498Y-139469735D01*
X128066503Y-139469737D01*
X128221153Y-139500499D01*
X128221156Y-139500500D01*
X128221158Y-139500500D01*
X143778844Y-139500500D01*
X143778845Y-139500499D01*
X143933497Y-139469737D01*
X144079179Y-139409394D01*
X144210289Y-139321789D01*
X144321789Y-139210289D01*
X144409394Y-139079179D01*
X144469737Y-138933497D01*
X144500500Y-138778842D01*
X144500500Y-138700000D01*
X144500500Y-138634108D01*
X144500500Y-106234108D01*
X144500500Y-106221158D01*
X144500500Y-106221155D01*
X144500499Y-106221153D01*
X144469738Y-106066510D01*
X144469737Y-106066503D01*
X144469735Y-106066498D01*
X144409397Y-105920827D01*
X144409390Y-105920814D01*
X144321789Y-105789711D01*
X144321786Y-105789707D01*
X144210292Y-105678213D01*
X144210288Y-105678210D01*
X144079185Y-105590609D01*
X144079172Y-105590602D01*
X143933501Y-105530264D01*
X143933489Y-105530261D01*
X143778845Y-105499500D01*
X143778842Y-105499500D01*
X143765892Y-105499500D01*
X128365892Y-105499500D01*
X128300000Y-105499500D01*
X128221158Y-105499500D01*
X128221155Y-105499500D01*
X128066510Y-105530261D01*
X128066498Y-105530264D01*
X127920827Y-105590602D01*
X127920814Y-105590609D01*
X127789711Y-105678210D01*
X127789707Y-105678213D01*
X127678213Y-105789707D01*
X127678210Y-105789711D01*
X127590609Y-105920814D01*
X127590602Y-105920827D01*
X127530264Y-106066498D01*
X127530261Y-106066510D01*
X127499500Y-106221153D01*
X127499500Y-115278846D01*
X127530261Y-115433489D01*
X127530264Y-115433501D01*
X127590602Y-115579172D01*
X127590609Y-115579185D01*
X127678210Y-115710288D01*
X127678213Y-115710292D01*
X127789707Y-115821786D01*
X127789711Y-115821789D01*
X127920814Y-115909390D01*
X127920827Y-115909397D01*
X128066498Y-115969735D01*
X128066503Y-115969737D01*
X128221153Y-116000499D01*
X128221156Y-116000500D01*
X128221158Y-116000500D01*
X128234108Y-116000500D01*
X129375500Y-116000500D01*
X129442539Y-116020185D01*
X129488294Y-116072989D01*
X129499500Y-116124500D01*
X129499500Y-128875500D01*
X129479815Y-128942539D01*
X129427011Y-128988294D01*
X129375500Y-128999500D01*
X128221155Y-128999500D01*
X128066510Y-129030261D01*
X128066498Y-129030264D01*
X127920827Y-129090602D01*
X127920814Y-129090609D01*
X127789711Y-129178210D01*
X127789707Y-129178213D01*
X127678213Y-129289707D01*
X127678210Y-129289711D01*
X127590609Y-129420814D01*
X127590602Y-129420827D01*
X127530264Y-129566498D01*
X127530261Y-129566510D01*
X127499500Y-129721153D01*
X127499500Y-138778846D01*
X125500499Y-138778846D01*
X125500500Y-138778842D01*
X125500500Y-138700000D01*
X125500500Y-138634108D01*
X125500500Y-125234108D01*
X125500500Y-125221158D01*
X125500500Y-125221155D01*
X125500499Y-125221153D01*
X125469738Y-125066510D01*
X125469737Y-125066503D01*
X125469735Y-125066498D01*
X125409397Y-124920827D01*
X125409390Y-124920814D01*
X125321789Y-124789711D01*
X125321786Y-124789707D01*
X125210292Y-124678213D01*
X125210288Y-124678210D01*
X125079185Y-124590609D01*
X125079172Y-124590602D01*
X124933501Y-124530264D01*
X124933489Y-124530261D01*
X124778845Y-124499500D01*
X124778842Y-124499500D01*
X124765892Y-124499500D01*
X111365892Y-124499500D01*
X111300000Y-124499500D01*
X111221158Y-124499500D01*
X111221155Y-124499500D01*
X111066510Y-124530261D01*
X111066498Y-124530264D01*
X110920827Y-124590602D01*
X110920814Y-124590609D01*
X110789711Y-124678210D01*
X110789707Y-124678213D01*
X110678213Y-124789707D01*
X110678210Y-124789711D01*
X110590609Y-124920814D01*
X110590602Y-124920827D01*
X110530264Y-125066498D01*
X110530261Y-125066510D01*
X110499500Y-125221153D01*
X110499500Y-138778846D01*
X106500499Y-138778846D01*
X106500500Y-138778842D01*
X106500500Y-138700000D01*
X106500500Y-138634108D01*
X106500500Y-125234108D01*
X106500500Y-125221158D01*
X106500500Y-125221155D01*
X106500499Y-125221153D01*
X106469738Y-125066510D01*
X106469737Y-125066503D01*
X106469735Y-125066498D01*
X106409397Y-124920827D01*
X106409390Y-124920814D01*
X106321789Y-124789711D01*
X106321786Y-124789707D01*
X106210292Y-124678213D01*
X106210288Y-124678210D01*
X106079185Y-124590609D01*
X106079172Y-124590602D01*
X105933501Y-124530264D01*
X105933489Y-124530261D01*
X105778845Y-124499500D01*
X105778842Y-124499500D01*
X105765892Y-124499500D01*
X92365892Y-124499500D01*
X92300000Y-124499500D01*
X92221158Y-124499500D01*
X92221155Y-124499500D01*
X92066510Y-124530261D01*
X92066498Y-124530264D01*
X91920827Y-124590602D01*
X91920814Y-124590609D01*
X91789711Y-124678210D01*
X91789707Y-124678213D01*
X91678213Y-124789707D01*
X91678210Y-124789711D01*
X91590609Y-124920814D01*
X91590602Y-124920827D01*
X91530264Y-125066498D01*
X91530261Y-125066510D01*
X91499500Y-125221153D01*
X91499500Y-138778846D01*
X87500499Y-138778846D01*
X87500500Y-138778842D01*
X87500500Y-138700000D01*
X87500500Y-138634108D01*
X87500500Y-125234108D01*
X87500500Y-125221158D01*
X87500500Y-125221155D01*
X87500499Y-125221153D01*
X87469738Y-125066510D01*
X87469737Y-125066503D01*
X87469735Y-125066498D01*
X87409397Y-124920827D01*
X87409390Y-124920814D01*
X87321789Y-124789711D01*
X87321786Y-124789707D01*
X87210292Y-124678213D01*
X87210288Y-124678210D01*
X87079185Y-124590609D01*
X87079172Y-124590602D01*
X86933501Y-124530264D01*
X86933489Y-124530261D01*
X86778845Y-124499500D01*
X86778842Y-124499500D01*
X86765892Y-124499500D01*
X73365892Y-124499500D01*
X73300000Y-124499500D01*
X73221158Y-124499500D01*
X73221155Y-124499500D01*
X73066510Y-124530261D01*
X73066498Y-124530264D01*
X72920827Y-124590602D01*
X72920814Y-124590609D01*
X72789711Y-124678210D01*
X72789707Y-124678213D01*
X72678213Y-124789707D01*
X72678210Y-124789711D01*
X72590609Y-124920814D01*
X72590602Y-124920827D01*
X72530264Y-125066498D01*
X72530261Y-125066510D01*
X72499500Y-125221153D01*
X72499500Y-138778846D01*
X70500500Y-138778846D01*
X70500500Y-119778846D01*
X72499500Y-119778846D01*
X72530261Y-119933489D01*
X72530264Y-119933501D01*
X72590602Y-120079172D01*
X72590609Y-120079185D01*
X72678210Y-120210288D01*
X72678213Y-120210292D01*
X72789707Y-120321786D01*
X72789711Y-120321789D01*
X72920814Y-120409390D01*
X72920827Y-120409397D01*
X73066498Y-120469735D01*
X73066503Y-120469737D01*
X73221153Y-120500499D01*
X73221156Y-120500500D01*
X73221158Y-120500500D01*
X86778844Y-120500500D01*
X86778845Y-120500499D01*
X86933497Y-120469737D01*
X87079179Y-120409394D01*
X87210289Y-120321789D01*
X87321789Y-120210289D01*
X87409394Y-120079179D01*
X87469737Y-119933497D01*
X87500499Y-119778846D01*
X91499500Y-119778846D01*
X91530261Y-119933489D01*
X91530264Y-119933501D01*
X91590602Y-120079172D01*
X91590609Y-120079185D01*
X91678210Y-120210288D01*
X91678213Y-120210292D01*
X91789707Y-120321786D01*
X91789711Y-120321789D01*
X91920814Y-120409390D01*
X91920827Y-120409397D01*
X92066498Y-120469735D01*
X92066503Y-120469737D01*
X92221153Y-120500499D01*
X92221156Y-120500500D01*
X92221158Y-120500500D01*
X105778844Y-120500500D01*
X105778845Y-120500499D01*
X105933497Y-120469737D01*
X106079179Y-120409394D01*
X106210289Y-120321789D01*
X106321789Y-120210289D01*
X106409394Y-120079179D01*
X106469737Y-119933497D01*
X106500499Y-119778846D01*
X110499500Y-119778846D01*
X110530261Y-119933489D01*
X110530264Y-119933501D01*
X110590602Y-120079172D01*
X110590609Y-120079185D01*
X110678210Y-120210288D01*
X110678213Y-120210292D01*
X110789707Y-120321786D01*
X110789711Y-120321789D01*
X110920814Y-120409390D01*
X110920827Y-120409397D01*
X111066498Y-120469735D01*
X111066503Y-120469737D01*
X111221153Y-120500499D01*
X111221156Y-120500500D01*
X111221158Y-120500500D01*
X124778844Y-120500500D01*
X124778845Y-120500499D01*
X124933497Y-120469737D01*
X125079179Y-120409394D01*
X125210289Y-120321789D01*
X125321789Y-120210289D01*
X125409394Y-120079179D01*
X125469737Y-119933497D01*
X125500500Y-119778842D01*
X125500500Y-119700000D01*
X125500500Y-119634108D01*
X125500500Y-106234108D01*
X125500500Y-106221158D01*
X125500500Y-106221155D01*
X125500499Y-106221153D01*
X125469738Y-106066510D01*
X125469737Y-106066503D01*
X125469735Y-106066498D01*
X125409397Y-105920827D01*
X125409390Y-105920814D01*
X125321789Y-105789711D01*
X125321786Y-105789707D01*
X125210292Y-105678213D01*
X125210288Y-105678210D01*
X125079185Y-105590609D01*
X125079172Y-105590602D01*
X124933501Y-105530264D01*
X124933489Y-105530261D01*
X124778845Y-105499500D01*
X124778842Y-105499500D01*
X124765892Y-105499500D01*
X111365892Y-105499500D01*
X111300000Y-105499500D01*
X111221158Y-105499500D01*
X111221155Y-105499500D01*
X111066510Y-105530261D01*
X111066498Y-105530264D01*
X110920827Y-105590602D01*
X110920814Y-105590609D01*
X110789711Y-105678210D01*
X110789707Y-105678213D01*
X110678213Y-105789707D01*
X110678210Y-105789711D01*
X110590609Y-105920814D01*
X110590602Y-105920827D01*
X110530264Y-106066498D01*
X110530261Y-106066510D01*
X110499500Y-106221153D01*
X110499500Y-119778846D01*
X106500499Y-119778846D01*
X106500500Y-119778842D01*
X106500500Y-119700000D01*
X106500500Y-119634108D01*
X106500500Y-106234108D01*
X106500500Y-106221158D01*
X106500500Y-106221155D01*
X106500499Y-106221153D01*
X106469738Y-106066510D01*
X106469737Y-106066503D01*
X106469735Y-106066498D01*
X106409397Y-105920827D01*
X106409390Y-105920814D01*
X106321789Y-105789711D01*
X106321786Y-105789707D01*
X106210292Y-105678213D01*
X106210288Y-105678210D01*
X106079185Y-105590609D01*
X106079172Y-105590602D01*
X105933501Y-105530264D01*
X105933489Y-105530261D01*
X105778845Y-105499500D01*
X105778842Y-105499500D01*
X105765892Y-105499500D01*
X92365892Y-105499500D01*
X92300000Y-105499500D01*
X92221158Y-105499500D01*
X92221155Y-105499500D01*
X92066510Y-105530261D01*
X92066498Y-105530264D01*
X91920827Y-105590602D01*
X91920814Y-105590609D01*
X91789711Y-105678210D01*
X91789707Y-105678213D01*
X91678213Y-105789707D01*
X91678210Y-105789711D01*
X91590609Y-105920814D01*
X91590602Y-105920827D01*
X91530264Y-106066498D01*
X91530261Y-106066510D01*
X91499500Y-106221153D01*
X91499500Y-119778846D01*
X87500499Y-119778846D01*
X87500500Y-119778842D01*
X87500500Y-119700000D01*
X87500500Y-119634108D01*
X87500500Y-106234108D01*
X87500500Y-106221158D01*
X87500500Y-106221155D01*
X87500499Y-106221153D01*
X87469738Y-106066510D01*
X87469737Y-106066503D01*
X87469735Y-106066498D01*
X87409397Y-105920827D01*
X87409390Y-105920814D01*
X87321789Y-105789711D01*
X87321786Y-105789707D01*
X87210292Y-105678213D01*
X87210288Y-105678210D01*
X87079185Y-105590609D01*
X87079172Y-105590602D01*
X86933501Y-105530264D01*
X86933489Y-105530261D01*
X86778845Y-105499500D01*
X86778842Y-105499500D01*
X86765892Y-105499500D01*
X73365892Y-105499500D01*
X73300000Y-105499500D01*
X73221158Y-105499500D01*
X73221155Y-105499500D01*
X73066510Y-105530261D01*
X73066498Y-105530264D01*
X72920827Y-105590602D01*
X72920814Y-105590609D01*
X72789711Y-105678210D01*
X72789707Y-105678213D01*
X72678213Y-105789707D01*
X72678210Y-105789711D01*
X72590609Y-105920814D01*
X72590602Y-105920827D01*
X72530264Y-106066498D01*
X72530261Y-106066510D01*
X72499500Y-106221153D01*
X72499500Y-119778846D01*
X70500500Y-119778846D01*
X70500500Y-103625961D01*
X87899500Y-103625961D01*
X87938910Y-103874785D01*
X88016760Y-104114383D01*
X88131132Y-104338848D01*
X88279201Y-104542649D01*
X88279205Y-104542654D01*
X88457345Y-104720794D01*
X88457350Y-104720798D01*
X88635117Y-104849952D01*
X88661155Y-104868870D01*
X88804184Y-104941747D01*
X88885616Y-104983239D01*
X88885618Y-104983239D01*
X88885621Y-104983241D01*
X89125215Y-105061090D01*
X89374038Y-105100500D01*
X89374039Y-105100500D01*
X89625961Y-105100500D01*
X89625962Y-105100500D01*
X89874785Y-105061090D01*
X90114379Y-104983241D01*
X90338845Y-104868870D01*
X90542656Y-104720793D01*
X90720793Y-104542656D01*
X90868870Y-104338845D01*
X90983241Y-104114379D01*
X91061090Y-103874785D01*
X91100500Y-103625962D01*
X91100500Y-103625961D01*
X125899500Y-103625961D01*
X125938910Y-103874785D01*
X126016760Y-104114383D01*
X126131132Y-104338848D01*
X126279201Y-104542649D01*
X126279205Y-104542654D01*
X126457345Y-104720794D01*
X126457350Y-104720798D01*
X126635117Y-104849952D01*
X126661155Y-104868870D01*
X126804184Y-104941747D01*
X126885616Y-104983239D01*
X126885618Y-104983239D01*
X126885621Y-104983241D01*
X127125215Y-105061090D01*
X127374038Y-105100500D01*
X127374039Y-105100500D01*
X127625961Y-105100500D01*
X127625962Y-105100500D01*
X127874785Y-105061090D01*
X128114379Y-104983241D01*
X128338845Y-104868870D01*
X128542656Y-104720793D01*
X128720793Y-104542656D01*
X128868870Y-104338845D01*
X128983241Y-104114379D01*
X129061090Y-103874785D01*
X129100500Y-103625962D01*
X129100500Y-103374038D01*
X129061090Y-103125215D01*
X128983241Y-102885621D01*
X128983239Y-102885618D01*
X128983239Y-102885616D01*
X128941747Y-102804184D01*
X128868870Y-102661155D01*
X128849952Y-102635117D01*
X128720798Y-102457350D01*
X128720794Y-102457345D01*
X128542654Y-102279205D01*
X128542649Y-102279201D01*
X128338848Y-102131132D01*
X128338847Y-102131131D01*
X128338845Y-102131130D01*
X128268747Y-102095413D01*
X128114383Y-102016760D01*
X127874785Y-101938910D01*
X127625962Y-101899500D01*
X127374038Y-101899500D01*
X127249626Y-101919205D01*
X127125214Y-101938910D01*
X126885616Y-102016760D01*
X126661151Y-102131132D01*
X126457350Y-102279201D01*
X126457345Y-102279205D01*
X126279205Y-102457345D01*
X126279201Y-102457350D01*
X126131132Y-102661151D01*
X126016760Y-102885616D01*
X125938910Y-103125214D01*
X125899500Y-103374038D01*
X125899500Y-103625961D01*
X91100500Y-103625961D01*
X91100500Y-103374038D01*
X91061090Y-103125215D01*
X90983241Y-102885621D01*
X90983239Y-102885618D01*
X90983239Y-102885616D01*
X90941747Y-102804184D01*
X90868870Y-102661155D01*
X90849952Y-102635117D01*
X90720798Y-102457350D01*
X90720794Y-102457345D01*
X90542654Y-102279205D01*
X90542649Y-102279201D01*
X90338848Y-102131132D01*
X90338847Y-102131131D01*
X90338845Y-102131130D01*
X90268747Y-102095413D01*
X90114383Y-102016760D01*
X89874785Y-101938910D01*
X89625962Y-101899500D01*
X89374038Y-101899500D01*
X89249626Y-101919205D01*
X89125214Y-101938910D01*
X88885616Y-102016760D01*
X88661151Y-102131132D01*
X88457350Y-102279201D01*
X88457345Y-102279205D01*
X88279205Y-102457345D01*
X88279201Y-102457350D01*
X88131132Y-102661151D01*
X88016760Y-102885616D01*
X87938910Y-103125214D01*
X87899500Y-103374038D01*
X87899500Y-103625961D01*
X70500500Y-103625961D01*
X70500500Y-100778846D01*
X72499500Y-100778846D01*
X72530261Y-100933489D01*
X72530264Y-100933501D01*
X72590602Y-101079172D01*
X72590609Y-101079185D01*
X72678210Y-101210288D01*
X72678213Y-101210292D01*
X72789707Y-101321786D01*
X72789711Y-101321789D01*
X72920814Y-101409390D01*
X72920827Y-101409397D01*
X73066498Y-101469735D01*
X73066503Y-101469737D01*
X73221153Y-101500499D01*
X73221156Y-101500500D01*
X73221158Y-101500500D01*
X86778844Y-101500500D01*
X86778845Y-101500499D01*
X86933497Y-101469737D01*
X87079179Y-101409394D01*
X87210289Y-101321789D01*
X87321789Y-101210289D01*
X87409394Y-101079179D01*
X87469737Y-100933497D01*
X87500499Y-100778846D01*
X91499500Y-100778846D01*
X91530261Y-100933489D01*
X91530264Y-100933501D01*
X91590602Y-101079172D01*
X91590609Y-101079185D01*
X91678210Y-101210288D01*
X91678213Y-101210292D01*
X91789707Y-101321786D01*
X91789711Y-101321789D01*
X91920814Y-101409390D01*
X91920827Y-101409397D01*
X92066498Y-101469735D01*
X92066503Y-101469737D01*
X92221153Y-101500499D01*
X92221156Y-101500500D01*
X92221158Y-101500500D01*
X105778844Y-101500500D01*
X105778845Y-101500499D01*
X105933497Y-101469737D01*
X106079179Y-101409394D01*
X106210289Y-101321789D01*
X106321789Y-101210289D01*
X106409394Y-101079179D01*
X106469737Y-100933497D01*
X106500499Y-100778846D01*
X110499500Y-100778846D01*
X110530261Y-100933489D01*
X110530264Y-100933501D01*
X110590602Y-101079172D01*
X110590609Y-101079185D01*
X110678210Y-101210288D01*
X110678213Y-101210292D01*
X110789707Y-101321786D01*
X110789711Y-101321789D01*
X110920814Y-101409390D01*
X110920827Y-101409397D01*
X111066498Y-101469735D01*
X111066503Y-101469737D01*
X111221153Y-101500499D01*
X111221156Y-101500500D01*
X111221158Y-101500500D01*
X124778844Y-101500500D01*
X124778845Y-101500499D01*
X124933497Y-101469737D01*
X125079179Y-101409394D01*
X125210289Y-101321789D01*
X125321789Y-101210289D01*
X125409394Y-101079179D01*
X125469737Y-100933497D01*
X125500499Y-100778846D01*
X129499500Y-100778846D01*
X129530261Y-100933489D01*
X129530264Y-100933501D01*
X129590602Y-101079172D01*
X129590609Y-101079185D01*
X129678210Y-101210288D01*
X129678213Y-101210292D01*
X129789707Y-101321786D01*
X129789711Y-101321789D01*
X129920814Y-101409390D01*
X129920827Y-101409397D01*
X130066498Y-101469735D01*
X130066503Y-101469737D01*
X130221153Y-101500499D01*
X130221156Y-101500500D01*
X130221158Y-101500500D01*
X143778844Y-101500500D01*
X143778845Y-101500499D01*
X143933497Y-101469737D01*
X144079179Y-101409394D01*
X144210289Y-101321789D01*
X144321789Y-101210289D01*
X144409394Y-101079179D01*
X144469737Y-100933497D01*
X144500500Y-100778842D01*
X144500500Y-100700000D01*
X144500500Y-100634108D01*
X144500500Y-87234108D01*
X144500500Y-87221158D01*
X144500500Y-87221155D01*
X144500499Y-87221153D01*
X144469738Y-87066510D01*
X144469737Y-87066503D01*
X144469735Y-87066498D01*
X144409397Y-86920827D01*
X144409390Y-86920814D01*
X144321789Y-86789711D01*
X144321786Y-86789707D01*
X144210292Y-86678213D01*
X144210288Y-86678210D01*
X144079185Y-86590609D01*
X144079172Y-86590602D01*
X143933501Y-86530264D01*
X143933489Y-86530261D01*
X143778845Y-86499500D01*
X143778842Y-86499500D01*
X143765892Y-86499500D01*
X130365892Y-86499500D01*
X130300000Y-86499500D01*
X130221158Y-86499500D01*
X130221155Y-86499500D01*
X130066510Y-86530261D01*
X130066498Y-86530264D01*
X129920827Y-86590602D01*
X129920814Y-86590609D01*
X129789711Y-86678210D01*
X129789707Y-86678213D01*
X129678213Y-86789707D01*
X129678210Y-86789711D01*
X129590609Y-86920814D01*
X129590602Y-86920827D01*
X129530264Y-87066498D01*
X129530261Y-87066510D01*
X129499500Y-87221153D01*
X129499500Y-100778846D01*
X125500499Y-100778846D01*
X125500500Y-100778842D01*
X125500500Y-100700000D01*
X125500500Y-100634108D01*
X125500500Y-87234108D01*
X125500500Y-87221158D01*
X125500500Y-87221155D01*
X125500499Y-87221153D01*
X125469738Y-87066510D01*
X125469737Y-87066503D01*
X125469735Y-87066498D01*
X125409397Y-86920827D01*
X125409390Y-86920814D01*
X125321789Y-86789711D01*
X125321786Y-86789707D01*
X125210292Y-86678213D01*
X125210288Y-86678210D01*
X125079185Y-86590609D01*
X125079172Y-86590602D01*
X124933501Y-86530264D01*
X124933489Y-86530261D01*
X124778845Y-86499500D01*
X124778842Y-86499500D01*
X124765892Y-86499500D01*
X111365892Y-86499500D01*
X111300000Y-86499500D01*
X111221158Y-86499500D01*
X111221155Y-86499500D01*
X111066510Y-86530261D01*
X111066498Y-86530264D01*
X110920827Y-86590602D01*
X110920814Y-86590609D01*
X110789711Y-86678210D01*
X110789707Y-86678213D01*
X110678213Y-86789707D01*
X110678210Y-86789711D01*
X110590609Y-86920814D01*
X110590602Y-86920827D01*
X110530264Y-87066498D01*
X110530261Y-87066510D01*
X110499500Y-87221153D01*
X110499500Y-100778846D01*
X106500499Y-100778846D01*
X106500500Y-100778842D01*
X106500500Y-100700000D01*
X106500500Y-100634108D01*
X106500500Y-87234108D01*
X106500500Y-87221158D01*
X106500500Y-87221155D01*
X106500499Y-87221153D01*
X106469738Y-87066510D01*
X106469737Y-87066503D01*
X106469735Y-87066498D01*
X106409397Y-86920827D01*
X106409390Y-86920814D01*
X106321789Y-86789711D01*
X106321786Y-86789707D01*
X106210292Y-86678213D01*
X106210288Y-86678210D01*
X106079185Y-86590609D01*
X106079172Y-86590602D01*
X105933501Y-86530264D01*
X105933489Y-86530261D01*
X105778845Y-86499500D01*
X105778842Y-86499500D01*
X105765892Y-86499500D01*
X92365892Y-86499500D01*
X92300000Y-86499500D01*
X92221158Y-86499500D01*
X92221155Y-86499500D01*
X92066510Y-86530261D01*
X92066498Y-86530264D01*
X91920827Y-86590602D01*
X91920814Y-86590609D01*
X91789711Y-86678210D01*
X91789707Y-86678213D01*
X91678213Y-86789707D01*
X91678210Y-86789711D01*
X91590609Y-86920814D01*
X91590602Y-86920827D01*
X91530264Y-87066498D01*
X91530261Y-87066510D01*
X91499500Y-87221153D01*
X91499500Y-100778846D01*
X87500499Y-100778846D01*
X87500500Y-100778842D01*
X87500500Y-100700000D01*
X87500500Y-100634108D01*
X87500500Y-87234108D01*
X87500500Y-87221158D01*
X87500500Y-87221155D01*
X87500499Y-87221153D01*
X87469738Y-87066510D01*
X87469737Y-87066503D01*
X87469735Y-87066498D01*
X87409397Y-86920827D01*
X87409390Y-86920814D01*
X87321789Y-86789711D01*
X87321786Y-86789707D01*
X87210292Y-86678213D01*
X87210288Y-86678210D01*
X87079185Y-86590609D01*
X87079172Y-86590602D01*
X86933501Y-86530264D01*
X86933489Y-86530261D01*
X86778845Y-86499500D01*
X86778842Y-86499500D01*
X86765892Y-86499500D01*
X73365892Y-86499500D01*
X73300000Y-86499500D01*
X73221158Y-86499500D01*
X73221155Y-86499500D01*
X73066510Y-86530261D01*
X73066498Y-86530264D01*
X72920827Y-86590602D01*
X72920814Y-86590609D01*
X72789711Y-86678210D01*
X72789707Y-86678213D01*
X72678213Y-86789707D01*
X72678210Y-86789711D01*
X72590609Y-86920814D01*
X72590602Y-86920827D01*
X72530264Y-87066498D01*
X72530261Y-87066510D01*
X72499500Y-87221153D01*
X72499500Y-100778846D01*
X70500500Y-100778846D01*
X70500500Y-60587534D01*
X97499500Y-60587534D01*
X97529898Y-60759937D01*
X97589775Y-60924446D01*
X97677309Y-61076057D01*
X97789836Y-61210163D01*
X97923942Y-61322690D01*
X97923943Y-61322691D01*
X97923945Y-61322692D01*
X98075555Y-61410225D01*
X98240062Y-61470101D01*
X98412468Y-61500500D01*
X98434108Y-61500500D01*
X105380106Y-61500500D01*
X105447145Y-61520185D01*
X105492900Y-61572989D01*
X105502222Y-61602969D01*
X105529898Y-61759936D01*
X105589775Y-61924446D01*
X105677309Y-62076057D01*
X105789836Y-62210163D01*
X105923942Y-62322690D01*
X105923943Y-62322691D01*
X105923945Y-62322692D01*
X106075555Y-62410225D01*
X106240062Y-62470101D01*
X106412468Y-62500500D01*
X106412472Y-62500500D01*
X110587528Y-62500500D01*
X110587532Y-62500500D01*
X110759938Y-62470101D01*
X110924445Y-62410225D01*
X111076055Y-62322692D01*
X111210163Y-62210163D01*
X111322692Y-62076055D01*
X111410225Y-61924445D01*
X111470101Y-61759938D01*
X111497778Y-61602968D01*
X111528804Y-61540365D01*
X111588751Y-61504475D01*
X111619894Y-61500500D01*
X118587528Y-61500500D01*
X118587532Y-61500500D01*
X118759938Y-61470101D01*
X118924445Y-61410225D01*
X119076055Y-61322692D01*
X119210163Y-61210163D01*
X119322692Y-61076055D01*
X119410225Y-60924445D01*
X119470101Y-60759938D01*
X119500500Y-60587532D01*
X119500500Y-60500000D01*
X119500500Y-60434108D01*
X119500500Y-53434108D01*
X119500500Y-53412468D01*
X119470101Y-53240062D01*
X119410225Y-53075555D01*
X119322692Y-52923945D01*
X119322691Y-52923943D01*
X119322690Y-52923942D01*
X119210163Y-52789836D01*
X119076057Y-52677309D01*
X118924446Y-52589775D01*
X118759937Y-52529898D01*
X118587534Y-52499500D01*
X118587532Y-52499500D01*
X118565892Y-52499500D01*
X98565892Y-52499500D01*
X98500000Y-52499500D01*
X98412468Y-52499500D01*
X98412465Y-52499500D01*
X98240062Y-52529898D01*
X98075553Y-52589775D01*
X97923942Y-52677309D01*
X97789836Y-52789836D01*
X97677309Y-52923942D01*
X97589775Y-53075553D01*
X97529898Y-53240062D01*
X97499500Y-53412465D01*
X97499500Y-60587534D01*
X70500500Y-60587534D01*
X70500500Y-51950000D01*
X140950000Y-51950000D01*
X140950000Y-61550000D01*
X145050000Y-61550000D01*
X145050000Y-51950000D01*
X140950000Y-51950000D01*
X70500500Y-51950000D01*
X70500500Y-50125961D01*
X101899500Y-50125961D01*
X101938910Y-50374785D01*
X102016760Y-50614383D01*
X102131132Y-50838848D01*
X102279201Y-51042649D01*
X102279205Y-51042654D01*
X102457345Y-51220794D01*
X102457350Y-51220798D01*
X102635117Y-51349952D01*
X102661155Y-51368870D01*
X102804184Y-51441747D01*
X102885616Y-51483239D01*
X102885618Y-51483239D01*
X102885621Y-51483241D01*
X103125215Y-51561090D01*
X103374038Y-51600500D01*
X103374039Y-51600500D01*
X103625961Y-51600500D01*
X103625962Y-51600500D01*
X103874785Y-51561090D01*
X104114379Y-51483241D01*
X104338845Y-51368870D01*
X104542656Y-51220793D01*
X104720793Y-51042656D01*
X104868870Y-50838845D01*
X104983241Y-50614379D01*
X105061090Y-50374785D01*
X105100500Y-50125962D01*
X105100500Y-50125961D01*
X111899500Y-50125961D01*
X111938910Y-50374785D01*
X112016760Y-50614383D01*
X112131132Y-50838848D01*
X112279201Y-51042649D01*
X112279205Y-51042654D01*
X112457345Y-51220794D01*
X112457350Y-51220798D01*
X112635117Y-51349952D01*
X112661155Y-51368870D01*
X112804184Y-51441747D01*
X112885616Y-51483239D01*
X112885618Y-51483239D01*
X112885621Y-51483241D01*
X113125215Y-51561090D01*
X113374038Y-51600500D01*
X113374039Y-51600500D01*
X113625961Y-51600500D01*
X113625962Y-51600500D01*
X113874785Y-51561090D01*
X114114379Y-51483241D01*
X114338845Y-51368870D01*
X114542656Y-51220793D01*
X114720793Y-51042656D01*
X114868870Y-50838845D01*
X114983241Y-50614379D01*
X115061090Y-50374785D01*
X115100500Y-50125962D01*
X115100500Y-49874038D01*
X115061090Y-49625215D01*
X114983241Y-49385621D01*
X114983239Y-49385618D01*
X114983239Y-49385616D01*
X114941747Y-49304184D01*
X114868870Y-49161155D01*
X114849952Y-49135117D01*
X114720798Y-48957350D01*
X114720794Y-48957345D01*
X114542654Y-48779205D01*
X114542649Y-48779201D01*
X114338848Y-48631132D01*
X114338847Y-48631131D01*
X114338845Y-48631130D01*
X114268747Y-48595413D01*
X114114383Y-48516760D01*
X113874785Y-48438910D01*
X113625962Y-48399500D01*
X113374038Y-48399500D01*
X113249626Y-48419205D01*
X113125214Y-48438910D01*
X112885616Y-48516760D01*
X112661151Y-48631132D01*
X112457350Y-48779201D01*
X112457345Y-48779205D01*
X112279205Y-48957345D01*
X112279201Y-48957350D01*
X112131132Y-49161151D01*
X112016760Y-49385616D01*
X111938910Y-49625214D01*
X111899500Y-49874038D01*
X111899500Y-50125961D01*
X105100500Y-50125961D01*
X105100500Y-49874038D01*
X105061090Y-49625215D01*
X104983241Y-49385621D01*
X104983239Y-49385618D01*
X104983239Y-49385616D01*
X104941747Y-49304184D01*
X104868870Y-49161155D01*
X104849952Y-49135117D01*
X104720798Y-48957350D01*
X104720794Y-48957345D01*
X104542654Y-48779205D01*
X104542649Y-48779201D01*
X104338848Y-48631132D01*
X104338847Y-48631131D01*
X104338845Y-48631130D01*
X104268747Y-48595413D01*
X104114383Y-48516760D01*
X103874785Y-48438910D01*
X103625962Y-48399500D01*
X103374038Y-48399500D01*
X103249626Y-48419205D01*
X103125214Y-48438910D01*
X102885616Y-48516760D01*
X102661151Y-48631132D01*
X102457350Y-48779201D01*
X102457345Y-48779205D01*
X102279205Y-48957345D01*
X102279201Y-48957350D01*
X102131132Y-49161151D01*
X102016760Y-49385616D01*
X101938910Y-49625214D01*
X101899500Y-49874038D01*
X101899500Y-50125961D01*
X70500500Y-50125961D01*
X70500500Y-38003750D01*
X70500726Y-37996263D01*
X70518271Y-37706205D01*
X70520076Y-37691340D01*
X70571780Y-37409201D01*
X70575364Y-37394663D01*
X70652096Y-37148422D01*
X70660696Y-37120822D01*
X70665998Y-37106841D01*
X70783731Y-36845249D01*
X70790676Y-36832016D01*
X70939080Y-36586526D01*
X70947567Y-36574230D01*
X71124480Y-36348417D01*
X71134395Y-36337226D01*
X71337226Y-36134395D01*
X71348417Y-36124480D01*
X71574230Y-35947567D01*
X71586526Y-35939080D01*
X71832016Y-35790676D01*
X71845249Y-35783731D01*
X72106841Y-35665998D01*
X72120822Y-35660696D01*
X72394668Y-35575362D01*
X72409197Y-35571780D01*
X72691344Y-35520075D01*
X72706201Y-35518271D01*
X72996264Y-35500726D01*
X73003751Y-35500500D01*
X73065892Y-35500500D01*
X87376000Y-35500500D01*
X87443039Y-35520185D01*
G37*
%TD.AperFunction*%
%TD*%
M02*
