%TF.GenerationSoftware,KiCad,Pcbnew,8.0.1*%
%TF.CreationDate,2024-04-11T23:32:49+09:00*%
%TF.ProjectId,Calciumor_SwitchCover,43616c63-6975-46d6-9f72-5f5377697463,rev?*%
%TF.SameCoordinates,Original*%
%TF.FileFunction,Profile,NP*%
%FSLAX46Y46*%
G04 Gerber Fmt 4.6, Leading zero omitted, Abs format (unit mm)*
G04 Created by KiCad (PCBNEW 8.0.1) date 2024-04-11 23:32:49*
%MOMM*%
%LPD*%
G01*
G04 APERTURE LIST*
%TA.AperFunction,Profile*%
%ADD10C,0.100000*%
%TD*%
%TA.AperFunction,Profile*%
%ADD11C,0.050000*%
%TD*%
G04 APERTURE END LIST*
D10*
X73000000Y-180000000D02*
X144000000Y-180000000D01*
X147000000Y-177000000D02*
G75*
G02*
X144000000Y-180000000I-3000000J0D01*
G01*
X86400000Y-67000000D02*
X96600000Y-67000000D01*
X112300000Y-58900000D02*
G75*
G02*
X114700000Y-58900000I1200000J0D01*
G01*
X112300000Y-58900000D02*
X112300000Y-75800000D01*
X102300000Y-58900000D02*
X102300000Y-75800000D01*
X70000000Y-38000000D02*
X70000000Y-177000000D01*
X114700000Y-75800000D02*
G75*
G02*
X112300000Y-75800000I-1200000J0D01*
G01*
X96600000Y-64000000D02*
G75*
G02*
X96900000Y-64300000I0J-300000D01*
G01*
X96900000Y-66700000D02*
G75*
G02*
X96600000Y-67000000I-300000J0D01*
G01*
X104700000Y-75800000D02*
G75*
G02*
X102300000Y-75800000I-1200000J0D01*
G01*
X114700000Y-58900000D02*
X114700000Y-75800000D01*
X86100000Y-64300000D02*
G75*
G02*
X86400000Y-64000000I300000J0D01*
G01*
X86400000Y-67000000D02*
G75*
G02*
X86100000Y-66700000I0J300000D01*
G01*
X147000000Y-177000000D02*
X147000000Y-38000000D01*
X96900000Y-64300000D02*
X96900000Y-66700000D01*
X102300000Y-58900000D02*
G75*
G02*
X104700000Y-58900000I1200000J0D01*
G01*
X104700000Y-58900000D02*
X104700000Y-75800000D01*
X144000000Y-35000000D02*
G75*
G02*
X147000000Y-38000000I0J-3000000D01*
G01*
X73000000Y-180000000D02*
G75*
G02*
X70000000Y-177000000I0J3000000D01*
G01*
X86100000Y-64300000D02*
X86100000Y-66700000D01*
X70000000Y-38000000D02*
G75*
G02*
X73000000Y-35000000I3000000J0D01*
G01*
X86400000Y-64000000D02*
X96600000Y-64000000D01*
X144000000Y-35000000D02*
X73000000Y-35000000D01*
D11*
%TO.C,H13*%
X92000000Y-157700000D02*
X92000000Y-144300000D01*
X92300000Y-144000000D02*
X105700000Y-144000000D01*
X105700000Y-158000000D02*
X92300000Y-158000000D01*
X106000000Y-144300000D02*
X106000000Y-157700000D01*
X92000000Y-144300000D02*
G75*
G02*
X92300000Y-144000000I300000J0D01*
G01*
X92300000Y-158000000D02*
G75*
G02*
X92000000Y-157700000I0J300000D01*
G01*
X105700000Y-144000000D02*
G75*
G02*
X106000000Y-144300000I0J-300000D01*
G01*
X106000000Y-157700000D02*
G75*
G02*
X105700000Y-158000000I-300000J0D01*
G01*
%TO.C,H2*%
X92000000Y-100700000D02*
X92000000Y-87300000D01*
X92300000Y-87000000D02*
X105700000Y-87000000D01*
X105700000Y-101000000D02*
X92300000Y-101000000D01*
X106000000Y-87300000D02*
X106000000Y-100700000D01*
X92000000Y-87300000D02*
G75*
G02*
X92300000Y-87000000I300000J0D01*
G01*
X92300000Y-101000000D02*
G75*
G02*
X92000000Y-100700000I0J300000D01*
G01*
X105700000Y-87000000D02*
G75*
G02*
X106000000Y-87300000I0J-300000D01*
G01*
X106000000Y-100700000D02*
G75*
G02*
X105700000Y-101000000I-300000J0D01*
G01*
%TO.C,H3*%
X111000000Y-100700000D02*
X111000000Y-87300000D01*
X111300000Y-87000000D02*
X124700000Y-87000000D01*
X124700000Y-101000000D02*
X111300000Y-101000000D01*
X125000000Y-87300000D02*
X125000000Y-100700000D01*
X111000000Y-87300000D02*
G75*
G02*
X111300000Y-87000000I300000J0D01*
G01*
X111300000Y-101000000D02*
G75*
G02*
X111000000Y-100700000I0J300000D01*
G01*
X124700000Y-87000000D02*
G75*
G02*
X125000000Y-87300000I0J-300000D01*
G01*
X125000000Y-100700000D02*
G75*
G02*
X124700000Y-101000000I-300000J0D01*
G01*
%TO.C,H8*%
X128000000Y-106300000D02*
X128000000Y-115200000D01*
X128000000Y-138700000D02*
X128000000Y-129800000D01*
X128300000Y-106000000D02*
X143700000Y-106000000D01*
X128300000Y-115500000D02*
X129700000Y-115500000D01*
X128300000Y-129500000D02*
X129700000Y-129500000D01*
X130000000Y-129200000D02*
X130000000Y-115800000D01*
X143700000Y-139000000D02*
X128300000Y-139000000D01*
X144000000Y-106300000D02*
X144000000Y-138700000D01*
X128000000Y-106300000D02*
G75*
G02*
X128300000Y-106000000I300000J0D01*
G01*
X128000000Y-129800000D02*
G75*
G02*
X128300000Y-129500000I300000J0D01*
G01*
X128300000Y-115500000D02*
G75*
G02*
X128000000Y-115200000I0J300000D01*
G01*
X128300000Y-139000000D02*
G75*
G02*
X128000000Y-138700000I0J300000D01*
G01*
X129700000Y-115500000D02*
G75*
G02*
X130000000Y-115800000I0J-300000D01*
G01*
X130000000Y-129200000D02*
G75*
G02*
X129700000Y-129500000I-300000J0D01*
G01*
X143700000Y-106000000D02*
G75*
G02*
X144000000Y-106300000I0J-300000D01*
G01*
X144000000Y-138700000D02*
G75*
G02*
X143700000Y-139000000I-300000J0D01*
G01*
%TO.C,H16*%
X73000000Y-176700000D02*
X73000000Y-161300000D01*
X73300000Y-161000000D02*
X82200000Y-161000000D01*
X82500000Y-161300000D02*
X82500000Y-162700000D01*
X82800000Y-163000000D02*
X96200000Y-163000000D01*
X96500000Y-161300000D02*
X96500000Y-162700000D01*
X105700000Y-161000000D02*
X96800000Y-161000000D01*
X105700000Y-177000000D02*
X73300000Y-177000000D01*
X106000000Y-161300000D02*
X106000000Y-176700000D01*
X73000000Y-161300000D02*
G75*
G02*
X73300000Y-161000000I300000J0D01*
G01*
X73300000Y-177000000D02*
G75*
G02*
X73000000Y-176700000I0J300000D01*
G01*
X82200000Y-161000000D02*
G75*
G02*
X82500000Y-161300000I0J-300000D01*
G01*
X82800000Y-163000000D02*
G75*
G02*
X82500000Y-162700000I0J300000D01*
G01*
X96500000Y-161300000D02*
G75*
G02*
X96800000Y-161000000I300000J0D01*
G01*
X96500000Y-162700000D02*
G75*
G02*
X96200000Y-163000000I-300000J0D01*
G01*
X105700000Y-161000000D02*
G75*
G02*
X106000000Y-161300000I0J-300000D01*
G01*
X106000000Y-176700000D02*
G75*
G02*
X105700000Y-177000000I-300000J0D01*
G01*
%TO.C,H17*%
X111000000Y-176700000D02*
X111000000Y-163300000D01*
X111300000Y-163000000D02*
X124700000Y-163000000D01*
X124700000Y-177000000D02*
X111300000Y-177000000D01*
X125000000Y-163300000D02*
X125000000Y-176700000D01*
X111000000Y-163300000D02*
G75*
G02*
X111300000Y-163000000I300000J0D01*
G01*
X111300000Y-177000000D02*
G75*
G02*
X111000000Y-176700000I0J300000D01*
G01*
X124700000Y-163000000D02*
G75*
G02*
X125000000Y-163300000I0J-300000D01*
G01*
X125000000Y-176700000D02*
G75*
G02*
X124700000Y-177000000I-300000J0D01*
G01*
%TO.C,H1*%
X73000000Y-100700000D02*
X73000000Y-87300000D01*
X73300000Y-87000000D02*
X86700000Y-87000000D01*
X86700000Y-101000000D02*
X73300000Y-101000000D01*
X87000000Y-87300000D02*
X87000000Y-100700000D01*
X73000000Y-87300000D02*
G75*
G02*
X73300000Y-87000000I300000J0D01*
G01*
X73300000Y-101000000D02*
G75*
G02*
X73000000Y-100700000I0J300000D01*
G01*
X86700000Y-87000000D02*
G75*
G02*
X87000000Y-87300000I0J-300000D01*
G01*
X87000000Y-100700000D02*
G75*
G02*
X86700000Y-101000000I-300000J0D01*
G01*
%TO.C,H5*%
X73000000Y-119700000D02*
X73000000Y-106300000D01*
X73300000Y-106000000D02*
X86700000Y-106000000D01*
X86700000Y-120000000D02*
X73300000Y-120000000D01*
X87000000Y-106300000D02*
X87000000Y-119700000D01*
X73000000Y-106300000D02*
G75*
G02*
X73300000Y-106000000I300000J0D01*
G01*
X73300000Y-120000000D02*
G75*
G02*
X73000000Y-119700000I0J300000D01*
G01*
X86700000Y-106000000D02*
G75*
G02*
X87000000Y-106300000I0J-300000D01*
G01*
X87000000Y-119700000D02*
G75*
G02*
X86700000Y-120000000I-300000J0D01*
G01*
%TO.C,H12*%
X73000000Y-157700000D02*
X73000000Y-144300000D01*
X73300000Y-144000000D02*
X86700000Y-144000000D01*
X86700000Y-158000000D02*
X73300000Y-158000000D01*
X87000000Y-144300000D02*
X87000000Y-157700000D01*
X73000000Y-144300000D02*
G75*
G02*
X73300000Y-144000000I300000J0D01*
G01*
X73300000Y-158000000D02*
G75*
G02*
X73000000Y-157700000I0J300000D01*
G01*
X86700000Y-144000000D02*
G75*
G02*
X87000000Y-144300000I0J-300000D01*
G01*
X87000000Y-157700000D02*
G75*
G02*
X86700000Y-158000000I-300000J0D01*
G01*
%TO.C,H7*%
X111000000Y-119700000D02*
X111000000Y-106300000D01*
X111300000Y-106000000D02*
X124700000Y-106000000D01*
X124700000Y-120000000D02*
X111300000Y-120000000D01*
X125000000Y-106300000D02*
X125000000Y-119700000D01*
X111000000Y-106300000D02*
G75*
G02*
X111300000Y-106000000I300000J0D01*
G01*
X111300000Y-120000000D02*
G75*
G02*
X111000000Y-119700000I0J300000D01*
G01*
X124700000Y-106000000D02*
G75*
G02*
X125000000Y-106300000I0J-300000D01*
G01*
X125000000Y-119700000D02*
G75*
G02*
X124700000Y-120000000I-300000J0D01*
G01*
%TO.C,H15*%
X128000000Y-144300000D02*
X128000000Y-153200000D01*
X128000000Y-176700000D02*
X128000000Y-167800000D01*
X128300000Y-144000000D02*
X143700000Y-144000000D01*
X128300000Y-153500000D02*
X129700000Y-153500000D01*
X128300000Y-167500000D02*
X129700000Y-167500000D01*
X130000000Y-167200000D02*
X130000000Y-153800000D01*
X143700000Y-177000000D02*
X128300000Y-177000000D01*
X144000000Y-144300000D02*
X144000000Y-176700000D01*
X128000000Y-144300000D02*
G75*
G02*
X128300000Y-144000000I300000J0D01*
G01*
X128000000Y-167800000D02*
G75*
G02*
X128300000Y-167500000I300000J0D01*
G01*
X128300000Y-153500000D02*
G75*
G02*
X128000000Y-153200000I0J300000D01*
G01*
X128300000Y-177000000D02*
G75*
G02*
X128000000Y-176700000I0J300000D01*
G01*
X129700000Y-153500000D02*
G75*
G02*
X130000000Y-153800000I0J-300000D01*
G01*
X130000000Y-167200000D02*
G75*
G02*
X129700000Y-167500000I-300000J0D01*
G01*
X143700000Y-144000000D02*
G75*
G02*
X144000000Y-144300000I0J-300000D01*
G01*
X144000000Y-176700000D02*
G75*
G02*
X143700000Y-177000000I-300000J0D01*
G01*
%TO.C,H14*%
X111000000Y-157700000D02*
X111000000Y-144300000D01*
X111300000Y-144000000D02*
X124700000Y-144000000D01*
X124700000Y-158000000D02*
X111300000Y-158000000D01*
X125000000Y-144300000D02*
X125000000Y-157700000D01*
X111000000Y-144300000D02*
G75*
G02*
X111300000Y-144000000I300000J0D01*
G01*
X111300000Y-158000000D02*
G75*
G02*
X111000000Y-157700000I0J300000D01*
G01*
X124700000Y-144000000D02*
G75*
G02*
X125000000Y-144300000I0J-300000D01*
G01*
X125000000Y-157700000D02*
G75*
G02*
X124700000Y-158000000I-300000J0D01*
G01*
%TO.C,H9*%
X73000000Y-138700000D02*
X73000000Y-125300000D01*
X73300000Y-125000000D02*
X86700000Y-125000000D01*
X86700000Y-139000000D02*
X73300000Y-139000000D01*
X87000000Y-125300000D02*
X87000000Y-138700000D01*
X73000000Y-125300000D02*
G75*
G02*
X73300000Y-125000000I300000J0D01*
G01*
X73300000Y-139000000D02*
G75*
G02*
X73000000Y-138700000I0J300000D01*
G01*
X86700000Y-125000000D02*
G75*
G02*
X87000000Y-125300000I0J-300000D01*
G01*
X87000000Y-138700000D02*
G75*
G02*
X86700000Y-139000000I-300000J0D01*
G01*
%TO.C,H4*%
X130000000Y-100700000D02*
X130000000Y-87300000D01*
X130300000Y-87000000D02*
X143700000Y-87000000D01*
X143700000Y-101000000D02*
X130300000Y-101000000D01*
X144000000Y-87300000D02*
X144000000Y-100700000D01*
X130000000Y-87300000D02*
G75*
G02*
X130300000Y-87000000I300000J0D01*
G01*
X130300000Y-101000000D02*
G75*
G02*
X130000000Y-100700000I0J300000D01*
G01*
X143700000Y-87000000D02*
G75*
G02*
X144000000Y-87300000I0J-300000D01*
G01*
X144000000Y-100700000D02*
G75*
G02*
X143700000Y-101000000I-300000J0D01*
G01*
%TO.C,H6*%
X92000000Y-119700000D02*
X92000000Y-106300000D01*
X92300000Y-106000000D02*
X105700000Y-106000000D01*
X105700000Y-120000000D02*
X92300000Y-120000000D01*
X106000000Y-106300000D02*
X106000000Y-119700000D01*
X92000000Y-106300000D02*
G75*
G02*
X92300000Y-106000000I300000J0D01*
G01*
X92300000Y-120000000D02*
G75*
G02*
X92000000Y-119700000I0J300000D01*
G01*
X105700000Y-106000000D02*
G75*
G02*
X106000000Y-106300000I0J-300000D01*
G01*
X106000000Y-119700000D02*
G75*
G02*
X105700000Y-120000000I-300000J0D01*
G01*
%TO.C,H10*%
X92000000Y-138700000D02*
X92000000Y-125300000D01*
X92300000Y-125000000D02*
X105700000Y-125000000D01*
X105700000Y-139000000D02*
X92300000Y-139000000D01*
X106000000Y-125300000D02*
X106000000Y-138700000D01*
X92000000Y-125300000D02*
G75*
G02*
X92300000Y-125000000I300000J0D01*
G01*
X92300000Y-139000000D02*
G75*
G02*
X92000000Y-138700000I0J300000D01*
G01*
X105700000Y-125000000D02*
G75*
G02*
X106000000Y-125300000I0J-300000D01*
G01*
X106000000Y-138700000D02*
G75*
G02*
X105700000Y-139000000I-300000J0D01*
G01*
%TO.C,H11*%
X111000000Y-138700000D02*
X111000000Y-125300000D01*
X111300000Y-125000000D02*
X124700000Y-125000000D01*
X124700000Y-139000000D02*
X111300000Y-139000000D01*
X125000000Y-125300000D02*
X125000000Y-138700000D01*
X111000000Y-125300000D02*
G75*
G02*
X111300000Y-125000000I300000J0D01*
G01*
X111300000Y-139000000D02*
G75*
G02*
X111000000Y-138700000I0J300000D01*
G01*
X124700000Y-125000000D02*
G75*
G02*
X125000000Y-125300000I0J-300000D01*
G01*
X125000000Y-138700000D02*
G75*
G02*
X124700000Y-139000000I-300000J0D01*
G01*
%TD*%
M02*
