  0
SECTION
  2
HEADER
  9
$ANGBASE
  50
0.0
  9
$ANGDIR
  70
1
  9
$MEASUREMENT
  70
0
  0
ENDSEC
  0
SECTION
  2
TABLES
  0
TABLE
  2
LTYPE
  70
4
  0
LTYPE
  5
40F
  2
CONTINUOUS
  70
0
  3
Solid line
  72
65
  73
0
  40
0.0
  0
LTYPE
  5
410
  2
DASHDOT
 70
0
  3
Dash Dot ____ _ ____ _
 72
65
 73
4
 40
2.0
 49
1.25
 49
-0.25
 49
0.25
 49
-0.25
  0
LTYPE
  5
411
  2
DASHED
 70
0
  3
Dashed __ __ __ __ __
 72
65
 73
2
 40
0.75
 49
0.5
 49
-0.25
  0
LTYPE
  5
43B
  2
DOTTED
 70
0
  3
Dotted .  .  .  .
 72
65
 73
2
 40
0.2
 49
0.0
 49
-0.2
  0
ENDTAB
  0
TABLE
  2
STYLE
  70
4
  0
STYLE
  2
KICAD
  70
0
  40
0
  41
1
  42
1
  50
0
  71
0
  3
isocp.shx
  0
STYLE
  2
KICADB
  70
0
  40
0
  41
1
  42
1
  50
0
  71
0
  3
isocp.shx
  0
STYLE
  2
KICADI
  70
0
  40
0
  41
1
  42
1
  50
15
  71
0
  3
isocp.shx
  0
STYLE
  2
KICADBI
  70
0
  40
0
  41
1
  42
1
  50
15
  71
0
  3
isocp.shx
  0
ENDTAB
  0
TABLE
  2
LAYER
  70
1
  0
LAYER
  2
BLACK
  70
0
  62
7
  6
CONTINUOUS
  0
ENDTAB
  0
ENDSEC
  0
SECTION
  2
ENTITIES
0
LINE
8
BLACK
6
CONTINUOUS
10
5.6818429921259845
20
-1.3766420472440946
11
5.6942571259842518
21
-1.3786082677165354
0
LINE
8
BLACK
6
CONTINUOUS
10
5.6942571259842518
20
-1.3786082677165354
11
5.7063977165354327
21
-1.3818613385826772
0
LINE
8
BLACK
6
CONTINUOUS
10
5.7063977165354327
20
-1.3818613385826772
11
5.7181317716535434
21
-1.3863655905511811
0
LINE
8
BLACK
6
CONTINUOUS
10
5.7181317716535434
20
-1.3863655905511811
11
5.7293307086614176
21
-1.3920717716535433
0
LINE
8
BLACK
6
CONTINUOUS
10
5.7293307086614176
20
-1.3920717716535433
11
5.7398718503937003
21
-1.3989172440944881
0
LINE
8
BLACK
6
CONTINUOUS
10
5.7398718503937003
20
-1.3989172440944881
11
5.7496396850393703
21
-1.4068270866141732
0
LINE
8
BLACK
6
CONTINUOUS
10
5.7496396850393703
20
-1.4068270866141732
11
5.7585272440944877
21
-1.4157146456692913
0
LINE
8
BLACK
6
CONTINUOUS
10
5.7585272440944877
20
-1.4157146456692913
11
5.7664370866141734
21
-1.4254824803149606
0
LINE
8
BLACK
6
CONTINUOUS
10
5.7664370866141734
20
-1.4254824803149606
11
5.7732825590551178
21
-1.436023622047244
0
LINE
8
BLACK
6
CONTINUOUS
10
5.7732825590551178
20
-1.436023622047244
11
5.7789887401574802
21
-1.447222559055118
0
LINE
8
BLACK
6
CONTINUOUS
10
5.7789887401574802
20
-1.447222559055118
11
5.7834929921259839
21
-1.4589566141732284
0
LINE
8
BLACK
6
CONTINUOUS
10
5.7834929921259839
20
-1.4589566141732284
11
5.7867460629921261
21
-1.4710972047244095
0
LINE
8
BLACK
6
CONTINUOUS
10
5.7867460629921261
20
-1.4710972047244095
11
5.7887122834645668
21
-1.483511338582677
0
LINE
8
BLACK
6
CONTINUOUS
10
5.7887122834645668
20
-1.483511338582677
11
5.7893700787401574
21
-1.4960629921259843
0
LINE
8
BLACK
6
CONTINUOUS
10
5.7893700787401574
20
-1.4960629921259843
11
5.7892202362204719
21
-1.4965240551181103
0
LINE
8
BLACK
6
CONTINUOUS
10
5.7892202362204719
20
-1.4965240551181103
11
5.7893700787401574
21
-6.9685039370078741
0
LINE
8
BLACK
6
CONTINUOUS
10
5.7893700787401574
20
-6.9685039370078741
11
5.7887122834645668
21
-6.9810555905511809
0
LINE
8
BLACK
6
CONTINUOUS
10
5.7887122834645668
20
-6.9810555905511809
11
5.7867460629921261
21
-6.993469724409449
0
LINE
8
BLACK
6
CONTINUOUS
10
5.7867460629921261
20
-6.993469724409449
11
5.7834929921259839
21
-7.0056103149606299
0
LINE
8
BLACK
6
CONTINUOUS
10
5.7834929921259839
20
-7.0056103149606299
11
5.7789887401574802
21
-7.0173443700787397
0
LINE
8
BLACK
6
CONTINUOUS
10
5.7789887401574802
20
-7.0173443700787397
11
5.7732825590551178
21
-7.0285433070866139
0
LINE
8
BLACK
6
CONTINUOUS
10
5.7732825590551178
20
-7.0285433070866139
11
5.7664370866141734
21
-7.0390844488188975
0
LINE
8
BLACK
6
CONTINUOUS
10
5.7664370866141734
20
-7.0390844488188975
11
5.7585272440944877
21
-7.0488522834645666
0
LINE
8
BLACK
6
CONTINUOUS
10
5.7585272440944877
20
-7.0488522834645666
11
5.7496396850393703
21
-7.0577398425196849
0
LINE
8
BLACK
6
CONTINUOUS
10
5.7496396850393703
20
-7.0577398425196849
11
5.7398718503937003
21
-7.0656496850393697
0
LINE
8
BLACK
6
CONTINUOUS
10
5.7398718503937003
20
-7.0656496850393697
11
5.7293307086614176
21
-7.072495157480315
0
LINE
8
BLACK
6
CONTINUOUS
10
5.7293307086614176
20
-7.072495157480315
11
5.7181317716535434
21
-7.0782013385826774
0
LINE
8
BLACK
6
CONTINUOUS
10
5.7181317716535434
20
-7.0782013385826774
11
5.7063977165354327
21
-7.0827055905511811
0
LINE
8
BLACK
6
CONTINUOUS
10
5.7063977165354327
20
-7.0827055905511811
11
5.6942571259842518
21
-7.0859586614173224
0
LINE
8
BLACK
6
CONTINUOUS
10
5.6942571259842518
20
-7.0859586614173224
11
5.6818429921259845
21
-7.087924881889764
0
LINE
8
BLACK
6
CONTINUOUS
10
5.6818429921259845
20
-7.087924881889764
11
5.6692913385826769
21
-7.0885826771653537
0
LINE
8
BLACK
6
CONTINUOUS
10
5.6692913385826769
20
-7.0885826771653537
11
5.6688303543307086
21
-7.0884328740157478
0
LINE
8
BLACK
6
CONTINUOUS
10
5.6688303543307086
20
-7.0884328740157478
11
2.8740157480314958
21
-7.0885826771653537
0
LINE
8
BLACK
6
CONTINUOUS
10
2.8740157480314958
20
-7.0885826771653537
11
2.8614640944881891
21
-7.087924881889764
0
LINE
8
BLACK
6
CONTINUOUS
10
2.8614640944881891
20
-7.087924881889764
11
2.8490499606299213
21
-7.0859586614173224
0
LINE
8
BLACK
6
CONTINUOUS
10
2.8490499606299213
20
-7.0859586614173224
11
2.83690937007874
21
-7.0827055905511811
0
LINE
8
BLACK
6
CONTINUOUS
10
2.83690937007874
20
-7.0827055905511811
11
2.8251753149606298
21
-7.0782013385826774
0
LINE
8
BLACK
6
CONTINUOUS
10
2.8251753149606298
20
-7.0782013385826774
11
2.813976377952756
21
-7.072495157480315
0
LINE
8
BLACK
6
CONTINUOUS
10
2.813976377952756
20
-7.072495157480315
11
2.8034352362204724
21
-7.0656496850393697
0
LINE
8
BLACK
6
CONTINUOUS
10
2.8034352362204724
20
-7.0656496850393697
11
2.7936674015748029
21
-7.0577398425196849
0
LINE
8
BLACK
6
CONTINUOUS
10
2.7936674015748029
20
-7.0577398425196849
11
2.784779842519685
21
-7.0488522834645666
0
LINE
8
BLACK
6
CONTINUOUS
10
2.784779842519685
20
-7.0488522834645666
11
2.7768699999999997
21
-7.0390844488188975
0
LINE
8
BLACK
6
CONTINUOUS
10
2.7768699999999997
20
-7.0390844488188975
11
2.7700245275590549
21
-7.0285433070866139
0
LINE
8
BLACK
6
CONTINUOUS
10
2.7700245275590549
20
-7.0285433070866139
11
2.7643183464566929
21
-7.0173443700787397
0
LINE
8
BLACK
6
CONTINUOUS
10
2.7643183464566929
20
-7.0173443700787397
11
2.7598140944881888
21
-7.0056103149606299
0
LINE
8
BLACK
6
CONTINUOUS
10
2.7598140944881888
20
-7.0056103149606299
11
2.756561023622047
21
-6.993469724409449
0
LINE
8
BLACK
6
CONTINUOUS
10
2.756561023622047
20
-6.993469724409449
11
2.7545948031496064
21
-6.9810555905511809
0
LINE
8
BLACK
6
CONTINUOUS
10
2.7545948031496064
20
-6.9810555905511809
11
2.7539370078740157
21
-6.9685039370078741
0
LINE
8
BLACK
6
CONTINUOUS
10
2.7539370078740157
20
-6.9685039370078741
11
2.7540868110236221
21
-6.9680428346456695
0
LINE
8
BLACK
6
CONTINUOUS
10
2.7540868110236221
20
-6.9680428346456695
11
2.7539370078740157
21
-1.4960629921259843
0
LINE
8
BLACK
6
CONTINUOUS
10
2.7539370078740157
20
-1.4960629921259843
11
2.7545948031496064
21
-1.483511338582677
0
LINE
8
BLACK
6
CONTINUOUS
10
2.7545948031496064
20
-1.483511338582677
11
2.756561023622047
21
-1.4710972047244095
0
LINE
8
BLACK
6
CONTINUOUS
10
2.756561023622047
20
-1.4710972047244095
11
2.7598140944881888
21
-1.4589566141732284
0
LINE
8
BLACK
6
CONTINUOUS
10
2.7598140944881888
20
-1.4589566141732284
11
2.7643183464566929
21
-1.447222559055118
0
LINE
8
BLACK
6
CONTINUOUS
10
2.7643183464566929
20
-1.447222559055118
11
2.7700245275590549
21
-1.436023622047244
0
LINE
8
BLACK
6
CONTINUOUS
10
2.7700245275590549
20
-1.436023622047244
11
2.7768699999999997
21
-1.4254824803149606
0
LINE
8
BLACK
6
CONTINUOUS
10
2.7768699999999997
20
-1.4254824803149606
11
2.784779842519685
21
-1.4157146456692913
0
LINE
8
BLACK
6
CONTINUOUS
10
2.784779842519685
20
-1.4157146456692913
11
2.7936674015748029
21
-1.4068270866141732
0
LINE
8
BLACK
6
CONTINUOUS
10
2.7936674015748029
20
-1.4068270866141732
11
2.8034352362204724
21
-1.3989172440944881
0
LINE
8
BLACK
6
CONTINUOUS
10
2.8034352362204724
20
-1.3989172440944881
11
2.813976377952756
21
-1.3920717716535433
0
LINE
8
BLACK
6
CONTINUOUS
10
2.813976377952756
20
-1.3920717716535433
11
2.8251753149606298
21
-1.3863655905511811
0
LINE
8
BLACK
6
CONTINUOUS
10
2.8251753149606298
20
-1.3863655905511811
11
2.83690937007874
21
-1.3818613385826772
0
LINE
8
BLACK
6
CONTINUOUS
10
2.83690937007874
20
-1.3818613385826772
11
2.8490499606299213
21
-1.3786082677165354
0
LINE
8
BLACK
6
CONTINUOUS
10
2.8490499606299213
20
-1.3786082677165354
11
2.8614640944881891
21
-1.3766420472440946
0
LINE
8
BLACK
6
CONTINUOUS
10
2.8614640944881891
20
-1.3766420472440946
11
2.8740157480314958
21
-1.3759842519685039
0
LINE
8
BLACK
6
CONTINUOUS
10
2.8740157480314958
20
-1.3759842519685039
11
2.8744766929133858
21
-1.3761340157480315
0
LINE
8
BLACK
6
CONTINUOUS
10
2.8744766929133858
20
-1.3761340157480315
11
5.6692913385826769
21
-1.3759842519685039
0
LINE
8
BLACK
6
CONTINUOUS
10
5.6692913385826769
20
-1.3759842519685039
11
5.6818429921259845
21
-1.3766420472440946
0
LINE
8
BLACK
6
CONTINUOUS
10
2.8740157480314958
20
-1.3799212598425197
11
2.8674933858267715
21
-1.3799212598425197
0
LINE
8
BLACK
6
CONTINUOUS
10
2.8674933858267715
20
-1.3799212598425197
11
2.8545306299212596
21
-1.381381811023622
0
LINE
8
BLACK
6
CONTINUOUS
10
2.8545306299212596
20
-1.381381811023622
11
2.8418129527559053
21
-1.3842845669291339
0
LINE
8
BLACK
6
CONTINUOUS
10
2.8418129527559053
20
-1.3842845669291339
11
2.8295001968503937
21
-1.3885929527559056
0
LINE
8
BLACK
6
CONTINUOUS
10
2.8295001968503937
20
-1.3885929527559056
11
2.8177472834645667
21
-1.394252874015748
0
LINE
8
BLACK
6
CONTINUOUS
10
2.8177472834645667
20
-1.394252874015748
11
2.8067019685039369
21
-1.4011931102362205
0
LINE
8
BLACK
6
CONTINUOUS
10
2.8067019685039369
20
-1.4011931102362205
11
2.7965031496062993
21
-1.4093263779527558
0
LINE
8
BLACK
6
CONTINUOUS
10
2.7965031496062993
20
-1.4093263779527558
11
2.7872791338582679
21
-1.4185503937007873
0
LINE
8
BLACK
6
CONTINUOUS
10
2.7872791338582679
20
-1.4185503937007873
11
2.7791458661417323
21
-1.4287492125984251
0
LINE
8
BLACK
6
CONTINUOUS
10
2.7791458661417323
20
-1.4287492125984251
11
2.7722056299212596
21
-1.4397945275590551
0
LINE
8
BLACK
6
CONTINUOUS
10
2.7722056299212596
20
-1.4397945275590551
11
2.7665457086614174
21
-1.4515474409448819
0
LINE
8
BLACK
6
CONTINUOUS
10
2.7665457086614174
20
-1.4515474409448819
11
2.7622373228346455
21
-1.4638601968503937
0
LINE
8
BLACK
6
CONTINUOUS
10
2.7622373228346455
20
-1.4638601968503937
11
2.7593345669291338
21
-1.476577874015748
0
LINE
8
BLACK
6
CONTINUOUS
10
2.7593345669291338
20
-1.476577874015748
11
2.7578740157480315
21
-1.4895406299212599
0
LINE
8
BLACK
6
CONTINUOUS
10
2.7578740157480315
20
-1.4895406299212599
11
2.7578740157480315
21
-1.4960629921259843
0
LINE
8
BLACK
6
CONTINUOUS
10
2.7578740157480315
20
-1.4960629921259843
11
2.7577241732283464
21
-1.4965240551181103
0
LINE
8
BLACK
6
CONTINUOUS
10
2.7577241732283464
20
-1.4965240551181103
11
2.7578740157480315
21
-6.9685039370078741
0
LINE
8
BLACK
6
CONTINUOUS
10
2.7578740157480315
20
-6.9685039370078741
11
2.7578740157480315
21
-6.9750262992125984
0
LINE
8
BLACK
6
CONTINUOUS
10
2.7578740157480315
20
-6.9750262992125984
11
2.7593345669291338
21
-6.9879890551181099
0
LINE
8
BLACK
6
CONTINUOUS
10
2.7593345669291338
20
-6.9879890551181099
11
2.7622373228346455
21
-7.0007067322834642
0
LINE
8
BLACK
6
CONTINUOUS
10
2.7622373228346455
20
-7.0007067322834642
11
2.7665457086614174
21
-7.0130194881889762
0
LINE
8
BLACK
6
CONTINUOUS
10
2.7665457086614174
20
-7.0130194881889762
11
2.7722056299212596
21
-7.0247724015748032
0
LINE
8
BLACK
6
CONTINUOUS
10
2.7722056299212596
20
-7.0247724015748032
11
2.7791458661417323
21
-7.0358177165354325
0
LINE
8
BLACK
6
CONTINUOUS
10
2.7791458661417323
20
-7.0358177165354325
11
2.7872791338582679
21
-7.046016535433071
0
LINE
8
BLACK
6
CONTINUOUS
10
2.7872791338582679
20
-7.046016535433071
11
2.7965031496062993
21
-7.055240551181102
0
LINE
8
BLACK
6
CONTINUOUS
10
2.7965031496062993
20
-7.055240551181102
11
2.8067019685039369
21
-7.063373818897638
0
LINE
8
BLACK
6
CONTINUOUS
10
2.8067019685039369
20
-7.063373818897638
11
2.8177472834645667
21
-7.0703140551181098
0
LINE
8
BLACK
6
CONTINUOUS
10
2.8177472834645667
20
-7.0703140551181098
11
2.8295001968503937
21
-7.075973976377953
0
LINE
8
BLACK
6
CONTINUOUS
10
2.8295001968503937
20
-7.075973976377953
11
2.8418129527559053
21
-7.0802823622047244
0
LINE
8
BLACK
6
CONTINUOUS
10
2.8418129527559053
20
-7.0802823622047244
11
2.8545306299212596
21
-7.0831851181102357
0
LINE
8
BLACK
6
CONTINUOUS
10
2.8545306299212596
20
-7.0831851181102357
11
2.8674933858267715
21
-7.084645669291338
0
LINE
8
BLACK
6
CONTINUOUS
10
2.8674933858267715
20
-7.084645669291338
11
2.8740157480314958
21
-7.084645669291338
0
LINE
8
BLACK
6
CONTINUOUS
10
2.8740157480314958
20
-7.084645669291338
11
2.8744766929133858
21
-7.084795433070866
0
LINE
8
BLACK
6
CONTINUOUS
10
2.8744766929133858
20
-7.084795433070866
11
5.6692913385826769
21
-7.084645669291338
0
LINE
8
BLACK
6
CONTINUOUS
10
5.6692913385826769
20
-7.084645669291338
11
5.6758137007874012
21
-7.084645669291338
0
LINE
8
BLACK
6
CONTINUOUS
10
5.6758137007874012
20
-7.084645669291338
11
5.6887764566929135
21
-7.0831851181102357
0
LINE
8
BLACK
6
CONTINUOUS
10
5.6887764566929135
20
-7.0831851181102357
11
5.7014941338582679
21
-7.0802823622047244
0
LINE
8
BLACK
6
CONTINUOUS
10
5.7014941338582679
20
-7.0802823622047244
11
5.713806889763779
21
-7.075973976377953
0
LINE
8
BLACK
6
CONTINUOUS
10
5.713806889763779
20
-7.075973976377953
11
5.725559803149606
21
-7.0703140551181098
0
LINE
8
BLACK
6
CONTINUOUS
10
5.725559803149606
20
-7.0703140551181098
11
5.7366051181102362
21
-7.063373818897638
0
LINE
8
BLACK
6
CONTINUOUS
10
5.7366051181102362
20
-7.063373818897638
11
5.7468039370078738
21
-7.055240551181102
0
LINE
8
BLACK
6
CONTINUOUS
10
5.7468039370078738
20
-7.055240551181102
11
5.7560279527559057
21
-7.046016535433071
0
LINE
8
BLACK
6
CONTINUOUS
10
5.7560279527559057
20
-7.046016535433071
11
5.7641612204724408
21
-7.0358177165354325
0
LINE
8
BLACK
6
CONTINUOUS
10
5.7641612204724408
20
-7.0358177165354325
11
5.7711014566929135
21
-7.0247724015748032
0
LINE
8
BLACK
6
CONTINUOUS
10
5.7711014566929135
20
-7.0247724015748032
11
5.7767613779527558
21
-7.0130194881889762
0
LINE
8
BLACK
6
CONTINUOUS
10
5.7767613779527558
20
-7.0130194881889762
11
5.7810697637795272
21
-7.0007067322834642
0
LINE
8
BLACK
6
CONTINUOUS
10
5.7810697637795272
20
-7.0007067322834642
11
5.7839725196850393
21
-6.9879890551181099
0
LINE
8
BLACK
6
CONTINUOUS
10
5.7839725196850393
20
-6.9879890551181099
11
5.7854330708661417
21
-6.9750262992125984
0
LINE
8
BLACK
6
CONTINUOUS
10
5.7854330708661417
20
-6.9750262992125984
11
5.7854330708661417
21
-6.9685039370078741
0
LINE
8
BLACK
6
CONTINUOUS
10
5.7854330708661417
20
-6.9685039370078741
11
5.7855828740157476
21
-6.9680428346456695
0
LINE
8
BLACK
6
CONTINUOUS
10
5.7855828740157476
20
-6.9680428346456695
11
5.7854330708661417
21
-1.4960629921259843
0
LINE
8
BLACK
6
CONTINUOUS
10
5.7854330708661417
20
-1.4960629921259843
11
5.7854330708661417
21
-1.4895406299212599
0
LINE
8
BLACK
6
CONTINUOUS
10
5.7854330708661417
20
-1.4895406299212599
11
5.7839725196850393
21
-1.476577874015748
0
LINE
8
BLACK
6
CONTINUOUS
10
5.7839725196850393
20
-1.476577874015748
11
5.7810697637795272
21
-1.4638601968503937
0
LINE
8
BLACK
6
CONTINUOUS
10
5.7810697637795272
20
-1.4638601968503937
11
5.7767613779527558
21
-1.4515474409448819
0
LINE
8
BLACK
6
CONTINUOUS
10
5.7767613779527558
20
-1.4515474409448819
11
5.7711014566929135
21
-1.4397945275590551
0
LINE
8
BLACK
6
CONTINUOUS
10
5.7711014566929135
20
-1.4397945275590551
11
5.7641612204724408
21
-1.4287492125984251
0
LINE
8
BLACK
6
CONTINUOUS
10
5.7641612204724408
20
-1.4287492125984251
11
5.7560279527559057
21
-1.4185503937007873
0
LINE
8
BLACK
6
CONTINUOUS
10
5.7560279527559057
20
-1.4185503937007873
11
5.7468039370078738
21
-1.4093263779527558
0
LINE
8
BLACK
6
CONTINUOUS
10
5.7468039370078738
20
-1.4093263779527558
11
5.7366051181102362
21
-1.4011931102362205
0
LINE
8
BLACK
6
CONTINUOUS
10
5.7366051181102362
20
-1.4011931102362205
11
5.725559803149606
21
-1.394252874015748
0
LINE
8
BLACK
6
CONTINUOUS
10
5.725559803149606
20
-1.394252874015748
11
5.713806889763779
21
-1.3885929527559056
0
LINE
8
BLACK
6
CONTINUOUS
10
5.713806889763779
20
-1.3885929527559056
11
5.7014941338582679
21
-1.3842845669291339
0
LINE
8
BLACK
6
CONTINUOUS
10
5.7014941338582679
20
-1.3842845669291339
11
5.6887764566929135
21
-1.381381811023622
0
LINE
8
BLACK
6
CONTINUOUS
10
5.6887764566929135
20
-1.381381811023622
11
5.6758137007874012
21
-1.3799212598425197
0
LINE
8
BLACK
6
CONTINUOUS
10
5.6758137007874012
20
-1.3799212598425197
11
5.6692913385826769
21
-1.3799212598425197
0
LINE
8
BLACK
6
CONTINUOUS
10
5.6692913385826769
20
-1.3799212598425197
11
5.6688303543307086
21
-1.3797714566929133
0
LINE
8
BLACK
6
CONTINUOUS
10
5.6688303543307086
20
-1.3797714566929133
11
2.8740157480314958
21
-1.3799212598425197
  0
ENDSEC
  0
EOF
